<?xml version="1.0" encoding="UTF-8" standalone="no"?>
<!-- Generator: Adobe Illustrator 20.1.0, SVG Export Plug-In . SVG Version: 6.00 Build 0)  -->

<svg
   xmlns:dc="http://purl.org/dc/elements/1.1/"
   xmlns:cc="http://creativecommons.org/ns#"
   xmlns:rdf="http://www.w3.org/1999/02/22-rdf-syntax-ns#"
   xmlns:svg="http://www.w3.org/2000/svg"
   xmlns="http://www.w3.org/2000/svg"
   xmlns:sodipodi="http://sodipodi.sourceforge.net/DTD/sodipodi-0.dtd"
   xmlns:inkscape="http://www.inkscape.org/namespaces/inkscape"
   version="1.1"
   id="Ebene_1"
   x="0px"
   y="0px"
   viewBox="0 0 90.1064 90.036003"
   xml:space="preserve"
   sodipodi:docname="anclado.svg"
   width="90.1064"
   height="90.036003"
   inkscape:version="0.92.0 r15299"><metadata
     id="metadata5036"><rdf:RDF><cc:Work
         rdf:about=""><dc:format>image/svg+xml</dc:format><dc:type
           rdf:resource="http://purl.org/dc/dcmitype/StillImage" /><dc:title></dc:title></cc:Work></rdf:RDF></metadata><defs
     id="defs5034" /><sodipodi:namedview
     pagecolor="#ffffff"
     bordercolor="#666666"
     borderopacity="1"
     objecttolerance="10"
     gridtolerance="10"
     guidetolerance="10"
     inkscape:pageopacity="0"
     inkscape:pageshadow="2"
     inkscape:window-width="1366"
     inkscape:window-height="705"
     id="namedview5032"
     showgrid="false"
     fit-margin-top="0"
     fit-margin-left="0"
     fit-margin-right="0"
     fit-margin-bottom="0"
     inkscape:zoom="1.84375"
     inkscape:cx="64"
     inkscape:cy="64"
     inkscape:window-x="-8"
     inkscape:window-y="-8"
     inkscape:window-maximized="1"
     inkscape:current-layer="Ebene_1" /><style
     type="text/css"
     id="style5008">
	.st0{fill:#A5A5A4;}
	.st1{display:none;opacity:0.2;fill:#3A3C3B;enable-background:new    ;}
	.st2{display:none;fill:#FFFFFF;}
</style><g
     id="RSSvgBackground"
     transform="matrix(0.70395622,0,0,0.70395622,0,-0.07039562)"><path
       class="st0"
       d="m 56.9,56.7 c -0.6,3.8 0.6,7.8 3.5,10.7 2.9,2.9 6.9,4.1 10.7,3.5 0.6,-3.8 -0.6,-7.8 -3.5,-10.7 -2.9,-2.9 -6.9,-4 -10.7,-3.5 z"
       id="path5010"
       inkscape:connector-curvature="0"
       style="fill:#a5a5a4" /><path
       class="st0"
       d="M 49.2,61 32.6,77.6 c -4.8,4.8 -4.8,12.7 0,17.5 4.8,4.8 12.7,4.8 17.6,0 L 66.8,78.6 C 62.5,78.1 58.3,76.2 55,72.9 51.6,69.6 49.7,65.4 49.2,61 Z"
       id="path5012"
       inkscape:connector-curvature="0"
       style="fill:#a5a5a4" /><path
       class="st0"
       d="M 77.8,32.5 61.2,49 c 4.3,0.5 8.5,2.4 11.8,5.7 3.3,3.3 5.2,7.5 5.7,11.8 L 95.3,50 c 4.8,-4.8 4.8,-12.7 0,-17.5 -4.8,-4.8 -12.7,-4.8 -17.5,0 z"
       id="path5014"
       inkscape:connector-curvature="0"
       style="fill:#a5a5a4" /><path
       class="st0"
       d="M 64,0.1 C 28.7,0.1 0,28.7 0,64 0,99.3 28.6,128 64,128 99.4,128 128,99.4 128,64 128,28.7 99.3,0.1 64,0.1 Z m 36.8,55.4 -17.4,17.4 c -1.8,1.8 -3.9,3.2 -6.2,4.2 -1,2.2 -2.4,4.3 -4.2,6.2 l -17.4,17.4 c -7.9,7.8 -20.6,7.8 -28.5,0 -7.9,-7.8 -7.9,-20.6 0,-28.4 L 44.5,54.9 c 1.8,-1.8 3.9,-3.2 6.2,-4.2 1,-2.2 2.4,-4.3 4.2,-6.2 L 72.3,27 c 7.9,-7.8 20.6,-7.8 28.5,0 7.8,7.9 7.8,20.7 0,28.5 z"
       id="path5016"
       inkscape:connector-curvature="0"
       style="fill:#a5a5a4" /></g><g
     id="RSSvgShadow"
     transform="translate(0,-37.964)"><path
       class="st1"
       d="m 71.1,70.9 c 0.6,-3.8 -0.6,-7.8 -3.5,-10.7 -2.9,-2.9 -6.9,-4.1 -10.7,-3.5 -0.6,3.8 0.6,7.8 3.5,10.7 2.9,2.9 6.9,4.1 10.7,3.5 z"
       id="path5019"
       inkscape:connector-curvature="0"
       style="display:none;opacity:0.2;fill:#3a3c3b;enable-background:new" /><path
       class="st1"
       d="M 50.2,95.1 66.8,78.6 C 62.5,78.1 58.3,76.2 55,72.9 51.7,69.6 49.8,65.4 49.3,61.1 L 32.6,77.6 c -4.8,4.8 -4.8,12.7 0,17.5 4.9,4.9 12.8,4.9 17.6,0 z"
       id="path5021"
       inkscape:connector-curvature="0"
       style="display:none;opacity:0.2;fill:#3a3c3b;enable-background:new" /><path
       class="st1"
       d="M 78.8,66.6 95.3,50 c 4.8,-4.8 4.8,-12.7 0,-17.5 -4.8,-4.8 -12.7,-4.8 -17.6,0 L 61.2,49 c 4.3,0.5 8.5,2.4 11.8,5.7 3.4,3.4 5.3,7.6 5.8,11.9 z"
       id="path5023"
       inkscape:connector-curvature="0"
       style="display:none;opacity:0.2;fill:#3a3c3b;enable-background:new" /><path
       class="st1"
       d="m 127,53.3 c 0,0 -26.2,-26.2 -26.3,-26.3 7.9,7.8 7.9,20.6 0,28.5 L 83.4,72.9 c -1.8,1.8 -3.9,3.2 -6.2,4.2 -1,2.2 -2.4,4.3 -4.2,6.2 l -17.4,17.4 c -7.9,7.8 -20.6,7.8 -28.5,0 0.1,0.1 26.5,26.5 26.6,26.6 3.3,0.5 6.7,0.8 10.2,0.8 35.3,0 64,-28.6 64,-64 0.1,-3.7 -0.3,-7.3 -0.9,-10.8 z"
       id="path5025"
       inkscape:connector-curvature="0"
       style="display:none;opacity:0.2;fill:#3a3c3b;enable-background:new" /></g><g
     id="RSSvgIcon"
     transform="translate(0,-37.964)"><path
       class="st2"
       d="M 100.8,27 C 92.9,19.2 80.2,19.2 72.3,27 L 54.9,44.4 c -1.8,1.8 -3.2,3.9 -4.2,6.2 -2.2,1 -4.3,2.4 -6.2,4.2 L 27.2,72.1 c -7.9,7.8 -7.9,20.6 0,28.4 7.9,7.8 20.6,7.8 28.5,0 L 73.1,83.1 c 1.8,-1.8 3.2,-3.9 4.2,-6.2 2.2,-1 4.3,-2.4 6.2,-4.2 l 17.4,-17.4 c 7.7,-7.6 7.7,-20.4 -0.1,-28.3 z M 71.1,70.9 c -3.8,0.6 -7.8,-0.6 -10.7,-3.5 -2.9,-2.9 -4.1,-6.9 -3.5,-10.7 3.8,-0.6 7.8,0.6 10.7,3.5 2.9,2.9 4.1,6.9 3.5,10.7 z M 50.2,95.1 c -4.8,4.8 -12.7,4.8 -17.6,0 -4.8,-4.8 -4.8,-12.7 0,-17.5 L 49.2,61 c 0.5,4.3 2.4,8.5 5.7,11.8 3.3,3.3 7.5,5.2 11.8,5.7 z M 95.3,50 78.8,66.6 C 78.3,62.3 76.4,58.1 73.1,54.8 69.8,51.5 65.6,49.6 61.3,49.1 L 77.9,32.6 c 4.8,-4.8 12.7,-4.8 17.6,0 4.7,4.7 4.7,12.6 -0.2,17.4 z"
       id="path5028"
       inkscape:connector-curvature="0"
       style="display:none;fill:#ffffff" /></g></svg>