<?xml version="1.0" encoding="utf-8"?>
<!-- Generator: Adobe Illustrator 20.1.0, SVG Export Plug-In . SVG Version: 6.00 Build 0)  -->
<svg version="1.1" id="Ebene_1" xmlns="http://www.w3.org/2000/svg" xmlns:xlink="http://www.w3.org/1999/xlink" x="0px" y="0px"
	 viewBox="0 0 841.9 595.3" style="enable-background:new 0 0 841.9 595.3;" xml:space="preserve">
<g>
	<path d="M473.2,358.5v-91.3c0-33.8-20.4-55.6-52-55.6c-23.9,0.3-41.6,11.3-50.9,32.8c-7.2-20.4-24.7-32.8-48.3-32.8
		c-21.2,0.3-37.8,8.9-47.7,26v-23.9h-46.1v144.7h46.1v-71.7c0-19.6,11-33.8,28.7-34.4c15.3,0,24.7,10.5,24.7,27.7v78.4H374v-71.7
		c0-19.6,10.7-33.8,28.2-34.4c15.3,0,24.9,10.5,24.9,27.7v78.4H473.2z"/>
	<g>
		<path d="M333.3,466.3H314v44.3h11.2v-12.5h8c11.3,0,17.8-6,17.8-16.4C351.1,471.8,344.6,466.3,333.3,466.3z M332.7,489.2h-7.5
			v-14.1h7.5c4.9,0,7.8,2.3,7.8,7C340.5,486.8,337.6,489.2,332.7,489.2z"/>
	</g>
	<path d="M286.9,466.5h-76.4c-2.3,0-4.2,1.9-4.2,4.2c0,2.3,1.9,4.2,4.2,4.2h76.4c2.3,0,4.2-1.9,4.2-4.2
		C291.1,468.4,289.2,466.5,286.9,466.5z"/>
	<g>
		<path d="M482.7,495.9c5.2-2.6,8-7.5,8-14.2c0-9.9-6.7-15.4-18.4-15.4h-19.8v44.3h11.2v-12.5h8.5h0.3l6.6,12.5H492L482.7,495.9z
			 M472.3,489.2h-8.5v-14.1h8.5c4.9,0,7.7,2.3,7.7,7C480,486.8,477.2,489.2,472.3,489.2z"/>
	</g>
	<polygon points="394.7,492.8 415.8,492.8 415.8,483.9 394.7,483.9 394.7,475.1 418.1,475.1 418.1,466.3 383.5,466.3 383.5,510.6 
		418.8,510.6 418.8,501.7 394.7,501.7 	"/>
	<path d="M669.9,88.8H211.3c-2.3,0-4.2,1.9-4.2,4.2c0,2.3,1.9,4.2,4.2,4.2h458.6c2.3,0,4.2-1.9,4.2-4.2
		C674.1,90.7,672.2,88.8,669.9,88.8z"/>
	<path d="M665.1,466.5h-75.6c-2.3,0-4.2,1.9-4.2,4.2c0,2.3,1.9,4.2,4.2,4.2h75.6c2.3,0,4.2-1.9,4.2-4.2
		C669.3,468.4,667.4,466.5,665.1,466.5z"/>
	<path d="M553.4,492c0,6-3.6,9.7-8.9,9.7c-5.4,0-9.2-3.7-9.2-9.7v-25.7H524V492c0,11.7,8,19.1,20.4,19.1c12.4,0,20.1-7.4,20.1-19.1
		v-25.7h-11.2V492z"/>
	<path d="M507.5,213.8v196.8h46.4v-71.4c10.2,13.4,25.5,20.9,44.2,20.9c40.5,0,66.8-29.3,66.8-73.3c0-44.8-27.1-74.6-67.8-74.6
		c-18.2,0-33,7.5-43.2,20.7v-19.1H507.5z M585.8,247.9c19.3,0,32.4,15.6,32.4,37.6c0,22.3-13.1,37.9-32.4,37.9
		c-18.8,0-31.9-15.3-31.9-37.9C553.9,263.4,567.1,247.9,585.8,247.9z"/>
</g>
</svg>
