<?xml version="1.0" encoding="iso-8859-1"?>
<!-- Generator: Adobe Illustrator 16.0.0, SVG Export Plug-In . SVG Version: 6.00 Build 0)  -->
<!DOCTYPE svg PUBLIC "-//W3C//DTD SVG 1.1//EN" "http://www.w3.org/Graphics/SVG/1.1/DTD/svg11.dtd">
<svg version="1.1" id="Capa_1" xmlns="http://www.w3.org/2000/svg" xmlns:xlink="http://www.w3.org/1999/xlink" x="0px" y="0px"
	 width="155px" height="47.53px" viewBox="0 0 155 47.53" style="enable-background:new 0 0 155 47.53;" xml:space="preserve">
<path style="fill:#EB3524;" d="M109.868,21.639c0,0-0.153-15.276-0.169-17.425c-0.002-0.222,9.132,1.16,19.164,1.042
	c0.777,0.131,3.971-0.03,4.771,0.016c1.319,0.075,18.55-1.583,19.104-1.742c0.216-0.062-0.358,16.509-0.358,16.509
	s-0.163,4.236-0.201,4.615c-0.363,3.518,0.724,16.985,0.668,17.255c-0.055,0.269-16.616,1.134-17.487,1.241
	c-0.871,0.109-4.29,0.063-4.29,0.063l-1.259-0.031c0,0-21.245-0.409-21.309-0.667c-0.094-0.378,1.502-14.58,1.367-17.519
	C109.846,24.515,109.868,21.639,109.868,21.639"/>
<path style="fill:#FFFFFF;" d="M128.766,4.41c0,0,4.031-0.501,5.057-0.396c0,0-0.916,8.942-1.586,19.151
	c0,0,7.523-0.302,12.93-1.646c5.409-1.342,8.767-1.779,8.767-1.779S153.696,23.1,154,24.61c0,0-15.416,0.907-16.188,0.94
	c-0.771,0.034-5.744,0.168-5.744,0.168l-0.671,9.069c0,0-0.217,0.838,0.638,0.319l4.233-2.402c0,0,1.846-0.94,1.678,0.101
	c-0.168,1.042-1.947,7.928-1.947,7.928s-0.101,1.409,1.31,0.638l2.016-1.042c0,0,0.654-0.487,0.654,0.118
	c0,0,0.118,2.031,1.697,1.998c1.813-0.039,2.314-1.396,2.355-1.982c0.045-0.597-0.089-1.175-1.23-1.83
	c-1.353-0.774-1.782-1.065-1.815-2.384c-0.049-1.954,2.038-3.385,2.732-3.648c0.63-0.238,2.746-0.771,3.432,0.272
	c0.065,0.101-0.134,0.301-0.134,0.301l-0.757,0.942c0,0-0.251,0.387-0.52,0.117c-0.501-0.5-1.338-1.122-2.283-0.772
	c-1.161,0.428-1.18,1.461-1.145,1.797c0.061,0.513,0.657,1.122,1.546,1.729c0.324,0.221,2.218,1.059,1.814,2.704
	c0,0-1.06,3.038-3.627,3.391c-2.724,0.376-3.259-0.469-3.46-0.805c-0.202-0.336-0.186-0.756-0.42-0.722
	c-0.235,0.032-0.822,0.419-0.822,0.419l-2.25,1.578c0,0-0.706,0.453-1.11-0.085c0,0-0.165-0.957,0.135-2.131
	c0.305-1.176,1.513-5.911,1.513-5.911s0.42-1.395-0.571-1.142c0,0-2.151,0.721-3.695,2.014l-0.268,8.195l-1.344,0.47V40.58
	l-5.607,3.106c0,0-1.008,0.271-1.076-0.569c-0.066-0.84,1.208-6.247,1.208-6.247s0.322-2.073,0.12-2.207c0,0-0.172-0.261-0.69-0.077
	c0,0-0.535,0.302-0.62,0.353c-0.084,0.05-0.544,0.333-0.665,0.127c-0.043-0.072,0.002-0.291,0.238-0.479
	c0.25-0.195,1.979-1.291,1.979-1.291s0.538-0.373,0.779-0.49c0.273-0.13,0.502-0.227,0.676-0.318
	c0.195-0.105,0.747-0.347,0.716,0.34c-0.033,0.759-0.733,3.824-0.733,3.824s-0.791,3.694-0.791,3.796
	c0,0.101-0.233,1.007,0.285,1.16c0.523,0.148,0.842-0.086,1.161-0.204c0.317-0.117,1.494-0.704,1.494-0.704l1.476-0.724l0.018-6.9
	l-0.083-7.339c0,0-9.522-0.067-10.378-0.168c-0.857-0.102-10.865-0.487-10.865-0.487s0.235-2.955,0.017-3.593
	c0,0,7.372,0.838,8.012,0.923c0.638,0.083,9.737,0.806,10.661,0.789l2.469-0.018l-0.184-6.347L128.766,4.41z"/>
<path style="fill:#FFFFFF;" d="M140.486,11.047c0.148,0.136,0.284,0.438-0.042,0.433c-0.239-0.005-0.23-0.287-0.271-0.393
	l-0.275-1.558c0,0-0.032-0.081-0.092-0.091c-0.061-0.009-0.07,0.085-0.07,0.138c0,0.05,0.249,1.749,0.249,1.749
	s0.01,0.456-0.259,0.119c-0.267-0.335-0.723-1.742-0.734-1.762c-0.051-0.085-0.211-0.163-0.193,0.054
	c0.018,0.219,0.598,1.615,0.657,1.837c0.063,0.222-0.213,0.325-0.36,0.141c-0.146-0.184-0.898-1.288-0.955-1.361
	c-0.06-0.081-0.262-0.077-0.168,0.111c0.092,0.187,0.921,1.349,0.921,1.349s0.064,0.288-0.137,0.301
	c-0.223,0.013-0.411-0.02-0.437-0.224c-0.026-0.205-0.017-0.496-0.153-0.496s-0.358,0.026-0.427-0.025
	c-0.068-0.051-0.05-0.236-0.087-0.385c-0.019-0.074-0.307-0.327-0.387-0.327c-0.088,0-0.167-0.014-0.141,0.098
	c0.024,0.11,0.219,0.203,0.255,0.264c0.034,0.06-0.108,0.427,0.097,0.504s0.545-0.008,0.536,0.137
	c-0.007,0.146-0.104,0.538,0.11,0.673c0.214,0.139,0.405-0.021,0.409,0.147c0.003,0.114-0.175,0.219-0.423,0.117
	c-0.248-0.104-1.458-0.953-1.458-0.953s-0.202-0.064-0.078,0.104c0.192,0.265,1.401,1.009,1.401,1.009s0.316,0.338-0.03,0.383
	c-0.325,0.041-1.145-0.397-1.145-0.397s-0.524-0.255-0.682-0.271c-0.156-0.017-0.19,0.121-0.104,0.177
	c0.088,0.054,0.991,0.455,0.991,0.455l0.641,0.299c0,0,0.306,0.209,0.136,0.299c-0.168,0.089-0.358,0.034-0.581,0.007l-1.262-0.202
	c0,0-0.298-0.066-0.281,0.104c0,0,0.022,0.129,0.214,0.129l1.656,0.226c0,0,0.234,0.076,0.115,0.174
	c-0.115,0.096-0.306,0.076-0.387,0.317c-0.03,0.099-0.383,0.095-0.366-0.116s-0.293-0.292-0.383-0.135
	c-0.111,0.191-0.194,0.229-0.263,0.237c-0.376,0.051-0.209-0.257-0.527-0.22c-0.105,0.012-0.236,0.217-0.161,0.285
	c0.079,0.067,0.199,0.028,0.262-0.004c0.063-0.033,0.138,0.05,0.162,0.093c0.026,0.043,0.241,0.347,0.478,0.06
	c0.229-0.271,0.327-0.171,0.368-0.034c0.044,0.137,0.159,0.396,0.372,0.26c0.199-0.126,0.428-0.106,0.462-0.047
	c0.036,0.06,0.018,0.177-0.116,0.215l-1.673,0.332c0,0-0.272,0.054-0.247,0.141c0.025,0.082,0.145,0.085,0.3,0.051
	c0.17-0.037,1.541-0.205,1.75-0.242c0.205-0.038,0.358,0.107,0.151,0.298c-0.205,0.192-0.854,0.41-0.854,0.41
	s-0.84,0.354-0.897,0.383c-0.054,0.025-0.193,0.113-0.188,0.182c0.006,0.065,0.063,0.115,0.19,0.077
	c0.128-0.04,1.57-0.642,1.57-0.642s0.304-0.125,0.384-0.051c0,0,0.094,0.094-0.034,0.222l-1.385,0.977c0,0-0.146,0.121-0.171,0.164
	c-0.027,0.042-0.107,0.201,0.157,0.104l1.472-0.948c0,0,0.18-0.156,0.259-0.156c0.078,0,0.126,0.104,0.077,0.147
	c-0.051,0.042-0.106,0.095-0.09,0.214c0.018,0.119,0.128,0.336,0,0.361s-0.555-0.012-0.65,0.042c-0.08,0.046-0.082,0.224-0.126,0.36
	s-0.218,0.17-0.362,0.235c-0.144,0.069-0.146,0.148-0.154,0.303c-0.008,0.152-0.058,0.264-0.015,0.288s0.194,0.033,0.194-0.138
	c0-0.169,0.049-0.268,0.081-0.276c0.064-0.02,0.379,0.014,0.411-0.094c0.042-0.134,0.039-0.413,0.148-0.431
	c0.112-0.017,0.699,0.034,0.725-0.179c0.026-0.214,0.018-0.453,0.112-0.462c0.093-0.008,0.358,0.098,0.239,0.436l-0.946,1.339
	c0,0-0.125,0.171-0.13,0.222c-0.006,0.049,0.036,0.156,0.176,0.029c0.139-0.129,0.994-1.275,0.994-1.275s0.264-0.308,0.478-0.146
	c0,0,0.12,0.104-0.043,0.427c0,0-0.489,1.17-0.53,1.271c-0.063,0.156-0.067,0.114-0.118,0.307c-0.045,0.181,0.11,0.175,0.137,0.157
	c0.091-0.061,0.139-0.185,0.22-0.367l0.558-1.384c0,0,0.129-0.282,0.212-0.282c0,0,0.299-0.085,0.222,0.248l-0.246,1.733
	c0,0-0.028,0.206,0.058,0.206c0,0,0.082,0.022,0.131-0.151c0.027-0.104,0.248-1.788,0.248-1.788s0.049-0.193,0.152-0.084
	c0.114,0.118,0.035,0.264,0.118,0.35c0.085,0.085,0.301,0.093,0.284,0.188c-0.02,0.094-0.128,0.229-0.25,0.272
	c-0.117,0.042-0.256,0.299-0.034,0.461c0.224,0.162,0.271,0.116,0.198,0.307c-0.073,0.193-0.172,0.547-0.068,0.624
	c0.102,0.077,0.195,0.025,0.195-0.103s0.053-0.356,0.121-0.441c0.089-0.112,0.111-0.362-0.076-0.45
	c-0.179-0.083-0.319-0.196-0.139-0.287c0.164-0.08,0.395-0.263,0.307-0.479c-0.068-0.168-0.331-0.304-0.273-0.503
	c0.023-0.07,0.247-0.145,0.344-0.033c0.094,0.111,0.171,0.468,0.171,0.468l0.282,1.426c0,0,0.023,0.141,0.063,0.186
	c0.051,0.055,0.167,0.028,0.205-0.046c0.073-0.135-0.177-1.206-0.177-1.206s-0.18-0.815-0.162-0.938
	c0.016-0.124,0.199-0.222,0.315-0.128c0.116,0.092,0.48,1.247,0.48,1.247s0.274,0.706,0.339,0.75c0.066,0.043,0.29,0.065,0.225-0.19
	c-0.003-0.016-0.702-1.723-0.702-1.723s-0.111-0.271,0.017-0.306c0,0,0.139,0,0.231,0.145c0.096,0.146,1.067,1.484,1.067,1.484
	s0.104,0.123,0.153,0.137c0.049,0.015,0.154-0.024,0.034-0.205l-1.067-1.531c0,0-0.065-0.168,0.051-0.141
	c0.068,0.016,0.116,0.132,0.242,0.099c0.129-0.034,0.179-0.163,0.297-0.132c0.121,0.036,0.173,0.113,0.173,0.207
	c0,0.095-0.116,0.411,0.065,0.553c0.145,0.11,0.299,0.04,0.351,0.006c0.054-0.034,0.285-0.117,0.281,0.001
	c-0.008,0.176,0.049,0.392,0.143,0.495c0.095,0.102,0.199-0.008,0.166-0.103c-0.035-0.094-0.076-0.329-0.076-0.364
	c0-0.034-0.07-0.301-0.2-0.311c-0.126-0.007-0.39,0.051-0.45-0.007c-0.06-0.061,0.066-0.19,0.082-0.316
	c0.032-0.232-0.159-0.445-0.366-0.445c-0.205,0-0.325,0.039-0.394-0.021c-0.07-0.06,0.012-0.431,0.233-0.396
	c0.223,0.032,1.68,0.991,1.803,1.033c0.08,0.026,0.19,0.024,0.162-0.119c-0.036-0.164-1.683-1.002-1.733-1.067
	c-0.088-0.117-0.088-0.287-0.007-0.356c0.097-0.085,0.257-0.072,0.423,0.015c0,0,1.539,0.611,1.605,0.652
	c0.064,0.04,0.174,0.033,0.204-0.006c0.048-0.057-0.048-0.153-0.118-0.169c-0.071-0.014-1.725-0.742-1.859-0.776
	c-0.138-0.036-0.229-0.287-0.057-0.321c0.17-0.034,2.009,0.301,2.105,0.299c0.189-0.004,0.186-0.168,0.065-0.197
	c-0.089-0.021-1.763-0.288-1.845-0.323s-0.146-0.111-0.076-0.26c0.072-0.148,0.332-0.313,0.555-0.211
	c0.132,0.061,0.353,0.37,0.55,0.168c0.139-0.143,0.339-0.163,0.504-0.038c0.091,0.069,0.271,0.09,0.373,0.064
	c0.231-0.055,0.301-0.202,0.222-0.274c-0.058-0.054-0.212-0.073-0.299-0.051c-0.12,0.034-0.23-0.024-0.324-0.111
	c-0.093-0.085-0.257-0.102-0.349-0.008c-0.096,0.095-0.138,0.213-0.265,0.162c-0.128-0.052-0.275-0.306-0.454-0.306
	c-0.178,0-0.34,0.015-0.478,0.135c-0.104,0.091-0.256,0.026-0.292-0.017c-0.031-0.043,0-0.146,0.147-0.205
	c0.145-0.059,2.006-0.397,2.066-0.428c0.059-0.028,0.067-0.11,0.041-0.135c-0.024-0.026-0.024-0.043-0.094-0.043
	c-0.068,0-1.816,0.309-1.963,0.332c-0.145,0.025-0.301-0.021-0.35-0.103c-0.048-0.08,0.043-0.229,0.333-0.333
	c0.289-0.102,1.706-0.661,1.766-0.733c0.063-0.071,0.019-0.204-0.122-0.175c-0.14,0.03-1.675,0.642-1.779,0.696
	c-0.108,0.053-0.258,0.001-0.268-0.085c-0.007-0.085,0.173-0.233,0.239-0.285c0.069-0.051,1.381-0.86,1.435-0.902
	c0.09-0.068,0.028-0.256-0.12-0.151c-0.147,0.104-1.573,1.004-1.573,1.004s-0.126,0.073-0.158-0.005
	c-0.078-0.178,0.086-0.256,0.052-0.475c-0.011-0.076-0.085-0.322,0.196-0.305c0.281,0.017,0.47-0.137,0.47-0.324
	c0-0.188,0.077-0.307,0.152-0.307c0.078,0,0.44-0.118,0.472-0.243c0.054-0.225-0.011-0.39-0.086-0.39
	c-0.077,0-0.137,0.082-0.113,0.195c0.025,0.114-0.051,0.123-0.1,0.155c-0.074,0.051-0.572-0.062-0.589,0.178
	c-0.018,0.238,0.017,0.394-0.231,0.443c-0.247,0.051-0.51-0.026-0.544,0.315c-0.035,0.344,0.066,0.483-0.146,0.444
	c-0.217-0.037-0.417-0.195-0.239-0.511c0.239-0.428,1.214-1.446,1.25-1.509c0.037-0.065,0.046-0.146-0.002-0.182
	c0,0-0.032-0.025-0.152,0.065c0,0-1.24,1.494-1.314,1.56c-0.068,0.059-0.37,0.1-0.26-0.217c0,0,0.82-1.512,0.837-1.579
	c0.021-0.064-0.027-0.171-0.133-0.066c-0.142,0.141-0.892,1.541-0.892,1.541s-0.191,0.31-0.279,0.076
	c-0.102-0.265,0.385-1.924,0.399-1.995c0.011-0.068-0.077-0.18-0.154-0.034c0,0-0.387,1.624-0.47,1.818
	c-0.082,0.192-0.265,0.131-0.245-0.066c0.015-0.197-0.161-0.173-0.271-0.182c-0.11-0.008-0.105-0.216,0.046-0.286
	c0.154-0.066,0.373-0.319,0.228-0.465c-0.146-0.145-0.356-0.384-0.235-0.486c0.136-0.113,0.122-0.351,0.074-0.437
	c-0.027-0.056-0.052-0.085-0.092-0.144c-0.022-0.035-0.109-0.095-0.171-0.052c-0.061,0.042-0.039,0.088,0.038,0.14
	c0.077,0.053,0.112,0.285,0.004,0.345c-0.139,0.076-0.324,0.292-0.151,0.472c0.171,0.18,0.27,0.422,0.127,0.479
	C140.611,10.622,140.337,10.909,140.486,11.047"/>
<path style="fill:#FFFFFF;" d="M126.353,28.539l-1.355,0.785c0,0-0.246,0.068-0.142,0.54s0.479,1.101,0.534,1.205
	c0.051,0.105,0.215,0.224,0.611-0.046c0.396-0.269,1.177-0.695,1.177-0.695s0.164-0.149,0.043-0.479l-0.388-1.355
	c0,0-0.076-0.209-0.256-0.097C126.397,28.508,126.353,28.539,126.353,28.539"/>
<path style="fill:#231F20;" d="M7.938,28.933c0,0.754-0.156,1.451-0.467,2.092c-0.313,0.641-0.794,1.16-1.449,1.56
	c-0.654,0.399-1.466,0.6-2.432,0.6H1.483v-3.135h1.423c0.884,0,1.324-0.447,1.324-1.339V12.751h3.707V28.933z M8.396,8.557
	c0,0.649-0.222,1.204-0.669,1.658c-0.444,0.455-0.994,0.683-1.644,0.683c-0.643,0-1.192-0.229-1.651-0.69
	c-0.461-0.46-0.69-1.01-0.69-1.65c0-0.642,0.229-1.188,0.69-1.637c0.459-0.451,1.009-0.678,1.651-0.678
	c0.334,0,0.638,0.06,0.913,0.175c0.272,0.115,0.517,0.28,0.73,0.494c0.214,0.215,0.379,0.458,0.495,0.733
	C8.34,7.916,8.396,8.223,8.396,8.557"/>
<path style="fill:#231F20;" d="M24.285,21.338h-9.312c0,0.974,0.292,1.771,0.873,2.389c0.581,0.618,1.378,0.929,2.39,0.929
	c0.789,0,1.422-0.108,1.896-0.321c0.473-0.214,0.966-0.572,1.477-1.072l2.244,2.188c-0.808,0.809-1.634,1.4-2.479,1.776
	c-0.847,0.376-1.901,0.564-3.165,0.564c-2.006,0-3.655-0.578-4.947-1.736c-1.292-1.156-1.939-3.119-1.939-5.887
	c0-1.571,0.271-2.93,0.812-4.077c0.538-1.146,1.297-2.019,2.278-2.613c0.978-0.595,2.11-0.894,3.394-0.894
	c1.338,0,2.497,0.304,3.478,0.908c0.979,0.603,1.726,1.452,2.235,2.543c0.511,1.092,0.767,2.312,0.767,3.659V21.338z M20.634,18.801
	c-0.028-0.595-0.144-1.13-0.348-1.603c-0.202-0.456-0.519-0.825-0.941-1.108c-0.423-0.284-0.935-0.426-1.539-0.426
	c-0.586,0-1.093,0.142-1.522,0.426c-0.427,0.283-0.746,0.652-0.959,1.108c-0.205,0.51-0.32,1.045-0.351,1.603H20.634z"/>
<path style="fill:#231F20;" d="M38.893,22.94c0,1.58-0.588,2.782-1.764,3.609c-1.175,0.827-2.687,1.241-4.536,1.241
	c-0.901,0-1.702-0.053-2.398-0.154c-0.695-0.102-1.378-0.309-2.048-0.619c-0.67-0.313-1.3-0.766-1.896-1.36l2.426-2.424
	c0.931,0.928,2.253,1.393,3.973,1.393c0.705,0,1.318-0.128,1.84-0.384c0.52-0.255,0.779-0.642,0.779-1.163
	c0-0.808-0.519-1.263-1.559-1.366l-2.342-0.223c-1.415-0.148-2.491-0.554-3.233-1.212c-0.745-0.66-1.116-1.646-1.116-2.955
	c0-1.478,0.556-2.637,1.666-3.478c1.108-0.841,2.47-1.262,4.077-1.262c2.555,0,4.449,0.581,5.687,1.743l-2.286,2.314
	c-0.743-0.671-1.896-1.004-3.456-1.004c-0.698,0-1.227,0.134-1.583,0.403c-0.357,0.271-0.536,0.609-0.536,1.018
	c0,0.771,0.516,1.197,1.546,1.282l2.343,0.236c0.976,0.104,1.793,0.334,2.446,0.698c0.655,0.362,1.148,0.856,1.476,1.483
	C38.727,21.385,38.893,22.112,38.893,22.94"/>
<path style="fill:#231F20;" d="M54.196,27.623h-3.624v-1.372c-0.976,1.027-2.211,1.54-3.708,1.54c-1.468,0-2.638-0.438-3.514-1.311
	c-0.556-0.558-0.948-1.184-1.176-1.876c-0.228-0.691-0.342-1.473-0.342-2.347v-9.506h3.707v8.979c0,0.946,0.242,1.636,0.726,2.068
	c0.484,0.432,1.063,0.646,1.743,0.646c0.687,0,1.272-0.215,1.756-0.646c0.482-0.433,0.724-1.122,0.724-2.068v-8.979h3.708V27.623z"
	/>
<path style="fill:#231F20;" d="M62.545,8.557c0,0.651-0.223,1.202-0.669,1.659c-0.447,0.454-0.996,0.683-1.644,0.683
	c-0.643,0-1.192-0.229-1.654-0.69c-0.459-0.459-0.688-1.012-0.688-1.651c0-0.641,0.229-1.187,0.688-1.638
	c0.462-0.45,1.012-0.676,1.654-0.676c0.334,0,0.638,0.059,0.912,0.175c0.273,0.115,0.518,0.279,0.731,0.495
	c0.213,0.214,0.378,0.457,0.495,0.729C62.487,7.918,62.545,8.223,62.545,8.557 M62.084,27.623h-3.707V12.752h3.707V27.623z"/>
<path style="fill:#231F20;" d="M72.9,27.623h-2.035c-0.948,0-1.747-0.199-2.396-0.601c-0.65-0.396-1.132-0.917-1.443-1.558
	c-0.311-0.639-0.469-1.336-0.469-2.088v-7.365h-1.572v-2.828h1.572V8.779h3.709v4.404H72.9v2.828h-2.635v7.126
	c0,0.9,0.428,1.349,1.284,1.349H72.9V27.623z"/>
<path style="fill:#231F20;" d="M87.507,27.624h-3.625v-1.283c-0.482,0.501-1.005,0.863-1.565,1.087
	c-0.564,0.224-1.257,0.335-2.084,0.335c-0.828,0-1.558-0.11-2.189-0.327c-0.633-0.219-1.167-0.546-1.604-0.984
	c-0.817-0.835-1.227-1.95-1.227-3.344c0-0.799,0.188-1.525,0.564-2.181c0.377-0.655,0.944-1.173,1.699-1.555
	c0.76-0.381,1.694-0.571,2.81-0.571H83.8v-0.739c0-0.827-0.216-1.423-0.648-1.791c-0.432-0.366-1.137-0.551-2.111-0.551
	c-0.706,0-1.257,0.09-1.651,0.265c-0.396,0.178-0.799,0.498-1.207,0.962l-2.369-2.313c0.688-0.771,1.437-1.307,2.244-1.604
	c0.809-0.298,1.851-0.445,3.121-0.445c2.083,0,3.656,0.44,4.725,1.323c1.069,0.884,1.604,2.194,1.604,3.932V27.624z M83.8,22.146
	v-0.808h-2.941c-0.659,0-1.171,0.147-1.534,0.445c-0.362,0.297-0.543,0.71-0.543,1.241c0,0.537,0.179,0.958,0.538,1.26
	c0.355,0.303,0.888,0.453,1.596,0.453c0.548,0,0.998-0.046,1.351-0.138c0.354-0.093,0.683-0.284,0.99-0.572
	C83.617,23.692,83.8,23.065,83.8,22.146"/>
<path style="fill:#231F20;" d="M102.698,22.94c0,1.58-0.587,2.782-1.763,3.609c-1.177,0.827-2.688,1.241-4.535,1.241
	c-0.903,0-1.702-0.053-2.398-0.154c-0.697-0.102-1.381-0.309-2.05-0.619c-0.669-0.313-1.301-0.766-1.894-1.36l2.424-2.424
	c0.93,0.928,2.253,1.393,3.972,1.393c0.708,0,1.319-0.128,1.84-0.384c0.521-0.255,0.782-0.642,0.782-1.163
	c0-0.808-0.521-1.263-1.563-1.366l-2.341-0.223c-1.412-0.148-2.49-0.554-3.233-1.212c-0.741-0.66-1.114-1.646-1.114-2.955
	c0-1.478,0.555-2.637,1.666-3.478c1.109-0.841,2.468-1.262,4.075-1.262c2.555,0,4.45,0.581,5.687,1.743l-2.285,2.314
	c-0.743-0.671-1.894-1.004-3.457-1.004c-0.696,0-1.224,0.134-1.582,0.403c-0.358,0.271-0.535,0.609-0.535,1.018
	c0,0.771,0.515,1.197,1.546,1.282l2.343,0.236c0.975,0.104,1.791,0.334,2.445,0.698c0.653,0.362,1.146,0.856,1.479,1.483
	C102.533,21.385,102.698,22.112,102.698,22.94"/>
<path style="fill:#231F20;" d="M58.743,36.905v0.331c0,0.43-0.016,0.816-0.046,1.158c-0.031,0.341-0.104,0.672-0.218,0.997
	c-0.112,0.322-0.287,0.597-0.517,0.82c-0.239,0.238-0.53,0.421-0.872,0.546c-0.345,0.125-0.72,0.186-1.124,0.186h-2.709v-7.902
	h2.709c0.842,0,1.506,0.243,1.996,0.732c0.229,0.227,0.404,0.49,0.517,0.788c0.114,0.299,0.187,0.604,0.218,0.921
	c0.03,0.316,0.046,0.683,0.046,1.098V36.905z M57.896,36.905c0-0.43-0.009-0.786-0.025-1.067c-0.02-0.282-0.065-0.553-0.14-0.81
	c-0.073-0.259-0.193-0.477-0.354-0.654c-0.377-0.387-0.895-0.581-1.558-0.581h-1.717v6.398h1.717c0.663,0,1.181-0.194,1.558-0.581
	c0.23-0.248,0.374-0.592,0.433-1.03C57.868,38.144,57.896,37.585,57.896,36.905"/>
<polygon style="fill:#231F20;" points="65.632,40.943 60.726,40.943 60.726,33.042 65.632,33.042 65.632,33.795 61.571,33.795 
	61.571,36.58 65.035,36.58 65.035,37.334 61.571,37.334 61.571,40.191 65.632,40.191 "/>
<polygon style="fill:#231F20;" points="72.271,40.943 67.388,40.943 67.388,33.042 68.233,33.042 68.233,40.191 72.271,40.191 "/>
<path style="fill:#231F20;" d="M81.967,35.502c0,0.336-0.057,0.654-0.176,0.951c-0.115,0.297-0.288,0.559-0.514,0.786
	c-0.227,0.225-0.504,0.403-0.831,0.532c-0.33,0.131-0.694,0.196-1.091,0.196h-1.518v2.976h-1.545v-7.902h3.063
	c0.396,0,0.759,0.063,1.083,0.188c0.326,0.126,0.604,0.305,0.833,0.532c0.229,0.229,0.404,0.49,0.52,0.786
	C81.91,34.844,81.967,35.163,81.967,35.502 M80.424,35.502c0-0.21-0.048-0.398-0.143-0.564c-0.098-0.167-0.232-0.295-0.406-0.385
	s-0.371-0.136-0.595-0.136h-1.442v2.162h1.442c0.224,0,0.421-0.043,0.595-0.131c0.174-0.089,0.309-0.214,0.406-0.377
	C80.376,35.909,80.424,35.718,80.424,35.502"/>
<polygon style="fill:#231F20;" points="88.467,40.943 83.264,40.943 83.264,33.042 88.467,33.042 88.467,34.418 84.809,34.418 
	84.809,36.271 87.924,36.271 87.924,37.648 84.809,37.648 84.809,39.567 88.467,39.567 "/>
<path style="fill:#231F20;" d="M95.963,40.944h-1.795l-1.541-3.149h-1.103v3.149h-1.545V33.04h3.095
	c0.522,0,0.977,0.109,1.366,0.323c0.385,0.216,0.683,0.507,0.887,0.877c0.207,0.369,0.31,0.776,0.31,1.22
	c0,0.525-0.134,0.964-0.401,1.316c-0.271,0.353-0.616,0.607-1.045,0.763L95.963,40.944z M94.093,35.458
	c0-0.202-0.046-0.381-0.139-0.536c-0.092-0.155-0.222-0.278-0.394-0.368c-0.172-0.092-0.369-0.136-0.589-0.136h-1.447v2.087h1.447
	c0.337,0,0.608-0.098,0.812-0.288C93.99,36.025,94.093,35.772,94.093,35.458"/>
<path style="fill:#231F20;" d="M102.933,38.234c0,0.544-0.129,1.029-0.386,1.452c-0.256,0.424-0.604,0.749-1.048,0.978
	c-0.442,0.23-0.934,0.347-1.477,0.347c-0.542,0-1.034-0.116-1.478-0.347c-0.441-0.229-0.791-0.554-1.049-0.978
	c-0.256-0.423-0.385-0.908-0.385-1.452v-5.193h1.545v5.14c0,0.447,0.122,0.801,0.369,1.06c0.245,0.263,0.578,0.393,0.997,0.393
	c0.422,0,0.758-0.128,1.005-0.39c0.247-0.257,0.371-0.611,0.371-1.063v-5.14h1.534V38.234z M101.643,30.391l-1.262,1.887H99.41
	l0.709-1.887H101.643z"/>
</svg>
