<?xml version="1.0" encoding="iso-8859-1"?>
<!-- Generator: Adobe Illustrator 15.0.0, SVG Export Plug-In . SVG Version: 6.00 Build 0)  -->
<!DOCTYPE svg PUBLIC "-//W3C//DTD SVG 1.1//EN" "http://www.w3.org/Graphics/SVG/1.1/DTD/svg11.dtd">
<svg version="1.1" id="Layer_1" xmlns="http://www.w3.org/2000/svg" xmlns:xlink="http://www.w3.org/1999/xlink" x="0px" y="0px"
	 width="185px" height="300px" viewBox="0 0 185 300" style="enable-background:new 0 0 185 300;" xml:space="preserve">
<g>
	<path style="fill:#05ACED;" d="M38.576,158.349c2.15,0,3.478,1.248,3.478,3.014c0,1.778-1.328,3.026-3.478,3.026h-1.898v4.049
		h-2.19v-10.089H38.576z M38.469,162.517c0.942,0,1.434-0.504,1.434-1.154c0-0.638-0.491-1.143-1.434-1.143h-1.792v2.297H38.469z"/>
	<path style="fill:#05ACED;" d="M45.505,159.623c0,0.677-0.518,1.194-1.235,1.194c-0.717,0-1.221-0.518-1.221-1.194
		c0-0.638,0.504-1.195,1.221-1.195C44.987,158.428,45.505,158.985,45.505,159.623z M43.208,168.438v-6.664h2.124v6.664H43.208z"/>
	<path style="fill:#05ACED;" d="M53.643,168.438h-2.124V167.8c-0.504,0.531-1.208,0.837-2.044,0.837
		c-1.553,0-2.588-1.102-2.588-2.774v-4.089h2.11v3.638c0,0.783,0.465,1.313,1.142,1.313c0.836,0,1.381-0.57,1.381-1.858v-3.093
		h2.124V168.438z"/>
</g>
<g>
	<path style="fill:#05ACED;" d="M60.214,161.733l-0.093,2.124h-0.385c-1.487,0-2.296,0.771-2.296,2.496v2.084h-2.124v-6.664h2.124
		v1.155c0.491-0.744,1.221-1.248,2.296-1.248C59.922,161.681,60.055,161.693,60.214,161.733z"/>
</g>
<g>
	<path style="fill:#05ACED;" d="M67.887,168.212c-0.438,0.252-0.783,0.345-1.194,0.345c-0.611,0-1.208-0.199-1.514-0.81
		c-0.464,0.505-1.182,0.89-2.217,0.89c-1.42,0-2.376-0.837-2.376-2.058c0-1.341,0.969-2.058,2.748-2.19l1.633-0.133v-0.08
		c0-0.558-0.345-0.955-0.969-0.955c-0.531,0-0.889,0.278-1.009,0.862l-1.965-0.411c0.306-1.328,1.407-2.098,3.014-2.098
		c1.792,0,2.974,0.942,2.974,2.642v2.124c0,0.239,0.093,0.372,0.239,0.372c0.093,0,0.239-0.014,0.491-0.026L67.887,168.212z
		 M64.966,165.809v-0.278l-1.288,0.146c-0.611,0.065-0.89,0.331-0.89,0.729c0,0.412,0.332,0.638,0.823,0.638
		C64.369,167.044,64.966,166.553,64.966,165.809z"/>
</g>
<g>
	<path style="fill:#05ACED;" d="M41.682,193.076h-7.195v-10.089h2.19v8.178h5.004V193.076z"/>
	<path style="fill:#05ACED;" d="M45.292,184.262c0,0.677-0.518,1.194-1.235,1.194s-1.221-0.518-1.221-1.194
		c0-0.638,0.504-1.195,1.221-1.195S45.292,183.624,45.292,184.262z M42.996,193.076v-6.664h2.124v6.664H42.996z"/>
	<path style="fill:#05ACED;" d="M57.944,188.908v4.168h-2.111v-3.717c0-0.757-0.491-1.234-1.115-1.234
		c-0.783,0-1.301,0.57-1.301,1.686v3.266h-2.124v-3.717c0-0.757-0.491-1.234-1.128-1.234c-0.77,0-1.274,0.57-1.274,1.686v3.266
		h-2.124v-6.664h2.124v0.61c0.451-0.504,1.102-0.81,1.965-0.81c0.929,0,1.726,0.398,2.177,1.128
		c0.531-0.689,1.328-1.128,2.363-1.128C56.815,186.213,57.944,187.288,57.944,188.908z"/>
	<path style="fill:#05ACED;" d="M66.227,192.851c-0.438,0.252-0.783,0.345-1.194,0.345c-0.611,0-1.208-0.199-1.514-0.81
		c-0.464,0.505-1.181,0.89-2.217,0.89c-1.42,0-2.376-0.837-2.376-2.058c0-1.341,0.969-2.058,2.748-2.19l1.633-0.133v-0.08
		c0-0.558-0.345-0.955-0.969-0.955c-0.531,0-0.89,0.278-1.009,0.862l-1.964-0.411c0.305-1.328,1.407-2.098,3.013-2.098
		c1.792,0,2.974,0.942,2.974,2.642v2.124c0,0.239,0.093,0.372,0.239,0.372c0.093,0,0.239-0.014,0.491-0.026L66.227,192.851z
		 M63.307,190.447v-0.278l-1.288,0.146c-0.611,0.065-0.89,0.331-0.89,0.729c0,0.412,0.332,0.638,0.823,0.638
		C62.709,191.683,63.307,191.191,63.307,190.447z"/>
</g>
<g>
	<path style="fill:#05ACED;" d="M42.226,217.728l-0.77-1.713H36.81l-0.77,1.713h-2.39l4.752-10.089h1.46l4.752,10.089H42.226z
		 M39.146,210.824l-1.487,3.306h2.96L39.146,210.824z"/>
	<path style="fill:#05ACED;" d="M48,221.444h-2.244l1.726-3.956l-2.774-6.425h2.244l1.62,3.942l1.726-3.942h2.244L48,221.444z"/>
	<path style="fill:#05ACED;" d="M60.24,217.502c-0.438,0.252-0.783,0.345-1.194,0.345c-0.611,0-1.208-0.199-1.514-0.81
		c-0.464,0.505-1.181,0.89-2.217,0.89c-1.42,0-2.376-0.836-2.376-2.058c0-1.341,0.969-2.058,2.748-2.19l1.633-0.133v-0.08
		c0-0.558-0.345-0.955-0.969-0.955c-0.531,0-0.89,0.278-1.009,0.862l-1.964-0.411c0.305-1.328,1.407-2.098,3.013-2.098
		c1.792,0,2.974,0.942,2.974,2.642v2.124c0,0.239,0.093,0.372,0.239,0.372c0.093,0,0.239-0.014,0.491-0.026L60.24,217.502z
		 M57.319,215.099v-0.278l-1.288,0.146c-0.611,0.066-0.89,0.332-0.89,0.73c0,0.412,0.332,0.638,0.823,0.638
		C56.722,216.334,57.319,215.843,57.319,215.099z"/>
	<path style="fill:#05ACED;" d="M67.833,215.325c-0.345,1.579-1.779,2.602-3.451,2.602c-2.005,0-3.677-1.421-3.677-3.531
		c0-2.098,1.672-3.531,3.677-3.531c1.646,0,3.066,0.996,3.438,2.562l-1.978,0.478c-0.199-0.81-0.77-1.208-1.46-1.208
		c-0.969,0-1.633,0.73-1.633,1.699c0,0.982,0.664,1.699,1.633,1.699c0.69,0,1.261-0.385,1.5-1.194L67.833,215.325z"/>
	<path style="fill:#05ACED;" d="M75.546,217.728h-2.124v-0.637c-0.504,0.53-1.208,0.836-2.044,0.836
		c-1.553,0-2.588-1.102-2.588-2.774v-4.089h2.11v3.638c0,0.783,0.465,1.313,1.142,1.313c0.836,0,1.381-0.57,1.381-1.858v-3.093
		h2.124V217.728z"/>
	<path style="fill:#05ACED;" d="M83.843,215.325c-0.345,1.579-1.779,2.602-3.451,2.602c-2.005,0-3.677-1.421-3.677-3.531
		c0-2.098,1.672-3.531,3.677-3.531c1.646,0,3.066,0.996,3.438,2.562l-1.978,0.478c-0.199-0.81-0.77-1.208-1.46-1.208
		c-0.969,0-1.633,0.73-1.633,1.699c0,0.982,0.664,1.699,1.633,1.699c0.69,0,1.261-0.385,1.5-1.194L83.843,215.325z"/>
	<path style="fill:#05ACED;" d="M91.715,213.639v4.089h-2.111v-3.638c0-0.783-0.464-1.313-1.155-1.313
		c-0.823,0-1.367,0.57-1.367,1.858v3.093h-2.124v-10.62h2.124v4.593c0.518-0.53,1.208-0.836,2.058-0.836
		C90.68,210.864,91.715,211.966,91.715,213.639z"/>
	<path style="fill:#05ACED;" d="M100.158,214.396c0,2.11-1.687,3.531-3.705,3.531c-2.044,0-3.729-1.421-3.729-3.531
		c0-2.098,1.686-3.531,3.729-3.531C98.472,210.864,100.158,212.298,100.158,214.396z M98.113,214.396
		c0-1.035-0.757-1.726-1.66-1.726c-0.929,0-1.686,0.69-1.686,1.726c0,1.049,0.757,1.726,1.686,1.726
		C97.356,216.121,98.113,215.444,98.113,214.396z"/>
</g>
<g>
	<path style="fill:#05ACED;" d="M42.253,238.158l2.097,0.518c-0.544,2.416-2.549,3.917-4.978,3.917
		c-2.947,0-5.257-2.297-5.257-5.244s2.31-5.257,5.257-5.257c2.429,0,4.42,1.514,4.978,3.836l-2.097,0.611
		c-0.345-1.58-1.487-2.442-2.881-2.442c-1.739,0-3.066,1.406-3.066,3.252s1.327,3.252,3.066,3.252
		C40.766,240.601,41.908,239.751,42.253,238.158z"/>
	<path style="fill:#05ACED;" d="M52.249,242.38h-2.124v-0.637c-0.504,0.53-1.208,0.836-2.044,0.836
		c-1.553,0-2.588-1.102-2.588-2.774v-4.089h2.11v3.638c0,0.783,0.465,1.313,1.142,1.313c0.836,0,1.38-0.57,1.38-1.858v-3.093h2.124
		V242.38z"/>
	<path style="fill:#05ACED;" d="M55.475,240.216c0.093,0.571,0.504,0.81,0.969,0.81c0.505,0,0.717-0.265,0.717-0.558
		c0-0.198-0.106-0.385-0.478-0.478l-1.328-0.306c-1.115-0.252-1.805-0.85-1.805-1.938c0-1.354,1.088-2.23,2.721-2.23
		c1.553,0,2.615,0.77,2.854,1.912l-1.951,0.385c-0.053-0.412-0.345-0.823-0.916-0.823c-0.412,0-0.637,0.212-0.637,0.491
		c0,0.266,0.199,0.438,0.558,0.531l1.314,0.318c1.168,0.292,1.726,1.009,1.726,2.005c0,1.473-1.208,2.243-2.881,2.243
		c-1.381,0-2.721-0.531-2.934-1.938L55.475,240.216z"/>
	<path style="fill:#05ACED;" d="M66.957,239.978c-0.345,1.579-1.779,2.602-3.451,2.602c-2.005,0-3.677-1.421-3.677-3.531
		c0-2.098,1.672-3.531,3.677-3.531c1.646,0,3.066,0.996,3.438,2.562l-1.978,0.478c-0.199-0.81-0.77-1.208-1.46-1.208
		c-0.969,0-1.633,0.73-1.633,1.699c0,0.982,0.664,1.699,1.633,1.699c0.69,0,1.261-0.385,1.5-1.194L66.957,239.978z"/>
	<path style="fill:#05ACED;" d="M75.002,239.048c0,2.11-1.686,3.531-3.704,3.531c-2.044,0-3.73-1.421-3.73-3.531
		c0-2.098,1.686-3.531,3.73-3.531C73.316,235.517,75.002,236.95,75.002,239.048z M72.958,239.048c0-1.035-0.757-1.726-1.66-1.726
		c-0.929,0-1.686,0.69-1.686,1.726c0,1.049,0.756,1.726,1.686,1.726C72.201,240.773,72.958,240.097,72.958,239.048z"/>
</g>
<g>
	<path style="fill:#05ACED;" d="M45.24,267.019h-2.124v-6.199l-2.828,3.239h-0.836l-2.841-3.239v6.199h-2.124V256.93h1.394
		l3.982,4.566l3.982-4.566h1.394V267.019z"/>
	<path style="fill:#05ACED;" d="M53.842,263.687c0,2.11-1.686,3.531-3.704,3.531c-2.044,0-3.73-1.421-3.73-3.531
		c0-2.098,1.686-3.531,3.73-3.531C52.156,260.155,53.842,261.589,53.842,263.687z M51.797,263.687c0-1.035-0.757-1.726-1.66-1.726
		c-0.929,0-1.686,0.69-1.686,1.726c0,1.049,0.756,1.726,1.686,1.726C51.041,265.412,51.797,264.735,51.797,263.687z"/>
	<path style="fill:#05ACED;" d="M61.953,270.735h-2.124v-4.248c-0.518,0.465-1.208,0.73-2.071,0.73
		c-1.766,0-3.252-1.421-3.252-3.531c0-2.098,1.487-3.531,3.252-3.531c0.863,0,1.553,0.266,2.071,0.73v-0.531h2.124V270.735z
		 M59.829,263.687c0-1.022-0.77-1.726-1.633-1.726c-0.929,0-1.606,0.703-1.606,1.726c0,1.035,0.677,1.726,1.606,1.726
		C59.059,265.412,59.829,264.722,59.829,263.687z"/>
	<path style="fill:#05ACED;" d="M70.223,267.019h-2.124v-0.637c-0.504,0.53-1.208,0.836-2.044,0.836
		c-1.553,0-2.588-1.102-2.588-2.774v-4.089h2.11v3.638c0,0.783,0.465,1.313,1.142,1.313c0.836,0,1.381-0.57,1.381-1.858v-3.093
		h2.124V267.019z"/>
	<path style="fill:#05ACED;" d="M78.36,264.23h-4.885c0.173,0.797,0.717,1.288,1.434,1.288c0.491,0,1.062-0.119,1.42-0.771
		l1.885,0.386c-0.571,1.407-1.779,2.084-3.306,2.084c-1.925,0-3.518-1.421-3.518-3.531c0-2.098,1.593-3.531,3.531-3.531
		c1.885,0,3.398,1.354,3.438,3.531V264.23z M73.515,262.93h2.748c-0.199-0.717-0.73-1.049-1.34-1.049
		C74.325,261.881,73.714,262.253,73.515,262.93z"/>
	<path style="fill:#05ACED;" d="M85.688,262.04c0.08,0.279,0.133,0.571,0.133,0.877c0,1.593-1.341,2.708-3.093,2.708
		c-0.597,0-1.155-0.133-1.633-0.372c-0.106,0.093-0.159,0.199-0.159,0.345c0,0.319,0.305,0.531,0.743,0.531h2.164
		c1.699,0,2.761,0.876,2.761,2.363c0,1.606-1.354,2.642-3.611,2.642h-0.89c-2.031,0-3.173-0.995-3.173-2.336
		c0-0.717,0.306-1.274,0.797-1.66c-0.412-0.345-0.637-0.81-0.637-1.354c0-0.717,0.358-1.234,0.876-1.566
		c-0.226-0.372-0.345-0.823-0.345-1.301c0-1.606,1.301-2.762,3.106-2.762c0.438,0,0.85,0.066,1.221,0.199h2.894v1.686H85.688z
		 M81.998,267.788c-0.611,0-0.943,0.319-0.943,0.797c0,0.465,0.292,0.85,1.155,0.85h0.902c0.89,0,1.354-0.398,1.354-0.93
		c0-0.424-0.292-0.717-0.73-0.717H81.998z M83.909,262.89c0-0.624-0.531-1.102-1.182-1.102c-0.664,0-1.182,0.478-1.182,1.102
		s0.518,1.103,1.182,1.103C83.378,263.992,83.909,263.514,83.909,262.89z"/>
	<path style="fill:#05ACED;" d="M94.344,267.019h-2.125v-0.637c-0.504,0.53-1.208,0.836-2.044,0.836
		c-1.553,0-2.588-1.102-2.588-2.774v-4.089h2.11v3.638c0,0.783,0.465,1.313,1.142,1.313c0.836,0,1.38-0.57,1.38-1.858v-3.093h2.125
		V267.019z"/>
	<path style="fill:#05ACED;" d="M102.785,266.793c-0.438,0.252-0.783,0.345-1.193,0.345c-0.611,0-1.209-0.199-1.514-0.81
		c-0.465,0.505-1.182,0.89-2.217,0.89c-1.421,0-2.377-0.836-2.377-2.058c0-1.341,0.969-2.058,2.748-2.19l1.633-0.133v-0.08
		c0-0.558-0.346-0.955-0.969-0.955c-0.531,0-0.89,0.278-1.01,0.862l-1.964-0.411c0.306-1.328,1.407-2.098,3.013-2.098
		c1.793,0,2.975,0.942,2.975,2.642v2.124c0,0.239,0.092,0.372,0.238,0.372c0.094,0,0.239-0.014,0.491-0.026L102.785,266.793z
		 M99.865,264.39v-0.278l-1.287,0.146c-0.611,0.066-0.891,0.332-0.891,0.73c0,0.412,0.332,0.638,0.824,0.638
		C99.268,265.625,99.865,265.134,99.865,264.39z"/>
</g>
<g>
	<path style="fill:#05ACED;" d="M39.133,283.492v8.178h-2.19v-8.178h-3.026v-1.911h8.244v1.911H39.133z"/>
</g>
<g>
	<path style="fill:#05ACED;" d="M49.222,291.444c-0.438,0.252-0.783,0.345-1.194,0.345c-0.611,0-1.208-0.199-1.514-0.81
		c-0.464,0.505-1.182,0.89-2.217,0.89c-1.42,0-2.376-0.837-2.376-2.058c0-1.341,0.969-2.058,2.748-2.19l1.633-0.133v-0.08
		c0-0.558-0.345-0.955-0.969-0.955c-0.531,0-0.889,0.278-1.009,0.862l-1.965-0.411c0.306-1.328,1.407-2.098,3.014-2.098
		c1.792,0,2.974,0.942,2.974,2.642v2.124c0,0.239,0.093,0.372,0.239,0.372c0.093,0,0.239-0.014,0.491-0.026L49.222,291.444z
		 M46.301,289.041v-0.278l-1.288,0.146c-0.611,0.065-0.89,0.331-0.89,0.729c0,0.412,0.332,0.638,0.823,0.638
		C45.704,290.276,46.301,289.785,46.301,289.041z"/>
	<path style="fill:#05ACED;" d="M56.815,289.268c-0.345,1.579-1.779,2.602-3.451,2.602c-2.005,0-3.677-1.421-3.677-3.531
		c0-2.098,1.672-3.531,3.677-3.531c1.646,0,3.066,0.996,3.438,2.562l-1.978,0.478c-0.199-0.81-0.77-1.208-1.46-1.208
		c-0.969,0-1.633,0.73-1.633,1.699c0,0.982,0.664,1.699,1.633,1.699c0.69,0,1.261-0.385,1.5-1.194L56.815,289.268z"/>
	<path style="fill:#05ACED;" d="M64.687,287.581v4.089h-2.111v-3.638c0-0.783-0.464-1.313-1.142-1.313
		c-0.836,0-1.38,0.57-1.38,1.858v3.093H57.93v-6.664h2.124v0.637c0.504-0.53,1.208-0.836,2.044-0.836
		C63.652,284.807,64.687,285.908,64.687,287.581z"/>
	<path style="fill:#05ACED;" d="M72.97,291.444c-0.438,0.252-0.783,0.345-1.194,0.345c-0.611,0-1.208-0.199-1.514-0.81
		c-0.464,0.505-1.181,0.89-2.217,0.89c-1.42,0-2.376-0.837-2.376-2.058c0-1.341,0.969-2.058,2.748-2.19l1.633-0.133v-0.08
		c0-0.558-0.345-0.955-0.969-0.955c-0.531,0-0.89,0.278-1.009,0.862l-1.964-0.411c0.305-1.328,1.407-2.098,3.013-2.098
		c1.792,0,2.974,0.942,2.974,2.642v2.124c0,0.239,0.093,0.372,0.239,0.372c0.093,0,0.239-0.014,0.491-0.026L72.97,291.444z
		 M70.05,289.041v-0.278l-1.288,0.146c-0.611,0.065-0.89,0.331-0.89,0.729c0,0.412,0.332,0.638,0.823,0.638
		C69.453,290.276,70.05,289.785,70.05,289.041z"/>
</g>
<g>
	<path style="fill:#2E3090;" d="M148.307,163.434c0,2.92-2.283,5.217-5.189,5.217c-2.908,0-5.191-2.297-5.191-5.217
		c0-2.935,2.283-5.271,5.191-5.271C146.023,158.163,148.307,160.499,148.307,163.434z M146.117,163.434c0-1.859-1.301-3.267-3-3.267
		s-3.001,1.407-3.001,3.267c0,1.845,1.302,3.226,3.001,3.226S146.117,165.278,146.117,163.434z"/>
	<path style="fill:#2E3090;" d="M156.471,168.451h-7.328v-0.703l3.811-4.183c0.69-0.77,1.168-1.34,1.168-2.163
		c0-0.81-0.544-1.354-1.367-1.354c-0.969,0-1.58,0.704-1.646,1.766l-2.044-0.385c0.106-1.991,1.633-3.266,3.718-3.266
		c2.123,0,3.53,1.287,3.53,3.226c0,1.367-0.663,2.138-1.806,3.438l-1.46,1.673h3.425V168.451z"/>
</g>
<g>
	<path style="fill:#2E3090;" d="M148.307,188.071c0,2.92-2.283,5.217-5.189,5.217c-2.908,0-5.191-2.297-5.191-5.217
		c0-2.935,2.283-5.271,5.191-5.271C146.023,182.801,148.307,185.137,148.307,188.071z M146.117,188.071c0-1.859-1.301-3.266-3-3.266
		s-3.001,1.406-3.001,3.266c0,1.845,1.302,3.226,3.001,3.226S146.117,189.916,146.117,188.071z"/>
	<path style="fill:#2E3090;" d="M156.246,188.722l-3.08,4.367h-2.482l2.07-2.96c-1.951-0.16-3.518-1.606-3.518-3.664
		c0-2.19,1.766-3.664,3.876-3.664c2.138,0,3.903,1.474,3.903,3.664C157.016,187.341,156.723,188.11,156.246,188.722z
		 M153.112,188.257c0.929,0,1.806-0.717,1.806-1.792s-0.877-1.766-1.806-1.766c-0.902,0-1.778,0.69-1.778,1.766
		S152.21,188.257,153.112,188.257z"/>
</g>
<g>
	<path style="fill:#2E3090;" d="M148.307,212.724c0,2.92-2.283,5.217-5.189,5.217c-2.908,0-5.191-2.297-5.191-5.217
		c0-2.935,2.283-5.271,5.191-5.271C146.023,207.453,148.307,209.789,148.307,212.724z M146.117,212.724c0-1.859-1.301-3.266-3-3.266
		s-3.001,1.406-3.001,3.266c0,1.845,1.302,3.226,3.001,3.226S146.117,214.568,146.117,212.724z"/>
	<path style="fill:#2E3090;" d="M153.604,217.741h-2.177v-7.461l-2.351,0.73v-1.991l4.143-1.367h0.385V217.741z"/>
</g>
<g>
	<path style="fill:#2E3090;" d="M148.307,237.375c0,2.92-2.283,5.217-5.189,5.217c-2.908,0-5.191-2.297-5.191-5.217
		c0-2.935,2.283-5.271,5.191-5.271C146.023,232.104,148.307,234.44,148.307,237.375z M146.117,237.375c0-1.859-1.301-3.267-3-3.267
		s-3.001,1.407-3.001,3.267c0,1.845,1.302,3.226,3.001,3.226S146.117,239.22,146.117,237.375z"/>
	<path style="fill:#2E3090;" d="M154.095,236.101c1.633,0.278,2.589,1.354,2.589,3.013c0,2.071-1.58,3.491-3.757,3.491
		c-2.005,0-3.797-1.221-3.851-3.451l2.125-0.411c0.013,1.367,0.916,1.951,1.778,1.951c0.876,0,1.646-0.598,1.646-1.54
		c0-0.862-0.65-1.447-1.606-1.447h-2.15l-0.119-0.331l2.482-3.134h-3.571l0.026-1.938h6.982v0.663L154.095,236.101z"/>
</g>
<g>
	<path style="fill:#2E3090;" d="M148.307,262.014c0,2.92-2.283,5.217-5.189,5.217c-2.908,0-5.191-2.297-5.191-5.217
		c0-2.935,2.283-5.271,5.191-5.271C146.023,256.743,148.307,259.079,148.307,262.014z M146.117,262.014c0-1.859-1.301-3.267-3-3.267
		s-3.001,1.407-3.001,3.267c0,1.845,1.302,3.226,3.001,3.226S146.117,263.858,146.117,262.014z"/>
	<path style="fill:#2E3090;" d="M156.471,267.031h-7.328v-0.703l3.811-4.183c0.69-0.77,1.168-1.34,1.168-2.163
		c0-0.81-0.544-1.354-1.367-1.354c-0.969,0-1.58,0.704-1.646,1.766l-2.044-0.385c0.106-1.991,1.633-3.266,3.718-3.266
		c2.123,0,3.53,1.287,3.53,3.226c0,1.367-0.663,2.138-1.806,3.438l-1.46,1.673h3.425V267.031z"/>
</g>
<g>
	<path style="fill:#2E3090;" d="M148.307,286.652c0,2.92-2.283,5.217-5.189,5.217c-2.908,0-5.191-2.297-5.191-5.217
		c0-2.935,2.283-5.271,5.191-5.271C146.023,281.382,148.307,283.718,148.307,286.652z M146.117,286.652c0-1.859-1.301-3.267-3-3.267
		s-3.001,1.407-3.001,3.267c0,1.845,1.302,3.226,3.001,3.226S146.117,288.497,146.117,286.652z"/>
	<path style="fill:#2E3090;" d="M156.471,291.67h-7.328v-0.703l3.811-4.183c0.69-0.77,1.168-1.34,1.168-2.163
		c0-0.81-0.544-1.354-1.367-1.354c-0.969,0-1.58,0.704-1.646,1.766l-2.044-0.385c0.106-1.991,1.633-3.266,3.718-3.266
		c2.123,0,3.53,1.287,3.53,3.226c0,1.367-0.663,2.138-1.806,3.438l-1.46,1.673h3.425V291.67z"/>
</g>
<g>
	<path style="fill:#05ACED;" d="M87.12,95.478l2.399,0.592c-0.623,2.764-2.915,4.479-5.694,4.479c-3.37,0-6.012-2.627-6.012-5.997
		c0-3.371,2.642-6.013,6.012-6.013c2.779,0,5.056,1.731,5.694,4.388l-2.399,0.698c-0.395-1.807-1.701-2.793-3.295-2.793
		c-1.989,0-3.507,1.609-3.507,3.72s1.518,3.72,3.507,3.72C85.419,98.271,86.725,97.3,87.12,95.478z"/>
	<path style="fill:#05ACED;" d="M98.752,100.048c-0.502,0.288-0.896,0.395-1.367,0.395c-0.698,0-1.381-0.228-1.73-0.926
		c-0.531,0.576-1.352,1.017-2.535,1.017c-1.625,0-2.718-0.956-2.718-2.354c0-1.533,1.108-2.353,3.143-2.505l1.867-0.151v-0.092
		c0-0.638-0.395-1.093-1.108-1.093c-0.607,0-1.018,0.319-1.154,0.987l-2.247-0.471c0.349-1.519,1.609-2.399,3.447-2.399
		c2.05,0,3.401,1.078,3.401,3.021v2.43c0,0.272,0.105,0.425,0.272,0.425c0.106,0,0.273-0.016,0.562-0.03L98.752,100.048z
		 M95.411,97.3V96.98l-1.473,0.167c-0.698,0.076-1.017,0.38-1.017,0.835c0,0.471,0.379,0.729,0.942,0.729
		C94.729,98.712,95.411,98.149,95.411,97.3z"/>
	<path style="fill:#05ACED;" d="M101.638,97.831c0.106,0.652,0.577,0.926,1.108,0.926c0.576,0,0.82-0.304,0.82-0.638
		c0-0.228-0.122-0.44-0.547-0.546l-1.519-0.35c-1.275-0.288-2.065-0.972-2.065-2.217c0-1.549,1.246-2.551,3.113-2.551
		c1.775,0,2.99,0.881,3.264,2.187l-2.231,0.44c-0.061-0.471-0.396-0.941-1.048-0.941c-0.471,0-0.729,0.243-0.729,0.562
		c0,0.304,0.228,0.501,0.638,0.607l1.503,0.364c1.336,0.334,1.974,1.154,1.974,2.293c0,1.685-1.382,2.565-3.294,2.565
		c-1.58,0-3.113-0.607-3.355-2.217L101.638,97.831z"/>
	<path style="fill:#05ACED;" d="M109.867,90.225c0,0.774-0.592,1.366-1.411,1.366s-1.397-0.592-1.397-1.366
		c0-0.729,0.578-1.366,1.397-1.366S109.867,89.496,109.867,90.225z M107.241,100.306v-7.622h2.429v7.622H107.241z"/>
	<path style="fill:#05ACED;" d="M114.514,97.406c0,0.606,0.319,0.956,0.865,0.956c0.334,0,0.79-0.121,1.109-0.304l0.561,1.913
		c-0.592,0.318-1.214,0.562-2.079,0.562c-1.808,0-2.885-1.078-2.885-2.885v-3.036h-1.442v-1.929h1.442v-2.596l2.429-0.714v3.31
		h2.703v1.929h-2.703V97.406z"/>
	<path style="fill:#05ACED;" d="M126.084,100.048c-0.5,0.288-0.896,0.395-1.366,0.395c-0.698,0-1.382-0.228-1.73-0.926
		c-0.532,0.576-1.352,1.017-2.536,1.017c-1.624,0-2.717-0.956-2.717-2.354c0-1.533,1.107-2.353,3.143-2.505l1.867-0.151v-0.092
		c0-0.638-0.395-1.093-1.108-1.093c-0.607,0-1.017,0.319-1.153,0.987l-2.248-0.471c0.35-1.519,1.609-2.399,3.447-2.399
		c2.049,0,3.4,1.078,3.4,3.021v2.43c0,0.272,0.106,0.425,0.273,0.425c0.106,0,0.273-0.016,0.562-0.03L126.084,100.048z
		 M122.744,97.3V96.98l-1.473,0.167c-0.698,0.076-1.018,0.38-1.018,0.835c0,0.471,0.38,0.729,0.941,0.729
		C122.061,98.712,122.744,98.149,122.744,97.3z"/>
	<path style="fill:#05ACED;" d="M128.971,97.831c0.106,0.652,0.576,0.926,1.108,0.926c0.577,0,0.819-0.304,0.819-0.638
		c0-0.228-0.121-0.44-0.547-0.546l-1.518-0.35c-1.275-0.288-2.064-0.972-2.064-2.217c0-1.549,1.244-2.551,3.112-2.551
		c1.776,0,2.991,0.881,3.265,2.187l-2.232,0.44c-0.061-0.471-0.395-0.941-1.048-0.941c-0.471,0-0.729,0.243-0.729,0.562
		c0,0.304,0.228,0.501,0.638,0.607l1.503,0.364c1.336,0.334,1.974,1.154,1.974,2.293c0,1.685-1.381,2.565-3.295,2.565
		c-1.578,0-3.111-0.607-3.355-2.217L128.971,97.831z"/>
	<path style="fill:#05ACED;" d="M145.445,97.117h-5.587c0.197,0.911,0.819,1.473,1.64,1.473c0.562,0,1.215-0.137,1.625-0.881
		l2.156,0.44c-0.653,1.609-2.035,2.384-3.781,2.384c-2.201,0-4.023-1.624-4.023-4.038c0-2.399,1.822-4.039,4.039-4.039
		c2.156,0,3.887,1.549,3.932,4.039V97.117z M139.904,95.63h3.143c-0.229-0.82-0.835-1.2-1.533-1.2
		C140.83,94.43,140.132,94.855,139.904,95.63z"/>
	<path style="fill:#05ACED;" d="M154.512,95.63v4.676h-2.414v-4.16c0-0.896-0.532-1.503-1.307-1.503
		c-0.956,0-1.578,0.653-1.578,2.126v3.537h-2.43v-7.622h2.43v0.729c0.576-0.607,1.381-0.957,2.338-0.957
		C153.326,92.456,154.512,93.717,154.512,95.63z"/>
</g>
<g>
	<path style="fill:#05ACED;" d="M81.123,113.685c0,0.606,0.319,0.956,0.865,0.956c0.334,0,0.79-0.121,1.108-0.304l0.562,1.913
		c-0.592,0.318-1.214,0.562-2.08,0.562c-1.807,0-2.885-1.078-2.885-2.885v-3.036h-1.442v-1.929h1.442v-2.596l2.429-0.714v3.31h2.702
		v1.929h-2.702V113.685z"/>
	<path style="fill:#05ACED;" d="M92.738,112.773c0,2.414-1.928,4.038-4.236,4.038c-2.338,0-4.267-1.624-4.267-4.038
		c0-2.399,1.928-4.039,4.267-4.039C90.81,108.734,92.738,110.374,92.738,112.773z M90.4,112.773c0-1.185-0.865-1.974-1.897-1.974
		c-1.063,0-1.928,0.789-1.928,1.974c0,1.199,0.865,1.974,1.928,1.974C89.535,114.747,90.4,113.973,90.4,112.773z"/>
	<path style="fill:#05ACED;" d="M102.016,116.584h-2.429v-0.607c-0.593,0.531-1.382,0.835-2.368,0.835
		c-2.02,0-3.721-1.624-3.721-4.038c0-2.399,1.701-4.039,3.721-4.039c0.986,0,1.775,0.304,2.368,0.835v-5.131h2.429V116.584z
		 M99.587,112.773c0-1.169-0.881-1.974-1.868-1.974c-1.062,0-1.836,0.805-1.836,1.974c0,1.184,0.773,1.974,1.836,1.974
		C98.706,114.747,99.587,113.957,99.587,112.773z"/>
	<path style="fill:#05ACED;" d="M111.855,112.773c0,2.414-1.928,4.038-4.235,4.038c-2.339,0-4.267-1.624-4.267-4.038
		c0-2.399,1.928-4.039,4.267-4.039C109.928,108.734,111.855,110.374,111.855,112.773z M109.518,112.773
		c0-1.185-0.865-1.974-1.897-1.974c-1.063,0-1.929,0.789-1.929,1.974c0,1.199,0.865,1.974,1.929,1.974
		C108.652,114.747,109.518,113.973,109.518,112.773z"/>
	<path style="fill:#05ACED;" d="M124.111,113.396h-5.588c0.197,0.911,0.82,1.473,1.64,1.473c0.562,0,1.215-0.137,1.624-0.881
		l2.156,0.44c-0.652,1.609-2.034,2.384-3.78,2.384c-2.201,0-4.023-1.624-4.023-4.038c0-2.399,1.822-4.039,4.038-4.039
		c2.156,0,3.887,1.549,3.934,4.039V113.396z M118.568,111.908h3.144c-0.228-0.82-0.835-1.2-1.534-1.2
		C119.495,110.708,118.797,111.134,118.568,111.908z"/>
	<path style="fill:#05ACED;" d="M125.448,116.584v-12.146h2.429v12.146H125.448z"/>
	<path style="fill:#05ACED;" d="M137.99,105.045c2.459,0,3.978,1.428,3.978,3.447c0,2.034-1.519,3.461-3.978,3.461h-2.172v4.631
		h-2.504v-11.539H137.99z M137.869,109.812c1.078,0,1.639-0.577,1.639-1.32c0-0.729-0.561-1.307-1.639-1.307h-2.051v2.627H137.869z"
		/>
	<path style="fill:#05ACED;" d="M150.092,113.396h-5.587c0.197,0.911,0.819,1.473,1.64,1.473c0.562,0,1.215-0.137,1.625-0.881
		l2.156,0.44c-0.653,1.609-2.035,2.384-3.781,2.384c-2.201,0-4.023-1.624-4.023-4.038c0-2.399,1.822-4.039,4.039-4.039
		c2.156,0,3.887,1.549,3.932,4.039V113.396z M144.551,111.908h3.143c-0.229-0.82-0.835-1.2-1.533-1.2
		C145.477,110.708,144.778,111.134,144.551,111.908z"/>
	<path style="fill:#05ACED;" d="M157.032,108.917l-0.106,2.429h-0.44c-1.7,0-2.626,0.881-2.626,2.854v2.384h-2.43v-7.622h2.43v1.321
		c0.561-0.851,1.396-1.427,2.626-1.427C156.697,108.856,156.85,108.871,157.032,108.917z"/>
	<path style="fill:#05ACED;" d="M165.688,116.584h-2.43v-0.729c-0.576,0.607-1.381,0.956-2.338,0.956
		c-1.776,0-2.961-1.26-2.961-3.173v-4.677h2.414v4.16c0,0.896,0.531,1.503,1.307,1.503c0.956,0,1.578-0.652,1.578-2.125v-3.538h2.43
		V116.584z M160.799,107.626l1.078-2.308h2.885l-1.807,2.308H160.799z"/>
</g>
<g>
	<path style="fill:#2E3090;" d="M36.37,119.338h-7.465v-25.58l-8.057,2.503v-6.827l14.201-4.688h1.32V119.338z"/>
	<path style="fill:#2E3090;" d="M65.863,104.363l-10.56,14.975h-8.511l7.101-10.15c-6.691-0.546-12.062-5.508-12.062-12.562
		c0-7.511,6.054-12.562,13.291-12.562c7.328,0,13.382,5.052,13.382,12.562C68.503,99.629,67.502,102.269,65.863,104.363z
		 M55.122,102.77c3.186,0,6.19-2.458,6.19-6.145s-3.004-6.054-6.19-6.054c-3.095,0-6.1,2.367-6.1,6.054S52.026,102.77,55.122,102.77
		z"/>
</g>
<line style="fill:none;stroke:#FFAC00;stroke-width:3;stroke-miterlimit:10;" x1="20.673" y1="135.335" x2="167.673" y2="135.335"/>
<path style="fill:#FFAC00;" d="M121.107,24.536l8.006,4.939l1.703-2.896L93.854,3.755l-15.332,9.368V7.162h-8.858v11.411
	l-12.775,7.836l1.703,2.896l8.006-4.939v38.156h-8.857v3.407h8.857h30.321h15.672h8.517h8.858v-3.407h-8.858V24.536z M73.071,10.739
	h2.044v4.599l-2.044,1.192V10.739z M100.496,44.296h8.857v18.396h-8.857V44.296z M112.761,62.692V40.889H97.09v21.804H70.005V22.491
	l4.429-2.725l3.918-2.385l15.332-9.369l23.848,14.65v40.199h-4.771V62.692z"/>
<path style="fill:#FFAC00;" d="M75.116,33.224h15.671V22.663H75.116V33.224z M78.522,26.069h8.858v3.748h-8.858V26.069z"/>
<path style="fill:#FFAC00;" d="M75.116,55.879h15.671V40.208H75.116V55.879z M87.38,52.472h-2.725v-8.857h2.725V52.472z
	 M78.522,43.614h2.725v8.859h-2.725V43.614z"/>
<path style="fill:#FFAC00;" d="M97.09,33.224h15.671V22.663H97.09V33.224z M100.497,26.069h8.858v3.748h-8.858V26.069z"/>
</svg>
