<?xml version="1.0" encoding="iso-8859-1"?>
<!-- Generator: Adobe Illustrator 15.0.0, SVG Export Plug-In . SVG Version: 6.00 Build 0)  -->
<!DOCTYPE svg PUBLIC "-//W3C//DTD SVG 1.1//EN" "http://www.w3.org/Graphics/SVG/1.1/DTD/svg11.dtd">
<svg version="1.1" id="Layer_1" xmlns="http://www.w3.org/2000/svg" xmlns:xlink="http://www.w3.org/1999/xlink" x="0px" y="0px"
	 width="300px" height="300px" viewBox="0 0 300 300" style="enable-background:new 0 0 300 300;" xml:space="preserve">
<path style="fill:#FFAC00;" d="M278.2,296H23.9c-9.125,0-16.522-6.238-16.522-13.932V15.931C7.378,8.237,14.775,2,23.9,2h254.3
	c9.125,0,16.522,6.237,16.522,13.931v266.137C294.723,289.762,287.325,296,278.2,296"/>
<g>
	<path style="fill:#FFFFFF;" d="M60.027,130.485c0,2.227-1.568,3.726-3.432,3.726c-0.91,0-1.639-0.28-2.185-0.771v4.482H52.17
		v-10.954h2.241v0.561c0.546-0.49,1.274-0.771,2.185-0.771C58.459,126.758,60.027,128.271,60.027,130.485z M57.829,130.485
		c0-1.079-0.715-1.821-1.695-1.821c-0.91,0-1.723,0.742-1.723,1.821c0,1.093,0.812,1.82,1.723,1.82
		C57.114,132.305,57.829,131.578,57.829,130.485z"/>
	<path style="fill:#FFFFFF;" d="M68.567,130.485c0,2.227-1.779,3.726-3.908,3.726c-2.157,0-3.936-1.499-3.936-3.726
		c0-2.214,1.778-3.727,3.936-3.727C66.788,126.758,68.567,128.271,68.567,130.485z M66.41,130.485c0-1.093-0.798-1.821-1.751-1.821
		c-0.98,0-1.778,0.729-1.778,1.821c0,1.106,0.798,1.82,1.778,1.82C65.612,132.305,66.41,131.591,66.41,130.485z"/>
	<path style="fill:#FFFFFF;" d="M74.965,126.926l-0.099,2.241H74.46c-1.568,0-2.423,0.812-2.423,2.634V134h-2.241v-7.032h2.241
		v1.219c0.518-0.784,1.288-1.316,2.423-1.316C74.656,126.871,74.796,126.884,74.965,126.926z"/>
</g>
<g>
	<path style="fill:#2E3090;" d="M53.809,148.517c0.098,0.603,0.532,0.854,1.022,0.854c0.532,0,0.757-0.28,0.757-0.589
		c0-0.21-0.112-0.405-0.505-0.504l-1.4-0.322c-1.177-0.266-1.905-0.896-1.905-2.045c0-1.429,1.148-2.354,2.871-2.354
		c1.64,0,2.76,0.812,3.012,2.018l-2.059,0.406c-0.057-0.435-0.364-0.869-0.967-0.869c-0.434,0-0.672,0.225-0.672,0.519
		c0,0.28,0.21,0.462,0.588,0.561l1.387,0.336c1.232,0.309,1.821,1.064,1.821,2.115c0,1.555-1.274,2.367-3.04,2.367
		c-1.457,0-2.871-0.56-3.096-2.044L53.809,148.517z"/>
	<path style="fill:#2E3090;" d="M65.753,147.859h-5.154c0.182,0.84,0.756,1.358,1.513,1.358c0.518,0,1.12-0.126,1.498-0.812
		l1.989,0.406c-0.603,1.485-1.877,2.199-3.487,2.199c-2.031,0-3.712-1.499-3.712-3.725c0-2.214,1.681-3.727,3.726-3.727
		c1.989,0,3.586,1.429,3.628,3.727V147.859z M60.641,146.486h2.899c-0.21-0.756-0.771-1.106-1.415-1.106
		C61.495,145.379,60.851,145.772,60.641,146.486z"/>
	<path style="fill:#2E3090;" d="M78.705,146.402v4.398h-2.227v-3.922c0-0.799-0.519-1.303-1.177-1.303
		c-0.826,0-1.373,0.603-1.373,1.778v3.446h-2.241v-3.922c0-0.799-0.519-1.303-1.19-1.303c-0.812,0-1.345,0.603-1.345,1.778v3.446
		h-2.241v-7.032h2.241v0.645c0.477-0.532,1.162-0.854,2.073-0.854c0.98,0,1.821,0.421,2.297,1.191
		c0.561-0.729,1.401-1.191,2.493-1.191C77.515,143.558,78.705,144.693,78.705,146.402z"/>
	<path style="fill:#2E3090;" d="M87.439,150.562c-0.462,0.267-0.826,0.364-1.261,0.364c-0.645,0-1.274-0.21-1.597-0.854
		c-0.49,0.532-1.247,0.938-2.34,0.938c-1.498,0-2.507-0.881-2.507-2.17c0-1.415,1.022-2.171,2.899-2.312l1.723-0.14v-0.084
		c0-0.589-0.364-1.009-1.022-1.009c-0.56,0-0.938,0.294-1.064,0.91l-2.073-0.434c0.322-1.401,1.485-2.214,3.18-2.214
		c1.892,0,3.138,0.995,3.138,2.788v2.241c0,0.252,0.099,0.392,0.252,0.392c0.099,0,0.253-0.014,0.519-0.027L87.439,150.562z
		 M84.357,148.027v-0.294l-1.358,0.153c-0.645,0.07-0.938,0.351-0.938,0.771c0,0.435,0.351,0.673,0.868,0.673
		C83.728,149.33,84.357,148.811,84.357,148.027z"/>
	<path style="fill:#2E3090;" d="M95.587,146.486v4.314h-2.228v-3.838c0-0.826-0.49-1.387-1.205-1.387
		c-0.882,0-1.456,0.603-1.456,1.961v3.264h-2.241v-7.032h2.241v0.673c0.532-0.561,1.274-0.883,2.157-0.883
		C94.494,143.558,95.587,144.721,95.587,146.486z"/>
	<path style="fill:#2E3090;" d="M104.323,150.562c-0.462,0.267-0.826,0.364-1.261,0.364c-0.645,0-1.274-0.21-1.597-0.854
		c-0.49,0.532-1.247,0.938-2.34,0.938c-1.498,0-2.507-0.881-2.507-2.17c0-1.415,1.022-2.171,2.899-2.312l1.723-0.14v-0.084
		c0-0.589-0.364-1.009-1.022-1.009c-0.561,0-0.938,0.294-1.064,0.91l-2.073-0.434c0.322-1.401,1.485-2.214,3.18-2.214
		c1.892,0,3.138,0.995,3.138,2.788v2.241c0,0.252,0.099,0.392,0.252,0.392c0.099,0,0.253-0.014,0.519-0.027L104.323,150.562z
		 M101.241,148.027v-0.294l-1.358,0.153c-0.645,0.07-0.938,0.351-0.938,0.771c0,0.435,0.351,0.673,0.868,0.673
		C100.611,149.33,101.241,148.811,101.241,148.027z"/>
</g>
<g>
	<path style="fill:#FFFFFF;" d="M63.275,45.865l3.775,0.932c-0.979,4.349-4.588,7.049-8.961,7.049c-5.305,0-9.463-4.134-9.463-9.438
		s4.158-9.463,9.463-9.463c4.373,0,7.957,2.724,8.961,6.906l-3.775,1.1c-0.621-2.844-2.677-4.397-5.186-4.397
		c-3.13,0-5.52,2.533-5.52,5.854c0,3.321,2.39,5.854,5.52,5.854C60.599,50.261,62.654,48.732,63.275,45.865z"/>
	<path style="fill:#FFFFFF;" d="M81.864,47.466c0,3.799-3.034,6.356-6.667,6.356c-3.68,0-6.714-2.557-6.714-6.356
		c0-3.775,3.034-6.356,6.714-6.356C78.83,41.109,81.864,43.69,81.864,47.466z M78.185,47.466c0-1.864-1.362-3.106-2.987-3.106
		c-1.672,0-3.034,1.243-3.034,3.106c0,1.888,1.362,3.106,3.034,3.106C76.822,50.572,78.185,49.354,78.185,47.466z"/>
	<path style="fill:#FFFFFF;" d="M86.762,49.568c0.168,1.028,0.908,1.458,1.745,1.458c0.907,0,1.29-0.478,1.29-1.003
		c0-0.358-0.191-0.693-0.86-0.86l-2.39-0.549c-2.007-0.454-3.25-1.529-3.25-3.489c0-2.438,1.96-4.015,4.898-4.015
		c2.796,0,4.708,1.386,5.138,3.441l-3.513,0.693c-0.096-0.741-0.621-1.482-1.648-1.482c-0.74,0-1.146,0.382-1.146,0.884
		c0,0.478,0.358,0.789,1.003,0.956l2.366,0.573c2.103,0.526,3.106,1.816,3.106,3.608c0,2.652-2.175,4.038-5.186,4.038
		c-2.485,0-4.898-0.956-5.281-3.489L86.762,49.568z"/>
	<path style="fill:#FFFFFF;" d="M100.047,48.899c0,0.956,0.501,1.505,1.361,1.505c0.526,0,1.243-0.191,1.745-0.478l0.884,3.011
		c-0.932,0.502-1.912,0.884-3.273,0.884c-2.844,0-4.54-1.696-4.54-4.54v-4.779h-2.271v-3.035h2.271v-4.086l3.823-1.123v5.209h4.253
		v3.035h-4.253V48.899z"/>
	<path style="fill:#FFFFFF;" d="M118.326,47.466c0,3.799-3.034,6.356-6.667,6.356c-3.68,0-6.714-2.557-6.714-6.356
		c0-3.775,3.034-6.356,6.714-6.356C115.292,41.109,118.326,43.69,118.326,47.466z M114.646,47.466c0-1.864-1.362-3.106-2.987-3.106
		c-1.672,0-3.034,1.243-3.034,3.106c0,1.888,1.362,3.106,3.034,3.106C113.284,50.572,114.646,49.354,114.646,47.466z"/>
	<path style="fill:#FFFFFF;" d="M139.377,47.466c0,3.799-2.677,6.356-5.854,6.356c-1.554,0-2.796-0.478-3.728-1.314v7.646h-3.823
		V41.468h3.823v0.956c0.932-0.836,2.174-1.314,3.728-1.314C136.7,41.109,139.377,43.69,139.377,47.466z M135.625,47.466
		c0-1.84-1.219-3.106-2.892-3.106c-1.553,0-2.938,1.266-2.938,3.106c0,1.864,1.386,3.106,2.938,3.106
		C134.406,50.572,135.625,49.33,135.625,47.466z"/>
	<path style="fill:#FFFFFF;" d="M150.295,41.396l-0.167,3.823h-0.692c-2.677,0-4.134,1.386-4.134,4.492v3.751h-3.823V41.468h3.823
		v2.079c0.884-1.338,2.198-2.246,4.134-2.246C149.77,41.301,150.009,41.325,150.295,41.396z"/>
	<path style="fill:#FFFFFF;" d="M164.464,47.466c0,3.799-3.034,6.356-6.667,6.356c-3.68,0-6.714-2.557-6.714-6.356
		c0-3.775,3.034-6.356,6.714-6.356C161.43,41.109,164.464,43.69,164.464,47.466z M160.784,47.466c0-1.864-1.362-3.106-2.987-3.106
		c-1.672,0-3.034,1.243-3.034,3.106c0,1.888,1.362,3.106,3.034,3.106C159.422,50.572,160.784,49.354,160.784,47.466z"/>
	<path style="fill:#FFFFFF;" d="M186.566,45.96v7.503h-3.8v-6.69c0-1.362-0.884-2.223-2.007-2.223c-1.41,0-2.342,1.028-2.342,3.035
		v5.878h-3.823v-6.69c0-1.362-0.884-2.223-2.031-2.223c-1.386,0-2.294,1.028-2.294,3.035v5.878h-3.823V41.468h3.823v1.099
		c0.812-0.908,1.983-1.458,3.537-1.458c1.672,0,3.105,0.717,3.918,2.031c0.956-1.243,2.39-2.031,4.254-2.031
		C184.535,41.109,186.566,43.045,186.566,45.96z"/>
	<path style="fill:#FFFFFF;" d="M200.927,48.445h-8.794c0.311,1.434,1.291,2.318,2.581,2.318c0.884,0,1.911-0.215,2.557-1.386
		l3.394,0.693c-1.027,2.533-3.202,3.751-5.95,3.751c-3.465,0-6.332-2.557-6.332-6.356c0-3.775,2.867-6.356,6.355-6.356
		c3.394,0,6.117,2.438,6.189,6.356V48.445z M192.205,46.104h4.946c-0.358-1.29-1.314-1.888-2.414-1.888
		C193.662,44.216,192.563,44.885,192.205,46.104z"/>
	<path style="fill:#FFFFFF;" d="M215.525,53.463h-3.823v-0.956c-0.933,0.836-2.175,1.314-3.728,1.314
		c-3.179,0-5.854-2.557-5.854-6.356c0-3.775,2.676-6.356,5.854-6.356c1.553,0,2.795,0.478,3.728,1.314v-8.077h3.823V53.463z
		 M211.702,47.466c0-1.84-1.386-3.106-2.939-3.106c-1.673,0-2.892,1.266-2.892,3.106c0,1.864,1.219,3.106,2.892,3.106
		C210.316,50.572,211.702,49.33,211.702,47.466z"/>
	<path style="fill:#FFFFFF;" d="M222.74,37.597c0,1.218-0.932,2.15-2.223,2.15c-1.29,0-2.198-0.932-2.198-2.15
		c0-1.147,0.908-2.151,2.198-2.151C221.809,35.446,222.74,36.45,222.74,37.597z M218.606,53.463V41.468h3.823v11.996H218.606z"/>
	<path style="fill:#FFFFFF;" d="M237.985,47.466c0,3.799-3.034,6.356-6.667,6.356c-3.68,0-6.714-2.557-6.714-6.356
		c0-3.775,3.034-6.356,6.714-6.356C234.951,41.109,237.985,43.69,237.985,47.466z M234.306,47.466c0-1.864-1.362-3.106-2.987-3.106
		c-1.672,0-3.034,1.243-3.034,3.106c0,1.888,1.362,3.106,3.034,3.106C232.943,50.572,234.306,49.354,234.306,47.466z"/>
</g>
<g>
	<path style="fill:#FFFFFF;" d="M62.701,76.139c0,3.799-2.676,6.356-5.854,6.356c-1.554,0-2.796-0.478-3.728-1.314v7.646h-3.823
		V70.141h3.823v0.956c0.932-0.836,2.174-1.314,3.728-1.314C60.025,69.782,62.701,72.363,62.701,76.139z M58.95,76.139
		c0-1.84-1.219-3.106-2.892-3.106c-1.553,0-2.938,1.266-2.938,3.106c0,1.864,1.386,3.106,2.938,3.106
		C57.731,79.245,58.95,78.002,58.95,76.139z"/>
	<path style="fill:#FFFFFF;" d="M77.276,76.139c0,3.799-3.034,6.356-6.667,6.356c-3.68,0-6.714-2.557-6.714-6.356
		c0-3.775,3.034-6.356,6.714-6.356C74.242,69.782,77.276,72.363,77.276,76.139z M73.597,76.139c0-1.864-1.362-3.106-2.987-3.106
		c-1.672,0-3.034,1.243-3.034,3.106c0,1.888,1.362,3.106,3.034,3.106C72.234,79.245,73.597,78.026,73.597,76.139z"/>
	<path style="fill:#FFFFFF;" d="M88.195,70.069l-0.167,3.823h-0.692c-2.677,0-4.134,1.386-4.134,4.492v3.751h-3.823V70.141h3.823
		v2.079c0.884-1.338,2.198-2.246,4.134-2.246C87.67,69.974,87.909,69.998,88.195,70.069z"/>
	<path style="fill:#FFFFFF;" d="M107.646,74.776v7.36h-3.799v-6.547c0-1.41-0.837-2.366-2.056-2.366
		c-1.505,0-2.484,1.028-2.484,3.346v5.567h-3.823V70.141h3.823v1.147c0.907-0.956,2.174-1.505,3.68-1.505
		C105.782,69.782,107.646,71.766,107.646,74.776z"/>
	<path style="fill:#FFFFFF;" d="M114.574,66.27c0,1.218-0.932,2.15-2.223,2.15c-1.29,0-2.198-0.932-2.198-2.15
		c0-1.147,0.908-2.151,2.198-2.151C113.643,64.119,114.574,65.123,114.574,66.27z M110.44,82.136V70.141h3.823v11.996H110.44z"/>
	<path style="fill:#FFFFFF;" d="M129.508,74.776v7.36h-3.799v-6.547c0-1.41-0.837-2.366-2.056-2.366
		c-1.505,0-2.484,1.028-2.484,3.346v5.567h-3.823V70.141h3.823v1.147c0.907-0.956,2.174-1.505,3.68-1.505
		C127.645,69.782,129.508,71.766,129.508,74.776z M121.574,67.751h-2.317c0-2.605,1.41-3.632,2.748-3.632
		c1.529,0,1.911,0.884,2.892,0.884c0.454,0,0.669-0.334,0.74-0.86h2.318c0,2.652-1.387,3.68-2.772,3.68
		c-1.553,0-1.863-0.86-2.867-0.86C121.861,66.963,121.646,67.273,121.574,67.751z"/>
	<path style="fill:#FFFFFF;" d="M144.704,76.139c0,3.799-3.034,6.356-6.667,6.356c-3.68,0-6.714-2.557-6.714-6.356
		c0-3.775,3.034-6.356,6.714-6.356C141.67,69.782,144.704,72.363,144.704,76.139z M141.024,76.139c0-1.864-1.362-3.106-2.987-3.106
		c-1.672,0-3.034,1.243-3.034,3.106c0,1.888,1.362,3.106,3.034,3.106C139.662,79.245,141.024,78.026,141.024,76.139z"/>
	<path style="fill:#FFFFFF;" d="M164.536,81.73c-0.789,0.454-1.41,0.621-2.151,0.621c-1.099,0-2.174-0.358-2.724-1.458
		c-0.836,0.908-2.127,1.601-3.99,1.601c-2.557,0-4.277-1.505-4.277-3.704c0-2.414,1.744-3.704,4.946-3.943l2.938-0.239v-0.144
		c0-1.003-0.621-1.72-1.744-1.72c-0.956,0-1.601,0.501-1.815,1.553l-3.537-0.741c0.55-2.389,2.533-3.775,5.425-3.775
		c3.226,0,5.353,1.697,5.353,4.755v3.823c0,0.43,0.167,0.669,0.43,0.669c0.167,0,0.431-0.024,0.884-0.048L164.536,81.73z
		 M159.278,77.405v-0.501l-2.317,0.263c-1.1,0.12-1.601,0.597-1.601,1.314c0,0.741,0.597,1.147,1.481,1.147
		C158.203,79.627,159.278,78.743,159.278,77.405z"/>
	<path style="fill:#FFFFFF;" d="M170.581,77.572c0,0.956,0.501,1.505,1.361,1.505c0.526,0,1.243-0.191,1.745-0.478l0.884,3.011
		c-0.932,0.502-1.912,0.884-3.273,0.884c-2.844,0-4.54-1.696-4.54-4.54v-4.779h-2.271v-3.035h2.271v-4.086l3.823-1.123v5.209h4.253
		v3.035h-4.253V77.572z"/>
	<path style="fill:#FFFFFF;" d="M188.023,77.118h-8.794c0.311,1.434,1.291,2.318,2.581,2.318c0.884,0,1.911-0.215,2.557-1.386
		l3.394,0.693c-1.028,2.533-3.202,3.751-5.95,3.751c-3.465,0-6.332-2.557-6.332-6.356c0-3.775,2.867-6.356,6.355-6.356
		c3.394,0,6.117,2.438,6.189,6.356V77.118z M179.302,74.776h4.946c-0.358-1.29-1.314-1.888-2.414-1.888
		C180.759,72.889,179.66,73.558,179.302,74.776z"/>
	<path style="fill:#FFFFFF;" d="M202.288,74.776v7.36h-3.799v-6.547c0-1.41-0.837-2.366-2.056-2.366
		c-1.505,0-2.484,1.028-2.484,3.346v5.567h-3.823V70.141h3.823v1.147c0.907-0.956,2.174-1.505,3.68-1.505
		C200.425,69.782,202.288,71.766,202.288,74.776z"/>
	<path style="fill:#FFFFFF;" d="M217.509,82.136h-3.823V81.18c-0.933,0.836-2.175,1.314-3.728,1.314
		c-3.179,0-5.854-2.557-5.854-6.356c0-3.775,2.676-6.356,5.854-6.356c1.553,0,2.795,0.478,3.728,1.314V63.02h3.823V82.136z
		 M213.686,76.139c0-1.84-1.387-3.106-2.939-3.106c-1.673,0-2.892,1.266-2.892,3.106c0,1.864,1.219,3.106,2.892,3.106
		C212.299,79.245,213.686,78.002,213.686,76.139z"/>
	<path style="fill:#FFFFFF;" d="M224.724,66.27c0,1.218-0.932,2.15-2.223,2.15c-1.29,0-2.198-0.932-2.198-2.15
		c0-1.147,0.908-2.151,2.198-2.151C223.792,64.119,224.724,65.123,224.724,66.27z M220.59,82.136V70.141h3.823v11.996H220.59z"/>
	<path style="fill:#FFFFFF;" d="M239.992,82.136h-3.823V81.18c-0.933,0.836-2.175,1.314-3.728,1.314
		c-3.179,0-5.854-2.557-5.854-6.356c0-3.775,2.676-6.356,5.854-6.356c1.553,0,2.795,0.478,3.728,1.314V63.02h3.823V82.136z
		 M236.169,76.139c0-1.84-1.386-3.106-2.939-3.106c-1.673,0-2.892,1.266-2.892,3.106c0,1.864,1.219,3.106,2.892,3.106
		C234.783,79.245,236.169,78.002,236.169,76.139z"/>
	<path style="fill:#FFFFFF;" d="M255.475,76.139c0,3.799-3.034,6.356-6.667,6.356c-3.68,0-6.714-2.557-6.714-6.356
		c0-3.775,3.034-6.356,6.714-6.356C252.44,69.782,255.475,72.363,255.475,76.139z M251.795,76.139c0-1.864-1.362-3.106-2.987-3.106
		c-1.672,0-3.034,1.243-3.034,3.106c0,1.888,1.362,3.106,3.034,3.106C250.433,79.245,251.795,78.026,251.795,76.139z"/>
	<path style="fill:#FFFFFF;" d="M261.209,72.435c0,1.219-0.932,2.151-2.198,2.151s-2.175-0.932-2.175-2.151
		c0-1.147,0.908-2.15,2.175-2.15S261.209,71.288,261.209,72.435z M261.209,80.105c0,1.219-0.932,2.151-2.198,2.151
		s-2.175-0.932-2.175-2.151c0-1.147,0.908-2.15,2.175-2.15S261.209,78.958,261.209,80.105z"/>
</g>
<g>
	<path style="fill:#2E3090;" d="M153.982,135.878l-3.937,0.816c-0.336-1.848-1.68-2.664-3.168-2.664
		c-1.296,0-2.424,0.648-2.424,1.968c0,0.841,0.432,1.393,1.536,1.729l3.864,1.152c2.76,0.84,4.344,2.28,4.344,5.088
		c0,3.793-3.191,5.665-6.984,5.665c-3.792,0-7.009-1.896-7.465-5.473l4.129-0.84c0.408,2.016,1.704,2.88,3.552,2.88
		c1.704,0,2.688-0.769,2.688-2.017c0-0.936-0.504-1.487-1.776-1.848l-3.504-0.96c-2.353-0.672-4.608-1.944-4.608-5.089
		c0-3.528,2.736-5.616,6.673-5.616C150.646,130.67,153.311,132.567,153.982,135.878z"/>
	<path style="fill:#2E3090;" d="M158.325,151.217h-2.808l6.912-21.867h2.809L158.325,151.217z"/>
	<path style="fill:#2E3090;" d="M170.757,147.232c0,1.224-0.936,2.16-2.208,2.16s-2.184-0.937-2.184-2.16
		c0-1.152,0.911-2.16,2.184-2.16S170.757,146.08,170.757,147.232z"/>
	<path style="fill:#2E3090;" d="M190.989,149.272H177.74V148l6.889-7.561c1.248-1.392,2.112-2.424,2.112-3.912
		c0-1.464-0.984-2.448-2.473-2.448c-1.752,0-2.855,1.272-2.976,3.192l-3.696-0.696c0.191-3.601,2.952-5.904,6.721-5.904
		c3.84,0,6.384,2.328,6.384,5.832c0,2.473-1.2,3.865-3.264,6.217l-2.641,3.024h6.192V149.272z"/>
	<path style="fill:#2E3090;" d="M200.277,137.511c3.936,0,6.312,2.304,6.312,5.856c0,3.72-2.856,6.288-6.793,6.288
		c-3.601,0-6.864-2.184-6.961-6.24l3.816-0.744c0.024,2.473,1.656,3.553,3.217,3.553c1.584,0,2.976-1.104,2.976-2.809
		c0-1.561-1.151-2.616-2.904-2.616h-6.432l1.487-9.769h10.921v3.528h-7.8l-0.48,2.952H200.277z"/>
</g>
<g>
	<path style="fill:#FFFFFF;" d="M60.027,186.424c0,2.227-1.568,3.725-3.432,3.725c-0.91,0-1.639-0.279-2.185-0.77v4.482H52.17
		v-10.955h2.241v0.561c0.546-0.49,1.274-0.77,2.185-0.77C58.459,182.697,60.027,184.209,60.027,186.424z M57.829,186.424
		c0-1.08-0.715-1.822-1.695-1.822c-0.91,0-1.723,0.742-1.723,1.822c0,1.092,0.812,1.82,1.723,1.82
		C57.114,188.244,57.829,187.516,57.829,186.424z"/>
	<path style="fill:#FFFFFF;" d="M68.567,186.424c0,2.227-1.779,3.725-3.908,3.725c-2.157,0-3.936-1.498-3.936-3.725
		c0-2.215,1.778-3.727,3.936-3.727C66.788,182.697,68.567,184.209,68.567,186.424z M66.41,186.424c0-1.094-0.798-1.822-1.751-1.822
		c-0.98,0-1.778,0.729-1.778,1.822c0,1.105,0.798,1.82,1.778,1.82C65.612,188.244,66.41,187.529,66.41,186.424z"/>
	<path style="fill:#FFFFFF;" d="M74.965,182.865l-0.099,2.24H74.46c-1.568,0-2.423,0.812-2.423,2.635v2.199h-2.241v-7.033h2.241
		v1.219c0.518-0.783,1.288-1.316,2.423-1.316C74.656,182.809,74.796,182.822,74.965,182.865z"/>
</g>
<g>
	<path style="fill:#2E3090;" d="M63.894,202.34v4.398h-2.227v-3.922c0-0.799-0.519-1.303-1.177-1.303
		c-0.826,0-1.373,0.604-1.373,1.779v3.445h-2.241v-3.922c0-0.799-0.519-1.303-1.19-1.303c-0.812,0-1.345,0.604-1.345,1.779v3.445
		H52.1v-7.031h2.241v0.645c0.477-0.533,1.162-0.855,2.073-0.855c0.98,0,1.82,0.422,2.297,1.191c0.561-0.729,1.401-1.191,2.493-1.191
		C62.703,199.496,63.894,200.631,63.894,202.34z"/>
	<path style="fill:#2E3090;" d="M72.305,203.797H67.15c0.182,0.84,0.756,1.359,1.513,1.359c0.518,0,1.12-0.127,1.498-0.812
		l1.989,0.406c-0.602,1.484-1.877,2.199-3.487,2.199c-2.031,0-3.712-1.5-3.712-3.727c0-2.213,1.681-3.727,3.726-3.727
		c1.989,0,3.586,1.43,3.628,3.727V203.797z M67.192,202.424h2.899c-0.21-0.756-0.771-1.105-1.415-1.105
		C68.047,201.318,67.402,201.711,67.192,202.424z"/>
	<path style="fill:#2E3090;" d="M75.173,204.455c0.098,0.604,0.532,0.855,1.022,0.855c0.532,0,0.757-0.281,0.757-0.588
		c0-0.211-0.112-0.406-0.505-0.506l-1.4-0.322c-1.177-0.266-1.905-0.896-1.905-2.045c0-1.428,1.148-2.354,2.872-2.354
		c1.639,0,2.759,0.812,3.011,2.018l-2.059,0.406c-0.056-0.434-0.364-0.869-0.967-0.869c-0.435,0-0.672,0.225-0.672,0.52
		c0,0.279,0.21,0.463,0.588,0.561l1.387,0.336c1.232,0.309,1.821,1.064,1.821,2.115c0,1.555-1.274,2.367-3.04,2.367
		c-1.457,0-2.871-0.561-3.096-2.045L75.173,204.455z"/>
</g>
<g>
	<path style="fill:#2E3090;" d="M153.982,192.463l-3.937,0.816c-0.336-1.848-1.68-2.664-3.168-2.664
		c-1.296,0-2.424,0.648-2.424,1.967c0,0.842,0.432,1.393,1.536,1.729l3.864,1.152c2.76,0.84,4.344,2.281,4.344,5.088
		c0,3.793-3.191,5.666-6.984,5.666c-3.792,0-7.009-1.896-7.465-5.473l4.129-0.84c0.408,2.016,1.704,2.879,3.552,2.879
		c1.704,0,2.688-0.768,2.688-2.016c0-0.936-0.504-1.488-1.776-1.848l-3.504-0.961c-2.353-0.672-4.608-1.943-4.608-5.088
		c0-3.529,2.736-5.617,6.673-5.617C150.646,187.254,153.311,189.15,153.982,192.463z"/>
	<path style="fill:#2E3090;" d="M158.325,207.801h-2.808l6.912-21.867h2.809L158.325,207.801z"/>
	<path style="fill:#2E3090;" d="M170.757,203.816c0,1.223-0.936,2.16-2.208,2.16s-2.184-0.938-2.184-2.16
		c0-1.152,0.911-2.16,2.184-2.16S170.757,202.664,170.757,203.816z"/>
	<path style="fill:#2E3090;" d="M185.805,205.855h-3.936v-13.488l-4.249,1.32v-3.602l7.489-2.471h0.695V205.855z"/>
	<path style="fill:#2E3090;" d="M207.453,196.783c0,5.281-4.128,9.434-9.385,9.434c-5.256,0-9.385-4.152-9.385-9.434
		c0-5.305,4.129-9.529,9.385-9.529C203.325,187.254,207.453,191.479,207.453,196.783z M203.493,196.783
		c0-3.359-2.353-5.904-5.425-5.904s-5.424,2.545-5.424,5.904c0,3.336,2.352,5.832,5.424,5.832S203.493,200.119,203.493,196.783z"/>
	<path style="fill:#2E3090;" d="M227.901,196.783c0,5.281-4.128,9.434-9.385,9.434c-5.256,0-9.385-4.152-9.385-9.434
		c0-5.305,4.129-9.529,9.385-9.529C223.773,187.254,227.901,191.479,227.901,196.783z M223.941,196.783
		c0-3.359-2.353-5.904-5.425-5.904s-5.424,2.545-5.424,5.904c0,3.336,2.352,5.832,5.424,5.832S223.941,200.119,223.941,196.783z"/>
</g>
<g>
	<path style="fill:#FFFFFF;" d="M60.027,243.416c0,2.227-1.568,3.727-3.432,3.727c-0.91,0-1.639-0.281-2.185-0.771v4.482H52.17
		V239.9h2.241v0.561c0.546-0.49,1.274-0.771,2.185-0.771C58.459,239.689,60.027,241.203,60.027,243.416z M57.829,243.416
		c0-1.078-0.715-1.82-1.695-1.82c-0.91,0-1.723,0.742-1.723,1.82c0,1.094,0.812,1.82,1.723,1.82
		C57.114,245.236,57.829,244.51,57.829,243.416z"/>
	<path style="fill:#FFFFFF;" d="M68.567,243.416c0,2.227-1.779,3.727-3.908,3.727c-2.157,0-3.936-1.5-3.936-3.727
		c0-2.213,1.778-3.727,3.936-3.727C66.788,239.689,68.567,241.203,68.567,243.416z M66.41,243.416c0-1.092-0.798-1.82-1.751-1.82
		c-0.98,0-1.778,0.729-1.778,1.82c0,1.107,0.798,1.82,1.778,1.82C65.612,245.236,66.41,244.523,66.41,243.416z"/>
	<path style="fill:#FFFFFF;" d="M74.965,239.857l-0.099,2.242H74.46c-1.568,0-2.423,0.812-2.423,2.633v2.199h-2.241V239.9h2.241
		v1.219c0.518-0.785,1.288-1.316,2.423-1.316C74.656,239.803,74.796,239.816,74.965,239.857z"/>
</g>
<g>
	<path style="fill:#2E3090;" d="M59.313,263.494c-0.462,0.266-0.826,0.363-1.261,0.363c-0.645,0-1.274-0.209-1.597-0.854
		c-0.49,0.531-1.247,0.938-2.34,0.938c-1.498,0-2.507-0.881-2.507-2.17c0-1.416,1.022-2.172,2.899-2.312l1.723-0.139v-0.084
		c0-0.59-0.364-1.01-1.022-1.01c-0.561,0-0.938,0.295-1.064,0.91l-2.073-0.434c0.322-1.4,1.485-2.213,3.18-2.213
		c1.892,0,3.138,0.994,3.138,2.787v2.242c0,0.252,0.099,0.391,0.252,0.391c0.099,0,0.253-0.014,0.519-0.027L59.313,263.494z
		 M56.231,260.959v-0.295l-1.358,0.154c-0.645,0.07-0.938,0.35-0.938,0.77c0,0.436,0.351,0.674,0.868,0.674
		C55.602,262.262,56.231,261.742,56.231,260.959z"/>
	<path style="fill:#2E3090;" d="M67.462,259.418v4.314h-2.228v-3.838c0-0.826-0.49-1.387-1.205-1.387
		c-0.882,0-1.456,0.602-1.456,1.961v3.264h-2.241v-7.033h2.241v0.674c0.532-0.561,1.274-0.883,2.157-0.883
		C66.369,256.49,67.462,257.652,67.462,259.418z M62.811,255.299h-1.358c0-1.525,0.826-2.129,1.611-2.129
		c0.896,0,1.12,0.52,1.694,0.52c0.267,0,0.393-0.197,0.435-0.506h1.358c0,1.555-0.812,2.158-1.625,2.158
		c-0.91,0-1.092-0.504-1.681-0.504C62.979,254.838,62.854,255.02,62.811,255.299z"/>
	<path style="fill:#2E3090;" d="M76.365,260.217c0,2.227-1.779,3.725-3.908,3.725c-2.157,0-3.936-1.498-3.936-3.725
		c0-2.215,1.778-3.727,3.936-3.727C74.586,256.49,76.365,258.002,76.365,260.217z M74.208,260.217c0-1.094-0.798-1.822-1.751-1.822
		c-0.98,0-1.778,0.729-1.778,1.822c0,1.105,0.798,1.82,1.778,1.82C73.41,262.037,74.208,261.322,74.208,260.217z"/>
</g>
<g>
	<path style="fill:#2E3090;" d="M153.982,249.047l-3.937,0.816c-0.336-1.848-1.68-2.664-3.168-2.664
		c-1.296,0-2.424,0.648-2.424,1.969c0,0.84,0.432,1.393,1.536,1.729l3.864,1.152c2.76,0.84,4.344,2.279,4.344,5.088
		c0,3.793-3.191,5.664-6.984,5.664c-3.792,0-7.009-1.896-7.465-5.473l4.129-0.84c0.408,2.016,1.704,2.881,3.552,2.881
		c1.704,0,2.688-0.768,2.688-2.018c0-0.936-0.504-1.486-1.776-1.848l-3.504-0.959c-2.353-0.672-4.608-1.945-4.608-5.09
		c0-3.527,2.736-5.615,6.673-5.615C150.646,243.84,153.311,245.736,153.982,249.047z"/>
	<path style="fill:#2E3090;" d="M158.325,264.385h-2.808l6.912-21.865h2.809L158.325,264.385z"/>
	<path style="fill:#2E3090;" d="M170.757,260.4c0,1.225-0.936,2.16-2.208,2.16s-2.184-0.936-2.184-2.16
		c0-1.152,0.911-2.16,2.184-2.16S170.757,259.248,170.757,260.4z"/>
	<path style="fill:#2E3090;" d="M185.805,262.441h-3.936v-13.49l-4.249,1.32v-3.6l7.489-2.473h0.695V262.441z"/>
	<path style="fill:#2E3090;" d="M187.916,265.609l1.416-6.912h4.248v0.096l-2.76,6.816H187.916z"/>
	<path style="fill:#2E3090;" d="M208.101,262.441h-13.249v-1.273l6.889-7.561c1.248-1.391,2.112-2.424,2.112-3.912
		c0-1.463-0.984-2.447-2.473-2.447c-1.752,0-2.855,1.271-2.976,3.191l-3.696-0.695c0.191-3.602,2.952-5.904,6.721-5.904
		c3.84,0,6.384,2.328,6.384,5.832c0,2.473-1.2,3.865-3.264,6.217l-2.641,3.023h6.192V262.441z"/>
	<path style="fill:#2E3090;" d="M228.838,253.367c0,5.281-4.128,9.434-9.385,9.434c-5.256,0-9.385-4.152-9.385-9.434
		c0-5.303,4.129-9.527,9.385-9.527C224.71,243.84,228.838,248.064,228.838,253.367z M224.878,253.367
		c0-3.359-2.353-5.904-5.425-5.904s-5.424,2.545-5.424,5.904c0,3.338,2.352,5.834,5.424,5.834S224.878,256.705,224.878,253.367z"/>
	<path style="fill:#2E3090;" d="M249.285,253.367c0,5.281-4.128,9.434-9.385,9.434c-5.256,0-9.385-4.152-9.385-9.434
		c0-5.303,4.129-9.527,9.385-9.527C245.157,243.84,249.285,248.064,249.285,253.367z M245.325,253.367
		c0-3.359-2.353-5.904-5.425-5.904s-5.424,2.545-5.424,5.904c0,3.338,2.352,5.834,5.424,5.834S245.325,256.705,245.325,253.367z"/>
</g>
</svg>
