<?xml version="1.0" encoding="iso-8859-1"?>
<!-- Generator: Adobe Illustrator 15.0.0, SVG Export Plug-In . SVG Version: 6.00 Build 0)  -->
<!DOCTYPE svg PUBLIC "-//W3C//DTD SVG 1.1//EN" "http://www.w3.org/Graphics/SVG/1.1/DTD/svg11.dtd">
<svg version="1.1" id="Layer_1" xmlns="http://www.w3.org/2000/svg" xmlns:xlink="http://www.w3.org/1999/xlink" x="0px" y="0px"
	 width="340px" height="300px" viewBox="0 0 340 300" style="enable-background:new 0 0 340 300;" xml:space="preserve">
<g>
	<path style="fill:#2E3090;" d="M23.998,113.95c7.465,0,11.971,4.37,11.971,11.106c0,7.056-5.417,11.926-12.881,11.926
		c-6.828,0-13.018-4.143-13.2-11.835l7.237-1.411c0.046,4.688,3.141,6.737,6.1,6.737c3.004,0,5.644-2.094,5.644-5.326
		c0-2.958-2.185-4.961-5.508-4.961H11.163l2.822-18.525h20.71v6.69H19.902l-0.911,5.599H23.998z"/>
	<path style="fill:#2E3090;" d="M52.944,113.95c7.465,0,11.971,4.37,11.971,11.106c0,7.056-5.417,11.926-12.881,11.926
		c-6.828,0-13.018-4.143-13.2-11.835l7.237-1.411c0.046,4.688,3.141,6.737,6.1,6.737c3.004,0,5.644-2.094,5.644-5.326
		c0-2.958-2.185-4.961-5.508-4.961H40.109l2.822-18.525h20.71v6.69H48.848l-0.911,5.599H52.944z"/>
</g>
<g>
	<path style="fill:#05ACED;" d="M80.036,101.847c2.15,0,3.478,1.248,3.478,3.014c0,1.778-1.328,3.026-3.478,3.026h-1.898v4.049
		h-2.19v-10.089H80.036z M79.93,106.015c0.942,0,1.434-0.504,1.434-1.154c0-0.638-0.491-1.143-1.434-1.143h-1.792v2.297H79.93z"/>
	<path style="fill:#05ACED;" d="M89.527,105.231l-0.093,2.124h-0.385c-1.487,0-2.296,0.771-2.296,2.496v2.084h-2.124v-6.664h2.124
		v1.155c0.491-0.744,1.221-1.248,2.296-1.248C89.235,105.179,89.368,105.191,89.527,105.231z"/>
	<path style="fill:#05ACED;" d="M97.426,108.604c0,2.11-1.686,3.531-3.704,3.531c-2.044,0-3.73-1.421-3.73-3.531
		c0-2.098,1.686-3.531,3.73-3.531C95.74,105.072,97.426,106.506,97.426,108.604z M95.382,108.604c0-1.035-0.757-1.726-1.66-1.726
		c-0.929,0-1.686,0.69-1.686,1.726c0,1.049,0.756,1.726,1.686,1.726C94.625,110.329,95.382,109.652,95.382,108.604z"/>
	<path style="fill:#05ACED;" d="M101.023,106.957v4.979h-2.11v-4.979h-1.155v-1.686h1.155v-1.421c0-1.633,1.115-2.734,2.721-2.734
		c0.452,0,0.943,0.093,1.434,0.412l-0.584,1.539c-0.226-0.105-0.451-0.133-0.61-0.133c-0.505,0-0.85,0.372-0.85,0.916v1.421h2.23
		v1.686H101.023z"/>
	<path style="fill:#05ACED;" d="M110.502,109.147h-4.886c0.173,0.797,0.717,1.288,1.434,1.288c0.491,0,1.062-0.119,1.421-0.771
		l1.885,0.386c-0.571,1.407-1.779,2.084-3.306,2.084c-1.925,0-3.518-1.421-3.518-3.531c0-2.098,1.593-3.531,3.531-3.531
		c1.885,0,3.398,1.354,3.438,3.531V109.147z M105.656,107.847h2.748c-0.199-0.717-0.73-1.049-1.341-1.049
		C106.466,106.798,105.855,107.17,105.656,107.847z"/>
	<path style="fill:#05ACED;" d="M113.223,109.771c0.093,0.571,0.504,0.81,0.969,0.81c0.505,0,0.717-0.265,0.717-0.557
		c0-0.199-0.105-0.386-0.478-0.479l-1.327-0.306c-1.115-0.252-1.806-0.85-1.806-1.938c0-1.354,1.088-2.23,2.721-2.23
		c1.554,0,2.615,0.77,2.854,1.912l-1.951,0.385c-0.054-0.412-0.346-0.823-0.916-0.823c-0.411,0-0.638,0.212-0.638,0.491
		c0,0.266,0.199,0.438,0.558,0.531l1.314,0.318c1.168,0.292,1.726,1.009,1.726,2.005c0,1.473-1.208,2.243-2.881,2.243
		c-1.38,0-2.721-0.531-2.934-1.938L113.223,109.771z"/>
	<path style="fill:#05ACED;" d="M120.418,103.121c0,0.677-0.518,1.194-1.234,1.194s-1.222-0.518-1.222-1.194
		c0-0.638,0.505-1.195,1.222-1.195S120.418,102.483,120.418,103.121z M118.121,111.936v-6.664h2.124v6.664H118.121z"/>
	<path style="fill:#05ACED;" d="M128.887,108.604c0,2.11-1.686,3.531-3.703,3.531c-2.045,0-3.73-1.421-3.73-3.531
		c0-2.098,1.686-3.531,3.73-3.531C127.201,105.072,128.887,106.506,128.887,108.604z M126.843,108.604
		c0-1.035-0.757-1.726-1.659-1.726c-0.93,0-1.687,0.69-1.687,1.726c0,1.049,0.757,1.726,1.687,1.726
		C126.086,110.329,126.843,109.652,126.843,108.604z"/>
	<path style="fill:#05ACED;" d="M136.812,107.847v4.089h-2.111v-3.638c0-0.783-0.465-1.313-1.142-1.313
		c-0.836,0-1.381,0.57-1.381,1.858v3.093h-2.124v-6.664h2.124v0.637c0.505-0.53,1.208-0.836,2.045-0.836
		C135.776,105.072,136.812,106.174,136.812,107.847z"/>
	<path style="fill:#05ACED;" d="M145.096,111.71c-0.438,0.252-0.783,0.345-1.194,0.345c-0.611,0-1.208-0.199-1.514-0.81
		c-0.465,0.505-1.182,0.89-2.217,0.89c-1.421,0-2.376-0.837-2.376-2.058c0-1.341,0.969-2.058,2.748-2.19l1.633-0.133v-0.08
		c0-0.558-0.346-0.955-0.97-0.955c-0.531,0-0.89,0.278-1.009,0.862l-1.965-0.411c0.306-1.328,1.407-2.098,3.014-2.098
		c1.792,0,2.974,0.942,2.974,2.642v2.124c0,0.239,0.093,0.372,0.239,0.372c0.093,0,0.238-0.014,0.491-0.026L145.096,111.71z
		 M142.176,109.307v-0.278l-1.288,0.146c-0.61,0.065-0.89,0.331-0.89,0.729c0,0.412,0.332,0.638,0.823,0.638
		C141.578,110.542,142.176,110.051,142.176,109.307z"/>
	<path style="fill:#05ACED;" d="M146.064,111.936v-10.62h2.124v10.62H146.064z"/>
	<path style="fill:#05ACED;" d="M156.327,109.147h-4.886c0.173,0.797,0.717,1.288,1.434,1.288c0.491,0,1.062-0.119,1.421-0.771
		l1.885,0.386c-0.57,1.407-1.779,2.084-3.306,2.084c-1.925,0-3.518-1.421-3.518-3.531c0-2.098,1.593-3.531,3.531-3.531
		c1.885,0,3.398,1.354,3.438,3.531V109.147z M151.481,107.847h2.748c-0.199-0.717-0.73-1.049-1.341-1.049
		C152.291,106.798,151.681,107.17,151.481,107.847z"/>
	<path style="fill:#05ACED;" d="M159.048,109.771c0.093,0.571,0.504,0.81,0.969,0.81c0.505,0,0.717-0.265,0.717-0.557
		c0-0.199-0.105-0.386-0.478-0.479l-1.327-0.306c-1.115-0.252-1.806-0.85-1.806-1.938c0-1.354,1.088-2.23,2.722-2.23
		c1.553,0,2.614,0.77,2.854,1.912l-1.951,0.385c-0.053-0.412-0.346-0.823-0.916-0.823c-0.412,0-0.638,0.212-0.638,0.491
		c0,0.266,0.199,0.438,0.558,0.531l1.314,0.318c1.168,0.292,1.726,1.009,1.726,2.005c0,1.473-1.208,2.243-2.881,2.243
		c-1.38,0-2.721-0.531-2.934-1.938L159.048,109.771z"/>
	<path style="fill:#05ACED;" d="M173.451,109.147h-4.886c0.173,0.797,0.717,1.288,1.434,1.288c0.491,0,1.062-0.119,1.421-0.771
		l1.885,0.386c-0.571,1.407-1.779,2.084-3.306,2.084c-1.925,0-3.518-1.421-3.518-3.531c0-2.098,1.593-3.531,3.531-3.531
		c1.885,0,3.398,1.354,3.438,3.531V109.147z M168.605,107.847h2.748c-0.199-0.717-0.73-1.049-1.341-1.049
		C169.415,106.798,168.805,107.17,168.605,107.847z"/>
	<path style="fill:#05ACED;" d="M176.172,109.771c0.093,0.571,0.504,0.81,0.969,0.81c0.505,0,0.717-0.265,0.717-0.557
		c0-0.199-0.105-0.386-0.478-0.479l-1.327-0.306c-1.115-0.252-1.806-0.85-1.806-1.938c0-1.354,1.088-2.23,2.721-2.23
		c1.554,0,2.615,0.77,2.854,1.912l-1.951,0.385c-0.054-0.412-0.346-0.823-0.916-0.823c-0.411,0-0.638,0.212-0.638,0.491
		c0,0.266,0.199,0.438,0.558,0.531l1.314,0.318c1.168,0.292,1.726,1.009,1.726,2.005c0,1.473-1.208,2.243-2.881,2.243
		c-1.38,0-2.721-0.531-2.934-1.938L176.172,109.771z"/>
	<path style="fill:#05ACED;" d="M188.478,108.604c0,2.11-1.486,3.531-3.252,3.531c-0.863,0-1.553-0.266-2.071-0.73v4.248h-2.124
		v-10.381h2.124v0.531c0.519-0.465,1.208-0.73,2.071-0.73C186.991,105.072,188.478,106.506,188.478,108.604z M186.394,108.604
		c0-1.022-0.677-1.726-1.606-1.726c-0.862,0-1.633,0.703-1.633,1.726c0,1.035,0.771,1.726,1.633,1.726
		C185.717,110.329,186.394,109.639,186.394,108.604z"/>
	<path style="fill:#05ACED;" d="M196.111,109.147h-4.886c0.173,0.797,0.717,1.288,1.434,1.288c0.491,0,1.062-0.119,1.421-0.771
		l1.885,0.386c-0.571,1.407-1.779,2.084-3.306,2.084c-1.925,0-3.518-1.421-3.518-3.531c0-2.098,1.593-3.531,3.531-3.531
		c1.885,0,3.398,1.354,3.438,3.531V109.147z M191.266,107.847h2.748c-0.199-0.717-0.73-1.049-1.341-1.049
		C192.075,106.798,191.465,107.17,191.266,107.847z"/>
	<path style="fill:#05ACED;" d="M203.903,109.533c-0.346,1.579-1.779,2.602-3.452,2.602c-2.004,0-3.677-1.421-3.677-3.531
		c0-2.098,1.673-3.531,3.677-3.531c1.646,0,3.066,0.996,3.438,2.562l-1.978,0.478c-0.199-0.81-0.771-1.208-1.461-1.208
		c-0.969,0-1.633,0.73-1.633,1.699c0,0.982,0.664,1.699,1.633,1.699c0.69,0,1.262-0.385,1.5-1.194L203.903,109.533z"/>
	<path style="fill:#05ACED;" d="M207.355,103.121c0,0.677-0.518,1.194-1.234,1.194s-1.222-0.518-1.222-1.194
		c0-0.638,0.505-1.195,1.222-1.195S207.355,102.483,207.355,103.121z M205.059,111.936v-6.664h2.124v6.664H205.059z"/>
	<path style="fill:#05ACED;" d="M215.665,111.71c-0.438,0.252-0.783,0.345-1.194,0.345c-0.611,0-1.208-0.199-1.514-0.81
		c-0.465,0.505-1.182,0.89-2.217,0.89c-1.421,0-2.376-0.837-2.376-2.058c0-1.341,0.969-2.058,2.748-2.19l1.633-0.133v-0.08
		c0-0.558-0.346-0.955-0.97-0.955c-0.53,0-0.89,0.278-1.009,0.862l-1.965-0.411c0.306-1.328,1.407-2.098,3.014-2.098
		c1.792,0,2.974,0.942,2.974,2.642v2.124c0,0.239,0.093,0.372,0.239,0.372c0.093,0,0.238-0.014,0.491-0.026L215.665,111.71z
		 M212.745,109.307v-0.278l-1.288,0.146c-0.61,0.065-0.89,0.331-0.89,0.729c0,0.412,0.332,0.638,0.823,0.638
		C212.147,110.542,212.745,110.051,212.745,109.307z"/>
	<path style="fill:#05ACED;" d="M216.634,111.936v-10.62h2.124v10.62H216.634z"/>
	<path style="fill:#05ACED;" d="M222.768,103.121c0,0.677-0.518,1.194-1.234,1.194s-1.222-0.518-1.222-1.194
		c0-0.638,0.505-1.195,1.222-1.195S222.768,102.483,222.768,103.121z M220.471,111.936v-6.664h2.124v6.664H220.471z"/>
	<path style="fill:#05ACED;" d="M226.962,110.25h2.947v1.686h-5.947v-0.664l2.987-4.314h-2.921v-1.686h5.934v0.703L226.962,110.25z"
		/>
	<path style="fill:#05ACED;" d="M237.913,111.71c-0.438,0.252-0.783,0.345-1.194,0.345c-0.611,0-1.208-0.199-1.514-0.81
		c-0.465,0.505-1.182,0.89-2.217,0.89c-1.421,0-2.376-0.837-2.376-2.058c0-1.341,0.969-2.058,2.748-2.19l1.633-0.133v-0.08
		c0-0.558-0.346-0.955-0.97-0.955c-0.53,0-0.89,0.278-1.009,0.862l-1.965-0.411c0.306-1.328,1.407-2.098,3.014-2.098
		c1.792,0,2.974,0.942,2.974,2.642v2.124c0,0.239,0.093,0.372,0.239,0.372c0.093,0,0.238-0.014,0.491-0.026L237.913,111.71z
		 M234.993,109.307v-0.278l-1.288,0.146c-0.61,0.065-0.89,0.331-0.89,0.729c0,0.412,0.332,0.638,0.823,0.638
		C234.396,110.542,234.993,110.051,234.993,109.307z"/>
	<path style="fill:#05ACED;" d="M245.825,111.936h-2.124v-0.531c-0.518,0.465-1.208,0.73-2.071,0.73
		c-1.766,0-3.252-1.421-3.252-3.531c0-2.098,1.486-3.531,3.252-3.531c0.863,0,1.554,0.266,2.071,0.73v-4.487h2.124V111.936z
		 M243.701,108.604c0-1.022-0.771-1.726-1.633-1.726c-0.93,0-1.606,0.703-1.606,1.726c0,1.035,0.677,1.726,1.606,1.726
		C242.931,110.329,243.701,109.639,243.701,108.604z"/>
	<path style="fill:#05ACED;" d="M254.428,108.604c0,2.11-1.686,3.531-3.703,3.531c-2.045,0-3.73-1.421-3.73-3.531
		c0-2.098,1.686-3.531,3.73-3.531C252.742,105.072,254.428,106.506,254.428,108.604z M252.384,108.604
		c0-1.035-0.757-1.726-1.659-1.726c-0.93,0-1.687,0.69-1.687,1.726c0,1.049,0.757,1.726,1.687,1.726
		C251.627,110.329,252.384,109.652,252.384,108.604z"/>
	<path style="fill:#05ACED;" d="M257.149,109.771c0.093,0.571,0.504,0.81,0.969,0.81c0.505,0,0.717-0.265,0.717-0.557
		c0-0.199-0.105-0.386-0.478-0.479l-1.327-0.306c-1.115-0.252-1.806-0.85-1.806-1.938c0-1.354,1.088-2.23,2.722-2.23
		c1.553,0,2.614,0.77,2.854,1.912l-1.951,0.385c-0.053-0.412-0.346-0.823-0.916-0.823c-0.412,0-0.638,0.212-0.638,0.491
		c0,0.266,0.199,0.438,0.558,0.531l1.314,0.318c1.168,0.292,1.726,1.009,1.726,2.005c0,1.473-1.208,2.243-2.881,2.243
		c-1.38,0-2.721-0.531-2.934-1.938L257.149,109.771z"/>
</g>
<g>
	<path style="fill:#05ACED;" d="M79.691,127.772l-1.5,1.314c-1.659-1.739-2.615-3.757-2.615-6.2c0-2.456,0.956-4.46,2.615-6.213
		l1.46,1.328c-1.248,1.553-1.832,2.947-1.832,4.885C77.819,124.812,78.403,126.206,79.691,127.772z"/>
	<path style="fill:#05ACED;" d="M87.616,125.463c-0.345,1.579-1.779,2.602-3.451,2.602c-2.005,0-3.677-1.421-3.677-3.531
		c0-2.098,1.672-3.531,3.677-3.531c1.646,0,3.066,0.996,3.438,2.562l-1.978,0.478c-0.199-0.81-0.77-1.208-1.46-1.208
		c-0.969,0-1.633,0.73-1.633,1.699c0,0.982,0.664,1.699,1.633,1.699c0.69,0,1.261-0.385,1.5-1.194L87.616,125.463z"/>
	<path style="fill:#05ACED;" d="M95.661,124.533c0,2.11-1.686,3.531-3.704,3.531c-2.044,0-3.73-1.421-3.73-3.531
		c0-2.098,1.686-3.531,3.73-3.531C93.975,121.002,95.661,122.436,95.661,124.533z M93.616,124.533c0-1.035-0.757-1.726-1.66-1.726
		c-0.929,0-1.686,0.69-1.686,1.726c0,1.049,0.756,1.726,1.686,1.726C92.859,126.259,93.616,125.582,93.616,124.533z"/>
	<path style="fill:#05ACED;" d="M103.758,124.533c0,2.11-1.686,3.531-3.703,3.531c-2.045,0-3.73-1.421-3.73-3.531
		c0-2.098,1.686-3.531,3.73-3.531C102.072,121.002,103.758,122.436,103.758,124.533z M101.714,124.533
		c0-1.035-0.757-1.726-1.659-1.726c-0.93,0-1.687,0.69-1.687,1.726c0,1.049,0.757,1.726,1.687,1.726
		C100.957,126.259,101.714,125.582,101.714,124.533z"/>
	<path style="fill:#05ACED;" d="M109.825,121.161l-0.094,2.124h-0.385c-1.486,0-2.297,0.771-2.297,2.496v2.084h-2.124v-6.664h2.124
		v1.155c0.491-0.744,1.222-1.248,2.297-1.248C109.532,121.108,109.665,121.121,109.825,121.161z"/>
	<path style="fill:#05ACED;" d="M117.736,127.865h-2.124v-0.531c-0.518,0.465-1.208,0.73-2.071,0.73
		c-1.766,0-3.252-1.421-3.252-3.531c0-2.098,1.486-3.531,3.252-3.531c0.863,0,1.554,0.266,2.071,0.73v-4.487h2.124V127.865z
		 M115.612,124.533c0-1.022-0.77-1.726-1.633-1.726c-0.93,0-1.606,0.703-1.606,1.726c0,1.035,0.677,1.726,1.606,1.726
		C114.843,126.259,115.612,125.568,115.612,124.533z"/>
	<path style="fill:#05ACED;" d="M121.745,119.051c0,0.677-0.518,1.194-1.234,1.194s-1.222-0.518-1.222-1.194
		c0-0.638,0.505-1.195,1.222-1.195S121.745,118.413,121.745,119.051z M119.448,127.865v-6.664h2.124v6.664H119.448z"/>
	<path style="fill:#05ACED;" d="M130.042,123.776v4.089h-2.111v-3.638c0-0.783-0.465-1.313-1.142-1.313
		c-0.836,0-1.381,0.57-1.381,1.858v3.093h-2.124v-6.664h2.124v0.637c0.505-0.53,1.208-0.836,2.045-0.836
		C129.006,121.002,130.042,122.104,130.042,123.776z"/>
	<path style="fill:#05ACED;" d="M138.325,127.64c-0.438,0.252-0.783,0.345-1.194,0.345c-0.611,0-1.208-0.199-1.514-0.81
		c-0.465,0.505-1.182,0.89-2.217,0.89c-1.421,0-2.376-0.837-2.376-2.058c0-1.341,0.969-2.058,2.748-2.19l1.633-0.133v-0.08
		c0-0.558-0.346-0.955-0.97-0.955c-0.53,0-0.89,0.278-1.009,0.862l-1.965-0.411c0.306-1.328,1.407-2.098,3.014-2.098
		c1.792,0,2.974,0.942,2.974,2.642v2.124c0,0.239,0.093,0.372,0.239,0.372c0.093,0,0.238-0.014,0.491-0.026L138.325,127.64z
		 M135.405,125.236v-0.278l-1.288,0.146c-0.61,0.065-0.89,0.331-0.89,0.729c0,0.412,0.332,0.638,0.823,0.638
		C134.808,126.472,135.405,125.98,135.405,125.236z"/>
	<path style="fill:#05ACED;" d="M146.237,127.865h-2.124v-0.531c-0.518,0.465-1.208,0.73-2.071,0.73
		c-1.766,0-3.252-1.421-3.252-3.531c0-2.098,1.486-3.531,3.252-3.531c0.863,0,1.554,0.266,2.071,0.73v-4.487h2.124V127.865z
		 M144.113,124.533c0-1.022-0.771-1.726-1.633-1.726c-0.93,0-1.606,0.703-1.606,1.726c0,1.035,0.677,1.726,1.606,1.726
		C143.343,126.259,144.113,125.568,144.113,124.533z"/>
	<path style="fill:#05ACED;" d="M154.839,124.533c0,2.11-1.686,3.531-3.703,3.531c-2.045,0-3.73-1.421-3.73-3.531
		c0-2.098,1.686-3.531,3.73-3.531C153.153,121.002,154.839,122.436,154.839,124.533z M152.795,124.533
		c0-1.035-0.757-1.726-1.659-1.726c-0.93,0-1.687,0.69-1.687,1.726c0,1.049,0.757,1.726,1.687,1.726
		C152.038,126.259,152.795,125.582,152.795,124.533z"/>
	<path style="fill:#05ACED;" d="M160.905,121.161l-0.093,2.124h-0.385c-1.486,0-2.297,0.771-2.297,2.496v2.084h-2.124v-6.664h2.124
		v1.155c0.491-0.744,1.222-1.248,2.297-1.248C160.613,121.108,160.746,121.121,160.905,121.161z"/>
	<path style="fill:#05ACED;" d="M168.34,125.077h-4.886c0.173,0.797,0.717,1.288,1.434,1.288c0.491,0,1.062-0.119,1.421-0.771
		l1.885,0.386c-0.571,1.407-1.779,2.084-3.306,2.084c-1.925,0-3.518-1.421-3.518-3.531c0-2.098,1.593-3.531,3.531-3.531
		c1.885,0,3.398,1.354,3.438,3.531V125.077z M163.494,123.776h2.748c-0.199-0.717-0.73-1.049-1.341-1.049
		C164.304,122.728,163.693,123.1,163.494,123.776z"/>
	<path style="fill:#05ACED;" d="M171.062,125.701c0.093,0.571,0.504,0.81,0.969,0.81c0.505,0,0.717-0.265,0.717-0.557
		c0-0.199-0.105-0.386-0.478-0.479l-1.327-0.306c-1.115-0.252-1.806-0.85-1.806-1.938c0-1.354,1.088-2.23,2.722-2.23
		c1.553,0,2.614,0.77,2.854,1.912l-1.951,0.385c-0.053-0.412-0.346-0.823-0.916-0.823c-0.412,0-0.638,0.212-0.638,0.491
		c0,0.266,0.199,0.438,0.558,0.531l1.314,0.318c1.168,0.292,1.726,1.009,1.726,2.005c0,1.473-1.208,2.243-2.881,2.243
		c-1.38,0-2.721-0.531-2.934-1.938L171.062,125.701z"/>
	<path style="fill:#05ACED;" d="M175.123,129.617l0.783-3.823h2.35v0.054l-1.526,3.77H175.123z"/>
	<path style="fill:#05ACED;" d="M188.97,125.077h-4.886c0.173,0.797,0.717,1.288,1.434,1.288c0.491,0,1.062-0.119,1.421-0.771
		l1.885,0.386c-0.57,1.407-1.779,2.084-3.306,2.084c-1.925,0-3.518-1.421-3.518-3.531c0-2.098,1.593-3.531,3.531-3.531
		c1.885,0,3.398,1.354,3.438,3.531V125.077z M184.124,123.776h2.748c-0.199-0.717-0.73-1.049-1.341-1.049
		C184.934,122.728,184.323,123.1,184.124,123.776z"/>
	<path style="fill:#05ACED;" d="M197.08,127.865h-2.124v-0.531c-0.518,0.465-1.208,0.73-2.071,0.73
		c-1.766,0-3.252-1.421-3.252-3.531c0-2.098,1.486-3.531,3.252-3.531c0.863,0,1.554,0.266,2.071,0.73v-4.487h2.124V127.865z
		 M194.956,124.533c0-1.022-0.77-1.726-1.633-1.726c-0.93,0-1.606,0.703-1.606,1.726c0,1.035,0.677,1.726,1.606,1.726
		C194.187,126.259,194.956,125.568,194.956,124.533z"/>
	<path style="fill:#05ACED;" d="M205.351,127.865h-2.125v-0.638c-0.504,0.531-1.208,0.837-2.044,0.837
		c-1.553,0-2.589-1.102-2.589-2.774v-4.089h2.111v3.638c0,0.783,0.464,1.313,1.142,1.313c0.836,0,1.38-0.57,1.38-1.858v-3.093h2.125
		V127.865z"/>
	<path style="fill:#05ACED;" d="M213.647,125.463c-0.346,1.579-1.779,2.602-3.452,2.602c-2.004,0-3.677-1.421-3.677-3.531
		c0-2.098,1.673-3.531,3.677-3.531c1.646,0,3.066,0.996,3.438,2.562l-1.978,0.478c-0.199-0.81-0.771-1.208-1.461-1.208
		c-0.969,0-1.633,0.73-1.633,1.699c0,0.982,0.664,1.699,1.633,1.699c0.69,0,1.262-0.385,1.5-1.194L213.647,125.463z"/>
	<path style="fill:#05ACED;" d="M221.532,127.64c-0.438,0.252-0.783,0.345-1.194,0.345c-0.611,0-1.208-0.199-1.514-0.81
		c-0.465,0.505-1.182,0.89-2.217,0.89c-1.421,0-2.376-0.837-2.376-2.058c0-1.341,0.969-2.058,2.748-2.19l1.633-0.133v-0.08
		c0-0.558-0.346-0.955-0.97-0.955c-0.53,0-0.89,0.278-1.009,0.862l-1.965-0.411c0.306-1.328,1.407-2.098,3.014-2.098
		c1.792,0,2.974,0.942,2.974,2.642v2.124c0,0.239,0.093,0.372,0.239,0.372c0.093,0,0.238-0.014,0.491-0.026L221.532,127.64z
		 M218.612,125.236v-0.278l-1.288,0.146c-0.61,0.065-0.89,0.331-0.89,0.729c0,0.412,0.332,0.638,0.823,0.638
		C218.015,126.472,218.612,125.98,218.612,125.236z"/>
	<path style="fill:#05ACED;" d="M229.444,127.865h-2.124v-0.531c-0.518,0.465-1.208,0.73-2.071,0.73
		c-1.766,0-3.252-1.421-3.252-3.531c0-2.098,1.486-3.531,3.252-3.531c0.863,0,1.554,0.266,2.071,0.73v-4.487h2.124V127.865z
		 M227.32,124.533c0-1.022-0.771-1.726-1.633-1.726c-0.93,0-1.606,0.703-1.606,1.726c0,1.035,0.677,1.726,1.606,1.726
		C226.55,126.259,227.32,125.568,227.32,124.533z"/>
	<path style="fill:#05ACED;" d="M238.046,124.533c0,2.11-1.686,3.531-3.703,3.531c-2.045,0-3.73-1.421-3.73-3.531
		c0-2.098,1.686-3.531,3.73-3.531C236.36,121.002,238.046,122.436,238.046,124.533z M236.002,124.533
		c0-1.035-0.757-1.726-1.659-1.726c-0.93,0-1.687,0.69-1.687,1.726c0,1.049,0.757,1.726,1.687,1.726
		C235.245,126.259,236.002,125.582,236.002,124.533z"/>
	<path style="fill:#05ACED;" d="M244.112,121.161l-0.093,2.124h-0.385c-1.486,0-2.297,0.771-2.297,2.496v2.084h-2.124v-6.664h2.124
		v1.155c0.491-0.744,1.222-1.248,2.297-1.248C243.82,121.108,243.953,121.121,244.112,121.161z"/>
	<path style="fill:#05ACED;" d="M251.547,125.077h-4.886c0.173,0.797,0.717,1.288,1.434,1.288c0.491,0,1.062-0.119,1.421-0.771
		l1.885,0.386c-0.571,1.407-1.779,2.084-3.306,2.084c-1.925,0-3.518-1.421-3.518-3.531c0-2.098,1.593-3.531,3.531-3.531
		c1.885,0,3.398,1.354,3.438,3.531V125.077z M246.701,123.776h2.748c-0.199-0.717-0.73-1.049-1.341-1.049
		C247.511,122.728,246.9,123.1,246.701,123.776z"/>
	<path style="fill:#05ACED;" d="M254.268,125.701c0.093,0.571,0.504,0.81,0.969,0.81c0.505,0,0.717-0.265,0.717-0.557
		c0-0.199-0.105-0.386-0.478-0.479l-1.327-0.306c-1.115-0.252-1.806-0.85-1.806-1.938c0-1.354,1.088-2.23,2.721-2.23
		c1.554,0,2.615,0.77,2.854,1.912l-1.951,0.385c-0.054-0.412-0.346-0.823-0.916-0.823c-0.411,0-0.638,0.212-0.638,0.491
		c0,0.266,0.199,0.438,0.558,0.531l1.314,0.318c1.168,0.292,1.726,1.009,1.726,2.005c0,1.473-1.208,2.243-2.881,2.243
		c-1.38,0-2.721-0.531-2.934-1.938L254.268,125.701z"/>
	<path style="fill:#05ACED;" d="M258.33,129.617l0.783-3.823h2.35v0.054l-1.526,3.77H258.33z"/>
	<path style="fill:#05ACED;" d="M272.48,127.64c-0.438,0.252-0.783,0.345-1.194,0.345c-0.611,0-1.208-0.199-1.514-0.81
		c-0.465,0.505-1.182,0.89-2.217,0.89c-1.421,0-2.376-0.837-2.376-2.058c0-1.341,0.969-2.058,2.748-2.19l1.633-0.133v-0.08
		c0-0.558-0.346-0.955-0.97-0.955c-0.531,0-0.89,0.278-1.009,0.862l-1.965-0.411c0.306-1.328,1.407-2.098,3.014-2.098
		c1.792,0,2.974,0.942,2.974,2.642v2.124c0,0.239,0.093,0.372,0.239,0.372c0.093,0,0.238-0.014,0.491-0.026L272.48,127.64z
		 M269.561,125.236v-0.278l-1.288,0.146c-0.61,0.065-0.89,0.331-0.89,0.729c0,0.412,0.332,0.638,0.823,0.638
		C268.963,126.472,269.561,125.98,269.561,125.236z"/>
	<path style="fill:#05ACED;" d="M280.897,124.533c0,2.11-1.487,3.531-3.253,3.531c-0.863,0-1.553-0.266-2.071-0.73v0.531h-2.124
		v-10.62h2.124v4.487c0.519-0.465,1.208-0.73,2.071-0.73C279.41,121.002,280.897,122.436,280.897,124.533z M278.812,124.533
		c0-1.022-0.677-1.726-1.606-1.726c-0.862,0-1.633,0.703-1.633,1.726c0,1.035,0.771,1.726,1.633,1.726
		C278.136,126.259,278.812,125.568,278.812,124.533z"/>
	<path style="fill:#05ACED;" d="M288.994,124.533c0,2.11-1.686,3.531-3.703,3.531c-2.045,0-3.73-1.421-3.73-3.531
		c0-2.098,1.686-3.531,3.73-3.531C287.309,121.002,288.994,122.436,288.994,124.533z M286.95,124.533
		c0-1.035-0.757-1.726-1.659-1.726c-0.93,0-1.687,0.69-1.687,1.726c0,1.049,0.757,1.726,1.687,1.726
		C286.193,126.259,286.95,125.582,286.95,124.533z"/>
	<path style="fill:#05ACED;" d="M296.322,122.887c0.079,0.279,0.133,0.571,0.133,0.877c0,1.593-1.341,2.708-3.093,2.708
		c-0.598,0-1.155-0.133-1.634-0.372c-0.105,0.093-0.159,0.199-0.159,0.345c0,0.319,0.306,0.531,0.744,0.531h2.163
		c1.699,0,2.762,0.876,2.762,2.363c0,1.606-1.354,2.642-3.611,2.642h-0.889c-2.031,0-3.173-0.995-3.173-2.336
		c0-0.718,0.305-1.274,0.796-1.66c-0.411-0.345-0.637-0.81-0.637-1.354c0-0.717,0.358-1.234,0.876-1.566
		c-0.226-0.372-0.345-0.823-0.345-1.301c0-1.606,1.301-2.762,3.106-2.762c0.438,0,0.85,0.066,1.221,0.199h2.895v1.686H296.322z
		 M292.632,128.635c-0.61,0-0.942,0.319-0.942,0.797c0,0.465,0.292,0.85,1.154,0.85h0.903c0.889,0,1.354-0.398,1.354-0.929
		c0-0.426-0.292-0.718-0.729-0.718H292.632z M294.543,123.736c0-0.624-0.53-1.102-1.181-1.102c-0.664,0-1.182,0.478-1.182,1.102
		s0.518,1.103,1.182,1.103C294.013,124.839,294.543,124.36,294.543,123.736z"/>
	<path style="fill:#05ACED;" d="M305.15,127.64c-0.438,0.252-0.783,0.345-1.194,0.345c-0.611,0-1.208-0.199-1.514-0.81
		c-0.465,0.505-1.182,0.89-2.217,0.89c-1.421,0-2.376-0.837-2.376-2.058c0-1.341,0.969-2.058,2.748-2.19l1.633-0.133v-0.08
		c0-0.558-0.346-0.955-0.97-0.955c-0.531,0-0.89,0.278-1.009,0.862l-1.965-0.411c0.306-1.328,1.407-2.098,3.014-2.098
		c1.792,0,2.974,0.942,2.974,2.642v2.124c0,0.239,0.093,0.372,0.239,0.372c0.093,0,0.238-0.014,0.491-0.026L305.15,127.64z
		 M302.23,125.236v-0.278l-1.288,0.146c-0.61,0.065-0.89,0.331-0.89,0.729c0,0.412,0.332,0.638,0.823,0.638
		C301.633,126.472,302.23,125.98,302.23,125.236z"/>
	<path style="fill:#05ACED;" d="M313.062,127.865h-2.124v-0.531c-0.518,0.465-1.208,0.73-2.071,0.73
		c-1.766,0-3.252-1.421-3.252-3.531c0-2.098,1.486-3.531,3.252-3.531c0.863,0,1.554,0.266,2.071,0.73v-4.487h2.124V127.865z
		 M310.938,124.533c0-1.022-0.77-1.726-1.633-1.726c-0.93,0-1.606,0.703-1.606,1.726c0,1.035,0.677,1.726,1.606,1.726
		C310.169,126.259,310.938,125.568,310.938,124.533z"/>
	<path style="fill:#05ACED;" d="M321.664,124.533c0,2.11-1.686,3.531-3.703,3.531c-2.045,0-3.73-1.421-3.73-3.531
		c0-2.098,1.686-3.531,3.73-3.531C319.979,121.002,321.664,122.436,321.664,124.533z M319.62,124.533
		c0-1.035-0.757-1.726-1.659-1.726c-0.93,0-1.687,0.69-1.687,1.726c0,1.049,0.757,1.726,1.687,1.726
		C318.863,126.259,319.62,125.582,319.62,124.533z"/>
	<path style="fill:#05ACED;" d="M324.386,125.701c0.093,0.571,0.504,0.81,0.969,0.81c0.505,0,0.717-0.265,0.717-0.557
		c0-0.199-0.105-0.386-0.478-0.479l-1.327-0.306c-1.115-0.252-1.806-0.85-1.806-1.938c0-1.354,1.088-2.23,2.722-2.23
		c1.553,0,2.614,0.77,2.854,1.912l-1.951,0.385c-0.053-0.412-0.346-0.823-0.916-0.823c-0.412,0-0.638,0.212-0.638,0.491
		c0,0.266,0.199,0.438,0.558,0.531l1.314,0.318c1.168,0.292,1.726,1.009,1.726,2.005c0,1.473-1.208,2.243-2.881,2.243
		c-1.38,0-2.721-0.531-2.934-1.938L324.386,125.701z"/>
	<path style="fill:#05ACED;" d="M328.447,129.617l0.783-3.823h2.35v0.054l-1.526,3.77H328.447z"/>
</g>
<g>
	<path style="fill:#05ACED;" d="M82.717,143.57c-0.438,0.252-0.783,0.345-1.194,0.345c-0.611,0-1.208-0.199-1.514-0.81
		c-0.464,0.505-1.181,0.89-2.217,0.89c-1.42,0-2.376-0.836-2.376-2.058c0-1.341,0.969-2.058,2.748-2.19l1.633-0.133v-0.08
		c0-0.558-0.345-0.955-0.969-0.955c-0.531,0-0.89,0.278-1.009,0.862l-1.964-0.411c0.305-1.328,1.407-2.098,3.013-2.098
		c1.792,0,2.974,0.942,2.974,2.642v2.124c0,0.239,0.093,0.372,0.239,0.372c0.093,0,0.239-0.014,0.491-0.026L82.717,143.57z
		 M79.797,141.167v-0.278l-1.288,0.146c-0.611,0.066-0.89,0.332-0.89,0.73c0,0.412,0.332,0.638,0.823,0.638
		C79.2,142.402,79.797,141.911,79.797,141.167z"/>
	<path style="fill:#05ACED;" d="M85.24,141.632c0.093,0.571,0.504,0.81,0.969,0.81c0.505,0,0.717-0.265,0.717-0.558
		c0-0.198-0.106-0.385-0.478-0.478l-1.328-0.306c-1.115-0.252-1.805-0.85-1.805-1.938c0-1.354,1.088-2.23,2.721-2.23
		c1.553,0,2.615,0.77,2.854,1.912l-1.951,0.385c-0.053-0.412-0.345-0.823-0.916-0.823c-0.412,0-0.637,0.212-0.637,0.491
		c0,0.266,0.199,0.438,0.558,0.531l1.314,0.318c1.168,0.292,1.726,1.009,1.726,2.005c0,1.473-1.208,2.243-2.881,2.243
		c-1.381,0-2.722-0.531-2.934-1.938L85.24,141.632z"/>
	<path style="fill:#05ACED;" d="M92.435,134.981c0,0.677-0.518,1.194-1.235,1.194c-0.717,0-1.221-0.518-1.221-1.194
		c0-0.638,0.504-1.195,1.221-1.195C91.917,133.786,92.435,134.344,92.435,134.981z M90.138,143.796v-6.664h2.124v6.664H90.138z"/>
	<path style="fill:#05ACED;" d="M95.528,141.632c0.093,0.571,0.504,0.81,0.969,0.81c0.505,0,0.717-0.265,0.717-0.558
		c0-0.198-0.106-0.385-0.478-0.478l-1.328-0.306c-1.115-0.252-1.805-0.85-1.805-1.938c0-1.354,1.088-2.23,2.721-2.23
		c1.553,0,2.615,0.77,2.854,1.912l-1.952,0.385c-0.053-0.412-0.345-0.823-0.916-0.823c-0.412,0-0.637,0.212-0.637,0.491
		c0,0.266,0.199,0.438,0.558,0.531l1.314,0.318c1.168,0.292,1.726,1.009,1.726,2.005c0,1.473-1.208,2.243-2.881,2.243
		c-1.381,0-2.722-0.531-2.934-1.938L95.528,141.632z"/>
	<path style="fill:#05ACED;" d="M102.908,141.261c0,0.53,0.279,0.836,0.757,0.836c0.292,0,0.69-0.106,0.969-0.266l0.491,1.673
		c-0.518,0.278-1.062,0.491-1.818,0.491c-1.58,0-2.522-0.942-2.522-2.522v-2.655h-1.261v-1.686h1.261v-2.271l2.124-0.624v2.895
		h2.363v1.686h-2.363V141.261z"/>
	<path style="fill:#05ACED;" d="M112.6,141.008h-4.886c0.173,0.797,0.717,1.288,1.434,1.288c0.491,0,1.062-0.119,1.421-0.771
		l1.885,0.386c-0.571,1.407-1.779,2.084-3.306,2.084c-1.925,0-3.518-1.421-3.518-3.531c0-2.098,1.593-3.531,3.531-3.531
		c1.885,0,3.398,1.354,3.438,3.531V141.008z M107.754,139.707h2.748c-0.199-0.717-0.73-1.049-1.341-1.049
		C108.563,138.658,107.953,139.03,107.754,139.707z"/>
	<path style="fill:#05ACED;" d="M120.524,139.707v4.089h-2.111v-3.638c0-0.783-0.465-1.313-1.142-1.313
		c-0.836,0-1.381,0.57-1.381,1.858v3.093h-2.124v-6.664h2.124v0.637c0.505-0.53,1.208-0.836,2.045-0.836
		C119.488,136.933,120.524,138.034,120.524,139.707z"/>
	<path style="fill:#05ACED;" d="M124.56,141.261c0,0.53,0.279,0.836,0.757,0.836c0.292,0,0.69-0.106,0.969-0.266l0.491,1.673
		c-0.518,0.278-1.062,0.491-1.818,0.491c-1.58,0-2.522-0.942-2.522-2.522v-2.655h-1.261v-1.686h1.261v-2.271l2.124-0.624v2.895
		h2.363v1.686h-2.363V141.261z"/>
	<path style="fill:#05ACED;" d="M134.251,141.008h-4.886c0.173,0.797,0.717,1.288,1.434,1.288c0.491,0,1.062-0.119,1.421-0.771
		l1.885,0.386c-0.57,1.407-1.779,2.084-3.306,2.084c-1.925,0-3.518-1.421-3.518-3.531c0-2.098,1.593-3.531,3.531-3.531
		c1.885,0,3.398,1.354,3.438,3.531V141.008z M129.405,139.707h2.748c-0.199-0.717-0.73-1.049-1.341-1.049
		C130.215,138.658,129.604,139.03,129.405,139.707z"/>
	<path style="fill:#05ACED;" d="M136.972,141.632c0.093,0.571,0.504,0.81,0.969,0.81c0.505,0,0.717-0.265,0.717-0.558
		c0-0.198-0.105-0.385-0.478-0.478l-1.327-0.306c-1.115-0.252-1.806-0.85-1.806-1.938c0-1.354,1.088-2.23,2.722-2.23
		c1.553,0,2.614,0.77,2.854,1.912l-1.951,0.385c-0.053-0.412-0.346-0.823-0.916-0.823c-0.412,0-0.638,0.212-0.638,0.491
		c0,0.266,0.199,0.438,0.558,0.531l1.314,0.318c1.168,0.292,1.726,1.009,1.726,2.005c0,1.473-1.208,2.243-2.881,2.243
		c-1.38,0-2.721-0.531-2.934-1.938L136.972,141.632z"/>
	<path style="fill:#05ACED;" d="M146.464,141.632c0.093,0.571,0.504,0.81,0.969,0.81c0.505,0,0.717-0.265,0.717-0.558
		c0-0.198-0.105-0.385-0.478-0.478l-1.327-0.306c-1.115-0.252-1.806-0.85-1.806-1.938c0-1.354,1.088-2.23,2.722-2.23
		c1.553,0,2.614,0.77,2.854,1.912l-1.951,0.385c-0.053-0.412-0.346-0.823-0.916-0.823c-0.412,0-0.638,0.212-0.638,0.491
		c0,0.266,0.199,0.438,0.558,0.531l1.314,0.318c1.168,0.292,1.726,1.009,1.726,2.005c0,1.473-1.208,2.243-2.881,2.243
		c-1.38,0-2.721-0.531-2.934-1.938L146.464,141.632z"/>
	<path style="fill:#05ACED;" d="M158.251,140.464c0,2.11-1.686,3.531-3.703,3.531c-2.045,0-3.73-1.421-3.73-3.531
		c0-2.098,1.686-3.531,3.73-3.531C156.565,136.933,158.251,138.366,158.251,140.464z M156.207,140.464
		c0-1.035-0.757-1.726-1.659-1.726c-0.93,0-1.687,0.69-1.687,1.726c0,1.049,0.757,1.726,1.687,1.726
		C155.45,142.189,156.207,141.513,156.207,140.464z"/>
	<path style="fill:#05ACED;" d="M166.044,141.394c-0.346,1.579-1.779,2.602-3.452,2.602c-2.004,0-3.677-1.421-3.677-3.531
		c0-2.098,1.673-3.531,3.677-3.531c1.646,0,3.066,0.996,3.438,2.562l-1.978,0.478c-0.199-0.81-0.771-1.208-1.461-1.208
		c-0.969,0-1.633,0.73-1.633,1.699c0,0.982,0.664,1.699,1.633,1.699c0.69,0,1.262-0.385,1.5-1.194L166.044,141.394z"/>
	<path style="fill:#05ACED;" d="M169.495,134.981c0,0.677-0.518,1.194-1.234,1.194s-1.222-0.518-1.222-1.194
		c0-0.638,0.505-1.195,1.222-1.195S169.495,134.344,169.495,134.981z M167.198,143.796v-6.664h2.124v6.664H167.198z"/>
	<path style="fill:#05ACED;" d="M177.805,143.57c-0.438,0.252-0.783,0.345-1.194,0.345c-0.611,0-1.208-0.199-1.514-0.81
		c-0.465,0.505-1.182,0.89-2.217,0.89c-1.421,0-2.376-0.836-2.376-2.058c0-1.341,0.969-2.058,2.748-2.19l1.633-0.133v-0.08
		c0-0.558-0.346-0.955-0.97-0.955c-0.531,0-0.89,0.278-1.009,0.862l-1.965-0.411c0.306-1.328,1.407-2.098,3.014-2.098
		c1.792,0,2.974,0.942,2.974,2.642v2.124c0,0.239,0.093,0.372,0.239,0.372c0.093,0,0.238-0.014,0.491-0.026L177.805,143.57z
		 M174.885,141.167v-0.278l-1.288,0.146c-0.61,0.066-0.89,0.332-0.89,0.73c0,0.412,0.332,0.638,0.823,0.638
		C174.287,142.402,174.885,141.911,174.885,141.167z"/>
	<path style="fill:#05ACED;" d="M178.773,143.796v-10.62h2.124v10.62H178.773z"/>
	<path style="fill:#05ACED;" d="M189.036,141.008h-4.886c0.173,0.797,0.717,1.288,1.434,1.288c0.491,0,1.062-0.119,1.421-0.771
		l1.885,0.386c-0.57,1.407-1.779,2.084-3.306,2.084c-1.925,0-3.518-1.421-3.518-3.531c0-2.098,1.593-3.531,3.531-3.531
		c1.885,0,3.398,1.354,3.438,3.531V141.008z M184.19,139.707h2.748c-0.199-0.717-0.73-1.049-1.341-1.049
		C185,138.658,184.39,139.03,184.19,139.707z"/>
	<path style="fill:#05ACED;" d="M191.757,141.632c0.093,0.571,0.504,0.81,0.969,0.81c0.505,0,0.717-0.265,0.717-0.558
		c0-0.198-0.105-0.385-0.478-0.478l-1.327-0.306c-1.115-0.252-1.806-0.85-1.806-1.938c0-1.354,1.088-2.23,2.722-2.23
		c1.553,0,2.614,0.77,2.854,1.912l-1.951,0.385c-0.053-0.412-0.346-0.823-0.916-0.823c-0.412,0-0.638,0.212-0.638,0.491
		c0,0.266,0.199,0.438,0.558,0.531l1.314,0.318c1.168,0.292,1.726,1.009,1.726,2.005c0,1.473-1.208,2.243-2.881,2.243
		c-1.38,0-2.721-0.531-2.934-1.938L191.757,141.632z"/>
	<path style="fill:#05ACED;" d="M202.244,147.513h-2.243l1.726-3.956l-2.774-6.425h2.244l1.619,3.942l1.726-3.942h2.243
		L202.244,147.513z"/>
	<path style="fill:#05ACED;" d="M218.241,140.464c0,2.11-1.487,3.531-3.253,3.531c-0.863,0-1.553-0.266-2.071-0.73v4.248h-2.124
		v-10.381h2.124v0.531c0.519-0.465,1.208-0.73,2.071-0.73C216.754,136.933,218.241,138.366,218.241,140.464z M216.156,140.464
		c0-1.022-0.677-1.726-1.606-1.726c-0.862,0-1.633,0.703-1.633,1.726c0,1.035,0.771,1.726,1.633,1.726
		C215.479,142.189,216.156,141.499,216.156,140.464z"/>
	<path style="fill:#05ACED;" d="M220.962,141.632c0.093,0.571,0.504,0.81,0.969,0.81c0.505,0,0.717-0.265,0.717-0.558
		c0-0.198-0.105-0.385-0.478-0.478l-1.327-0.306c-1.115-0.252-1.806-0.85-1.806-1.938c0-1.354,1.088-2.23,2.722-2.23
		c1.553,0,2.614,0.77,2.854,1.912l-1.951,0.385c-0.053-0.412-0.346-0.823-0.916-0.823c-0.412,0-0.638,0.212-0.638,0.491
		c0,0.266,0.199,0.438,0.558,0.531l1.314,0.318c1.168,0.292,1.726,1.009,1.726,2.005c0,1.473-1.208,2.243-2.881,2.243
		c-1.38,0-2.721-0.531-2.934-1.938L220.962,141.632z"/>
	<path style="fill:#05ACED;" d="M228.156,134.981c0,0.677-0.518,1.194-1.234,1.194s-1.222-0.518-1.222-1.194
		c0-0.638,0.505-1.195,1.222-1.195S228.156,134.344,228.156,134.981z M225.859,143.796v-6.664h2.124v6.664H225.859z"/>
	<path style="fill:#05ACED;" d="M236.321,141.394c-0.346,1.579-1.779,2.602-3.452,2.602c-2.004,0-3.677-1.421-3.677-3.531
		c0-2.098,1.673-3.531,3.677-3.531c1.646,0,3.066,0.996,3.438,2.562l-1.978,0.478c-0.199-0.81-0.771-1.208-1.461-1.208
		c-0.969,0-1.633,0.73-1.633,1.699c0,0.982,0.664,1.699,1.633,1.699c0.69,0,1.262-0.385,1.5-1.194L236.321,141.394z"/>
	<path style="fill:#05ACED;" d="M244.365,140.464c0,2.11-1.686,3.531-3.703,3.531c-2.045,0-3.73-1.421-3.73-3.531
		c0-2.098,1.686-3.531,3.73-3.531C242.68,136.933,244.365,138.366,244.365,140.464z M242.321,140.464
		c0-1.035-0.757-1.726-1.659-1.726c-0.93,0-1.687,0.69-1.687,1.726c0,1.049,0.757,1.726,1.687,1.726
		C241.564,142.189,242.321,141.513,242.321,140.464z M239.732,135.964l0.942-2.019h2.522l-1.58,2.019H239.732z"/>
	<path style="fill:#05ACED;" d="M245.533,143.796v-10.62h2.124v10.62H245.533z"/>
	<path style="fill:#05ACED;" d="M256.259,140.464c0,2.11-1.686,3.531-3.703,3.531c-2.045,0-3.73-1.421-3.73-3.531
		c0-2.098,1.686-3.531,3.73-3.531C254.573,136.933,256.259,138.366,256.259,140.464z M254.215,140.464
		c0-1.035-0.757-1.726-1.659-1.726c-0.93,0-1.687,0.69-1.687,1.726c0,1.049,0.757,1.726,1.687,1.726
		C253.458,142.189,254.215,141.513,254.215,140.464z"/>
	<path style="fill:#05ACED;" d="M263.587,138.817c0.079,0.279,0.133,0.571,0.133,0.877c0,1.593-1.341,2.708-3.094,2.708
		c-0.597,0-1.154-0.133-1.633-0.372c-0.105,0.093-0.159,0.199-0.159,0.345c0,0.319,0.306,0.531,0.744,0.531h2.163
		c1.699,0,2.762,0.876,2.762,2.363c0,1.606-1.354,2.642-3.611,2.642h-0.889c-2.031,0-3.173-0.995-3.173-2.336
		c0-0.717,0.305-1.274,0.796-1.66c-0.411-0.345-0.637-0.81-0.637-1.354c0-0.717,0.358-1.234,0.876-1.566
		c-0.226-0.372-0.345-0.823-0.345-1.301c0-1.606,1.301-2.762,3.105-2.762c0.438,0,0.85,0.066,1.222,0.199h2.895v1.686H263.587z
		 M259.896,144.565c-0.61,0-0.942,0.319-0.942,0.797c0,0.465,0.292,0.85,1.154,0.85h0.903c0.89,0,1.354-0.398,1.354-0.93
		c0-0.424-0.292-0.717-0.729-0.717H259.896z M261.808,139.667c0-0.624-0.53-1.102-1.182-1.102c-0.663,0-1.181,0.478-1.181,1.102
		s0.518,1.103,1.181,1.103C261.277,140.77,261.808,140.291,261.808,139.667z"/>
	<path style="fill:#05ACED;" d="M272.574,140.464c0,2.11-1.686,3.531-3.703,3.531c-2.045,0-3.73-1.421-3.73-3.531
		c0-2.098,1.686-3.531,3.73-3.531C270.889,136.933,272.574,138.366,272.574,140.464z M270.53,140.464
		c0-1.035-0.757-1.726-1.659-1.726c-0.93,0-1.687,0.69-1.687,1.726c0,1.049,0.757,1.726,1.687,1.726
		C269.773,142.189,270.53,141.513,270.53,140.464z"/>
	<path style="fill:#05ACED;" d="M275.296,141.632c0.093,0.571,0.504,0.81,0.969,0.81c0.505,0,0.717-0.265,0.717-0.558
		c0-0.198-0.105-0.385-0.478-0.478l-1.327-0.306c-1.115-0.252-1.806-0.85-1.806-1.938c0-1.354,1.088-2.23,2.722-2.23
		c1.553,0,2.614,0.77,2.854,1.912l-1.951,0.385c-0.053-0.412-0.346-0.823-0.916-0.823c-0.412,0-0.638,0.212-0.638,0.491
		c0,0.266,0.199,0.438,0.558,0.531l1.314,0.318c1.168,0.292,1.726,1.009,1.726,2.005c0,1.473-1.208,2.243-2.881,2.243
		c-1.38,0-2.721-0.531-2.934-1.938L275.296,141.632z"/>
	<path style="fill:#05ACED;" d="M281.269,132.604c1.673,1.753,2.629,3.758,2.629,6.213c0,2.443-0.956,4.461-2.629,6.2l-1.486-1.314
		c1.274-1.566,1.871-2.961,1.871-4.886c0-1.938-0.597-3.332-1.831-4.885L281.269,132.604z"/>
	<path style="fill:#05ACED;" d="M287.217,142.668c0,0.677-0.519,1.194-1.222,1.194s-1.208-0.518-1.208-1.194
		c0-0.638,0.505-1.195,1.208-1.195S287.217,142.03,287.217,142.668z"/>
</g>
<g>
	<path style="fill:#2E3090;" d="M139.091,240.185h-7.465v-25.58l-8.057,2.503v-6.827l14.201-4.688h1.32V240.185z"/>
	<path style="fill:#2E3090;" d="M159.162,215.742c6.691,0.546,12.062,5.507,12.062,12.562c0,7.511-6.054,12.562-13.291,12.562
		c-7.328,0-13.382-5.052-13.382-12.562c0-3.004,1.002-5.645,2.641-7.738l10.56-14.975h8.512L159.162,215.742z M164.032,228.305
		c0-3.687-3.004-6.145-6.1-6.145c-3.186,0-6.189,2.458-6.189,6.145s3.004,6.054,6.189,6.054
		C161.028,234.358,164.032,231.991,164.032,228.305z"/>
	<path style="fill:#2E3090;" d="M199.215,240.185H174.09v-2.412l13.063-14.338c2.367-2.641,4.006-4.598,4.006-7.42
		c0-2.776-1.866-4.643-4.688-4.643c-3.323,0-5.417,2.413-5.645,6.054l-7.01-1.319c0.364-6.828,5.599-11.197,12.745-11.197
		c7.283,0,12.107,4.415,12.107,11.061c0,4.688-2.275,7.328-6.19,11.789l-5.007,5.734h11.743V240.185z"/>
</g>
<g>
	<path style="fill:#05ACED;" d="M128.709,264.964h-1.5l-4.594-10.089h2.416l2.934,6.505l2.935-6.505h2.416L128.709,264.964z"/>
	<path style="fill:#05ACED;" d="M141.174,261.632c0,2.11-1.686,3.531-3.703,3.531c-2.045,0-3.73-1.421-3.73-3.531
		c0-2.098,1.686-3.531,3.73-3.531C139.488,258.101,141.174,259.534,141.174,261.632z M139.13,261.632
		c0-1.035-0.757-1.726-1.659-1.726c-0.93,0-1.687,0.69-1.687,1.726c0,1.049,0.757,1.726,1.687,1.726
		C138.373,263.357,139.13,262.681,139.13,261.632z"/>
	<path style="fill:#05ACED;" d="M142.342,264.964v-10.62h2.124v10.62H142.342z"/>
	<path style="fill:#05ACED;" d="M152.735,264.964h-2.123v-0.637c-0.505,0.53-1.209,0.836-2.045,0.836
		c-1.553,0-2.589-1.102-2.589-2.774V258.3h2.111v3.638c0,0.783,0.464,1.313,1.142,1.313c0.836,0,1.381-0.57,1.381-1.858V258.3h2.123
		V264.964z"/>
	<path style="fill:#05ACED;" d="M161.166,260.875v4.089h-2.111v-3.638c0-0.783-0.465-1.313-1.142-1.313
		c-0.836,0-1.381,0.57-1.381,1.858v3.093h-2.124V258.3h2.124v0.637c0.505-0.53,1.208-0.836,2.045-0.836
		C160.13,258.101,161.166,259.202,161.166,260.875z"/>
	<path style="fill:#05ACED;" d="M165.201,262.429c0,0.53,0.279,0.836,0.757,0.836c0.292,0,0.69-0.106,0.969-0.266l0.491,1.673
		c-0.518,0.278-1.062,0.491-1.818,0.491c-1.58,0-2.522-0.942-2.522-2.522v-2.655h-1.261V258.3h1.261v-2.271l2.124-0.624v2.895h2.363
		v1.686h-2.363V262.429z"/>
	<path style="fill:#05ACED;" d="M175.197,264.738c-0.438,0.252-0.783,0.345-1.194,0.345c-0.611,0-1.208-0.199-1.514-0.81
		c-0.465,0.505-1.182,0.89-2.217,0.89c-1.421,0-2.376-0.836-2.376-2.058c0-1.341,0.969-2.058,2.748-2.19l1.633-0.133v-0.08
		c0-0.558-0.346-0.955-0.97-0.955c-0.531,0-0.89,0.278-1.009,0.862l-1.965-0.411c0.306-1.328,1.407-2.098,3.014-2.098
		c1.792,0,2.974,0.942,2.974,2.642v2.124c0,0.239,0.093,0.372,0.239,0.372c0.093,0,0.238-0.014,0.491-0.026L175.197,264.738z
		 M172.277,262.335v-0.278l-1.288,0.146c-0.61,0.066-0.89,0.332-0.89,0.73c0,0.412,0.332,0.638,0.823,0.638
		C171.68,263.57,172.277,263.079,172.277,262.335z"/>
	<path style="fill:#05ACED;" d="M181.065,258.26l-0.094,2.124h-0.385c-1.486,0-2.297,0.771-2.297,2.496v2.084h-2.124V258.3h2.124
		v1.155c0.491-0.744,1.222-1.248,2.297-1.248C180.772,258.207,180.905,258.22,181.065,258.26z"/>
	<path style="fill:#05ACED;" d="M184.37,256.149c0,0.677-0.518,1.194-1.234,1.194s-1.222-0.518-1.222-1.194
		c0-0.638,0.505-1.195,1.222-1.195S184.37,255.512,184.37,256.149z M182.073,264.964V258.3h2.124v6.664H182.073z"/>
	<path style="fill:#05ACED;" d="M192.839,261.632c0,2.11-1.686,3.531-3.703,3.531c-2.045,0-3.73-1.421-3.73-3.531
		c0-2.098,1.686-3.531,3.73-3.531C191.153,258.101,192.839,259.534,192.839,261.632z M190.795,261.632
		c0-1.035-0.757-1.726-1.659-1.726c-0.93,0-1.687,0.69-1.687,1.726c0,1.049,0.757,1.726,1.687,1.726
		C190.038,263.357,190.795,262.681,190.795,261.632z"/>
	<path style="fill:#05ACED;" d="M195.561,262.8c0.093,0.571,0.504,0.81,0.969,0.81c0.505,0,0.717-0.265,0.717-0.558
		c0-0.198-0.105-0.385-0.478-0.478l-1.327-0.306c-1.115-0.252-1.806-0.85-1.806-1.938c0-1.354,1.088-2.23,2.721-2.23
		c1.554,0,2.615,0.77,2.854,1.912l-1.951,0.385c-0.054-0.412-0.346-0.823-0.916-0.823c-0.411,0-0.638,0.212-0.638,0.491
		c0,0.266,0.199,0.438,0.558,0.531l1.314,0.318c1.168,0.292,1.726,1.009,1.726,2.005c0,1.473-1.208,2.243-2.881,2.243
		c-1.38,0-2.721-0.531-2.934-1.938L195.561,262.8z"/>
	<path style="fill:#05ACED;" d="M210.256,260.875v4.089h-2.111v-3.638c0-0.783-0.465-1.313-1.142-1.313
		c-0.836,0-1.381,0.57-1.381,1.858v3.093h-2.124V258.3h2.124v0.637c0.505-0.53,1.208-0.836,2.045-0.836
		C209.22,258.101,210.256,259.202,210.256,260.875z"/>
	<path style="fill:#05ACED;" d="M218.539,264.738c-0.438,0.252-0.783,0.345-1.194,0.345c-0.611,0-1.208-0.199-1.514-0.81
		c-0.465,0.505-1.182,0.89-2.217,0.89c-1.421,0-2.376-0.836-2.376-2.058c0-1.341,0.969-2.058,2.748-2.19l1.633-0.133v-0.08
		c0-0.558-0.346-0.955-0.97-0.955c-0.531,0-0.89,0.278-1.009,0.862l-1.965-0.411c0.306-1.328,1.407-2.098,3.014-2.098
		c1.792,0,2.974,0.942,2.974,2.642v2.124c0,0.239,0.093,0.372,0.239,0.372c0.093,0,0.238-0.014,0.491-0.026L218.539,264.738z
		 M215.619,262.335v-0.278l-1.288,0.146c-0.61,0.066-0.89,0.332-0.89,0.73c0,0.412,0.332,0.638,0.823,0.638
		C215.021,263.57,215.619,263.079,215.619,262.335z"/>
	<path style="fill:#05ACED;" d="M226.133,262.562c-0.346,1.579-1.779,2.602-3.452,2.602c-2.004,0-3.677-1.421-3.677-3.531
		c0-2.098,1.673-3.531,3.677-3.531c1.646,0,3.066,0.996,3.438,2.562l-1.978,0.478c-0.199-0.81-0.771-1.208-1.461-1.208
		c-0.969,0-1.633,0.73-1.633,1.699c0,0.982,0.664,1.699,1.633,1.699c0.69,0,1.262-0.385,1.5-1.194L226.133,262.562z"/>
	<path style="fill:#05ACED;" d="M229.584,256.149c0,0.677-0.518,1.194-1.234,1.194s-1.222-0.518-1.222-1.194
		c0-0.638,0.505-1.195,1.222-1.195S229.584,255.512,229.584,256.149z M227.287,264.964V258.3h2.124v6.664H227.287z"/>
	<path style="fill:#05ACED;" d="M238.053,261.632c0,2.11-1.686,3.531-3.703,3.531c-2.045,0-3.73-1.421-3.73-3.531
		c0-2.098,1.686-3.531,3.73-3.531C236.367,258.101,238.053,259.534,238.053,261.632z M236.009,261.632
		c0-1.035-0.757-1.726-1.659-1.726c-0.93,0-1.687,0.69-1.687,1.726c0,1.049,0.757,1.726,1.687,1.726
		C235.252,263.357,236.009,262.681,236.009,261.632z"/>
	<path style="fill:#05ACED;" d="M245.979,260.875v4.089h-2.111v-3.638c0-0.783-0.465-1.313-1.142-1.313
		c-0.836,0-1.381,0.57-1.381,1.858v3.093h-2.124V258.3h2.124v0.637c0.505-0.53,1.208-0.836,2.045-0.836
		C244.942,258.101,245.979,259.202,245.979,260.875z"/>
	<path style="fill:#05ACED;" d="M254.262,264.738c-0.438,0.252-0.783,0.345-1.194,0.345c-0.611,0-1.208-0.199-1.514-0.81
		c-0.465,0.505-1.182,0.89-2.217,0.89c-1.421,0-2.376-0.836-2.376-2.058c0-1.341,0.969-2.058,2.748-2.19l1.633-0.133v-0.08
		c0-0.558-0.346-0.955-0.97-0.955c-0.531,0-0.89,0.278-1.009,0.862l-1.965-0.411c0.306-1.328,1.407-2.098,3.014-2.098
		c1.792,0,2.974,0.942,2.974,2.642v2.124c0,0.239,0.093,0.372,0.239,0.372c0.093,0,0.238-0.014,0.491-0.026L254.262,264.738z
		 M251.342,262.335v-0.278l-1.288,0.146c-0.61,0.066-0.89,0.332-0.89,0.73c0,0.412,0.332,0.638,0.823,0.638
		C250.744,263.57,251.342,263.079,251.342,262.335z"/>
	<path style="fill:#05ACED;" d="M255.23,264.964v-10.62h2.124v10.62H255.23z"/>
	<path style="fill:#05ACED;" d="M265.493,262.176h-4.886c0.173,0.797,0.717,1.288,1.434,1.288c0.491,0,1.062-0.119,1.421-0.771
		l1.885,0.386c-0.57,1.407-1.779,2.084-3.306,2.084c-1.925,0-3.518-1.421-3.518-3.531c0-2.098,1.593-3.531,3.531-3.531
		c1.885,0,3.398,1.354,3.438,3.531V262.176z M260.647,260.875h2.748c-0.199-0.717-0.73-1.049-1.341-1.049
		C261.457,259.826,260.847,260.198,260.647,260.875z"/>
	<path style="fill:#05ACED;" d="M268.214,262.8c0.093,0.571,0.504,0.81,0.969,0.81c0.505,0,0.717-0.265,0.717-0.558
		c0-0.198-0.105-0.385-0.478-0.478l-1.327-0.306c-1.115-0.252-1.806-0.85-1.806-1.938c0-1.354,1.088-2.23,2.722-2.23
		c1.553,0,2.614,0.77,2.854,1.912l-1.951,0.385c-0.053-0.412-0.346-0.823-0.916-0.823c-0.412,0-0.638,0.212-0.638,0.491
		c0,0.266,0.199,0.438,0.558,0.531l1.314,0.318c1.168,0.292,1.726,1.009,1.726,2.005c0,1.473-1.208,2.243-2.881,2.243
		c-1.38,0-2.721-0.531-2.934-1.938L268.214,262.8z"/>
</g>
<g>
	<path style="fill:#05ACED;" d="M125.907,284.61h-2.243l1.726-3.956l-2.774-6.425h2.243l1.62,3.942l1.726-3.942h2.243
		L125.907,284.61z"/>
	<path style="fill:#05ACED;" d="M140.922,278.105h-4.886c0.173,0.797,0.717,1.288,1.434,1.288c0.491,0,1.062-0.119,1.421-0.771
		l1.885,0.386c-0.571,1.407-1.779,2.084-3.306,2.084c-1.925,0-3.518-1.421-3.518-3.531c0-2.098,1.593-3.531,3.531-3.531
		c1.885,0,3.398,1.354,3.438,3.531V278.105z M136.076,276.805h2.748c-0.199-0.717-0.73-1.049-1.341-1.049
		C136.886,275.756,136.275,276.128,136.076,276.805z"/>
	<path style="fill:#05ACED;" d="M149.151,280.894h-2.429l-1.381-1.965l-1.367,1.965h-2.43l2.283-3.226l-2.283-3.438h2.43l1.367,2.11
		l1.381-2.11h2.429l-2.283,3.438L149.151,280.894z"/>
	<path style="fill:#05ACED;" d="M152.803,278.358c0,0.53,0.279,0.836,0.757,0.836c0.292,0,0.69-0.106,0.969-0.266l0.491,1.673
		c-0.518,0.278-1.062,0.491-1.818,0.491c-1.58,0-2.522-0.942-2.522-2.522v-2.655h-1.261v-1.686h1.261v-2.271l2.124-0.624v2.895
		h2.363v1.686h-2.363V278.358z"/>
	<path style="fill:#05ACED;" d="M160.927,274.189l-0.093,2.124h-0.385c-1.486,0-2.297,0.771-2.297,2.496v2.084h-2.124v-6.664h2.124
		v1.155c0.491-0.744,1.222-1.248,2.297-1.248C160.635,274.137,160.768,274.149,160.927,274.189z"/>
	<path style="fill:#05ACED;" d="M168.666,280.668c-0.438,0.252-0.783,0.345-1.194,0.345c-0.611,0-1.208-0.199-1.514-0.81
		c-0.465,0.505-1.182,0.89-2.217,0.89c-1.421,0-2.376-0.836-2.376-2.058c0-1.341,0.969-2.058,2.748-2.19l1.633-0.133v-0.08
		c0-0.558-0.346-0.955-0.97-0.955c-0.531,0-0.89,0.278-1.009,0.862l-1.965-0.411c0.306-1.328,1.407-2.098,3.014-2.098
		c1.792,0,2.974,0.942,2.974,2.642v2.124c0,0.239,0.093,0.372,0.239,0.372c0.093,0,0.238-0.014,0.491-0.026L168.666,280.668z
		 M165.746,278.265v-0.278l-1.288,0.146c-0.61,0.066-0.89,0.332-0.89,0.73c0,0.412,0.332,0.638,0.823,0.638
		C165.148,279.5,165.746,279.009,165.746,278.265z"/>
	<path style="fill:#05ACED;" d="M176.393,276.805v4.089h-2.111v-3.638c0-0.783-0.465-1.313-1.142-1.313
		c-0.836,0-1.381,0.57-1.381,1.858v3.093h-2.124v-6.664h2.124v0.637c0.505-0.53,1.208-0.836,2.045-0.836
		C175.356,274.03,176.393,275.132,176.393,276.805z"/>
	<path style="fill:#05ACED;" d="M177.029,282.792c0.213,0.066,0.398,0.106,0.531,0.106c0.332,0,0.558-0.213,0.558-0.531v-8.138h2.11
		v8.377c0,1.287-0.836,2.137-2.124,2.137c-0.61,0-1.035-0.133-1.394-0.278L177.029,282.792z M180.388,272.079
		c0,0.677-0.518,1.194-1.234,1.194s-1.221-0.518-1.221-1.194c0-0.638,0.504-1.195,1.221-1.195S180.388,271.441,180.388,272.079z"/>
	<path style="fill:#05ACED;" d="M188.393,278.105h-4.886c0.173,0.797,0.717,1.288,1.434,1.288c0.491,0,1.062-0.119,1.421-0.771
		l1.885,0.386c-0.571,1.407-1.779,2.084-3.306,2.084c-1.925,0-3.518-1.421-3.518-3.531c0-2.098,1.593-3.531,3.531-3.531
		c1.885,0,3.398,1.354,3.438,3.531V278.105z M183.547,276.805h2.748c-0.199-0.717-0.73-1.049-1.341-1.049
		C184.356,275.756,183.746,276.128,183.547,276.805z"/>
	<path style="fill:#05ACED;" d="M194.46,274.189l-0.094,2.124h-0.385c-1.486,0-2.297,0.771-2.297,2.496v2.084h-2.124v-6.664h2.124
		v1.155c0.491-0.744,1.222-1.248,2.297-1.248C194.167,274.137,194.3,274.149,194.46,274.189z"/>
	<path style="fill:#05ACED;" d="M202.357,277.562c0,2.11-1.686,3.531-3.703,3.531c-2.045,0-3.73-1.421-3.73-3.531
		c0-2.098,1.686-3.531,3.73-3.531C200.672,274.03,202.357,275.464,202.357,277.562z M200.313,277.562
		c0-1.035-0.757-1.726-1.659-1.726c-0.93,0-1.687,0.69-1.687,1.726c0,1.049,0.757,1.726,1.687,1.726
		C199.557,279.287,200.313,278.61,200.313,277.562z"/>
	<path style="fill:#05ACED;" d="M205.079,278.729c0.093,0.571,0.504,0.81,0.969,0.81c0.505,0,0.717-0.265,0.717-0.558
		c0-0.198-0.105-0.385-0.478-0.478l-1.327-0.306c-1.115-0.252-1.806-0.85-1.806-1.938c0-1.354,1.088-2.23,2.722-2.23
		c1.553,0,2.614,0.77,2.854,1.912l-1.951,0.385c-0.053-0.412-0.346-0.823-0.916-0.823c-0.412,0-0.638,0.212-0.638,0.491
		c0,0.266,0.199,0.438,0.558,0.531l1.314,0.318c1.168,0.292,1.726,1.009,1.726,2.005c0,1.473-1.208,2.243-2.881,2.243
		c-1.38,0-2.721-0.531-2.934-1.938L205.079,278.729z"/>
	<path style="fill:#05ACED;" d="M211.955,279.766c0,0.677-0.519,1.194-1.222,1.194s-1.208-0.518-1.208-1.194
		c0-0.638,0.505-1.195,1.208-1.195S211.955,279.128,211.955,279.766z"/>
</g>
<line style="fill:none;stroke:#FFAC00;stroke-width:3;stroke-miterlimit:10;" x1="8.95" y1="162.755" x2="330.95" y2="162.755"/>
<path style="fill:#FFAC00;" d="M143.761,64.05c-0.543-0.748-1.365-1.453-2.378-2.099c0.396-1.042,0.603-2.144,0.603-3.272
	c0-2.568-1.071-5.004-2.892-6.75c0.734-1.336,1.13-2.862,1.13-4.433c0-2.979-1.481-5.752-3.83-7.454
	c0.367-0.998,0.558-2.055,0.558-3.156c0-3.491-1.966-6.588-5.004-8.086c-0.808-8.511-7.896-15.056-16.773-15.231
	c-6.809-0.367-16.245,5.812-16.772,15.231c-3.039,1.498-5.004,4.58-5.004,8.086c0,1.102,0.189,2.158,0.557,3.156
	c-2.348,1.688-3.83,4.475-3.83,7.454c0,1.57,0.396,3.097,1.13,4.433c-1.819,1.746-2.892,4.182-2.892,6.75
	c0,1.129,0.221,2.23,0.617,3.258c-1.027,0.646-1.85,1.35-2.393,2.099c-4.123,5.781-0.732,20.779-0.322,22.468
	c0.221,0.938,1.057,1.598,2.01,1.598h53.799c0.953,0,1.79-0.659,2.01-1.598C144.494,84.814,147.884,69.831,143.761,64.05
	 M95.144,54.158L95.144,54.158c1.174-0.66,1.394-2.245,0.469-3.228c-0.909-0.955-1.395-2.245-1.351-3.596
	c0.06-2.084,1.497-3.873,3.435-4.623c1.996-1.35,0.705-3.052,0.705-3.052c-0.573-0.793-0.867-1.747-0.867-2.774
	c0-2.172,1.395-4.035,3.448-4.666c0.866-0.265,1.469-1.057,1.469-1.951c0.205-6.473,4.96-12.268,12.737-12.547
	c7.44,0.146,12.841,6.412,12.693,12.986c0,1.35,1.468,1.526,1.468,1.526c2.069,0.616,3.448,2.495,3.448,4.667
	c0,1.027-0.308,1.98-0.865,2.773c0,0-1.204,1.791,0.704,3.053c1.938,0.748,3.375,2.539,3.435,4.621
	c0.044,1.365-0.44,2.643-1.351,3.597c-0.925,0.968-0.689,2.553,0.469,3.228c1.63,0.926,2.643,2.672,2.643,4.535
	c0,0.484-0.073,0.969-0.205,1.424c-5.782-2.305-13.443-3.596-15.497-3.903c-0.104-0.015-13.854-0.015-13.956,0
	c-2.04,0.308-9.715,1.599-15.496,3.903c-0.133-0.455-0.206-0.939-0.206-1.424C92.501,56.815,93.514,55.083,95.144,54.158
	 M125.344,60.982c-0.573,5.106-4.916,9.084-10.17,9.084s-9.597-3.978-10.17-9.084c1.277-0.265,2.524-0.484,3.669-0.66h13.002
	C122.82,60.498,124.067,60.718,125.344,60.982 M140.399,83.964H89.948c-1.189-5.826-2.069-14.572,0.015-17.508
	c1.159-1.629,5.942-3.302,10.991-4.564c0.998,6.957,6.984,12.328,14.22,12.328s13.207-5.371,14.22-12.328
	c5.049,1.263,9.832,2.921,10.991,4.564C142.483,69.376,141.603,78.138,140.399,83.964"/>
<path style="fill:#FFAC00;" d="M115.175,54.335c7.189,0,13.03-7.382,13.03-16.523c-0.015-4.109-2.465-7.866-6.252-9.598
	c-1.863-0.852-3.492-2.099-4.856-3.699c-1.102-1.306-3.229-0.776-3.596,0.896c-1.057,4.77-4.945,8.863-9.905,10.434
	c-0.852,0.278-1.438,1.071-1.438,1.967C101.806,42.962,105.195,53.968,115.175,54.335 M116.421,29.638
	c1.175,0.938,2.451,1.731,3.815,2.362c2.319,1.056,3.816,3.345,3.831,5.899c0,6.794-3.992,12.312-8.893,12.312
	c-4.447-0.116-8.438-4.901-8.836-10.946C110.83,37.4,114.484,33.878,116.421,29.638"/>
<path style="fill:#FFAC00;" d="M215.736,59.114c-13.089-5.586-28.11-5.586-41.2,0c-7.443,3.18-12.243,10.563-12.243,18.81v8.083
	c0,1.159,0.937,2.095,2.096,2.095h61.511c1.159,0,2.095-0.936,2.095-2.095v-8.083C227.994,69.663,223.181,62.278,215.736,59.114
	 M177.79,62.323c1.545-0.594,3.12-1.1,4.71-1.53c0.401,4.517,3.714,8.425,6.998,11.233c-0.401,0.816-0.624,1.737-0.624,2.719
	c0,3.462,2.809,6.27,6.271,6.27c3.461,0,6.269-2.808,6.269-6.27c0-0.981-0.222-1.902-0.624-2.719
	c3.284-2.809,6.598-6.701,6.998-11.233c1.59,0.431,3.165,0.937,4.71,1.53v21.574H177.79V62.323z M197.225,74.745
	c0,1.144-0.937,2.08-2.08,2.08c-1.146,0-2.081-0.937-2.081-2.08c0-1.145,0.936-2.08,2.081-2.08
	C196.288,72.665,197.225,73.601,197.225,74.745 M203.643,59.872c0,3.611-3.283,7.043-5.854,9.182
	c-0.802-0.371-1.708-0.594-2.644-0.594c-0.951,0-1.843,0.223-2.646,0.594c-2.57-2.154-5.839-5.586-5.839-9.197
	C192.262,58.877,198.026,58.877,203.643,59.872 M166.483,77.924c0-5.556,2.719-10.593,7.117-13.535v19.522h-7.117V77.924z
	 M223.805,83.911h-7.117V64.389c4.397,2.957,7.117,7.993,7.117,13.535V83.911z"/>
<path style="fill:#FFAC00;" d="M195.144,51.537c9.673,0,17.547-8.722,17.547-19.449c0-10.741-7.874-19.464-17.547-19.464
	c-9.672,0-17.547,8.723-17.547,19.449C177.597,42.815,185.472,51.537,195.144,51.537 M195.144,16.813
	c7.087,0,12.882,6.345,13.312,14.324c-5.913-2.065-10.757-5.677-15.941-9.807c-1.13-0.906-2.823-0.416-3.284,0.951
	c-0.015,0.059-1.887,5.259-7.369,8.29C182.515,22.861,188.221,16.813,195.144,16.813 M191.949,26.233
	c4.934,3.834,10.029,7.281,16.21,9.213c-1.352,6.805-6.671,11.886-13.016,11.886c-6.448,0-11.841-5.245-13.089-12.198
	C187.417,32.847,190.448,28.864,191.949,26.233"/>
<path style="fill:#FFAC00;" d="M96.638,247.614c0.875-3.148,1.312-6.471,1.312-9.969c0-12.769-6.121-24.136-15.566-31.308
	c-0.086-0.087-0.262-0.175-0.35-0.262c-6.121-4.547-13.643-7.346-21.773-7.696h-0.264h-1.398c-10.844,0-20.726,4.46-27.81,11.544
	c-0.087,0.088-0.175,0.176-0.262,0.35c-6.996,6.996-11.281,16.703-11.281,27.372c0,21.687,17.665,39.352,39.353,39.352
	c18.102,0,33.404-12.33,37.953-29.033C96.638,247.876,96.638,247.789,96.638,247.614 M95.064,237.646
	c0,2.099-0.175,4.109-0.525,6.034l-2.536-3.761l-2.885-8.569c-0.175-0.438-0.525-0.875-1.05-0.962l-11.019-2.711l-2.273-4.461
	l5.334-8.045c0.088-0.088,0.088-0.263,0.175-0.35l1.662-4.985C89.992,216.482,95.064,226.451,95.064,237.646 M59.123,201.18
	l3.761,7.52l-2.274,11.456l-0.962-0.962c-0.612-0.612-1.486-0.612-2.098,0l-5.859,5.859c-0.35,0.35-0.525,0.962-0.35,1.486
	l2.885,8.745c0.175,0.524,0.613,0.874,1.137,0.962l8.395,1.399l4.461,3.41l-3.672,6.122c-0.089,0.087-0.089,0.262-0.176,0.35
	l-2.799,9.881l-5.159,6.209l-2.187-11.718c-0.088-0.351-0.262-0.7-0.524-0.874l-5.247-3.937v-3.234l4.198-6.909
	c0.262-0.438,0.262-1.049,0-1.486c-0.263-0.438-0.788-0.699-1.399-0.699l-15.392,1.398l-7.695-7.695l4.722-16.702
	c6.646-6.472,15.742-10.581,25.711-10.581H59.123z M58.599,274.111c-20.113,0-36.467-16.354-36.467-36.466
	c0-7.434,2.274-14.43,6.121-20.201l-3.147,11.019c-0.175,0.524,0,1.05,0.35,1.399l8.745,8.745c0.262,0.262,0.699,0.437,1.137,0.437
	l13.204-1.224l-2.885,4.809c-0.175,0.264-0.175,0.525-0.175,0.788v4.372c0,0.438,0.175,0.874,0.611,1.138l5.422,4.021l2.799,13.992
	c0.087,0.524,0.525,0.962,1.049,1.137c0.088,0,0.263,0.087,0.35,0.087c0.438,0,0.875-0.174,1.137-0.523l7.259-8.745
	c0.088-0.175,0.263-0.351,0.263-0.525l2.885-10.056l4.285-7.084c0.35-0.612,0.264-1.486-0.349-1.924l-5.859-4.372
	c-0.175-0.175-0.438-0.263-0.612-0.263l-7.871-1.312l-2.36-7.083l4.196-4.198l1.925,1.924c0.35,0.351,0.962,0.525,1.487,0.351
	c0.524-0.175,0.873-0.612,1.049-1.138l2.711-14.429c0.088-0.35,0-0.612-0.088-0.962l-3.235-6.384
	c6.297,0.7,12.156,2.973,17.054,6.471l-1.925,5.772l-5.685,8.569c-0.262,0.438-0.35,0.962-0.088,1.487l2.887,5.859
	c0.175,0.349,0.525,0.698,0.962,0.787l10.844,2.623l2.623,7.958c0,0.087,0.088,0.262,0.175,0.35l4.197,6.296
	C89.293,262.918,75.214,274.111,58.599,274.111"/>
<path style="fill:none;stroke:#FFAC00;stroke-linejoin:round;stroke-miterlimit:10;" d="M96.638,247.614
	c0.875-3.148,1.312-6.471,1.312-9.969c0-12.769-6.121-24.136-15.566-31.308c-0.086-0.087-0.262-0.175-0.35-0.262
	c-6.121-4.547-13.643-7.346-21.773-7.696h-0.264h-1.398c-10.844,0-20.726,4.46-27.81,11.544c-0.087,0.088-0.175,0.176-0.262,0.35
	c-6.996,6.996-11.281,16.703-11.281,27.372c0,21.687,17.665,39.352,39.353,39.352c18.102,0,33.404-12.33,37.953-29.033
	C96.638,247.876,96.638,247.789,96.638,247.614z M95.064,237.646c0,2.099-0.175,4.109-0.525,6.034l-2.536-3.761l-2.885-8.569
	c-0.175-0.438-0.525-0.875-1.05-0.962l-11.019-2.711l-2.273-4.461l5.334-8.045c0.088-0.088,0.088-0.263,0.175-0.35l1.662-4.985
	C89.992,216.482,95.064,226.451,95.064,237.646z M59.123,201.18l3.761,7.52l-2.274,11.456l-0.962-0.962
	c-0.612-0.612-1.486-0.612-2.098,0l-5.859,5.859c-0.35,0.35-0.525,0.962-0.35,1.486l2.885,8.745
	c0.175,0.524,0.613,0.874,1.137,0.962l8.395,1.399l4.461,3.41l-3.672,6.122c-0.089,0.087-0.089,0.262-0.176,0.35l-2.799,9.881
	l-5.159,6.209l-2.187-11.718c-0.088-0.351-0.262-0.7-0.524-0.874l-5.247-3.937v-3.234l4.198-6.909c0.262-0.438,0.262-1.049,0-1.486
	c-0.263-0.438-0.788-0.699-1.399-0.699l-15.392,1.398l-7.695-7.695l4.722-16.702c6.646-6.472,15.742-10.581,25.711-10.581H59.123z
	 M58.599,274.111c-20.113,0-36.467-16.354-36.467-36.466c0-7.434,2.274-14.43,6.121-20.201l-3.147,11.019
	c-0.175,0.524,0,1.05,0.35,1.399l8.745,8.745c0.262,0.262,0.699,0.437,1.137,0.437l13.204-1.224l-2.885,4.809
	c-0.175,0.264-0.175,0.525-0.175,0.788v4.372c0,0.438,0.175,0.874,0.611,1.138l5.422,4.021l2.799,13.992
	c0.087,0.524,0.525,0.962,1.049,1.137c0.088,0,0.263,0.087,0.35,0.087c0.438,0,0.875-0.174,1.137-0.523l7.259-8.745
	c0.088-0.175,0.263-0.351,0.263-0.525l2.885-10.056l4.285-7.084c0.35-0.612,0.264-1.486-0.349-1.924l-5.859-4.372
	c-0.175-0.175-0.438-0.263-0.612-0.263l-7.871-1.312l-2.36-7.083l4.196-4.198l1.925,1.924c0.35,0.351,0.962,0.525,1.487,0.351
	c0.524-0.175,0.873-0.612,1.049-1.138l2.711-14.429c0.088-0.35,0-0.612-0.088-0.962l-3.235-6.384
	c6.297,0.7,12.156,2.973,17.054,6.471l-1.925,5.772l-5.685,8.569c-0.262,0.438-0.35,0.962-0.088,1.487l2.887,5.859
	c0.175,0.349,0.525,0.698,0.962,0.787l10.844,2.623l2.623,7.958c0,0.087,0.088,0.262,0.175,0.35l4.197,6.296
	C89.293,262.918,75.214,274.111,58.599,274.111z"/>
</svg>
