<?xml version="1.0" encoding="iso-8859-1"?>
<!-- Generator: Adobe Illustrator 15.0.0, SVG Export Plug-In . SVG Version: 6.00 Build 0)  -->
<!DOCTYPE svg PUBLIC "-//W3C//DTD SVG 1.1//EN" "http://www.w3.org/Graphics/SVG/1.1/DTD/svg11.dtd">
<svg version="1.1" id="Layer_1" xmlns="http://www.w3.org/2000/svg" xmlns:xlink="http://www.w3.org/1999/xlink" x="0px" y="0px"
	 width="260px" height="300px" viewBox="0 0 260 300" style="enable-background:new 0 0 260 300;" xml:space="preserve">
<g>
	<path style="fill:#2E3090;" d="M25.384,120.362v3.516h-4.374v-3.516H9.275v-2.408l13.314-15.112h2.795v13.729h3.931v3.792H25.384z
		 M21.011,110.204l-5.453,6.366h5.453V110.204z"/>
	<path style="fill:#2E3090;" d="M29.485,127.531l1.633-7.972h4.899v0.111l-3.183,7.86H29.485z"/>
	<path style="fill:#2E3090;" d="M46.564,109.014c4.069,0.333,7.335,3.35,7.335,7.64c0,4.567-3.681,7.64-8.083,7.64
		c-4.456,0-8.138-3.072-8.138-7.64c0-1.826,0.609-3.432,1.605-4.705l6.421-9.106h5.176L46.564,109.014z M49.526,116.653
		c0-2.242-1.827-3.736-3.709-3.736c-1.938,0-3.764,1.494-3.764,3.736s1.827,3.682,3.764,3.682
		C47.699,120.335,49.526,118.896,49.526,116.653z"/>
	<path style="fill:#2E3090;" d="M71.369,104.115l-8.857,19.763h-5.148l7.778-16.968h-9.355v-4.068h15.583V104.115z"/>
	<path style="fill:#2E3090;" d="M94.733,113.415c0,6.09-4.761,10.878-10.823,10.878c-6.062,0-10.823-4.788-10.823-10.878
		c0-6.117,4.761-10.988,10.823-10.988C89.972,102.427,94.733,107.298,94.733,113.415z M90.166,113.415
		c0-3.875-2.712-6.81-6.255-6.81s-6.255,2.935-6.255,6.81c0,3.848,2.712,6.727,6.255,6.727S90.166,117.263,90.166,113.415z"/>
</g>
<g>
	<path style="fill:#2E3090;" d="M130.712,237.057c0,5.826-5.188,10.014-12.699,10.014c-7.465,0-12.745-4.188-12.745-10.014
		c0-3.914,2.14-6.919,5.28-8.375c-2.595-1.457-4.188-4.097-4.188-7.465c0-5.917,5.28-10.104,11.652-10.104
		c6.418,0,11.652,4.232,11.652,10.104c0,3.368-1.639,6.008-4.233,7.465C128.665,230.138,130.712,233.188,130.712,237.057z
		 M123.065,236.237c0-2.867-2.594-4.506-5.143-4.506s-4.961,1.639-4.961,4.506c0,2.913,2.412,4.552,4.961,4.552
		C120.516,240.789,123.065,239.105,123.065,236.237z M113.28,221.49c0,2.73,2.23,4.324,4.643,4.324c2.504,0,4.824-1.639,4.824-4.324
		c0-2.731-2.366-4.279-4.779-4.279C115.647,217.211,113.28,218.713,113.28,221.49z"/>
	<path style="fill:#2E3090;" d="M133.124,252.396l2.686-13.108h8.056v0.182l-5.234,12.927H133.124z"/>
	<path style="fill:#2E3090;" d="M171.948,240.607v5.78h-7.191v-5.78h-19.299v-3.96l21.893-24.853h4.598v22.576h6.464v6.236H171.948z
		 M164.756,223.902l-8.967,10.469h8.967V223.902z"/>
	<path style="fill:#2E3090;" d="M215.733,229.183c0,10.014-7.828,17.888-17.797,17.888s-17.797-7.874-17.797-17.888
		c0-10.06,7.828-18.07,17.797-18.07S215.733,219.123,215.733,229.183z M208.223,229.183c0-6.373-4.461-11.197-10.287-11.197
		s-10.287,4.824-10.287,11.197c0,6.326,4.461,11.061,10.287,11.061S208.223,235.509,208.223,229.183z"/>
	<path style="fill:#2E3090;" d="M254.511,229.183c0,10.014-7.829,17.888-17.798,17.888c-9.968,0-17.797-7.874-17.797-17.888
		c0-10.06,7.829-18.07,17.797-18.07C246.682,211.112,254.511,219.123,254.511,229.183z M247,229.183
		c0-6.373-4.461-11.197-10.287-11.197s-10.286,4.824-10.286,11.197c0,6.326,4.46,11.061,10.286,11.061S247,235.509,247,229.183z"/>
</g>
<g>
	<path style="fill:#05ACED;" d="M114.583,199.027h-2.125v-6.199l-2.827,3.239h-0.837l-2.84-3.239v6.199h-2.125v-10.089h1.395
		l3.982,4.566l3.982-4.566h1.395V199.027z"/>
	<path style="fill:#05ACED;" d="M123.024,198.802c-0.438,0.252-0.783,0.345-1.193,0.345c-0.611,0-1.209-0.199-1.514-0.81
		c-0.465,0.505-1.182,0.89-2.217,0.89c-1.421,0-2.377-0.836-2.377-2.058c0-1.341,0.969-2.058,2.748-2.19l1.633-0.133v-0.08
		c0-0.558-0.346-0.955-0.969-0.955c-0.531,0-0.89,0.278-1.01,0.862l-1.964-0.411c0.306-1.328,1.407-2.098,3.013-2.098
		c1.793,0,2.975,0.942,2.975,2.642v2.124c0,0.239,0.092,0.372,0.238,0.372c0.094,0,0.239-0.014,0.491-0.026L123.024,198.802z
		 M120.104,196.398v-0.278l-1.287,0.146c-0.611,0.066-0.891,0.332-0.891,0.73c0,0.412,0.332,0.638,0.824,0.638
		C119.506,197.634,120.104,197.143,120.104,196.398z M118.192,191.234l0.943-2.018h2.521l-1.579,2.018H118.192z"/>
	<path style="fill:#05ACED;" d="M125.547,196.863c0.092,0.571,0.504,0.81,0.969,0.81c0.504,0,0.717-0.265,0.717-0.558
		c0-0.198-0.106-0.385-0.479-0.478l-1.327-0.306c-1.115-0.252-1.806-0.85-1.806-1.938c0-1.354,1.089-2.23,2.722-2.23
		c1.554,0,2.615,0.77,2.854,1.912l-1.951,0.385c-0.054-0.412-0.346-0.823-0.916-0.823c-0.412,0-0.638,0.212-0.638,0.491
		c0,0.266,0.199,0.438,0.558,0.531l1.314,0.318c1.168,0.292,1.726,1.009,1.726,2.005c0,1.473-1.208,2.243-2.881,2.243
		c-1.381,0-2.722-0.531-2.934-1.938L125.547,196.863z"/>
	<path style="fill:#05ACED;" d="M140.428,199.027h-2.124v-0.531c-0.518,0.465-1.208,0.73-2.071,0.73
		c-1.766,0-3.252-1.421-3.252-3.531c0-2.098,1.486-3.531,3.252-3.531c0.863,0,1.554,0.266,2.071,0.73v-4.487h2.124V199.027z
		 M138.304,195.695c0-1.022-0.771-1.726-1.633-1.726c-0.929,0-1.606,0.703-1.606,1.726c0,1.035,0.678,1.726,1.606,1.726
		C137.534,197.421,138.304,196.73,138.304,195.695z"/>
	<path style="fill:#05ACED;" d="M148.565,196.239h-4.885c0.173,0.797,0.717,1.288,1.434,1.288c0.491,0,1.062-0.119,1.42-0.771
		l1.886,0.386c-0.571,1.407-1.778,2.084-3.306,2.084c-1.925,0-3.518-1.421-3.518-3.531c0-2.098,1.593-3.531,3.531-3.531
		c1.885,0,3.398,1.354,3.438,3.531V196.239z M143.72,194.938h2.748c-0.199-0.717-0.73-1.049-1.341-1.049
		C144.53,193.89,143.919,194.262,143.72,194.938z"/>
</g>
<g>
	<path style="fill:#05ACED;" d="M105.555,262.946v4.979h-2.111v-4.979h-1.154v-1.686h1.154v-1.421c0-1.633,1.115-2.734,2.722-2.734
		c0.451,0,0.942,0.093,1.434,0.412l-0.584,1.539c-0.226-0.105-0.452-0.133-0.61-0.133c-0.505,0-0.85,0.372-0.85,0.916v1.421h2.23
		v1.686H105.555z"/>
	<path style="fill:#05ACED;" d="M115.338,267.699c-0.438,0.252-0.783,0.345-1.194,0.345c-0.61,0-1.208-0.199-1.514-0.81
		c-0.464,0.505-1.182,0.89-2.217,0.89c-1.421,0-2.376-0.837-2.376-2.058c0-1.341,0.969-2.058,2.748-2.19l1.633-0.133v-0.08
		c0-0.558-0.346-0.955-0.97-0.955c-0.53,0-0.89,0.278-1.009,0.862l-1.965-0.411c0.306-1.328,1.407-2.098,3.014-2.098
		c1.792,0,2.974,0.942,2.974,2.642v2.124c0,0.239,0.093,0.372,0.239,0.372c0.093,0,0.238-0.014,0.49-0.026L115.338,267.699z
		 M112.418,265.296v-0.278l-1.288,0.146c-0.61,0.065-0.89,0.331-0.89,0.729c0,0.412,0.332,0.638,0.823,0.638
		C111.821,266.531,112.418,266.04,112.418,265.296z"/>
	<path style="fill:#05ACED;" d="M127.418,263.757v4.168h-2.11v-3.717c0-0.757-0.491-1.234-1.115-1.234
		c-0.783,0-1.301,0.57-1.301,1.686v3.266h-2.124v-3.717c0-0.757-0.491-1.234-1.129-1.234c-0.77,0-1.273,0.57-1.273,1.686v3.266
		h-2.125v-6.664h2.125v0.61c0.451-0.504,1.102-0.81,1.965-0.81c0.929,0,1.725,0.398,2.176,1.128
		c0.531-0.689,1.328-1.128,2.363-1.128C126.291,261.062,127.418,262.137,127.418,263.757z"/>
	<path style="fill:#05ACED;" d="M131.268,259.11c0,0.677-0.518,1.194-1.234,1.194s-1.222-0.518-1.222-1.194
		c0-0.638,0.505-1.195,1.222-1.195S131.268,258.473,131.268,259.11z M128.971,267.925v-6.664h2.124v6.664H128.971z"/>
	<path style="fill:#05ACED;" d="M132.808,267.925v-10.62h2.124v10.62H132.808z"/>
	<path style="fill:#05ACED;" d="M138.941,259.11c0,0.677-0.518,1.194-1.235,1.194c-0.717,0-1.221-0.518-1.221-1.194
		c0-0.638,0.504-1.195,1.221-1.195C138.423,257.915,138.941,258.473,138.941,259.11z M136.644,267.925v-6.664h2.124v6.664H136.644z"
		/>
	<path style="fill:#05ACED;" d="M147.25,267.699c-0.438,0.252-0.783,0.345-1.193,0.345c-0.611,0-1.209-0.199-1.514-0.81
		c-0.465,0.505-1.182,0.89-2.217,0.89c-1.421,0-2.377-0.837-2.377-2.058c0-1.341,0.969-2.058,2.748-2.19l1.633-0.133v-0.08
		c0-0.558-0.346-0.955-0.969-0.955c-0.531,0-0.89,0.278-1.01,0.862l-1.964-0.411c0.306-1.328,1.407-2.098,3.013-2.098
		c1.793,0,2.975,0.942,2.975,2.642v2.124c0,0.239,0.092,0.372,0.238,0.372c0.094,0,0.239-0.014,0.491-0.026L147.25,267.699z
		 M144.331,265.296v-0.278l-1.287,0.146c-0.611,0.065-0.891,0.331-0.891,0.729c0,0.412,0.332,0.638,0.824,0.638
		C143.733,266.531,144.331,266.04,144.331,265.296z"/>
	<path style="fill:#05ACED;" d="M153.119,261.221l-0.093,2.124h-0.385c-1.487,0-2.297,0.771-2.297,2.496v2.084h-2.124v-6.664h2.124
		v1.155c0.491-0.744,1.221-1.248,2.297-1.248C152.827,261.168,152.959,261.181,153.119,261.221z"/>
	<path style="fill:#05ACED;" d="M160.552,265.137h-4.886c0.174,0.797,0.717,1.288,1.434,1.288c0.492,0,1.062-0.119,1.421-0.771
		l1.886,0.386c-0.571,1.407-1.779,2.084-3.307,2.084c-1.924,0-3.518-1.421-3.518-3.531c0-2.098,1.594-3.531,3.531-3.531
		c1.885,0,3.398,1.354,3.438,3.531V265.137z M155.708,263.836h2.747c-0.198-0.717-0.729-1.049-1.341-1.049
		C156.516,262.787,155.906,263.159,155.708,263.836z"/>
	<path style="fill:#05ACED;" d="M163.274,265.761c0.093,0.571,0.504,0.81,0.969,0.81c0.505,0,0.717-0.265,0.717-0.557
		c0-0.199-0.105-0.386-0.478-0.479l-1.327-0.306c-1.115-0.252-1.806-0.85-1.806-1.938c0-1.354,1.089-2.23,2.722-2.23
		c1.553,0,2.615,0.77,2.854,1.912l-1.951,0.385c-0.053-0.412-0.346-0.823-0.916-0.823c-0.412,0-0.637,0.212-0.637,0.491
		c0,0.266,0.199,0.438,0.557,0.531l1.314,0.318c1.168,0.292,1.727,1.009,1.727,2.005c0,1.473-1.209,2.243-2.881,2.243
		c-1.381,0-2.722-0.531-2.935-1.938L163.274,265.761z"/>
	<path style="fill:#05ACED;" d="M178.659,264.593c0,2.11-1.486,3.531-3.252,3.531c-0.863,0-1.553-0.266-2.07-0.73v0.531h-2.125
		v-10.62h2.125v4.487c0.518-0.465,1.207-0.73,2.07-0.73C177.172,261.062,178.659,262.495,178.659,264.593z M176.575,264.593
		c0-1.022-0.677-1.726-1.605-1.726c-0.863,0-1.633,0.703-1.633,1.726c0,1.035,0.77,1.726,1.633,1.726
		C175.898,266.318,176.575,265.628,176.575,264.593z"/>
	<path style="fill:#05ACED;" d="M186.292,265.137h-4.886c0.174,0.797,0.717,1.288,1.434,1.288c0.492,0,1.062-0.119,1.421-0.771
		l1.886,0.386c-0.571,1.407-1.779,2.084-3.307,2.084c-1.924,0-3.518-1.421-3.518-3.531c0-2.098,1.594-3.531,3.531-3.531
		c1.885,0,3.398,1.354,3.438,3.531V265.137z M181.448,263.836h2.747c-0.198-0.717-0.729-1.049-1.341-1.049
		C182.256,262.787,181.646,263.159,181.448,263.836z"/>
	<path style="fill:#05ACED;" d="M194.217,263.836v4.089h-2.111v-3.638c0-0.783-0.464-1.313-1.141-1.313
		c-0.837,0-1.381,0.57-1.381,1.858v3.093h-2.124v-6.664h2.124v0.637c0.504-0.53,1.208-0.836,2.045-0.836
		C193.182,261.062,194.217,262.163,194.217,263.836z"/>
	<path style="fill:#05ACED;" d="M202.196,265.137h-4.885c0.172,0.797,0.717,1.288,1.434,1.288c0.49,0,1.062-0.119,1.42-0.771
		l1.885,0.386c-0.57,1.407-1.778,2.084-3.305,2.084c-1.926,0-3.518-1.421-3.518-3.531c0-2.098,1.592-3.531,3.531-3.531
		c1.885,0,3.398,1.354,3.438,3.531V265.137z M197.35,263.836h2.748c-0.199-0.717-0.73-1.049-1.34-1.049
		C198.161,262.787,197.549,263.159,197.35,263.836z"/>
	<path style="fill:#05ACED;" d="M210.36,267.925h-2.124v-4.979h-2.442v4.979h-2.111v-4.979h-1.154v-1.686h1.154v-0.969
		c0-1.912,1.407-3.187,3.451-3.187c0.877,0,1.62,0.252,2.496,0.863l-0.836,1.593c-0.638-0.531-1.143-0.638-1.58-0.638
		c-0.836,0-1.42,0.571-1.42,1.435v0.902h4.566V267.925z"/>
	<path style="fill:#05ACED;" d="M218.524,265.522c-0.345,1.579-1.779,2.602-3.451,2.602c-2.005,0-3.678-1.421-3.678-3.531
		c0-2.098,1.673-3.531,3.678-3.531c1.646,0,3.066,0.996,3.438,2.562l-1.978,0.478c-0.199-0.81-0.771-1.208-1.46-1.208
		c-0.969,0-1.633,0.73-1.633,1.699c0,0.982,0.664,1.699,1.633,1.699c0.689,0,1.261-0.385,1.5-1.194L218.524,265.522z"/>
	<path style="fill:#05ACED;" d="M221.975,259.11c0,0.677-0.518,1.194-1.234,1.194s-1.221-0.518-1.221-1.194
		c0-0.638,0.504-1.195,1.221-1.195S221.975,258.473,221.975,259.11z M219.678,267.925v-6.664h2.125v6.664H219.678z"/>
	<path style="fill:#05ACED;" d="M230.286,267.699c-0.438,0.252-0.783,0.345-1.195,0.345c-0.61,0-1.208-0.199-1.514-0.81
		c-0.464,0.505-1.181,0.89-2.217,0.89c-1.42,0-2.376-0.837-2.376-2.058c0-1.341,0.97-2.058,2.748-2.19l1.633-0.133v-0.08
		c0-0.558-0.345-0.955-0.969-0.955c-0.531,0-0.89,0.278-1.009,0.862l-1.965-0.411c0.305-1.328,1.406-2.098,3.014-2.098
		c1.791,0,2.973,0.942,2.973,2.642v2.124c0,0.239,0.094,0.372,0.239,0.372c0.093,0,0.239-0.014,0.491-0.026L230.286,267.699z
		 M227.365,265.296v-0.278l-1.288,0.146c-0.61,0.065-0.889,0.331-0.889,0.729c0,0.412,0.332,0.638,0.822,0.638
		C226.768,266.531,227.365,266.04,227.365,265.296z"/>
	<path style="fill:#05ACED;" d="M238.198,267.925h-2.125v-0.531c-0.518,0.465-1.207,0.73-2.07,0.73
		c-1.766,0-3.252-1.421-3.252-3.531c0-2.098,1.486-3.531,3.252-3.531c0.863,0,1.553,0.266,2.07,0.73v-4.487h2.125V267.925z
		 M236.073,264.593c0-1.022-0.77-1.726-1.633-1.726c-0.929,0-1.605,0.703-1.605,1.726c0,1.035,0.677,1.726,1.605,1.726
		C235.303,266.318,236.073,265.628,236.073,264.593z"/>
	<path style="fill:#05ACED;" d="M246.799,264.593c0,2.11-1.686,3.531-3.704,3.531c-2.044,0-3.729-1.421-3.729-3.531
		c0-2.098,1.686-3.531,3.729-3.531C245.114,261.062,246.799,262.495,246.799,264.593z M244.754,264.593
		c0-1.035-0.756-1.726-1.659-1.726c-0.929,0-1.686,0.69-1.686,1.726c0,1.049,0.757,1.726,1.686,1.726
		C243.999,266.318,244.754,265.642,244.754,264.593z"/>
	<path style="fill:#05ACED;" d="M249.52,265.761c0.094,0.571,0.505,0.81,0.969,0.81c0.506,0,0.718-0.265,0.718-0.557
		c0-0.199-0.106-0.386-0.478-0.479l-1.328-0.306c-1.115-0.252-1.805-0.85-1.805-1.938c0-1.354,1.088-2.23,2.721-2.23
		c1.553,0,2.615,0.77,2.854,1.912l-1.951,0.385c-0.053-0.412-0.345-0.823-0.916-0.823c-0.411,0-0.637,0.212-0.637,0.491
		c0,0.266,0.199,0.438,0.558,0.531l1.313,0.318c1.169,0.292,1.727,1.009,1.727,2.005c0,1.473-1.208,2.243-2.881,2.243
		c-1.381,0-2.722-0.531-2.934-1.938L249.52,265.761z"/>
	<path style="fill:#05ACED;" d="M256.397,266.797c0,0.677-0.518,1.194-1.222,1.194s-1.208-0.518-1.208-1.194
		c0-0.638,0.504-1.195,1.208-1.195S256.397,266.159,256.397,266.797z"/>
</g>
<line style="fill:none;stroke:#FFAC00;stroke-width:3;stroke-miterlimit:10;" x1="8.949" y1="145.594" x2="253.949" y2="145.594"/>
<g>
	<path style="fill:#05ACED;" d="M109.881,107.031v4.089h-2.111v-3.638c0-0.783-0.465-1.313-1.142-1.313
		c-0.836,0-1.38,0.57-1.38,1.858v3.093h-2.125v-6.664h2.125v0.637c0.504-0.53,1.207-0.836,2.044-0.836
		C108.846,104.257,109.881,105.358,109.881,107.031z"/>
	<path style="fill:#05ACED;" d="M113.731,102.306c0,0.677-0.519,1.194-1.235,1.194s-1.222-0.518-1.222-1.194
		c0-0.638,0.505-1.195,1.222-1.195S113.731,101.668,113.731,102.306z M111.434,111.12v-6.664h2.123v6.664H111.434z"/>
	<path style="fill:#05ACED;" d="M122.028,107.031v4.089h-2.111v-3.638c0-0.783-0.465-1.313-1.142-1.313
		c-0.836,0-1.38,0.57-1.38,1.858v3.093h-2.125v-6.664h2.125v0.637c0.504-0.53,1.207-0.836,2.044-0.836
		C120.993,104.257,122.028,105.358,122.028,107.031z M117.62,103.129h-1.287c0-1.447,0.783-2.019,1.526-2.019
		c0.85,0,1.062,0.491,1.606,0.491c0.252,0,0.371-0.186,0.412-0.478h1.287c0,1.474-0.77,2.044-1.54,2.044
		c-0.862,0-1.035-0.478-1.593-0.478C117.78,102.69,117.661,102.863,117.62,103.129z"/>
	<path style="fill:#05ACED;" d="M130.47,107.788c0,2.11-1.687,3.531-3.704,3.531c-2.044,0-3.73-1.421-3.73-3.531
		c0-2.098,1.687-3.531,3.73-3.531C128.784,104.257,130.47,105.69,130.47,107.788z M128.426,107.788c0-1.035-0.758-1.726-1.66-1.726
		c-0.93,0-1.686,0.69-1.686,1.726c0,1.049,0.756,1.726,1.686,1.726C127.668,109.514,128.426,108.837,128.426,107.788z"/>
	<path style="fill:#05ACED;" d="M133.192,108.956c0.092,0.571,0.504,0.81,0.969,0.81c0.504,0,0.717-0.265,0.717-0.557
		c0-0.199-0.106-0.386-0.479-0.479l-1.327-0.306c-1.115-0.252-1.806-0.85-1.806-1.938c0-1.354,1.089-2.23,2.722-2.23
		c1.554,0,2.615,0.77,2.854,1.912l-1.951,0.385c-0.054-0.412-0.346-0.823-0.916-0.823c-0.412,0-0.638,0.212-0.638,0.491
		c0,0.266,0.199,0.438,0.558,0.531l1.314,0.318c1.168,0.292,1.726,1.009,1.726,2.005c0,1.473-1.208,2.243-2.881,2.243
		c-1.381,0-2.722-0.531-2.934-1.938L133.192,108.956z"/>
	<path style="fill:#05ACED;" d="M147.9,110.895c-0.438,0.252-0.783,0.345-1.194,0.345c-0.611,0-1.208-0.199-1.514-0.81
		c-0.465,0.505-1.182,0.89-2.217,0.89c-1.42,0-2.377-0.837-2.377-2.058c0-1.341,0.97-2.058,2.748-2.19l1.633-0.133v-0.08
		c0-0.558-0.345-0.955-0.969-0.955c-0.531,0-0.889,0.278-1.009,0.862l-1.965-0.411c0.306-1.328,1.407-2.098,3.014-2.098
		c1.792,0,2.974,0.942,2.974,2.642v2.124c0,0.239,0.093,0.372,0.238,0.372c0.094,0,0.24-0.014,0.492-0.026L147.9,110.895z
		 M144.979,108.491v-0.278l-1.287,0.146c-0.611,0.065-0.89,0.331-0.89,0.729c0,0.412,0.332,0.638,0.823,0.638
		C144.382,109.727,144.979,109.235,144.979,108.491z"/>
	<path style="fill:#05ACED;" d="M151.391,108.585c0,0.53,0.279,0.836,0.757,0.836c0.292,0,0.69-0.106,0.97-0.266l0.49,1.673
		c-0.518,0.278-1.062,0.491-1.818,0.491c-1.58,0-2.522-0.942-2.522-2.522v-2.655h-1.261v-1.686h1.261v-2.271l2.124-0.623v2.894
		h2.363v1.686h-2.363V108.585z"/>
	<path style="fill:#05ACED;" d="M161.083,108.332h-4.886c0.173,0.797,0.717,1.288,1.434,1.288c0.491,0,1.062-0.119,1.421-0.771
		l1.885,0.386c-0.57,1.407-1.779,2.084-3.306,2.084c-1.925,0-3.518-1.421-3.518-3.531c0-2.098,1.593-3.531,3.531-3.531
		c1.885,0,3.398,1.354,3.438,3.531V108.332z M156.237,107.031h2.748c-0.199-0.717-0.73-1.049-1.341-1.049
		C157.046,105.982,156.436,106.354,156.237,107.031z"/>
	<path style="fill:#05ACED;" d="M169.006,107.031v4.089h-2.11v-3.638c0-0.783-0.464-1.313-1.142-1.313
		c-0.836,0-1.381,0.57-1.381,1.858v3.093h-2.123v-6.664h2.123v0.637c0.505-0.53,1.209-0.836,2.045-0.836
		C167.971,104.257,169.006,105.358,169.006,107.031z"/>
	<path style="fill:#05ACED;" d="M177.463,111.12h-2.124v-0.531c-0.518,0.465-1.208,0.73-2.071,0.73
		c-1.766,0-3.252-1.421-3.252-3.531c0-2.098,1.486-3.531,3.252-3.531c0.863,0,1.554,0.266,2.071,0.73V100.5h2.124V111.12z
		 M175.339,107.788c0-1.022-0.771-1.726-1.633-1.726c-0.929,0-1.606,0.703-1.606,1.726c0,1.035,0.678,1.726,1.606,1.726
		C174.569,109.514,175.339,108.823,175.339,107.788z"/>
	<path style="fill:#05ACED;" d="M181.472,102.306c0,0.677-0.518,1.194-1.235,1.194c-0.717,0-1.221-0.518-1.221-1.194
		c0-0.638,0.504-1.195,1.221-1.195C180.955,101.11,181.472,101.668,181.472,102.306z M179.175,111.12v-6.664h2.124v6.664H179.175z"
		/>
	<path style="fill:#05ACED;" d="M189.955,111.12h-2.124v-0.531c-0.518,0.465-1.208,0.73-2.07,0.73c-1.766,0-3.253-1.421-3.253-3.531
		c0-2.098,1.487-3.531,3.253-3.531c0.862,0,1.553,0.266,2.07,0.73V100.5h2.124V111.12z M187.831,107.788
		c0-1.022-0.77-1.726-1.633-1.726c-0.93,0-1.606,0.703-1.606,1.726c0,1.035,0.677,1.726,1.606,1.726
		C187.061,109.514,187.831,108.823,187.831,107.788z"/>
	<path style="fill:#05ACED;" d="M198.557,107.788c0,2.11-1.686,3.531-3.704,3.531c-2.044,0-3.729-1.421-3.729-3.531
		c0-2.098,1.686-3.531,3.729-3.531C196.872,104.257,198.557,105.69,198.557,107.788z M196.512,107.788
		c0-1.035-0.756-1.726-1.659-1.726c-0.929,0-1.686,0.69-1.686,1.726c0,1.049,0.757,1.726,1.686,1.726
		C195.756,109.514,196.512,108.837,196.512,107.788z"/>
	<path style="fill:#05ACED;" d="M201.278,108.956c0.094,0.571,0.505,0.81,0.969,0.81c0.506,0,0.718-0.265,0.718-0.557
		c0-0.199-0.106-0.386-0.478-0.479l-1.328-0.306c-1.115-0.252-1.805-0.85-1.805-1.938c0-1.354,1.088-2.23,2.721-2.23
		c1.553,0,2.615,0.77,2.854,1.912l-1.951,0.385c-0.053-0.412-0.345-0.823-0.916-0.823c-0.411,0-0.637,0.212-0.637,0.491
		c0,0.266,0.199,0.438,0.558,0.531l1.313,0.318c1.169,0.292,1.727,1.009,1.727,2.005c0,1.473-1.208,2.243-2.881,2.243
		c-1.381,0-2.722-0.531-2.934-1.938L201.278,108.956z"/>
	<path style="fill:#05ACED;" d="M216.159,111.12h-2.123v-0.531c-0.518,0.465-1.209,0.73-2.071,0.73
		c-1.766,0-3.253-1.421-3.253-3.531c0-2.098,1.487-3.531,3.253-3.531c0.862,0,1.554,0.266,2.071,0.73V100.5h2.123V111.12z
		 M214.036,107.788c0-1.022-0.771-1.726-1.633-1.726c-0.93,0-1.607,0.703-1.607,1.726c0,1.035,0.678,1.726,1.607,1.726
		C213.265,109.514,214.036,108.823,214.036,107.788z"/>
	<path style="fill:#05ACED;" d="M224.296,108.332h-4.886c0.174,0.797,0.717,1.288,1.434,1.288c0.492,0,1.062-0.119,1.421-0.771
		l1.886,0.386c-0.571,1.407-1.779,2.084-3.307,2.084c-1.924,0-3.518-1.421-3.518-3.531c0-2.098,1.594-3.531,3.531-3.531
		c1.885,0,3.398,1.354,3.438,3.531V108.332z M219.452,107.031h2.747c-0.198-0.717-0.729-1.049-1.341-1.049
		C220.26,105.982,219.65,106.354,219.452,107.031z"/>
	<path style="fill:#05ACED;" d="M227.018,108.956c0.093,0.571,0.504,0.81,0.969,0.81c0.505,0,0.717-0.265,0.717-0.557
		c0-0.199-0.105-0.386-0.478-0.479l-1.327-0.306c-1.115-0.252-1.806-0.85-1.806-1.938c0-1.354,1.089-2.23,2.722-2.23
		c1.553,0,2.615,0.77,2.854,1.912l-1.951,0.385c-0.053-0.412-0.346-0.823-0.916-0.823c-0.412,0-0.637,0.212-0.637,0.491
		c0,0.266,0.199,0.438,0.557,0.531l1.314,0.318c1.168,0.292,1.727,1.009,1.727,2.005c0,1.473-1.209,2.243-2.881,2.243
		c-1.381,0-2.722-0.531-2.935-1.938L227.018,108.956z"/>
	<path style="fill:#05ACED;" d="M238.819,111.12h-2.123v-0.531c-0.518,0.465-1.209,0.73-2.071,0.73
		c-1.766,0-3.253-1.421-3.253-3.531c0-2.098,1.487-3.531,3.253-3.531c0.862,0,1.554,0.266,2.071,0.73V100.5h2.123V111.12z
		 M236.696,107.788c0-1.022-0.771-1.726-1.633-1.726c-0.93,0-1.607,0.703-1.607,1.726c0,1.035,0.678,1.726,1.607,1.726
		C235.925,109.514,236.696,108.823,236.696,107.788z"/>
	<path style="fill:#05ACED;" d="M246.957,108.332h-4.886c0.174,0.797,0.717,1.288,1.434,1.288c0.492,0,1.062-0.119,1.421-0.771
		l1.886,0.386c-0.571,1.407-1.779,2.084-3.307,2.084c-1.924,0-3.518-1.421-3.518-3.531c0-2.098,1.594-3.531,3.531-3.531
		c1.885,0,3.398,1.354,3.438,3.531V108.332z M242.112,107.031h2.747c-0.198-0.717-0.729-1.049-1.341-1.049
		C242.92,105.982,242.31,106.354,242.112,107.031z"/>
</g>
<g>
	<path style="fill:#05ACED;" d="M109.588,124.262h-4.885c0.173,0.797,0.717,1.288,1.434,1.288c0.491,0,1.062-0.119,1.42-0.771
		l1.886,0.386c-0.571,1.407-1.778,2.084-3.306,2.084c-1.925,0-3.518-1.421-3.518-3.531c0-2.098,1.593-3.531,3.531-3.531
		c1.885,0,3.398,1.354,3.438,3.531V124.262z M104.744,122.961h2.748c-0.199-0.717-0.73-1.049-1.341-1.049
		C105.553,121.912,104.943,122.284,104.744,122.961z"/>
	<path style="fill:#05ACED;" d="M110.757,127.05v-10.62h2.124v10.62H110.757z"/>
	<path style="fill:#05ACED;" d="M124.497,127.05h-7.328v-0.703l3.811-4.183c0.689-0.77,1.168-1.34,1.168-2.163
		c0-0.81-0.545-1.354-1.367-1.354c-0.969,0-1.58,0.704-1.646,1.766l-2.045-0.385c0.107-1.991,1.633-3.266,3.718-3.266
		c2.124,0,3.531,1.287,3.531,3.226c0,1.367-0.664,2.138-1.806,3.438l-1.461,1.673h3.426V127.05z"/>
	<path style="fill:#05ACED;" d="M135.966,122.032c0,2.92-2.283,5.217-5.19,5.217s-5.19-2.297-5.19-5.217
		c0-2.935,2.283-5.271,5.19-5.271S135.966,119.098,135.966,122.032z M133.776,122.032c0-1.859-1.301-3.267-3-3.267s-3,1.407-3,3.267
		c0,1.845,1.301,3.226,3,3.226S133.776,123.877,133.776,122.032z"/>
	<path style="fill:#05ACED;" d="M141.262,127.05h-2.177v-7.461l-2.35,0.73v-1.991l4.142-1.367h0.385V127.05z"/>
	<path style="fill:#05ACED;" d="M150.25,125.364v1.686h-2.098v-1.686h-5.629v-1.155l6.385-7.248h1.342v6.584h1.885v1.819H150.25z
		 M148.153,120.492l-2.615,3.053h2.615V120.492z"/>
	<path style="fill:#05ACED;" d="M162.862,126.824c-0.438,0.252-0.783,0.345-1.195,0.345c-0.61,0-1.208-0.199-1.514-0.81
		c-0.464,0.505-1.181,0.89-2.217,0.89c-1.42,0-2.376-0.837-2.376-2.058c0-1.341,0.97-2.058,2.748-2.19l1.633-0.133v-0.08
		c0-0.558-0.345-0.955-0.969-0.955c-0.531,0-0.89,0.278-1.009,0.862l-1.965-0.411c0.305-1.328,1.406-2.098,3.014-2.098
		c1.791,0,2.973,0.942,2.973,2.642v2.124c0,0.239,0.094,0.372,0.239,0.372c0.093,0,0.239-0.014,0.491-0.026L162.862,126.824z
		 M159.941,124.421v-0.278l-1.288,0.146c-0.61,0.065-0.889,0.331-0.889,0.729c0,0.412,0.332,0.638,0.822,0.638
		C159.344,125.656,159.941,125.165,159.941,124.421z"/>
	<path style="fill:#05ACED;" d="M166.911,127.05v-10.62h2.123v10.62H166.911z"/>
	<path style="fill:#05ACED;" d="M177.477,126.824c-0.438,0.252-0.783,0.345-1.195,0.345c-0.61,0-1.208-0.199-1.514-0.81
		c-0.464,0.505-1.181,0.89-2.217,0.89c-1.42,0-2.376-0.837-2.376-2.058c0-1.341,0.97-2.058,2.748-2.19l1.633-0.133v-0.08
		c0-0.558-0.345-0.955-0.969-0.955c-0.531,0-0.89,0.278-1.009,0.862l-1.965-0.411c0.305-1.328,1.406-2.098,3.014-2.098
		c1.791,0,2.973,0.942,2.973,2.642v2.124c0,0.239,0.094,0.372,0.239,0.372c0.093,0,0.239-0.014,0.491-0.026L177.477,126.824z
		 M174.556,124.421v-0.278l-1.288,0.146c-0.61,0.065-0.889,0.331-0.889,0.729c0,0.412,0.332,0.638,0.822,0.638
		C173.959,125.656,174.556,125.165,174.556,124.421z"/>
	<path style="fill:#05ACED;" d="M188.295,126.824c-0.438,0.252-0.783,0.345-1.193,0.345c-0.611,0-1.209-0.199-1.514-0.81
		c-0.465,0.505-1.182,0.89-2.217,0.89c-1.421,0-2.377-0.837-2.377-2.058c0-1.341,0.969-2.058,2.748-2.19l1.633-0.133v-0.08
		c0-0.558-0.346-0.955-0.969-0.955c-0.531,0-0.89,0.278-1.01,0.862l-1.964-0.411c0.306-1.328,1.407-2.098,3.013-2.098
		c1.793,0,2.975,0.942,2.975,2.642v2.124c0,0.239,0.092,0.372,0.238,0.372c0.094,0,0.239-0.014,0.491-0.026L188.295,126.824z
		 M185.375,124.421v-0.278l-1.287,0.146c-0.611,0.065-0.891,0.331-0.891,0.729c0,0.412,0.332,0.638,0.824,0.638
		C184.778,125.656,185.375,125.165,185.375,124.421z"/>
	<path style="fill:#05ACED;" d="M195.889,124.647c-0.345,1.579-1.779,2.602-3.451,2.602c-2.005,0-3.678-1.421-3.678-3.531
		c0-2.098,1.673-3.531,3.678-3.531c1.646,0,3.066,0.996,3.438,2.562l-1.978,0.478c-0.199-0.81-0.771-1.208-1.46-1.208
		c-0.969,0-1.633,0.73-1.633,1.699c0,0.982,0.664,1.699,1.633,1.699c0.689,0,1.261-0.385,1.5-1.194L195.889,124.647z"/>
	<path style="fill:#05ACED;" d="M199.526,124.515c0,0.53,0.279,0.836,0.758,0.836c0.291,0,0.689-0.106,0.969-0.266l0.491,1.673
		c-0.519,0.278-1.062,0.491-1.819,0.491c-1.579,0-2.521-0.942-2.521-2.522v-2.655h-1.262v-1.686h1.262v-2.271l2.123-0.623v2.894
		h2.363v1.686h-2.363V124.515z"/>
	<path style="fill:#05ACED;" d="M209.35,127.05h-2.124v-0.638c-0.505,0.531-1.208,0.837-2.044,0.837
		c-1.554,0-2.589-1.102-2.589-2.774v-4.089h2.11v3.638c0,0.783,0.465,1.313,1.142,1.313c0.837,0,1.381-0.57,1.381-1.858v-3.093
		h2.124V127.05z"/>
	<path style="fill:#05ACED;" d="M217.792,126.824c-0.438,0.252-0.783,0.345-1.194,0.345c-0.611,0-1.208-0.199-1.514-0.81
		c-0.465,0.505-1.182,0.89-2.217,0.89c-1.42,0-2.377-0.837-2.377-2.058c0-1.341,0.97-2.058,2.748-2.19l1.633-0.133v-0.08
		c0-0.558-0.345-0.955-0.969-0.955c-0.531,0-0.889,0.278-1.009,0.862l-1.965-0.411c0.306-1.328,1.407-2.098,3.014-2.098
		c1.792,0,2.974,0.942,2.974,2.642v2.124c0,0.239,0.093,0.372,0.238,0.372c0.094,0,0.24-0.014,0.492-0.026L217.792,126.824z
		 M214.872,124.421v-0.278l-1.287,0.146c-0.611,0.065-0.89,0.331-0.89,0.729c0,0.412,0.332,0.638,0.823,0.638
		C214.275,125.656,214.872,125.165,214.872,124.421z"/>
	<path style="fill:#05ACED;" d="M218.762,127.05v-10.62h2.123v10.62H218.762z"/>
	<path style="fill:#05ACED;" d="M224.895,118.235c0,0.677-0.518,1.194-1.234,1.194s-1.222-0.518-1.222-1.194
		c0-0.638,0.505-1.195,1.222-1.195S224.895,117.598,224.895,118.235z M222.598,127.05v-6.664h2.124v6.664H222.598z"/>
	<path style="fill:#05ACED;" d="M233.377,127.05h-2.124v-0.531c-0.518,0.465-1.208,0.73-2.071,0.73
		c-1.766,0-3.252-1.421-3.252-3.531c0-2.098,1.486-3.531,3.252-3.531c0.863,0,1.554,0.266,2.071,0.73v-4.487h2.124V127.05z
		 M231.253,123.718c0-1.022-0.771-1.726-1.633-1.726c-0.929,0-1.606,0.703-1.606,1.726c0,1.035,0.678,1.726,1.606,1.726
		C230.483,125.443,231.253,124.753,231.253,123.718z"/>
	<path style="fill:#05ACED;" d="M241.82,126.824c-0.438,0.252-0.783,0.345-1.194,0.345c-0.611,0-1.208-0.199-1.514-0.81
		c-0.465,0.505-1.182,0.89-2.217,0.89c-1.42,0-2.377-0.837-2.377-2.058c0-1.341,0.97-2.058,2.748-2.19l1.633-0.133v-0.08
		c0-0.558-0.345-0.955-0.969-0.955c-0.531,0-0.889,0.278-1.009,0.862l-1.965-0.411c0.306-1.328,1.407-2.098,3.014-2.098
		c1.792,0,2.974,0.942,2.974,2.642v2.124c0,0.239,0.093,0.372,0.238,0.372c0.094,0,0.24-0.014,0.492-0.026L241.82,126.824z
		 M238.899,124.421v-0.278l-1.287,0.146c-0.611,0.065-0.89,0.331-0.89,0.729c0,0.412,0.332,0.638,0.823,0.638
		C238.302,125.656,238.899,125.165,238.899,124.421z"/>
	<path style="fill:#05ACED;" d="M249.732,127.05h-2.124v-0.531c-0.518,0.465-1.208,0.73-2.07,0.73c-1.766,0-3.253-1.421-3.253-3.531
		c0-2.098,1.487-3.531,3.253-3.531c0.862,0,1.553,0.266,2.07,0.73v-4.487h2.124V127.05z M247.608,123.718
		c0-1.022-0.77-1.726-1.633-1.726c-0.93,0-1.606,0.703-1.606,1.726c0,1.035,0.677,1.726,1.606,1.726
		C246.838,125.443,247.608,124.753,247.608,123.718z"/>
	<path style="fill:#05ACED;" d="M253.422,125.922c0,0.677-0.518,1.194-1.221,1.194c-0.704,0-1.209-0.518-1.209-1.194
		c0-0.638,0.505-1.195,1.209-1.195C252.905,124.727,253.422,125.284,253.422,125.922z"/>
</g>
<path style="fill:#FFAC00;" d="M27.334,203.348c2.464-2.185,4.03-5.441,4.03-9.087c0-6.57-5.086-11.919-11.334-11.919
	c-6.248,0-11.334,5.349-11.334,11.919c0,3.646,1.566,6.902,4.03,9.087c-4.681,0.832-8.271,5.107-8.271,10.271v25.318h5.667v29.777
	h19.834v-29.777h5.649v-25.318C35.605,208.474,32.033,204.18,27.334,203.348 M11.53,194.261c0-4.923,3.819-8.939,8.5-8.939
	c4.682,0,8.501,4.017,8.501,8.939s-3.819,8.938-8.501,8.938C15.349,203.199,11.53,199.184,11.53,194.261 M27.105,265.753h-5.649
	v-14.898h-2.834v14.898h-5.667v-26.816h14.168v26.816H27.105z M32.772,235.956H7.288v-22.338c0-4.108,3.168-7.439,7.075-7.439
	h11.334c3.907,0,7.075,3.331,7.075,7.439V235.956z"/>
<path style="fill:#FFAC00;" d="M90.833,213.525c-0.035-5.107-3.608-9.346-8.271-10.178c0.598-0.537,1.126-1.129,1.601-1.777
	c1.566,1.036,3.379,1.629,5.245,1.629h1.408v-1.48c0-3.424-1.637-6.626-4.295-8.551c-0.528-6.052-5.385-10.808-11.281-10.808
	c-5.896,0-10.735,4.756-11.281,10.808c-2.657,1.943-4.294,5.127-4.294,8.551v1.48h1.408c1.865,0,3.696-0.574,5.262-1.61
	c0.475,0.647,1.003,1.239,1.584,1.759c-4.664,0.813-8.219,5.052-8.272,10.178l-3.027,25.411h8.729v29.777h19.835v-29.777h8.676
	L90.833,213.525z M86.309,196.889c0.739,0.907,1.25,1.979,1.514,3.146c-0.775-0.185-1.514-0.518-2.2-0.98
	C85.922,198.351,86.151,197.629,86.309,196.889 M62.708,200.034c0.264-1.166,0.775-2.238,1.514-3.146
	c0.158,0.74,0.387,1.462,0.686,2.165C64.222,199.497,63.483,199.83,62.708,200.034 M66.756,194.261c0-4.923,3.819-8.939,8.501-8.939
	c4.681,0,8.5,4.017,8.5,8.939s-3.819,8.938-8.5,8.938C70.575,203.199,66.756,199.184,66.756,194.261 M82.349,265.753h-5.667v-14.898
	h-2.833v14.898h-5.667v-26.816h14.167V265.753z M59.875,235.956l2.64-22.152l0.018-0.186c0-4.108,3.167-7.439,7.074-7.439h11.334
	c3.907,0,7.075,3.331,7.075,7.439l2.64,22.338H59.875z"/>
<path style="fill:#FFAC00;" d="M51.445,240.176c1.566-1.369,2.587-3.404,2.587-5.699c0-4.109-3.168-7.44-7.075-7.44
	c-3.907,0-7.075,3.331-7.075,7.44c0,2.295,1.021,4.33,2.587,5.699c-2.57,1.499-4.382,4.238-4.699,7.515l-0.862,9.124h2.974v11.918
	h14.167v-11.918h2.975l-0.863-9.124C55.827,244.414,53.997,241.675,51.445,240.176 M46.939,229.997c2.341,0,4.242,1.999,4.242,4.46
	c0,2.462-1.901,4.46-4.242,4.46c-2.341,0-4.241-1.998-4.241-4.46C42.698,232.015,44.598,229.997,46.939,229.997 M51.181,265.753
	h-2.834v-5.96h-2.833v5.96H42.68v-8.938h8.501V265.753z M40.005,253.834l0.563-5.848c0.335-3.461,3.062-6.071,6.371-6.071
	s6.054,2.61,6.371,6.071l0.563,5.848H40.005z"/>
<path style="fill:#FFAC00;" d="M106.936,60.789c-2.934-1.331-6.031-2.299-9.18-2.868c-0.483-0.086-0.979,0.065-1.334,0.409
	c-0.354,0.343-0.516,0.838-0.43,1.32l1.062,6.545l-5.642-3.224c-0.462-0.269-1.042-0.269-1.515,0l-5.631,3.233l1.064-6.543
	c0.075-0.484-0.086-0.979-0.43-1.322c-0.355-0.344-0.849-0.494-1.333-0.408c-3.148,0.57-6.455,1.537-9.389,2.869
	c-3.052,1.386-5.231,4.449-5.231,7.802v10.66c0,0.838,1.102,0.831,1.94,0.831h39.536c0.838,0,1.524,0.007,1.524-0.831v-10.66
	C111.949,65.238,109.977,62.177,106.936,60.789 M108.949,77.094h-37v-8.502c0-2.171,1.501-4.148,3.468-5.04
	c2.041-0.924,4.286-1.665,6.456-2.192l-1.156,7.502c-0.097,0.58,0.18,1.159,0.663,1.492c0.484,0.334,1.122,0.355,1.638,0.065
	l7.637-4.386l7.633,4.386c0.505,0.29,1.141,0.269,1.625-0.065c0.482-0.333,0.73-0.912,0.635-1.492l-1.214-7.502
	c2.171,0.527,4.318,1.269,6.36,2.192c1.967,0.892,3.255,2.88,3.255,5.04V77.094z"/>
<path style="fill:#FFAC00;" d="M102.504,38.717c-0.764-7.06-5.782-12.539-11.844-12.539c-6.092,0-11.079,5.351-11.831,12.562
	c-5.653,0.698-10.048,5.502-10.048,11.337c0,0.838,0.677,1.516,1.515,1.516c3.944,0,7.426-2.01,9.489-5.062
	c1.881,4.985,6.04,8.468,10.875,8.468c4.805,0,8.996-3.406,10.877-8.468c2.052,3.052,5.533,5.062,9.478,5.062
	c0.838,0,1.515-0.678,1.515-1.516C112.542,44.23,108.145,39.416,102.504,38.717 M71.985,48.379c0.666-3.289,3.266-5.879,6.555-6.556
	C77.873,45.111,75.273,47.713,71.985,48.379 M90.661,51.957c-4.845,0-8.811-4.965-8.918-11.121c0,0,5.61-0.625,9.038-4.654
	c4.224,6.061,8.426,7.447,8.457,7.469C98.173,48.518,94.692,51.957,90.661,51.957 M91.929,32.635
	c-0.278-0.43-0.763-0.688-1.269-0.688c-0.633,0-1.17,0.398-1.385,0.914c-1.236,2.837-4.32,4.191-7.221,4.824
	c1.021-4.879,4.545-8.467,8.618-8.467c4.847,0,8.801,4.953,8.919,11.09C99.516,40.266,96.69,39.985,91.929,32.635 M102.784,41.823
	c3.287,0.666,5.889,3.267,6.555,6.556C106.05,47.713,103.45,45.111,102.784,41.823"/>
<ellipse style="fill:none;stroke:#FFAC00;stroke-width:3;stroke-linejoin:round;stroke-miterlimit:10;" cx="149.446" cy="40.984" rx="10.592" ry="12.644"/>
<path style="fill:none;stroke:#FFAC00;stroke-width:3;stroke-linejoin:round;stroke-miterlimit:10;" d="M138.897,39.875
	c0,0,7.92-0.707,10.383-6.317c0,0,5.055,8.549,10.673,9.015"/>
<path style="fill:none;stroke:#FFAC00;stroke-width:3;stroke-linejoin:round;stroke-miterlimit:10;" d="M128.449,79.594h40V68.102
	c0,0,0.504-7.373-12.147-8.548l-7.021,8.376l-7.649-8.376c0,0-13.183,1.106-13.183,8.06V79.594z"/>
</svg>
