<?xml version="1.0" encoding="iso-8859-1"?>
<!-- Generator: Adobe Illustrator 15.0.0, SVG Export Plug-In . SVG Version: 6.00 Build 0)  -->
<!DOCTYPE svg PUBLIC "-//W3C//DTD SVG 1.1//EN" "http://www.w3.org/Graphics/SVG/1.1/DTD/svg11.dtd">
<svg version="1.1" id="Layer_1" xmlns="http://www.w3.org/2000/svg" xmlns:xlink="http://www.w3.org/1999/xlink" x="0px" y="0px"
	 width="105px" height="65px" viewBox="0 0 105 65" style="enable-background:new 0 0 105 65;" xml:space="preserve">
<path style="fill:#020002;" d="M44.981,19.72v15.191h-4.558v-1.428c-1.003,1.155-2.492,1.854-4.527,1.854
	c-3.981,0-7.262-3.494-7.262-8.021c0-4.526,3.281-8.021,7.262-8.021c2.035,0,3.524,0.698,4.527,1.854V19.72H44.981z M40.423,27.315
	c0-2.279-1.519-3.707-3.616-3.707c-2.096,0-3.616,1.428-3.616,3.707s1.52,3.707,3.616,3.707
	C38.904,31.022,40.423,29.595,40.423,27.315"/>
<path style="fill:#020002;" d="M62.754,19.72l-5.197,14.735c-1.701,4.831-4.405,6.746-8.658,6.533v-4.253
	c2.126,0,3.129-0.669,3.798-2.522L46.649,19.72h5.014l3.372,9.298l2.855-9.298H62.754z"/>
<path style="fill:#020002;" d="M63.056,27.315c0-4.526,3.585-8.021,8.052-8.021s8.053,3.495,8.053,8.021
	c0,4.527-3.586,8.021-8.053,8.021S63.056,31.843,63.056,27.315 M74.602,27.315c0-2.157-1.519-3.585-3.494-3.585
	c-1.975,0-3.494,1.428-3.494,3.585s1.52,3.586,3.494,3.586C73.083,30.901,74.602,29.473,74.602,27.315"/>
<path style="fill:#020002;" d="M1.624,59.296l4.224-2.431c0.668,1.185,1.367,1.822,3.008,1.822c2.127,0,2.764-1.215,2.764-2.521
	V41.004h4.862v15.163c0,4.679-3.281,7.261-7.656,7.261C5.453,63.428,3.022,62,1.624,59.296"/>
<path style="fill:#020002;" d="M27.389,59.356c1.245,0,2.309-0.485,2.917-1.154l3.646,2.097c-1.489,2.066-3.737,3.129-6.624,3.129
	c-5.196,0-8.417-3.494-8.417-8.021c0-4.527,3.282-8.022,8.083-8.022c4.436,0,7.717,3.434,7.717,8.022
	c0,0.638-0.06,1.245-0.182,1.822H23.743C24.32,58.81,25.718,59.356,27.389,59.356 M30.184,53.827c-0.486-1.763-1.853-2.4-3.221-2.4
	c-1.732,0-2.886,0.85-3.312,2.4H30.184z"/>
<path style="fill:#020002;" d="M48.474,58.445c0,3.494-3.038,4.982-6.32,4.982c-3.038,0-5.348-1.153-6.532-3.615l3.949-2.248
	c0.395,1.153,1.246,1.792,2.583,1.792c1.094,0,1.641-0.334,1.641-0.941c0-1.672-7.475-0.79-7.475-6.047
	c0-3.312,2.796-4.983,5.956-4.983c2.461,0,4.648,1.095,5.925,3.251l-3.89,2.098c-0.425-0.79-1.033-1.337-2.035-1.337
	c-0.79,0-1.276,0.304-1.276,0.851C41,53.979,48.474,52.824,48.474,58.445"/>
<path style="fill:#020002;" d="M65.122,47.811v15.192h-4.558v-1.429c-0.82,1.125-2.34,1.854-4.346,1.854
	c-3.067,0-5.681-2.188-5.681-6.29v-9.328h4.558v8.66c0,1.884,1.185,2.765,2.644,2.765c1.671,0,2.825-0.973,2.825-3.13v-8.295H65.122
	z"/>
<path style="fill:#020002;" d="M68.008,43.739c0-1.489,1.244-2.735,2.733-2.735s2.735,1.246,2.735,2.735s-1.246,2.735-2.735,2.735
	S68.008,45.229,68.008,43.739"/>
<rect x="68.463" y="47.811" style="fill:#020002;" width="4.559" height="15.192"/>
<path style="fill:#020002;" d="M82.135,52.187v5.378c0,1.306,1.125,1.428,3.129,1.306v4.133c-5.955,0.607-7.688-1.185-7.688-5.438
	v-5.378h-2.43v-4.376h2.43v-2.887l4.559-1.367v4.254h3.129v4.376H82.135z"/>
<path style="fill:#020002;" d="M103.129,47.811v15.192h-4.558v-1.429c-1.003,1.155-2.491,1.854-4.526,1.854
	c-3.981,0-7.262-3.495-7.262-8.022c0-4.526,3.28-8.021,7.262-8.021c2.035,0,3.523,0.698,4.526,1.853v-1.428H103.129z M98.571,55.406
	c0-2.278-1.519-3.707-3.616-3.707c-2.097,0-3.615,1.429-3.615,3.707c0,2.279,1.519,3.707,3.615,3.707
	C97.053,59.113,98.571,57.686,98.571,55.406"/>
<path style="fill:#020002;" d="M23.501,27.103c2.339-1.184,3.919-3.555,3.919-6.168c0-4.041-3.251-7.292-7.292-7.292h-8.349H11.62
	H9.189v4.522h2.431v16.746h4.862v-6.987h2.309l7.621,13.081h5.226L23.501,27.103z M20.128,23.67h-3.646V18.2h3.646
	c1.337,0,2.431,1.186,2.431,2.734C22.559,22.484,21.465,23.67,20.128,23.67"/>
<polygon style="fill:#DC3A27;" points="98.984,2.959 94.955,9.135 83.638,26.483 92.334,26.483 86.422,43.734 103.129,21.111 
	93.008,21.111 "/>
</svg>
