<?xml version="1.0" encoding="utf-8"?>
<!-- Generator: Adobe Illustrator 20.1.0, SVG Export Plug-In . SVG Version: 6.00 Build 0)  -->
<svg version="1.1" id="Ebene_1" xmlns="http://www.w3.org/2000/svg" xmlns:xlink="http://www.w3.org/1999/xlink" x="0px" y="0px"
	 viewBox="0 0 64 64" style="enable-background:new 0 0 64 64;" xml:space="preserve">
<style type="text/css">
	.st0{fill:#62BF76;}
	.st1{fill:#C5EFCC;}
	.st2{fill:#98E5AC;}
	.st3{fill:#FFFFFF;}
	.st4{fill:#F2EADB;}
	.st5{fill:#FFD140;}
	.st6{fill:#FFF9C0;}
	.st7{fill:#FFE094;}
	.st8{fill:none;stroke:#A5A5A4;stroke-width:2;}
</style>
<g id="Page-1">
	<g id="Group" transform="translate(-128.000000, -384.000000)">
	</g>
	<path id="Shape" class="st0" d="M30.7,55.3h-6.4l-7.8,7.8H32V54C31.4,54.5,31,55,30.7,55.3L30.7,55.3z"/>
	<path id="Shape_1_" class="st1" d="M59.1,32h-5.2l-6.4,6.4V63h11.6c2.1,0,3.9-1.7,3.9-3.9V35.9C63,33.7,61.3,32,59.1,32L59.1,32z"
		/>
	<path id="Shape_2_" class="st2" d="M32,53.9V63h15.5V38.4L32,53.9L32,53.9z"/>
	<path id="Shape_3_" class="st3" d="M60.8,19.6L44.4,3.2c-1.5-1.5-4-1.5-5.5,0L32,10.1v6.4V32v15.5l-7.8,7.8h6.4l30.1-30.1
		C62.3,23.6,62.3,21.1,60.8,19.6L60.8,19.6z"/>
	<path id="Shape_4_" class="st4" d="M32,10.1v37.4l-7.8,7.8h5.5l5-5c0.7-0.7,1.1-1.7,1.1-2.7V6.3C34.8,7.3,33.4,8.6,32,10.1L32,10.1
		z"/>
	<rect id="Rectangle-path" x="1" y="32" class="st5" width="31" height="15.5"/>
	<path id="Shape_5_" class="st6" d="M28.1,1H4.9C2.8,1,1,2.7,1,4.9v11.6h31V4.9C32,2.7,30.3,1,28.1,1L28.1,1z"/>
	<rect id="Rectangle-path_1_" x="1" y="16.5" class="st7" width="31" height="15.5"/>
	<path id="Shape_6_" class="st3" d="M16.5,63L32,47.5H1L16.5,63z"/>
	<path id="Shape_7_" class="st8" d="M30.7,55.2h-6.4L16.5,63H32v-9.1C31.4,54.5,31,55,30.7,55.2L30.7,55.2z"/>
	<path id="Shape_8_" class="st8" d="M59.1,32h-5.2l-6.4,6.4V63h11.6c2.1,0,3.9-1.7,3.9-3.9V35.9C63,33.7,61.3,32,59.1,32L59.1,32z"
		/>
	<path id="Shape_9_" class="st8" d="M32,53.9V63h15.5V38.4L32,53.9L32,53.9z"/>
	<path id="Shape_10_" class="st8" d="M60.8,19.6L44.4,3.2c-1.5-1.5-4-1.5-5.5,0L32,10.1v6.4V32v15.5l-7.8,7.8h6.4l30.1-30.1
		C62.3,23.6,62.3,21.1,60.8,19.6L60.8,19.6z"/>
	<rect id="Rectangle-path_2_" x="1" y="32" class="st8" width="31" height="15.5"/>
	<path id="Shape_11_" class="st8" d="M28.1,1H4.9C2.8,1,1,2.7,1,4.9v11.6h31V4.9C32,2.7,30.3,1,28.1,1L28.1,1z"/>
	<rect id="Rectangle-path_3_" x="1" y="16.5" class="st8" width="31" height="15.5"/>
	<path id="Shape_12_" class="st8" d="M16.5,63L32,47.5H1L16.5,63z"/>
</g>
</svg>
