<?xml version="1.0" encoding="utf-8"?>
<!-- Generator: Adobe Illustrator 20.1.0, SVG Export Plug-In . SVG Version: 6.00 Build 0)  -->
<svg version="1.1" id="Слой_1" xmlns="http://www.w3.org/2000/svg" xmlns:xlink="http://www.w3.org/1999/xlink" x="0px" y="0px"
	 viewBox="0 0 100 100" style="enable-background:new 0 0 100 100;" xml:space="preserve">
<style type="text/css">
	.st0{fill:#FFFFFF;stroke:#A5A5A4;stroke-width:5;stroke-linecap:round;stroke-linejoin:round;stroke-miterlimit:10;}
	.st1{fill:none;stroke:#A5A5A4;stroke-width:5;stroke-linecap:round;stroke-linejoin:round;stroke-miterlimit:10;}
</style>
<polygon class="st0" points="77.5,32.5 42.5,32.5 42.5,92.5 92.5,92.5 92.5,47.5 "/>
<g>
	<line class="st1" x1="82.5" y1="67.5" x2="67.5" y2="82.5"/>
	<line class="st1" x1="67.5" y1="67.5" x2="82.5" y2="82.5"/>
</g>
<polyline class="st1" points="92.5,47.5 77.5,47.5 77.5,32.5 "/>
<polyline class="st0" points="27.5,90 35,82.5 27.5,75 "/>
<path class="st1" d="M35,82.5H20l0,0c-4.1,0-7.5-3.4-7.5-7.5v-7.5"/>
<polygon class="st0" points="42.5,7.5 7.5,7.5 7.5,67.5 57.5,67.5 57.5,22.5 "/>
<polyline class="st1" points="57.5,22.5 42.5,22.5 42.5,7.5 "/>
</svg>
