<?xml version="1.0" encoding="utf-8"?>
<!-- Generator: Adobe Illustrator 20.1.0, SVG Export Plug-In . SVG Version: 6.00 Build 0)  -->
<svg version="1.1" id="Ebene_1" xmlns="http://www.w3.org/2000/svg" xmlns:xlink="http://www.w3.org/1999/xlink" x="0px" y="0px"
	 viewBox="0 0 512 512" style="enable-background:new 0 0 512 512;" xml:space="preserve">
<style type="text/css">
	.st0{fill:none;stroke:#A5A5A5;stroke-width:19.6865;stroke-miterlimit:10;}
	.st1{fill:none;stroke:#A5A5A5;stroke-width:17.5181;stroke-miterlimit:10;}
	.st2{enable-background:new    ;}
	.st3{fill:#A5A5A4;stroke:#A5A5A5;stroke-miterlimit:10;}
</style>
<g>
	<g>
		<path class="st0" d="M110,76.4l362.8,0.2c4.8,0,8.7,3.9,8.7,8.7v386.9c0,4.8-3.9,8.7-8.7,8.7H37.5c-4.8,0-8.7-3.9-8.7-8.7V85.4
			c0-4.8,3.9-8.7,8.7-8.7h72.7"/>
	</g>
</g>
<g>
	<g>
		<line class="st0" x1="28.8" y1="201.1" x2="481.6" y2="201.1"/>
	</g>
</g>
<g>
	<g>
		<path class="st0" d="M192,76.6"/>
	</g>
</g>
<circle class="st1" cx="86.3" cy="138" r="14.2"/>
<circle class="st1" cx="135" cy="136.7" r="14.2"/>
<circle class="st1" cx="183.7" cy="137" r="14.2"/>
<g class="st2">
	<path class="st3" d="M289.8,427.9v-73.3h-77v73.3h-34.4V251.2h34.4v71.1h77v-71.1h34.7v176.8H289.8z"/>
</g>
</svg>
