<?xml version="1.0" encoding="utf-8"?>
<!-- Generator: Adobe Illustrator 20.1.0, SVG Export Plug-In . SVG Version: 6.00 Build 0)  -->
<svg version="1.1" id="Ebene_1" xmlns="http://www.w3.org/2000/svg" xmlns:xlink="http://www.w3.org/1999/xlink" x="0px" y="0px"
	 viewBox="0 0 128 128" style="enable-background:new 0 0 128 128;" xml:space="preserve">
<style type="text/css">
	.st0{fill:#A5A5A4;}
	.st1{display:none;opacity:0.2;fill:#3A3C3B;enable-background:new    ;}
	.st2{display:none;fill:#FFFFFF;}
</style>
<g id="RSSvgBackground">
	<path class="st0" d="M56.9,56.7c-0.6,3.8,0.6,7.8,3.5,10.7c2.9,2.9,6.9,4.1,10.7,3.5c0.6-3.8-0.6-7.8-3.5-10.7
		C64.7,57.3,60.7,56.2,56.9,56.7z"/>
	<path class="st0" d="M49.2,61L32.6,77.6c-4.8,4.8-4.8,12.7,0,17.5c4.8,4.8,12.7,4.8,17.6,0l16.6-16.5c-4.3-0.5-8.5-2.4-11.8-5.7
		C51.6,69.6,49.7,65.4,49.2,61z"/>
	<path class="st0" d="M77.8,32.5L61.2,49c4.3,0.5,8.5,2.4,11.8,5.7c3.3,3.3,5.2,7.5,5.7,11.8L95.3,50c4.8-4.8,4.8-12.7,0-17.5
		C90.5,27.7,82.6,27.7,77.8,32.5z"/>
	<path class="st0" d="M64,0.1C28.7,0.1,0,28.7,0,64c0,35.3,28.6,64,64,64s64-28.6,64-64C128,28.7,99.3,0.1,64,0.1z M100.8,55.5
		L83.4,72.9c-1.8,1.8-3.9,3.2-6.2,4.2c-1,2.2-2.4,4.3-4.2,6.2l-17.4,17.4c-7.9,7.8-20.6,7.8-28.5,0c-7.9-7.8-7.9-20.6,0-28.4
		l17.4-17.4c1.8-1.8,3.9-3.2,6.2-4.2c1-2.2,2.4-4.3,4.2-6.2L72.3,27c7.9-7.8,20.6-7.8,28.5,0C108.6,34.9,108.6,47.7,100.8,55.5z"/>
</g>
<g id="RSSvgShadow">
	<path class="st1" d="M71.1,70.9c0.6-3.8-0.6-7.8-3.5-10.7c-2.9-2.9-6.9-4.1-10.7-3.5c-0.6,3.8,0.6,7.8,3.5,10.7
		C63.3,70.3,67.3,71.5,71.1,70.9z"/>
	<path class="st1" d="M50.2,95.1l16.6-16.5c-4.3-0.5-8.5-2.4-11.8-5.7c-3.3-3.3-5.2-7.5-5.7-11.8L32.6,77.6
		c-4.8,4.8-4.8,12.7,0,17.5C37.5,100,45.4,100,50.2,95.1z"/>
	<path class="st1" d="M78.8,66.6L95.3,50c4.8-4.8,4.8-12.7,0-17.5c-4.8-4.8-12.7-4.8-17.6,0L61.2,49c4.3,0.5,8.5,2.4,11.8,5.7
		C76.4,58.1,78.3,62.3,78.8,66.6z"/>
	<path class="st1" d="M127,53.3c0,0-26.2-26.2-26.3-26.3c7.9,7.8,7.9,20.6,0,28.5L83.4,72.9c-1.8,1.8-3.9,3.2-6.2,4.2
		c-1,2.2-2.4,4.3-4.2,6.2l-17.4,17.4c-7.9,7.8-20.6,7.8-28.5,0c0.1,0.1,26.5,26.5,26.6,26.6c3.3,0.5,6.7,0.8,10.2,0.8
		c35.3,0,64-28.6,64-64C128,60.4,127.6,56.8,127,53.3z"/>
</g>
<g id="RSSvgIcon">
	<path class="st2" d="M100.8,27c-7.9-7.8-20.6-7.8-28.5,0L54.9,44.4c-1.8,1.8-3.2,3.9-4.2,6.2c-2.2,1-4.3,2.4-6.2,4.2L27.2,72.1
		c-7.9,7.8-7.9,20.6,0,28.4c7.9,7.8,20.6,7.8,28.5,0l17.4-17.4c1.8-1.8,3.2-3.9,4.2-6.2c2.2-1,4.3-2.4,6.2-4.2l17.4-17.4
		C108.6,47.7,108.6,34.9,100.8,27z M71.1,70.9c-3.8,0.6-7.8-0.6-10.7-3.5c-2.9-2.9-4.1-6.9-3.5-10.7c3.8-0.6,7.8,0.6,10.7,3.5
		C70.5,63.1,71.7,67.1,71.1,70.9z M50.2,95.1c-4.8,4.8-12.7,4.8-17.6,0c-4.8-4.8-4.8-12.7,0-17.5L49.2,61c0.5,4.3,2.4,8.5,5.7,11.8
		c3.3,3.3,7.5,5.2,11.8,5.7L50.2,95.1z M95.3,50L78.8,66.6c-0.5-4.3-2.4-8.5-5.7-11.8c-3.3-3.3-7.5-5.2-11.8-5.7l16.6-16.5
		c4.8-4.8,12.7-4.8,17.6,0C100.2,37.3,100.2,45.2,95.3,50z"/>
</g>
</svg>
