<?xml version="1.0" encoding="utf-8"?>
<!-- Generator: Adobe Illustrator 20.1.0, SVG Export Plug-In . SVG Version: 6.00 Build 0)  -->
<svg version="1.1" id="Layer_1" xmlns="http://www.w3.org/2000/svg" xmlns:xlink="http://www.w3.org/1999/xlink" x="0px" y="0px"
	 viewBox="0 0 24 24" style="enable-background:new 0 0 24 24;" xml:space="preserve">
<style type="text/css">
	.st0{fill:#A5A5A4;}
</style>
<g>
	<g>
		<path class="st0" d="M17,20H2.5C1.1,20,0,18.9,0,17.5v-15C0,1.1,1.1,0,2.5,0h8c0.2,0,0.4,0.1,0.5,0.3l6.5,19
			c0.1,0.2,0,0.3-0.1,0.5C17.3,19.9,17.2,20,17,20z M2.5,1C1.7,1,1,1.7,1,2.5v15C1,18.3,1.7,19,2.5,19h13.8L10.1,1H2.5z"/>
	</g>
	<g>
		<path class="st0" d="M21.5,24h-8c-0.2,0-0.4-0.1-0.5-0.3l-1.5-4c-0.1-0.3,0-0.5,0.3-0.6c0.3-0.1,0.5,0,0.6,0.3l1.4,3.7h7.7
			c0.8,0,1.5-0.7,1.5-1.5v-15C23,5.7,22.3,5,21.5,5H12c-0.3,0-0.5-0.2-0.5-0.5S11.7,4,12,4h9.5C22.9,4,24,5.1,24,6.5v15
			C24,22.9,22.9,24,21.5,24z"/>
	</g>
	<g>
		<path class="st0" d="M13.5,24c-0.1,0-0.2,0-0.3-0.1c-0.2-0.2-0.2-0.5,0-0.7l3.5-4c0.2-0.2,0.5-0.2,0.7,0s0.2,0.5,0,0.7l-3.5,4
			C13.8,23.9,13.6,24,13.5,24z"/>
	</g>
	<g>
		<path class="st0" d="M9.5,14c-0.2,0-0.4-0.1-0.5-0.3L7,8l-2,5.7c-0.1,0.3-0.4,0.4-0.6,0.3c-0.3-0.1-0.4-0.4-0.3-0.6l2.5-7
			c0.1-0.4,0.8-0.4,0.9,0l2.5,7c0.1,0.3,0,0.5-0.3,0.6C9.6,14,9.6,14,9.5,14z"/>
	</g>
	<g>
		<path class="st0" d="M8,11H6c-0.3,0-0.5-0.2-0.5-0.5S5.7,10,6,10h2c0.3,0,0.5,0.2,0.5,0.5S8.3,11,8,11z"/>
	</g>
	<g>
		<path class="st0" d="M21.5,11h-7c-0.3,0-0.5-0.2-0.5-0.5s0.2-0.5,0.5-0.5h7c0.3,0,0.5,0.2,0.5,0.5S21.8,11,21.5,11z"/>
	</g>
	<g>
		<path class="st0" d="M17.5,11c-0.3,0-0.5-0.2-0.5-0.5v-1C17,9.2,17.2,9,17.5,9S18,9.2,18,9.5v1C18,10.8,17.8,11,17.5,11z"/>
	</g>
	<g>
		<path class="st0" d="M16,17c-0.2,0-0.3-0.1-0.4-0.2c-0.2-0.2-0.1-0.5,0.1-0.7c2.2-1.6,3.8-4.7,3.8-5.6c0-0.3,0.2-0.5,0.5-0.5
			s0.5,0.2,0.5,0.5c0,1.3-1.9,4.8-4.2,6.4C16.2,17,16.1,17,16,17z"/>
	</g>
	<g>
		<path class="st0" d="M20,18c-0.1,0-0.2,0-0.3-0.1c-0.4-0.3-3.6-3.3-4.1-4.7c-0.1-0.3,0-0.5,0.3-0.7c0.3-0.1,0.5,0,0.7,0.3
			c0.4,1,2.9,3.5,3.9,4.3c0.2,0.2,0.2,0.5,0,0.7C20.3,17.9,20.1,18,20,18z"/>
	</g>
</g>
</svg>
