<?xml version="1.0" encoding="utf-8"?>
<!-- Generator: Adobe Illustrator 20.1.0, SVG Export Plug-In . SVG Version: 6.00 Build 0)  -->
<svg version="1.1" id="Ebene_1" xmlns="http://www.w3.org/2000/svg" xmlns:xlink="http://www.w3.org/1999/xlink" x="0px" y="0px"
	 viewBox="0 0 512 512" enable-background="new 0 0 512 512" xml:space="preserve">
<g>
	<defs>
		<rect id="SVGID_1_" width="512" height="512"/>
	</defs>
	<clipPath id="SVGID_2_">
		<use xlink:href="#SVGID_1_"  overflow="visible"/>
	</clipPath>
	<path clip-path="url(#SVGID_2_)" fill-rule="evenodd" clip-rule="evenodd" fill="#A5A5A5" d="M313.1,206
		c-25.6,0-37.1,14.5-43.5,24.6v-21.1h-48.2c0.6,14,0,148.9,0,148.9h48.2v-83.2c0-4.4,0.3-8.9,1.6-12.1c3.5-8.9,11.4-18.1,24.7-18.1
		c17.5,0,24.4,13.7,24.4,33.7v79.7h48.2l0-85.4C368.6,227.3,344.8,206,313.1,206z M170.6,133.1c-16.5,0-27.3,11.1-27.3,25.7
		c0,14.3,10.5,25.7,26.7,25.7h0.3c16.8,0,27.3-11.4,27.3-25.7C197.3,144.2,187.1,133.1,170.6,133.1z M143.4,206v148.9h48.2V206
		H143.4z M256,481.3c124.4,0,225.3-100.9,225.3-225.3S380.4,30.7,256,30.7S30.7,131.6,30.7,256S131.6,481.3,256,481.3z M256,512
		c141.4,0,256-114.6,256-256S397.4,0,256,0S0,114.6,0,256S114.6,512,256,512z"/>
</g>
</svg>
