<?xml version="1.0" encoding="utf-8"?>
<!-- Generator: Adobe Illustrator 20.1.0, SVG Export Plug-In . SVG Version: 6.00 Build 0)  -->
<svg version="1.1" id="Layer_1" xmlns="http://www.w3.org/2000/svg" xmlns:xlink="http://www.w3.org/1999/xlink" x="0px" y="0px"
	 viewBox="0 0 210 210" style="enable-background:new 0 0 210 210;" xml:space="preserve">
<style type="text/css">
	.st0{fill:#A5A5A4;}
</style>
<g>
	<path class="st0" d="M2,105C2,48.2,48.2,2,105,2c56.8,0,103,46.2,103,103c0,56.8-46.2,103-103,103C48.2,208,2,161.8,2,105z
		 M11.8,105c0,51.4,41.8,93.2,93.2,93.2c51.4,0,93.2-41.8,93.2-93.2c0-51.4-41.8-93.2-93.2-93.2C53.6,11.8,11.8,53.6,11.8,105z"/>
	<path class="st0" d="M126.3,124.2c-3,3-8.6,6.7-13.6,7.7c-10.5,2.1-19.5-0.5-26.8-7.8c-2.4-2.4-4.3-5-5.6-7.7l13-13
		c-0.2,3.8,1,6.7,3.9,9.5c3.6,3.5,7.2,4.6,12.5,3.5c1-0.2,3.9-1.8,5.5-3.4l31.6-31.6c1.6-1.6,3.2-4.5,3.4-5.5
		c1.1-5.3,0.1-9-3.5-12.5c-3.5-3.6-7.2-4.6-12.5-3.5c-1,0.2-3.9,1.8-5.5,3.4l-13,12.9c-5.7-2.3-12.1-2.8-18.9-1.4
		c-0.9,0.2-1.8,0.4-2.6,0.7l23.4-23.4c3-3,8.6-6.7,13.6-7.8c10.5-2.1,19.5,0.6,26.8,7.8c7.3,7.3,9.9,16.3,7.8,26.8
		c-1,5-4.7,10.6-7.7,13.6L126.3,124.2z"/>
	<path class="st0" d="M44.4,131c1-5,4.7-10.6,7.7-13.6l31.6-31.6c3-3,8.6-6.7,13.6-7.7c10.5-2.1,19.5,0.5,26.8,7.8
		c2.4,2.4,4.3,5,5.6,7.7l-13,13c0.2-3.8-1-6.7-3.9-9.5c-3.5-3.5-7.2-4.5-12.5-3.5c-1,0.2-3.9,1.8-5.5,3.4l-31.6,31.6
		c-1.6,1.6-3.2,4.5-3.4,5.5c-1.1,5.4-0.1,9,3.5,12.5c3.5,3.6,7.2,4.6,12.5,3.5c1-0.2,3.9-1.8,5.5-3.4l13-13c5.7,2.3,12.1,2.8,19,1.5
		c0.9-0.2,1.8-0.4,2.6-0.7l-23.4,23.4c-3,3-8.6,6.8-13.6,7.8c-10.5,2.1-19.5-0.6-26.8-7.8C44.9,150.5,42.3,141.5,44.4,131z"/>
</g>
</svg>
