<?xml version="1.0" encoding="utf-8"?>
<!-- Generator: Adobe Illustrator 20.1.0, SVG Export Plug-In . SVG Version: 6.00 Build 0)  -->
<svg version="1.1" id="Ebene_1" xmlns="http://www.w3.org/2000/svg" xmlns:xlink="http://www.w3.org/1999/xlink" x="0px" y="0px"
	 viewBox="0 0 512 512" enable-background="new 0 0 512 512" xml:space="preserve">
<g>
	<defs>
		<rect id="SVGID_1_" width="512" height="512"/>
	</defs>
	<clipPath id="SVGID_2_">
		<use xlink:href="#SVGID_1_"  overflow="visible"/>
	</clipPath>
	<path clip-path="url(#SVGID_2_)" fill-rule="evenodd" clip-rule="evenodd" fill="#A5A5A5" d="M158.7,218.4
		c0,26.3,9.4,49.7,29.6,58.4c3.3,1.4,6.3,0,7.2-3.8c0.7-2.7,2.2-9.5,2.9-12.3c1-3.8,0.6-5.2-2.1-8.5c-5.8-7.3-9.5-16.7-9.5-30
		c0-38.6,27.3-73.2,71.1-73.2c38.8,0,60.1,25.1,60.1,58.6c0,44.1-18.4,81.3-45.8,81.3c-15.1,0-26.4-13.2-22.8-29.5
		c4.3-19.4,12.7-40.3,12.7-54.3c0-12.5-6.3-23-19.5-23c-15.4,0-27.8,16.9-27.8,39.6c0,14.4,4.6,24.2,4.6,24.2s-15.8,70.9-18.6,83.3
		c-5.5,24.7-0.8,55.1-0.4,58.1c0.2,1.8,2.4,2.2,3.4,0.9c1.4-2,19.8-26,26.1-50c1.8-6.8,10.2-42,10.2-42c5,10.1,19.7,19.1,35.3,19.1
		c46.4,0,77.9-44.8,77.9-104.8c0-45.4-36.3-87.6-91.4-87.6C193.3,122.9,158.7,175,158.7,218.4z M256,30.7
		C131.6,30.7,30.7,131.6,30.7,256S131.6,481.3,256,481.3S481.3,380.4,481.3,256S380.4,30.7,256,30.7z M256,0C114.6,0,0,114.6,0,256
		s114.6,256,256,256s256-114.6,256-256S397.4,0,256,0z"/>
</g>
</svg>
