<?xml version="1.0" ?><!DOCTYPE svg  PUBLIC '-//W3C//DTD SVG 1.1//EN'  'http://www.w3.org/Graphics/SVG/1.1/DTD/svg11.dtd'><svg enable-background="new 0 0 100 100" id="Layer_1" version="1.1" viewBox="0 0 100 100" xml:space="preserve" xmlns="http://www.w3.org/2000/svg" xmlns:xlink="http://www.w3.org/1999/xlink"><g><path d="M95,7.716v23.949c0,1.499-1.217,2.715-2.715,2.715s-2.715-1.216-2.715-2.715v-17.4L60.08,43.755   c-0.521,0.532-1.217,0.793-1.912,0.793c-0.695,0-1.39-0.261-1.922-0.793c-1.065-1.065-1.065-2.781,0-3.834l29.478-29.489H68.335   c-1.499,0-2.715-1.217-2.715-2.715c0-1.499,1.217-2.715,2.715-2.715h23.949c0.272,0,0.554,0.043,0.815,0.119   c0.087,0.033,0.163,0.065,0.239,0.098c0.315,0.13,0.608,0.326,0.858,0.576c0.065,0.065,0.119,0.13,0.185,0.195   c0.109,0.141,0.217,0.304,0.304,0.467c0.033,0.076,0.076,0.152,0.109,0.239c0.098,0.228,0.152,0.467,0.174,0.717   c0.011,0.033,0.011,0.054,0.011,0.087C94.989,7.575,95,7.64,95,7.716z" fill="#010101"/></g><g><path d="M92.281,94.999H7.715c-1.5,0-2.715-1.216-2.715-2.715V7.718c0-1.5,1.216-2.715,2.715-2.715h23.913   c1.5,0,2.715,1.216,2.715,2.715s-1.216,2.715-2.715,2.715H10.431v79.135h79.135V68.405c0-1.5,1.216-2.715,2.715-2.715   c1.5,0,2.715,1.216,2.715,2.715v23.879C94.997,93.784,93.781,94.999,92.281,94.999z" fill="#010101"/></g></svg>