<?xml version="1.0" ?><svg height="64px" version="1.1" viewBox="0 0 64 64" width="64px" xmlns="http://www.w3.org/2000/svg" xmlns:xlink="http://www.w3.org/1999/xlink"><defs/><g fill="none" fill-rule="evenodd" id="Page-1" stroke="none" stroke-width="1"><g id="Group" transform="translate(-128.000000, -384.000000)"/><path d="M30.7,55.3 L24.3,55.3 L16.5,63.1 L32,63.1 L32,54 C31.4,54.5 31,55 30.7,55.3 L30.7,55.3 Z" fill="#62BF76" id="Shape"/><path d="M59.1,32 L53.9,32 L47.5,38.4 L47.5,63 L59.1,63 C61.2,63 63,61.3 63,59.1 L63,35.9 C63,33.7 61.3,32 59.1,32 L59.1,32 Z" fill="#C5EFCC" id="Shape"/><path d="M32,53.9 L32,63 L47.5,63 L47.5,38.4 L32,53.9 L32,53.9 Z" fill="#98E5AC" id="Shape"/><path d="M60.8,19.6 L44.4,3.2 C42.9,1.7 40.4,1.7 38.9,3.2 L32,10.1 L32,16.5 L32,32 L32,47.5 L24.2,55.3 L30.6,55.3 L60.7,25.2 C62.3,23.6 62.3,21.1 60.8,19.6 L60.8,19.6 Z" fill="#FFFFFF" id="Shape"/><path d="M32,10.1 L32,47.5 L24.2,55.3 L29.7,55.3 L34.7,50.3 C35.4,49.6 35.8,48.6 35.8,47.6 L35.8,6.3 C34.8,7.3 33.4,8.6 32,10.1 L32,10.1 Z" fill="#F2EADB" id="Shape"/><rect fill="#FFD140" height="15.5" id="Rectangle-path" width="31" x="1" y="32"/><path d="M28.1,1 L4.9,1 C2.8,1 1,2.7 1,4.9 L1,16.5 L32,16.5 L32,4.9 C32,2.7 30.3,1 28.1,1 L28.1,1 Z" fill="#FFF9C0" id="Shape"/><rect fill="#FFE094" height="15.5" id="Rectangle-path" width="31" x="1" y="16.5"/><path d="M16.5,63 L32,47.5 L1,47.5 L16.5,63 Z" fill="#FFFFFF" id="Shape"/><path d="M30.7,55.2 L24.3,55.2 L16.5,63 L32,63 L32,53.9 C31.4,54.5 31,55 30.7,55.2 L30.7,55.2 Z" id="Shape" stroke="#526367" stroke-width="2"/><path d="M59.1,32 L53.9,32 L47.5,38.4 L47.5,63 L59.1,63 C61.2,63 63,61.3 63,59.1 L63,35.9 C63,33.7 61.3,32 59.1,32 L59.1,32 Z" id="Shape" stroke="#526367" stroke-width="2"/><path d="M32,53.9 L32,63 L47.5,63 L47.5,38.4 L32,53.9 L32,53.9 Z" id="Shape" stroke="#526367" stroke-width="2"/><path d="M60.8,19.6 L44.4,3.2 C42.9,1.7 40.4,1.7 38.9,3.2 L32,10.1 L32,16.5 L32,32 L32,47.5 L24.2,55.3 L30.6,55.3 L60.7,25.2 C62.3,23.6 62.3,21.1 60.8,19.6 L60.8,19.6 Z" id="Shape" stroke="#526367" stroke-width="2"/><rect height="15.5" id="Rectangle-path" stroke="#526367" stroke-width="2" width="31" x="1" y="32"/><path d="M28.1,1 L4.9,1 C2.8,1 1,2.7 1,4.9 L1,16.5 L32,16.5 L32,4.9 C32,2.7 30.3,1 28.1,1 L28.1,1 Z" id="Shape" stroke="#526367" stroke-width="2"/><rect height="15.5" id="Rectangle-path" stroke="#526367" stroke-width="2" width="31" x="1" y="16.5"/><path d="M16.5,63 L32,47.5 L1,47.5 L16.5,63 Z" id="Shape" stroke="#526367" stroke-width="2"/></g></svg>