<?xml version="1.0" encoding="utf-8"?>
<!-- Generator: Adobe Illustrator 19.1.0, SVG Export Plug-In . SVG Version: 6.00 Build 0)  -->
<svg version="1.1" id="Layer_1" xmlns="http://www.w3.org/2000/svg" xmlns:xlink="http://www.w3.org/1999/xlink" x="0px" y="0px"
	 viewBox="395 -63.9 1210 423.6" style="enable-background:new 395 -63.9 1210 423.6;" xml:space="preserve">
<style type="text/css">
	.st0{fill:#DC3927;}
	.st1{fill:#FF9300;}
	.st2{fill:#0072BF;}
	.st3{fill:#6BC62A;}
	.st4{fill:#AB2292;}
	.st5{fill:#00AA9D;}
</style>
<g>
	<g id="XMLID_397_">
		<path id="XMLID_400_" class="st0" d="M521.1-38.3L479.2,83.9l-0.9,2.8h2.8h63.8L424.8,249.1l41.9-122l0.9-2.5h-2.8H401L521.1-38.3
			 M527.2-49.7L397,126.6h67.8L418.7,261L548.9,84.6h-67.8L527.2-49.7L527.2-49.7z"/>
		<g>
			<path d="M451,299.6c0,3.2-2.6,5.8-5.9,5.8h-2.5v5.3h-3.8v-16.8h6.4C448.4,293.8,451,296.4,451,299.6z M447.2,299.6
				c0-1.2-0.9-2.2-2-2.2h-2.5v4.3h2.5C446.3,301.7,447.2,300.8,447.2,299.6z"/>
			<path d="M459.8,298.4v4.1c-1.5-0.2-3.6,0.4-3.6,2.7v5.4h-3.6v-12h3.6v2.1C456.6,299.1,458.2,298.4,459.8,298.4z"/>
			<path d="M460.5,304.6c0-3.6,2.8-6.3,6.4-6.3s6.4,2.8,6.4,6.3c0,3.6-2.8,6.3-6.4,6.3S460.5,308.2,460.5,304.6z M469.6,304.6
				c0-1.7-1.2-2.8-2.8-2.8s-2.8,1.1-2.8,2.8c0,1.7,1.2,2.8,2.8,2.8S469.6,306.3,469.6,304.6z"/>
			<path d="M493.2,303.2v7.4h-3.6v-7.1c0-1.2-0.6-2-1.7-2c-1.2,0-1.9,0.8-1.9,2.3v6.8h-3.6v-7.1c0-1.2-0.6-2-1.7-2
				c-1.2,0-1.9,0.8-1.9,2.3v6.8h-3.6v-12h3.6v1.1c0.6-0.8,1.6-1.4,3.2-1.4c1.4,0,2.5,0.6,3.1,1.6c0.7-1,1.8-1.6,3.5-1.6
				C491.4,298.3,493.2,300.2,493.2,303.2z"/>
			<path d="M495.1,304.6c0-3.6,2.8-6.3,6.4-6.3s6.4,2.8,6.4,6.3c0,3.6-2.8,6.3-6.4,6.3S495.1,308.2,495.1,304.6z M504.2,304.6
				c0-1.7-1.2-2.8-2.8-2.8s-2.8,1.1-2.8,2.8c0,1.7,1.2,2.8,2.8,2.8S504.2,306.3,504.2,304.6z"/>
			<path d="M454.9,322.6v16.8h-3.8v-12.7l-3,0.8l-0.9-3.3l4.4-1.6H454.9z"/>
			<path d="M468.6,331.6l-5.1,7.8H459l3.6-5.3c-3.3-0.3-5.6-2.6-5.6-5.9c0-3.5,2.5-5.9,6.2-5.9c3.7,0,6.2,2.4,6.2,5.9
				C469.6,329.5,469.2,330.7,468.6,331.6z M463.3,330.5c1.3,0,2.4-0.8,2.4-2.3s-1.1-2.3-2.4-2.3c-1.3,0-2.4,0.9-2.4,2.3
				S462,330.5,463.3,330.5z"/>
			<path d="M483.1,334.7c0,3.1-2.2,5.1-6.2,5.1s-6.2-2-6.2-5.1c0-1.7,0.8-3.1,2.2-4c-1-0.8-1.6-1.9-1.6-3.4c0-3.3,2.5-5,5.6-5
				s5.6,1.7,5.6,5c0,1.5-0.6,2.6-1.6,3.4C482.3,331.6,483.1,333,483.1,334.7z M479.3,334.1c0-1.3-1-2-2.3-2s-2.3,0.7-2.3,2
				c0,1.3,1,2,2.3,2S479.3,335.4,479.3,334.1z M475.2,327.5c0,0.9,0.7,1.6,1.8,1.6s1.8-0.7,1.8-1.6c0-0.9-0.7-1.6-1.8-1.6
				S475.2,326.6,475.2,327.5z"/>
			<path d="M484.5,331c0-5.2,2.5-8.7,6.8-8.7s6.8,3.6,6.8,8.7s-2.5,8.7-6.8,8.7S484.5,336.2,484.5,331z M494.4,331c0-3.2-1-5-3-5
				s-3,1.8-3,5s1,5,3,5S494.4,334.2,494.4,331z"/>
		</g>
	</g>
	<g id="XMLID_393_">
		<path id="XMLID_396_" class="st1" d="M731.9-38.3L690,83.9l-0.9,2.8h2.8h63.8L635.6,249.1l41.9-122l0.9-2.5h-2.8h-63.8L731.9-38.3
			 M738-49.7L607.8,126.6h67.8L629.5,261L759.7,84.6h-67.8L738-49.7L738-49.7z"/>
		<g>
			<path d="M661.8,299.6c0,3.2-2.6,5.8-5.9,5.8h-2.5v5.3h-3.8v-16.8h6.4C659.3,293.8,661.8,296.4,661.8,299.6z M658,299.6
				c0-1.2-0.9-2.2-2-2.2h-2.5v4.3h2.5C657.1,301.7,658,300.8,658,299.6z"/>
			<path d="M670.6,298.4v4.1c-1.5-0.2-3.6,0.4-3.6,2.7v5.4h-3.6v-12h3.6v2.1C667.5,299.1,669.1,298.4,670.6,298.4z"/>
			<path d="M671.3,304.6c0-3.6,2.8-6.3,6.4-6.3s6.4,2.8,6.4,6.3c0,3.6-2.8,6.3-6.4,6.3S671.3,308.2,671.3,304.6z M680.4,304.6
				c0-1.7-1.2-2.8-2.8-2.8s-2.8,1.1-2.8,2.8c0,1.7,1.2,2.8,2.8,2.8S680.4,306.3,680.4,304.6z"/>
			<path d="M704.1,303.2v7.4h-3.6v-7.1c0-1.2-0.6-2-1.7-2c-1.2,0-1.9,0.8-1.9,2.3v6.8h-3.6v-7.1c0-1.2-0.6-2-1.7-2
				c-1.2,0-1.9,0.8-1.9,2.3v6.8h-3.6v-12h3.6v1.1c0.6-0.8,1.6-1.4,3.2-1.4c1.4,0,2.5,0.6,3.1,1.6c0.7-1,1.8-1.6,3.5-1.6
				C702.3,298.3,704.1,300.2,704.1,303.2z"/>
			<path d="M705.9,304.6c0-3.6,2.8-6.3,6.4-6.3s6.4,2.8,6.4,6.3c0,3.6-2.8,6.3-6.4,6.3S705.9,308.2,705.9,304.6z M715.1,304.6
				c0-1.7-1.2-2.8-2.8-2.8s-2.8,1.1-2.8,2.8c0,1.7,1.2,2.8,2.8,2.8S715.1,306.3,715.1,304.6z"/>
			<path d="M666.6,322.6v16.8h-3.8v-12.7l-3,0.8l-0.9-3.3l4.4-1.6H666.6z"/>
			<path d="M680.2,331.6l-5.1,7.8h-4.4l3.6-5.3c-3.3-0.3-5.6-2.6-5.6-5.9c0-3.5,2.5-5.9,6.2-5.9c3.7,0,6.2,2.4,6.2,5.9
				C681.2,329.5,680.9,330.7,680.2,331.6z M675,330.5c1.3,0,2.4-0.8,2.4-2.3s-1.1-2.3-2.4-2.3c-1.3,0-2.4,0.9-2.4,2.3
				S673.7,330.5,675,330.5z"/>
			<path d="M694.8,334.7c0,3.1-2.2,5.1-6.2,5.1s-6.2-2-6.2-5.1c0-1.7,0.8-3.1,2.2-4c-1-0.8-1.6-1.9-1.6-3.4c0-3.3,2.5-5,5.6-5
				s5.6,1.7,5.6,5c0,1.5-0.6,2.6-1.6,3.4C694,331.6,694.8,333,694.8,334.7z M690.9,334.1c0-1.3-1-2-2.3-2s-2.3,0.7-2.3,2
				c0,1.3,1,2,2.3,2S690.9,335.4,690.9,334.1z M686.8,327.5c0,0.9,0.7,1.6,1.8,1.6s1.8-0.7,1.8-1.6c0-0.9-0.7-1.6-1.8-1.6
				S686.8,326.6,686.8,327.5z"/>
			<path d="M707.5,331.6l-5.1,7.8h-4.4l3.6-5.3c-3.3-0.3-5.6-2.6-5.6-5.9c0-3.5,2.5-5.9,6.2-5.9c3.7,0,6.2,2.4,6.2,5.9
				C708.4,329.5,708.1,330.7,707.5,331.6z M702.2,330.5c1.3,0,2.4-0.8,2.4-2.3s-1.1-2.3-2.4-2.3c-1.3,0-2.4,0.9-2.4,2.3
				S700.9,330.5,702.2,330.5z"/>
		</g>
	</g>
	<g id="XMLID_389_">
		<path id="XMLID_392_" class="st2" d="M942.7-38.3L900.9,83.9l-0.9,2.8h2.8h63.8L846.4,249.1l41.9-122l0.9-2.5h-2.8h-63.8
			L942.7-38.3 M948.8-49.7L818.6,126.6h67.8L840.3,261L970.5,84.6h-67.8L948.8-49.7L948.8-49.7z"/>
		<g>
			<path d="M872.7,299.6c0,3.2-2.6,5.8-5.9,5.8h-2.5v5.3h-3.8v-16.8h6.4C870.1,293.8,872.7,296.4,872.7,299.6z M868.8,299.6
				c0-1.2-0.9-2.2-2-2.2h-2.5v4.3h2.5C867.9,301.7,868.8,300.8,868.8,299.6z"/>
			<path d="M881.4,298.4v4.1c-1.5-0.2-3.6,0.4-3.6,2.7v5.4h-3.6v-12h3.6v2.1C878.3,299.1,879.9,298.4,881.4,298.4z"/>
			<path d="M882.1,304.6c0-3.6,2.8-6.3,6.4-6.3s6.4,2.8,6.4,6.3c0,3.6-2.8,6.3-6.4,6.3S882.1,308.2,882.1,304.6z M891.3,304.6
				c0-1.7-1.2-2.8-2.8-2.8s-2.8,1.1-2.8,2.8c0,1.7,1.2,2.8,2.8,2.8S891.3,306.3,891.3,304.6z"/>
			<path d="M914.9,303.2v7.4h-3.6v-7.1c0-1.2-0.6-2-1.7-2c-1.2,0-1.9,0.8-1.9,2.3v6.8h-3.6v-7.1c0-1.2-0.6-2-1.7-2
				c-1.2,0-1.9,0.8-1.9,2.3v6.8h-3.6v-12h3.6v1.1c0.6-0.8,1.6-1.4,3.2-1.4c1.4,0,2.5,0.6,3.1,1.6c0.7-1,1.8-1.6,3.5-1.6
				C913.1,298.3,914.9,300.2,914.9,303.2z"/>
			<path d="M916.8,304.6c0-3.6,2.8-6.3,6.4-6.3s6.4,2.8,6.4,6.3c0,3.6-2.8,6.3-6.4,6.3S916.8,308.2,916.8,304.6z M925.9,304.6
				c0-1.7-1.2-2.8-2.8-2.8s-2.8,1.1-2.8,2.8c0,1.7,1.2,2.8,2.8,2.8S925.9,306.3,925.9,304.6z"/>
			<path d="M867.6,336.6l5.6-5.9c1-1,1.7-2,1.7-3c0-1.1-0.7-1.8-1.8-1.8c-1.2,0-2,0.8-2.5,1.8l-3.2-1.9c1.1-2.5,3.3-3.7,5.7-3.7
				c3,0,5.7,2,5.7,5.4c0,2-1.1,3.7-2.6,5.3l-2.8,2.8h5.6v3.7h-11.4V336.6z"/>
			<path d="M880.3,331c0-5.2,2.5-8.7,6.8-8.7s6.8,3.6,6.8,8.7s-2.5,8.7-6.8,8.7S880.3,336.2,880.3,331z M890.1,331c0-3.2-1-5-3-5
				s-3,1.8-3,5s1,5,3,5S890.1,334.2,890.1,331z"/>
			<path d="M895.4,331c0-5.2,2.5-8.7,6.8-8.7c4.3,0,6.8,3.6,6.8,8.7s-2.5,8.7-6.8,8.7C897.9,339.7,895.4,336.2,895.4,331z
				 M905.3,331c0-3.2-1-5-3-5s-3,1.8-3,5s1,5,3,5S905.3,334.2,905.3,331z"/>
			<path d="M909.9,336.6l5.6-5.9c1-1,1.7-2,1.7-3c0-1.1-0.7-1.8-1.8-1.8c-1.2,0-2,0.8-2.5,1.8l-3.2-1.9c1.1-2.5,3.3-3.7,5.7-3.7
				c3,0,5.7,2,5.7,5.4c0,2-1.1,3.7-2.6,5.3l-2.8,2.8h5.6v3.7h-11.4V336.6z"/>
		</g>
	</g>
	<g id="XMLID_385_">
		<path id="XMLID_388_" class="st3" d="M1153.6-38.3l-41.9,122.2l-0.9,2.8h2.8h63.8l-120.1,162.5l41.9-122l0.9-2.5h-2.8h-63.8
			L1153.6-38.3 M1159.7-49.7l-130.2,176.4h67.8L1051.2,261l130.2-176.4h-67.8L1159.7-49.7L1159.7-49.7z"/>
		<g>
			<path d="M1083.5,299.6c0,3.2-2.6,5.8-5.9,5.8h-2.5v5.3h-3.8v-16.8h6.4C1080.9,293.8,1083.5,296.4,1083.5,299.6z M1079.6,299.6
				c0-1.2-0.9-2.2-2-2.2h-2.5v4.3h2.5C1078.8,301.7,1079.6,300.8,1079.6,299.6z"/>
			<path d="M1092.2,298.4v4.1c-1.5-0.2-3.6,0.4-3.6,2.7v5.4h-3.6v-12h3.6v2.1C1089.1,299.1,1090.7,298.4,1092.2,298.4z"/>
			<path d="M1093,304.6c0-3.6,2.8-6.3,6.4-6.3s6.4,2.8,6.4,6.3c0,3.6-2.8,6.3-6.4,6.3S1093,308.2,1093,304.6z M1102.1,304.6
				c0-1.7-1.2-2.8-2.8-2.8c-1.6,0-2.8,1.1-2.8,2.8c0,1.7,1.2,2.8,2.8,2.8C1100.9,307.4,1102.1,306.3,1102.1,304.6z"/>
			<path d="M1125.7,303.2v7.4h-3.6v-7.1c0-1.2-0.6-2-1.7-2c-1.2,0-1.9,0.8-1.9,2.3v6.8h-3.6v-7.1c0-1.2-0.6-2-1.7-2
				c-1.2,0-1.9,0.8-1.9,2.3v6.8h-3.6v-12h3.6v1.1c0.6-0.8,1.6-1.4,3.2-1.4c1.4,0,2.5,0.6,3.1,1.6c0.7-1,1.8-1.6,3.5-1.6
				C1123.9,298.3,1125.7,300.2,1125.7,303.2z"/>
			<path d="M1127.6,304.6c0-3.6,2.8-6.3,6.4-6.3s6.4,2.8,6.4,6.3c0,3.6-2.8,6.3-6.4,6.3S1127.6,308.2,1127.6,304.6z M1136.7,304.6
				c0-1.7-1.2-2.8-2.8-2.8c-1.6,0-2.8,1.1-2.8,2.8c0,1.7,1.2,2.8,2.8,2.8C1135.5,307.4,1136.7,306.3,1136.7,304.6z"/>
			<path d="M1077.7,336.6l5.6-5.9c1-1,1.7-2,1.7-3c0-1.1-0.7-1.8-1.8-1.8c-1.2,0-2,0.8-2.5,1.8l-3.2-1.9c1.1-2.5,3.3-3.7,5.7-3.7
				c3,0,5.7,2,5.7,5.4c0,2-1.1,3.7-2.6,5.3l-2.8,2.8h5.6v3.7h-11.4V336.6z"/>
			<path d="M1090.4,331c0-5.2,2.5-8.7,6.8-8.7s6.8,3.6,6.8,8.7s-2.5,8.7-6.8,8.7S1090.4,336.2,1090.4,331z M1100.2,331
				c0-3.2-1-5-3-5c-2,0-3,1.8-3,5s1,5,3,5C1099.3,336,1100.2,334.2,1100.2,331z"/>
			<path d="M1105.5,331c0-5.2,2.5-8.7,6.8-8.7s6.8,3.6,6.8,8.7s-2.5,8.7-6.8,8.7S1105.5,336.2,1105.5,331z M1115.4,331
				c0-3.2-1-5-3-5c-2,0-3,1.8-3,5s1,5,3,5C1114.4,336,1115.4,334.2,1115.4,331z"/>
			<path d="M1133,334.7c0,3.1-2.2,5.1-6.2,5.1c-4,0-6.2-2-6.2-5.1c0-1.7,0.8-3.1,2.2-4c-1-0.8-1.6-1.9-1.6-3.4c0-3.3,2.5-5,5.6-5
				c3.1,0,5.6,1.7,5.6,5c0,1.5-0.6,2.6-1.6,3.4C1132.2,331.6,1133,333,1133,334.7z M1129.1,334.1c0-1.3-1-2-2.3-2
				c-1.3,0-2.3,0.7-2.3,2c0,1.3,1,2,2.3,2C1128.2,336.1,1129.1,335.4,1129.1,334.1z M1125.1,327.5c0,0.9,0.7,1.6,1.8,1.6
				s1.8-0.7,1.8-1.6c0-0.9-0.7-1.6-1.8-1.6S1125.1,326.6,1125.1,327.5z"/>
		</g>
	</g>
	<g id="XMLID_355_">
		<path id="XMLID_383_" class="st4" d="M1364.4-38.3l-41.9,122.2l-0.9,2.8h2.8h63.8l-120.1,162.5l41.9-122l0.9-2.5h-2.8h-63.8
			L1364.4-38.3 M1370.5-49.7l-130.2,176.4h67.8L1262,261l130.2-176.4h-67.8L1370.5-49.7L1370.5-49.7z"/>
		<g>
			<path d="M1294.3,299.6c0,3.2-2.6,5.8-5.9,5.8h-2.5v5.3h-3.8v-16.8h6.4C1291.7,293.8,1294.3,296.4,1294.3,299.6z M1290.5,299.6
				c0-1.2-0.9-2.2-2-2.2h-2.5v4.3h2.5C1289.6,301.7,1290.5,300.8,1290.5,299.6z"/>
			<path d="M1303.1,298.4v4.1c-1.5-0.2-3.6,0.4-3.6,2.7v5.4h-3.6v-12h3.6v2.1C1299.9,299.1,1301.6,298.4,1303.1,298.4z"/>
			<path d="M1303.8,304.6c0-3.6,2.8-6.3,6.4-6.3s6.4,2.8,6.4,6.3c0,3.6-2.8,6.3-6.4,6.3S1303.8,308.2,1303.8,304.6z M1312.9,304.6
				c0-1.7-1.2-2.8-2.8-2.8c-1.6,0-2.8,1.1-2.8,2.8c0,1.7,1.2,2.8,2.8,2.8C1311.7,307.4,1312.9,306.3,1312.9,304.6z"/>
			<path d="M1336.5,303.2v7.4h-3.6v-7.1c0-1.2-0.6-2-1.7-2c-1.2,0-1.9,0.8-1.9,2.3v6.8h-3.6v-7.1c0-1.2-0.6-2-1.7-2
				c-1.2,0-1.9,0.8-1.9,2.3v6.8h-3.6v-12h3.6v1.1c0.6-0.8,1.6-1.4,3.2-1.4c1.4,0,2.5,0.6,3.1,1.6c0.7-1,1.8-1.6,3.5-1.6
				C1334.7,298.3,1336.5,300.2,1336.5,303.2z"/>
			<path d="M1338.4,304.6c0-3.6,2.8-6.3,6.4-6.3s6.4,2.8,6.4,6.3c0,3.6-2.8,6.3-6.4,6.3S1338.4,308.2,1338.4,304.6z M1347.5,304.6
				c0-1.7-1.2-2.8-2.8-2.8c-1.6,0-2.8,1.1-2.8,2.8c0,1.7,1.2,2.8,2.8,2.8C1346.3,307.4,1347.5,306.3,1347.5,304.6z"/>
			<path d="M1293.5,336.6l5.6-5.9c1-1,1.7-2,1.7-3c0-1.1-0.7-1.8-1.8-1.8c-1.2,0-2,0.8-2.5,1.8l-3.2-1.9c1.1-2.5,3.3-3.7,5.7-3.7
				c3,0,5.7,2,5.7,5.4c0,2-1.1,3.7-2.6,5.3l-2.8,2.8h5.6v3.7h-11.4V336.6z"/>
			<path d="M1306.2,331c0-5.2,2.5-8.7,6.8-8.7s6.8,3.6,6.8,8.7s-2.5,8.7-6.8,8.7S1306.2,336.2,1306.2,331z M1316.1,331
				c0-3.2-1-5-3-5c-2,0-3,1.8-3,5s1,5,3,5C1315.1,336,1316.1,334.2,1316.1,331z"/>
			<path d="M1328.2,322.6v16.8h-3.8v-12.7l-3,0.8l-0.9-3.3l4.4-1.6H1328.2z"/>
			<path d="M1337.8,322.6v16.8h-3.8v-12.7l-3,0.8l-0.9-3.3l4.4-1.6H1337.8z"/>
		</g>
	</g>
	<g id="XMLID_347_">
		<path id="XMLID_354_" class="st5" d="M1575.2-38.3l-41.9,122.2l-0.9,2.8h2.8h63.8l-120.1,162.5l41.9-122l0.9-2.5h-2.8h-63.8
			L1575.2-38.3 M1581.3-49.7l-130.2,176.4h67.8L1472.8,261L1603,84.6h-67.8L1581.3-49.7L1581.3-49.7z"/>
		<g>
			<path d="M1505.1,299.6c0,3.2-2.6,5.8-5.9,5.8h-2.5v5.3h-3.8v-16.8h6.4C1502.6,293.8,1505.1,296.4,1505.1,299.6z M1501.3,299.6
				c0-1.2-0.9-2.2-2-2.2h-2.5v4.3h2.5C1500.4,301.7,1501.3,300.8,1501.3,299.6z"/>
			<path d="M1513.9,298.4v4.1c-1.5-0.2-3.6,0.4-3.6,2.7v5.4h-3.6v-12h3.6v2.1C1510.8,299.1,1512.4,298.4,1513.9,298.4z"/>
			<path d="M1514.6,304.6c0-3.6,2.8-6.3,6.4-6.3s6.4,2.8,6.4,6.3c0,3.6-2.8,6.3-6.4,6.3S1514.6,308.2,1514.6,304.6z M1523.7,304.6
				c0-1.7-1.2-2.8-2.8-2.8c-1.6,0-2.8,1.1-2.8,2.8c0,1.7,1.2,2.8,2.8,2.8C1522.5,307.4,1523.7,306.3,1523.7,304.6z"/>
			<path d="M1547.4,303.2v7.4h-3.6v-7.1c0-1.2-0.6-2-1.7-2c-1.2,0-1.9,0.8-1.9,2.3v6.8h-3.6v-7.1c0-1.2-0.6-2-1.7-2
				c-1.2,0-1.9,0.8-1.9,2.3v6.8h-3.6v-12h3.6v1.1c0.6-0.8,1.6-1.4,3.2-1.4c1.4,0,2.5,0.6,3.1,1.6c0.7-1,1.8-1.6,3.5-1.6
				C1545.6,298.3,1547.4,300.2,1547.4,303.2z"/>
			<path d="M1549.2,304.6c0-3.6,2.8-6.3,6.4-6.3s6.4,2.8,6.4,6.3c0,3.6-2.8,6.3-6.4,6.3S1549.2,308.2,1549.2,304.6z M1558.4,304.6
				c0-1.7-1.2-2.8-2.8-2.8c-1.6,0-2.8,1.1-2.8,2.8c0,1.7,1.2,2.8,2.8,2.8C1557.2,307.4,1558.4,306.3,1558.4,304.6z"/>
			<path d="M1502.6,336.6l5.6-5.9c1-1,1.7-2,1.7-3c0-1.1-0.7-1.8-1.8-1.8c-1.2,0-2,0.8-2.5,1.8l-3.2-1.9c1.1-2.5,3.3-3.7,5.7-3.7
				c3,0,5.7,2,5.7,5.4c0,2-1.1,3.7-2.6,5.3l-2.8,2.8h5.6v3.7h-11.4V336.6z"/>
			<path d="M1515.3,331c0-5.2,2.5-8.7,6.8-8.7s6.8,3.6,6.8,8.7s-2.5,8.7-6.8,8.7S1515.3,336.2,1515.3,331z M1525.2,331
				c0-3.2-1-5-3-5c-2,0-3,1.8-3,5s1,5,3,5C1524.2,336,1525.2,334.2,1525.2,331z"/>
			<path d="M1537.2,322.6v16.8h-3.8v-12.7l-3,0.8l-0.9-3.3l4.4-1.6H1537.2z"/>
			<path d="M1551.4,334.1c0,3.7-2.9,5.6-6.1,5.6c-2.5,0-4.8-1.1-5.9-3.6l3.3-1.9c0.4,1.1,1.1,1.8,2.6,1.8c1.6,0,2.3-0.8,2.3-1.9
				s-0.7-1.9-2.3-1.9h-0.8l-1.5-2.2l3-3.9h-6.1v-3.6h10.8v3.1l-2.9,3.7C1549.9,330.1,1551.4,331.8,1551.4,334.1z"/>
		</g>
	</g>
</g>
</svg>
