<?xml version="1.0" encoding="utf-8"?>
<!-- Generator: Adobe Illustrator 20.1.0, SVG Export Plug-In . SVG Version: 6.00 Build 0)  -->
<svg version="1.1" id="Ebene_1" xmlns="http://www.w3.org/2000/svg" xmlns:xlink="http://www.w3.org/1999/xlink" x="0px" y="0px"
	 viewBox="0 0 512 512" style="enable-background:new 0 0 512 512;" xml:space="preserve">
<style type="text/css">
	.st0{clip-path:url(#SVGID_2_);fill:none;stroke:#000000;stroke-width:19.6865;stroke-miterlimit:10;}
	.st1{clip-path:url(#SVGID_6_);fill:none;stroke:#000000;stroke-width:19.6865;stroke-miterlimit:10;}
	.st2{clip-path:url(#SVGID_8_);fill:none;stroke:#000000;stroke-width:19.6865;stroke-miterlimit:10;}
	.st3{clip-path:url(#SVGID_14_);fill:none;stroke:#000000;stroke-width:19.6865;stroke-miterlimit:10;}
	.st4{fill:none;stroke:#000000;stroke-width:17.5181;stroke-miterlimit:10;}
</style>
<g>
	<defs>
		<rect id="SVGID_1_" x="18.9" y="20.6" width="472.5" height="472.5"/>
	</defs>
	<clipPath id="SVGID_2_">
		<use xlink:href="#SVGID_1_"  style="overflow:visible;"/>
	</clipPath>
	<line class="st0" x1="176.6" y1="340.9" x2="325.5" y2="340.9"/>
</g>
<g>
	<defs>
		<rect id="SVGID_3_" x="18.9" y="20.6" width="472.5" height="472.5"/>
	</defs>
	<clipPath id="SVGID_4_">
		<use xlink:href="#SVGID_3_"  style="overflow:visible;"/>
	</clipPath>
</g>
<g>
	<defs>
		<rect id="SVGID_5_" x="18.9" y="20.6" width="472.5" height="472.5"/>
	</defs>
	<clipPath id="SVGID_6_">
		<use xlink:href="#SVGID_5_"  style="overflow:visible;"/>
	</clipPath>
	<path class="st1" d="M110,76.4l362.8,0.2c4.8,0,8.7,3.9,8.7,8.7v386.9c0,4.8-3.9,8.7-8.7,8.7H37.5c-4.8,0-8.7-3.9-8.7-8.7V85.4
		c0-4.8,3.9-8.7,8.7-8.7h72.7"/>
</g>
<g>
	<defs>
		<rect id="SVGID_7_" x="18.9" y="20.6" width="472.5" height="472.5"/>
	</defs>
	<clipPath id="SVGID_8_">
		<use xlink:href="#SVGID_7_"  style="overflow:visible;"/>
	</clipPath>
	<line class="st2" x1="28.8" y1="201.1" x2="481.6" y2="201.1"/>
</g>
<g>
	<defs>
		<rect id="SVGID_9_" x="18.9" y="20.6" width="472.5" height="472.5"/>
	</defs>
	<clipPath id="SVGID_10_">
		<use xlink:href="#SVGID_9_"  style="overflow:visible;"/>
	</clipPath>
</g>
<g>
	<defs>
		<rect id="SVGID_11_" x="18.9" y="20.6" width="472.5" height="472.5"/>
	</defs>
	<clipPath id="SVGID_12_">
		<use xlink:href="#SVGID_11_"  style="overflow:visible;"/>
	</clipPath>
</g>
<g>
	<defs>
		<rect id="SVGID_13_" x="18.9" y="20.6" width="472.5" height="472.5"/>
	</defs>
	<clipPath id="SVGID_14_">
		<use xlink:href="#SVGID_13_"  style="overflow:visible;"/>
	</clipPath>
	<path class="st3" d="M192,76.6"/>
</g>
<circle class="st4" cx="86.3" cy="138" r="14.2"/>
<circle class="st4" cx="135" cy="136.7" r="14.2"/>
<circle class="st4" cx="183.7" cy="137" r="14.2"/>
</svg>
