<?xml version="1.0" encoding="utf-8"?>
<!-- Generator: Adobe Illustrator 20.1.0, SVG Export Plug-In . SVG Version: 6.00 Build 0)  -->
<svg version="1.1" id="Ebene_1" xmlns="http://www.w3.org/2000/svg" xmlns:xlink="http://www.w3.org/1999/xlink" x="0px" y="0px"
	 viewBox="0 0 19.1 22.9" style="enable-background:new 0 0 19.1 22.9;" xml:space="preserve">
<g>
	<path d="M15.4,5C12.4,1.9,7.2,1.9,4.1,5s-3.1,8.2,0,11.3s8.2,3.1,11.3,0S18.5,8.2,15.4,5z M11.1,13l-1.3-1.3L8.4,13
		c-0.3,0.3-0.7,0.3-1,0s-0.3-0.7,0-1l1.3-1.3L7.4,9.4c-0.3-0.3-0.3-0.7,0-1s0.7-0.3,1,0l1.3,1.3l1.3-1.3c0.3-0.3,0.7-0.3,1,0
		s0.3,0.7,0,1l-1.3,1.3l1.3,1.3c0.3,0.3,0.3,0.7,0,1C11.9,13.3,11.4,13.3,11.1,13z"/>
</g>
</svg>
