<?xml version="1.0" encoding="utf-8"?>
<!-- Generator: Adobe Illustrator 20.1.0, SVG Export Plug-In . SVG Version: 6.00 Build 0)  -->
<svg version="1.1" xmlns="http://www.w3.org/2000/svg" xmlns:xlink="http://www.w3.org/1999/xlink" x="0px" y="0px"
	 viewBox="0 0 2000 2000" style="enable-background:new 0 0 2000 2000;" xml:space="preserve">
<style type="text/css">
	.st0{display:none;}
	.st1{display:inline;fill:#BFDCE8;}
	.st2{fill:#FFFFFF;}
	.st3{fill:#E0E0E0;}
	.st4{fill:#979CA5;}
	.st5{fill:#ACB3B7;}
	.st6{fill:#BFDCE8;}
</style>
<g id="background" class="st0">
	<rect id="bg" class="st1" width="2000" height="2000"/>
</g>
<g id="names_1_">
</g>
<g id="_x39_">
</g>
<g id="_x38__1_">
</g>
<g id="_x37__1_">
</g>
<g id="_x36__1_">
</g>
<g id="_x35__1_">
</g>
<g id="_x34_">
</g>
<g id="_x33_">
</g>
<g id="_x32_">
</g>
<g id="_x31_">
	<path class="st2" d="M707.6,748.1v-82.4c0-8.3,6.3-15,14-15h415.3c7.7,0,14,6.7,14,15v82.5L707.6,748.1z"/>
	<path class="st3" d="M1150.9,685.7H707.6v-20c0-8.3,6.3-15,14-15h415.3c7.7,0,14,6.7,14,15V685.7z"/>
	<circle class="st4" cx="735.1" cy="668.2" r="7.5"/>
	<circle class="st4" cx="760.1" cy="668.2" r="7.5"/>
	<circle class="st4" cx="785.1" cy="668.2" r="7.5"/>
	<path class="st2" d="M707.6,1000v-82.4c0-8.3,6.3-15,14-15h415.3c7.7,0,14,6.7,14,15v82.5L707.6,1000z"/>
	<path class="st3" d="M1150.9,937.7H707.6v-20c0-8.3,6.3-15,14-15h415.3c7.7,0,14,6.7,14,15V937.7z"/>
	<circle class="st4" cx="735.1" cy="920.2" r="7.5"/>
	<circle class="st4" cx="760.1" cy="920.2" r="7.5"/>
	<circle class="st4" cx="785.1" cy="920.2" r="7.5"/>
	<rect x="1097.1" y="964" class="st5" width="29" height="5"/>
	<g>
		<rect x="1099.9" y="706.5" class="st5" width="25.1" height="3.8"/>
		<rect x="1099.9" y="715.3" class="st5" width="25.1" height="3.8"/>
		<rect x="1099.9" y="724" class="st5" width="25.1" height="3.8"/>
	</g>
	<path class="st2" d="M707.6,1268.4V1186c0-8.3,6.3-15,14-15h415.3c7.7,0,14,6.7,14,15v82.5L707.6,1268.4z"/>
	<path class="st3" d="M1150.9,1206H707.6v-20c0-8.3,6.3-15,14-15h415.3c7.7,0,14,6.7,14,15V1206z"/>
	<circle class="st4" cx="735.1" cy="1188.5" r="7.5"/>
	<circle class="st4" cx="760.1" cy="1188.5" r="7.5"/>
	<circle class="st4" cx="785.1" cy="1188.5" r="7.5"/>
	<rect x="978.2" y="1232.4" class="st5" width="29" height="5"/>
	<rect x="1017.1" y="1232.4" class="st5" width="29" height="5"/>
	<rect x="1056.1" y="1232.4" class="st5" width="29" height="5"/>
	<rect x="1095.1" y="1232.4" class="st5" width="29" height="5"/>
	<rect x="979.1" y="964" class="st5" width="29" height="5"/>
	<rect x="1018.1" y="964" class="st5" width="29" height="5"/>
	<rect x="1057" y="964" class="st5" width="29" height="5"/>
	<path class="st2" d="M707.6,1400.3v-82.4c0-8.3,6.2-15,14-15h414.1c7.7,0,14,6.7,14,15v82.5L707.6,1400.3z"/>
	<path class="st3" d="M1149.6,1337.9H707.6v-20c0-8.3,6.3-15,14-15h414.1c7.7,0,14,6.7,14,15V1337.9z"/>
	<circle class="st4" cx="735.1" cy="1320.4" r="7.5"/>
	<circle class="st4" cx="760.1" cy="1320.4" r="7.5"/>
	<circle class="st4" cx="785.1" cy="1320.4" r="7.5"/>
	<g>
		<rect x="870.2" y="1383.9" class="st5" width="29" height="5"/>
		<rect x="909.1" y="1383.9" class="st5" width="29" height="5"/>
		<rect x="948.1" y="1383.9" class="st5" width="29" height="5"/>
		<rect x="987.1" y="1383.9" class="st5" width="29" height="5"/>
	</g>
	<path class="st6" d="M790.2,727.6h-59.1c-1.1,0-2-0.9-2-2v-17c0-1.1,0.9-2,2-2h59.1c1.1,0,2,0.9,2,2v17
		C792.2,726.8,791.3,727.6,790.2,727.6z"/>
	<path class="st6" d="M949.7,1247.9h-59.1c-1.1,0-2-0.9-2-2v-17c0-1.1,0.9-2,2-2h59.1c1.1,0,2,0.9,2,2v17
		C951.7,1247,950.8,1247.9,949.7,1247.9z"/>
	<path class="st6" d="M972.6,1371.2h-59.1c-1.1,0-2-0.9-2-2v-17c0-1.1,0.9-2,2-2h59.1c1.1,0,2,0.9,2,2v17
		C974.6,1370.3,973.7,1371.2,972.6,1371.2z"/>
	<path class="st2" d="M707.6,1536.1v-82.4c0-8.3,6.2-15,14-15h414.1c7.7,0,14,6.7,14,15v82.5L707.6,1536.1z"/>
	<path class="st3" d="M1149.6,1473.8H707.6v-20c0-8.3,6.3-15,14-15h414.1c7.7,0,14,6.7,14,15V1473.8z"/>
	<circle class="st4" cx="735.1" cy="1456.3" r="7.5"/>
	<circle class="st4" cx="760.1" cy="1456.3" r="7.5"/>
	<circle class="st4" cx="785.1" cy="1456.3" r="7.5"/>
	<g>
		<rect x="870.2" y="1491.8" class="st5" width="29" height="5"/>
		<rect x="909.1" y="1491.8" class="st5" width="29" height="5"/>
		<rect x="948.1" y="1491.8" class="st5" width="29" height="5"/>
		<rect x="987.1" y="1491.8" class="st5" width="29" height="5"/>
	</g>
	<path class="st6" d="M972.6,1527.1h-59.1c-1.1,0-2-0.9-2-2v-17c0-1.1,0.9-2,2-2h59.1c1.1,0,2,0.9,2,2v17
		C974.6,1526.2,973.7,1527.1,972.6,1527.1z"/>
	<g>
		<path class="st2" d="M707.5,874.9v-82.4c0-8.3,6.3-15,14-15h414.7c7.7,0,14,6.7,14,15V875L707.5,874.9z"/>
		<path class="st3" d="M1150.2,812.5H707.5v-20c0-8.3,6.3-15,14-15h414.7c7.7,0,14,6.7,14,15V812.5z"/>
	</g>
	<circle class="st4" cx="735" cy="795" r="7.5"/>
	<circle class="st4" cx="760" cy="795" r="7.5"/>
	<circle class="st4" cx="785" cy="795" r="7.5"/>
	<path class="st6" d="M838.1,854.5H779c-1.1,0-2-0.9-2-2v-17c0-1.1,0.9-2,2-2h59.1c1.1,0,2,0.9,2,2v17
		C840.1,853.6,839.2,854.5,838.1,854.5z"/>
	<rect x="729" y="832.3" class="st5" width="25.1" height="3.8"/>
	<rect x="729" y="841.1" class="st5" width="25.1" height="3.8"/>
	<rect x="729" y="849.9" class="st5" width="25.1" height="3.8"/>
	<path class="st2" d="M707.6,1135.4V1053c0-8.3,6.3-15,14-15h414.7c7.7,0,14,6.7,14,15v82.5L707.6,1135.4z"/>
	<path class="st3" d="M1150.3,1073H707.6v-20c0-8.3,6.3-15,14-15h414.7c7.7,0,14,6.7,14,15V1073z"/>
	<circle class="st4" cx="735.1" cy="1055.5" r="7.5"/>
	<circle class="st4" cx="760.1" cy="1055.5" r="7.5"/>
	<circle class="st4" cx="785.1" cy="1055.5" r="7.5"/>
	<g>
		<rect x="988.1" y="1099.4" class="st5" width="29" height="5"/>
		<rect x="870.1" y="1099.4" class="st5" width="29" height="5"/>
		<rect x="909.1" y="1099.4" class="st5" width="29" height="5"/>
		<rect x="948" y="1099.4" class="st5" width="29" height="5"/>
	</g>
	<path class="st2" d="M708.9,623.1v-82.4c0-8.3,6.3-15,14-15h415.3c7.7,0,14,6.7,14,15v82.5L708.9,623.1z"/>
	<path class="st3" d="M1152.1,560.7H708.9v-20c0-8.3,6.3-15,14-15h415.3c7.7,0,14,6.7,14,15V560.7z"/>
	<circle class="st4" cx="736.1" cy="543.2" r="7.5"/>
	<circle class="st4" cx="761.1" cy="543.2" r="7.5"/>
	<circle class="st4" cx="786.1" cy="543.2" r="7.5"/>
	<g>
		<rect x="1100.9" y="581.5" class="st5" width="25.1" height="3.8"/>
		<rect x="1100.9" y="590.3" class="st5" width="25.1" height="3.8"/>
		<rect x="1100.9" y="599" class="st5" width="25.1" height="3.8"/>
	</g>
	<path class="st6" d="M962.2,602.6h-59.1c-1.1,0-2-0.9-2-2v-17c0-1.1,0.9-2,2-2h59.1c1.1,0,2,0.9,2,2v17
		C964.2,601.8,963.3,602.6,962.2,602.6z"/>
	<path class="st6" d="M789.7,981h-59.3c-1.1,0-1.9-0.9-1.9-1.9v-17.2c0-1.1,0.9-1.9,1.9-1.9h59.3c1.1,0,1.9,0.9,1.9,1.9v17.2
		C791.6,980.1,790.8,981,789.7,981z"/>
	<path class="st6" d="M789.2,1116h-59.3c-1.1,0-1.9-0.9-1.9-1.9v-17.2c0-1.1,0.9-1.9,1.9-1.9h59.3c1.1,0,1.9,0.9,1.9,1.9v17.2
		C791.1,1115.1,790.3,1116,789.2,1116z"/>
</g>
</svg>
