<?xml version="1.0" encoding="utf-8"?>
<!-- Generator: Adobe Illustrator 20.1.0, SVG Export Plug-In . SVG Version: 6.00 Build 0)  -->
<svg version="1.1" id="Ebene_1" xmlns="http://www.w3.org/2000/svg" xmlns:xlink="http://www.w3.org/1999/xlink" x="0px" y="0px"
	 viewBox="0 0 100 156.2" style="enable-background:new 0 0 100 156.2;" xml:space="preserve">
<g>
	<g>
		<g>
			<path d="M28.5,91.9c-6.4,0-11.5-5.2-11.5-11.5s5.2-11.5,11.5-11.5S40.1,74,40.1,80.4S34.9,91.9,28.5,91.9z M28.5,70.4
				c-5.5,0-9.9,4.5-9.9,9.9s4.5,9.9,9.9,9.9s9.9-4.5,9.9-9.9S34,70.4,28.5,70.4z"/>
		</g>
		<path d="M71.5,68.8c-1.9,0-3.7,0.5-5.2,1.3l-6.4-10.6c-0.2-0.4-0.7-0.5-1.1-0.3c-0.4,0.2-0.5,0.7-0.3,1.1L64.8,71
			c-3,2.1-4.9,5.5-4.9,9.5c0,6.4,5.2,11.5,11.5,11.5C77.8,92,83,86.8,83,80.4S77.9,68.8,71.5,68.8z M71.5,90.3
			c-5.5,0-9.9-4.5-9.9-9.9s4.5-9.9,9.9-9.9s9.9,4.5,9.9,9.9S77,90.3,71.5,90.3z"/>
		<path d="M50,33c-6.4,0-11.5,5.2-11.5,11.5c0,4,2.1,7.6,5.2,9.7l-6.4,10.5c-0.2,0.4-0.1,0.9,0.3,1.1c0.1,0.1,0.3,0.1,0.4,0.1
			c0.3,0,0.5-0.2,0.7-0.4L45.1,55c1.5,0.7,3.2,1.1,4.9,1.1c6.4,0,11.5-5.2,11.5-11.5S56.4,33,50,33z M50,54.5
			c-5.5,0-9.9-4.5-9.9-9.9s4.5-9.9,9.9-9.9s9.9,4.5,9.9,9.9S55.5,54.5,50,54.5z"/>
	</g>
	<circle cx="71.5" cy="80.4" r="3.6"/>
	<circle cx="28.5" cy="80.4" r="3.6"/>
	<circle cx="50" cy="44.6" r="3.6"/>
</g>
</svg>
