<?xml version="1.0" encoding="utf-8"?>
<!-- Generator: Adobe Illustrator 19.1.0, SVG Export Plug-In . SVG Version: 6.00 Build 0)  -->
<svg version="1.1" id="Layer_1" xmlns="http://www.w3.org/2000/svg" xmlns:xlink="http://www.w3.org/1999/xlink" x="0px" y="0px"
	 viewBox="-49 -311.4 320 919" style="enable-background:new -49 -311.4 320 919;" xml:space="preserve">
<style type="text/css">
	.st0{fill:#DC3927;}
	.st1{fill:#FF9300;}
	.st2{fill:#0072BF;}
	.st3{fill:#6BC62A;}
	.st4{fill:#AB2292;}
	.st5{fill:#00AA9D;}
</style>
<g>
	<path id="XMLID_400_" class="st0" d="M51.6-293.3l-30,87.7l-0.7,2.2h2h45.7L-17.4-87.3l30-87.3l0.7-1.8h-2h-45.7L51.6-293.3
		 M55.9-301.7l-93.3,126.3h48.6l-33,96.3l93.3-126.3H22.9L55.9-301.7L55.9-301.7z"/>
	<g>
		<path d="M1.4-51.5c0,2.3-1.8,4.1-4.2,4.1h-1.8v3.8h-2.8v-12h4.6C-0.5-55.6,1.4-53.7,1.4-51.5z M-1.4-51.5c0-0.9-0.6-1.5-1.5-1.5
			h-1.8v3.1h1.8C-2-49.9-1.4-50.6-1.4-51.5z"/>
		<path d="M7.6-52.3v2.9c-1.1-0.2-2.6,0.3-2.6,2v3.9H2.5v-8.6h2.6v1.5C5.4-51.8,6.6-52.3,7.6-52.3z"/>
		<path d="M8.2-47.8c0-2.6,2-4.5,4.6-4.5s4.6,2,4.6,4.5c0,2.6-2,4.5-4.6,4.5S8.2-45.3,8.2-47.8z M14.7-47.8c0-1.2-0.9-2-2-2
			s-2,0.8-2,2c0,1.2,0.9,2,2,2S14.7-46.6,14.7-47.8z"/>
		<path d="M31.6-48.8v5.3h-2.6v-5.1c0-0.9-0.4-1.4-1.2-1.4c-0.9,0-1.3,0.6-1.3,1.6v4.8h-2.6v-5.1c0-0.9-0.4-1.4-1.2-1.4
			c-0.9,0-1.3,0.6-1.3,1.6v4.8h-2.6v-8.6h2.6v0.8c0.4-0.6,1.2-1,2.3-1c1,0,1.8,0.4,2.3,1.1c0.5-0.7,1.3-1.1,2.5-1.1
			C30.3-52.4,31.6-51,31.6-48.8z"/>
		<path d="M33-47.8c0-2.6,2-4.5,4.6-4.5s4.6,2,4.6,4.5c0,2.6-2,4.5-4.6,4.5S33-45.3,33-47.8z M39.5-47.8c0-1.2-0.9-2-2-2s-2,0.8-2,2
			c0,1.2,0.9,2,2,2S39.5-46.6,39.5-47.8z"/>
		<path d="M4.2-35v12H1.4V-32l-2.1,0.6l-0.7-2.4L1.8-35H4.2z"/>
		<path d="M14-28.5l-3.7,5.6H7.1l2.6-3.8c-2.4-0.2-4-1.9-4-4.2c0-2.5,1.8-4.2,4.5-4.2c2.7,0,4.5,1.8,4.5,4.2
			C14.7-30,14.4-29.2,14-28.5z M10.2-29.3c0.9,0,1.7-0.6,1.7-1.7c0-1.1-0.8-1.7-1.7-1.7c-0.9,0-1.7,0.6-1.7,1.7S9.3-29.3,10.2-29.3z
			"/>
		<path d="M24.4-26.3c0,2.2-1.6,3.6-4.4,3.6s-4.4-1.4-4.4-3.6c0-1.2,0.6-2.2,1.6-2.9c-0.7-0.6-1.2-1.3-1.2-2.4c0-2.3,1.8-3.6,4-3.6
			s4,1.2,4,3.6c0,1.1-0.4,1.9-1.2,2.4C23.8-28.5,24.4-27.5,24.4-26.3z M21.6-26.7c0-0.9-0.7-1.4-1.7-1.4s-1.7,0.5-1.7,1.4
			c0,0.9,0.7,1.4,1.7,1.4S21.6-25.8,21.6-26.7z M18.7-31.4c0,0.7,0.5,1.2,1.3,1.2s1.3-0.5,1.3-1.2c0-0.7-0.5-1.2-1.3-1.2
			S18.7-32.1,18.7-31.4z"/>
		<path d="M25.4-28.9c0-3.7,1.8-6.3,4.9-6.3s4.9,2.5,4.9,6.3s-1.8,6.3-4.9,6.3S25.4-25.2,25.4-28.9z M32.4-28.9
			c0-2.3-0.7-3.6-2.1-3.6s-2.1,1.3-2.1,3.6s0.7,3.6,2.1,3.6S32.4-26.6,32.4-28.9z"/>
	</g>
</g>
<g>
	<path id="XMLID_396_" class="st1" d="M239.4-293.3l-30,87.7l-0.7,2.2h2h45.7L170.4-87.3l30-87.3l0.7-1.8h-2h-45.7L239.4-293.3
		 M243.8-301.7l-93.3,126.3h48.6l-33,96.3l93.3-126.3h-48.6L243.8-301.7L243.8-301.7z"/>
	<g>
		<path d="M189.2-51.5c0,2.3-1.8,4.1-4.2,4.1h-1.8v3.8h-2.8v-12h4.6C187.4-55.6,189.2-53.7,189.2-51.5z M186.5-51.5
			c0-0.9-0.6-1.5-1.5-1.5h-1.8v3.1h1.8C185.8-49.9,186.5-50.6,186.5-51.5z"/>
		<path d="M195.5-52.3v2.9c-1.1-0.2-2.6,0.3-2.6,2v3.9h-2.6v-8.6h2.6v1.5C193.2-51.8,194.4-52.3,195.5-52.3z"/>
		<path d="M196-47.8c0-2.6,2-4.5,4.6-4.5c2.5,0,4.6,2,4.6,4.5c0,2.6-2,4.5-4.6,4.5C198-43.3,196-45.3,196-47.8z M202.5-47.8
			c0-1.2-0.9-2-2-2s-2,0.8-2,2c0,1.2,0.9,2,2,2S202.5-46.6,202.5-47.8z"/>
		<path d="M219.5-48.8v5.3h-2.6v-5.1c0-0.9-0.4-1.4-1.2-1.4c-0.9,0-1.3,0.6-1.3,1.6v4.8h-2.6v-5.1c0-0.9-0.4-1.4-1.2-1.4
			c-0.9,0-1.3,0.6-1.3,1.6v4.8h-2.6v-8.6h2.6v0.8c0.4-0.6,1.2-1,2.3-1c1,0,1.8,0.4,2.3,1.1c0.5-0.7,1.3-1.1,2.5-1.1
			C218.2-52.4,219.5-51,219.5-48.8z"/>
		<path d="M220.8-47.8c0-2.6,2-4.5,4.6-4.5c2.5,0,4.6,2,4.6,4.5c0,2.6-2,4.5-4.6,4.5C222.8-43.3,220.8-45.3,220.8-47.8z M227.3-47.8
			c0-1.2-0.9-2-2-2c-1.1,0-2,0.8-2,2c0,1.2,0.9,2,2,2C226.5-45.8,227.3-46.6,227.3-47.8z"/>
		<path d="M192.6-35v12h-2.8V-32l-2.1,0.6l-0.7-2.4l3.1-1.1H192.6z"/>
		<path d="M202.4-28.5l-3.7,5.6h-3.2l2.6-3.8c-2.4-0.2-4-1.9-4-4.2c0-2.5,1.8-4.2,4.5-4.2c2.7,0,4.5,1.8,4.5,4.2
			C203.1-30,202.8-29.2,202.4-28.5z M198.6-29.3c0.9,0,1.7-0.6,1.7-1.7c0-1.1-0.8-1.7-1.7-1.7c-0.9,0-1.7,0.6-1.7,1.7
			S197.7-29.3,198.6-29.3z"/>
		<path d="M212.8-26.3c0,2.2-1.6,3.6-4.4,3.6c-2.8,0-4.4-1.4-4.4-3.6c0-1.2,0.6-2.2,1.6-2.9c-0.7-0.6-1.2-1.3-1.2-2.4
			c0-2.3,1.8-3.6,4-3.6c2.2,0,4,1.2,4,3.6c0,1.1-0.4,1.9-1.2,2.4C212.3-28.5,212.8-27.5,212.8-26.3z M210.1-26.7
			c0-0.9-0.7-1.4-1.7-1.4c-1,0-1.7,0.5-1.7,1.4c0,0.9,0.7,1.4,1.7,1.4C209.3-25.3,210.1-25.8,210.1-26.7z M207.1-31.4
			c0,0.7,0.5,1.2,1.3,1.2c0.8,0,1.3-0.5,1.3-1.2c0-0.7-0.5-1.2-1.3-1.2C207.6-32.6,207.1-32.1,207.1-31.4z"/>
		<path d="M221.9-28.5l-3.7,5.6h-3.2l2.6-3.8c-2.4-0.2-4-1.9-4-4.2c0-2.5,1.8-4.2,4.5-4.2c2.7,0,4.5,1.8,4.5,4.2
			C222.6-30,222.3-29.2,221.9-28.5z M218.1-29.3c0.9,0,1.7-0.6,1.7-1.7c0-1.1-0.8-1.7-1.7-1.7c-0.9,0-1.7,0.6-1.7,1.7
			S217.2-29.3,218.1-29.3z"/>
	</g>
</g>
<g>
	<path id="XMLID_392_" class="st2" d="M49.1,2.5l-30,87.8l-0.7,2.3h2h45.7l-86.1,115.9l30-87.2l0.7-1.7h-2h-45.7L49.1,2.5 M53.5-5.7
		l-93.3,126.3H8.8l-33,96.3L69,90.6H20.5L53.5-5.7L53.5-5.7z"/>
	<g>
		<path d="M-1.1,244.2c0,2.3-1.8,4.1-4.2,4.1h-1.8v3.8h-2.8v-12h4.6C-2.9,240.1-1.1,241.9-1.1,244.2z M-3.8,244.2
			c0-0.9-0.6-1.5-1.5-1.5h-1.8v3.1h1.8C-4.4,245.8-3.8,245.1-3.8,244.2z"/>
		<path d="M5.2,243.4v2.9c-1.1-0.2-2.6,0.3-2.6,2v3.9H0v-8.6h2.6v1.5C3,243.9,4.1,243.4,5.2,243.4z"/>
		<path d="M5.7,247.8c0-2.6,2-4.5,4.6-4.5s4.6,2,4.6,4.5c0,2.6-2,4.5-4.6,4.5S5.7,250.4,5.7,247.8z M12.3,247.8c0-1.2-0.9-2-2-2
			s-2,0.8-2,2c0,1.2,0.9,2,2,2S12.3,249.1,12.3,247.8z"/>
		<path d="M29.2,246.9v5.3h-2.6v-5.1c0-0.9-0.4-1.4-1.2-1.4c-0.9,0-1.3,0.6-1.3,1.6v4.8h-2.6v-5.1c0-0.9-0.4-1.4-1.2-1.4
			c-0.9,0-1.3,0.6-1.3,1.6v4.8h-2.6v-8.6h2.6v0.8c0.4-0.6,1.2-1,2.3-1c1,0,1.8,0.4,2.3,1.1c0.5-0.7,1.3-1.1,2.5-1.1
			C27.9,243.3,29.2,244.7,29.2,246.9z"/>
		<path d="M30.5,247.8c0-2.6,2-4.5,4.6-4.5s4.6,2,4.6,4.5c0,2.6-2,4.5-4.6,4.5S30.5,250.4,30.5,247.8z M37.1,247.8c0-1.2-0.9-2-2-2
			s-2,0.8-2,2c0,1.2,0.9,2,2,2S37.1,249.1,37.1,247.8z"/>
		<path d="M-4.7,270.8l4-4.2c0.7-0.7,1.2-1.4,1.2-2.1c0-0.8-0.5-1.3-1.3-1.3c-0.8,0-1.4,0.6-1.8,1.3l-2.3-1.4
			c0.8-1.8,2.4-2.6,4.1-2.6c2.1,0,4.1,1.4,4.1,3.8c0,1.4-0.8,2.7-1.9,3.8l-2,2h4v2.6h-8.2V270.8z"/>
		<path d="M4.4,266.7c0-3.7,1.8-6.3,4.9-6.3s4.9,2.5,4.9,6.3c0,3.7-1.8,6.3-4.9,6.3S4.4,270.5,4.4,266.7z M11.5,266.7
			c0-2.3-0.7-3.6-2.1-3.6s-2.1,1.3-2.1,3.6c0,2.3,0.7,3.6,2.1,3.6S11.5,269.1,11.5,266.7z"/>
		<path d="M15.2,266.7c0-3.7,1.8-6.3,4.9-6.3c3.1,0,4.9,2.5,4.9,6.3c0,3.7-1.8,6.3-4.9,6.3C17,273,15.2,270.5,15.2,266.7z
			 M22.3,266.7c0-2.3-0.7-3.6-2.1-3.6c-1.4,0-2.1,1.3-2.1,3.6c0,2.3,0.7,3.6,2.1,3.6C21.6,270.3,22.3,269.1,22.3,266.7z"/>
		<path d="M25.6,270.8l4-4.2c0.7-0.7,1.2-1.4,1.2-2.1c0-0.8-0.5-1.3-1.3-1.3c-0.8,0-1.4,0.6-1.8,1.3l-2.3-1.4
			c0.8-1.8,2.4-2.6,4.1-2.6c2.1,0,4.1,1.4,4.1,3.8c0,1.4-0.8,2.7-1.9,3.8l-2,2h4v2.6h-8.2V270.8z"/>
	</g>
</g>
<g>
	<path id="XMLID_388_" class="st3" d="M241.9,2.5l-30,87.8l-0.7,2.3h2h45.7l-86.1,115.9l30-87.2l0.7-1.7h-2h-45.7L241.9,2.5
		 M246.2-5.7L153,120.6h48.6l-33,96.3l93.3-126.3h-48.6L246.2-5.7L246.2-5.7z"/>
	<g>
		<path d="M191.6,244.2c0,2.3-1.8,4.1-4.2,4.1h-1.8v3.8h-2.8v-12h4.6C189.8,240.1,191.6,241.9,191.6,244.2z M188.9,244.2
			c0-0.9-0.6-1.5-1.5-1.5h-1.8v3.1h1.8C188.3,245.8,188.9,245.1,188.9,244.2z"/>
		<path d="M197.9,243.4v2.9c-1.1-0.2-2.6,0.3-2.6,2v3.9h-2.6v-8.6h2.6v1.5C195.7,243.9,196.8,243.4,197.9,243.4z"/>
		<path d="M198.4,247.8c0-2.6,2-4.5,4.6-4.5c2.5,0,4.6,2,4.6,4.5c0,2.6-2,4.5-4.6,4.5C200.5,252.4,198.4,250.4,198.4,247.8z
			 M205,247.8c0-1.2-0.9-2-2-2c-1.1,0-2,0.8-2,2c0,1.2,0.9,2,2,2C204.1,249.9,205,249.1,205,247.8z"/>
		<path d="M221.9,246.9v5.3h-2.6v-5.1c0-0.9-0.4-1.4-1.2-1.4c-0.9,0-1.3,0.6-1.3,1.6v4.8h-2.6v-5.1c0-0.9-0.4-1.4-1.2-1.4
			c-0.9,0-1.3,0.6-1.3,1.6v4.8H209v-8.6h2.6v0.8c0.4-0.6,1.2-1,2.3-1c1,0,1.8,0.4,2.3,1.1c0.5-0.7,1.3-1.1,2.5-1.1
			C220.6,243.3,221.9,244.7,221.9,246.9z"/>
		<path d="M223.2,247.8c0-2.6,2-4.5,4.6-4.5s4.6,2,4.6,4.5c0,2.6-2,4.5-4.6,4.5S223.2,250.4,223.2,247.8z M229.8,247.8
			c0-1.2-0.9-2-2-2c-1.1,0-2,0.8-2,2c0,1.2,0.9,2,2,2C228.9,249.9,229.8,249.1,229.8,247.8z"/>
		<path d="M187.5,270.8l4-4.2c0.7-0.7,1.2-1.4,1.2-2.1c0-0.8-0.5-1.3-1.3-1.3c-0.8,0-1.4,0.6-1.8,1.3l-2.3-1.4
			c0.8-1.8,2.4-2.6,4.1-2.6c2.1,0,4.1,1.4,4.1,3.8c0,1.4-0.8,2.7-1.9,3.8l-2,2h4v2.6h-8.2V270.8z"/>
		<path d="M196.6,266.7c0-3.7,1.8-6.3,4.9-6.3c3.1,0,4.9,2.5,4.9,6.3c0,3.7-1.8,6.3-4.9,6.3C198.4,273,196.6,270.5,196.6,266.7z
			 M203.7,266.7c0-2.3-0.7-3.6-2.1-3.6c-1.4,0-2.1,1.3-2.1,3.6c0,2.3,0.7,3.6,2.1,3.6C202.9,270.3,203.7,269.1,203.7,266.7z"/>
		<path d="M207.4,266.7c0-3.7,1.8-6.3,4.9-6.3s4.9,2.5,4.9,6.3c0,3.7-1.8,6.3-4.9,6.3S207.4,270.5,207.4,266.7z M214.5,266.7
			c0-2.3-0.7-3.6-2.1-3.6c-1.4,0-2.1,1.3-2.1,3.6c0,2.3,0.7,3.6,2.1,3.6C213.8,270.3,214.5,269.1,214.5,266.7z"/>
		<path d="M227.1,269.4c0,2.2-1.6,3.6-4.4,3.6c-2.8,0-4.4-1.4-4.4-3.6c0-1.2,0.5-2.2,1.6-2.9c-0.7-0.6-1.2-1.3-1.2-2.4
			c0-2.3,1.8-3.6,4-3.6c2.2,0,4,1.2,4,3.6c0,1.1-0.4,1.9-1.2,2.4C226.6,267.1,227.1,268.2,227.1,269.4z M224.4,269
			c0-0.9-0.7-1.4-1.7-1.4c-1,0-1.7,0.5-1.7,1.4c0,0.9,0.7,1.4,1.7,1.4C223.7,270.4,224.4,269.9,224.4,269z M221.4,264.2
			c0,0.7,0.5,1.2,1.3,1.2s1.3-0.5,1.3-1.2c0-0.7-0.5-1.2-1.3-1.2S221.4,263.6,221.4,264.2z"/>
	</g>
</g>
<g>
	<path id="XMLID_383_" class="st4" d="M49.1,311.6l-30,87.8l-0.7,2.3h2h45.7l-86.1,116l30-87.3l0.7-1.7h-2h-45.7L49.1,311.6
		 M53.5,303.3l-93.3,126.3H8.8l-33,96.3L69,399.6H20.5L53.5,303.3L53.5,303.3z"/>
	<g>
		<path d="M-1.1,553.3c0,2.3-1.8,4.1-4.2,4.1h-1.8v3.8h-2.8v-12h4.6C-2.9,549.1-1.1,551-1.1,553.3z M-3.8,553.3
			c0-0.9-0.6-1.5-1.5-1.5h-1.8v3.1h1.8C-4.4,554.8-3.8,554.1-3.8,553.3z"/>
		<path d="M5.2,552.4v2.9c-1.1-0.2-2.6,0.3-2.6,2v3.9H0v-8.6h2.6v1.5C3,553,4.1,552.4,5.2,552.4z"/>
		<path d="M5.7,556.9c0-2.6,2-4.5,4.6-4.5s4.6,2,4.6,4.5c0,2.6-2,4.5-4.6,4.5S5.7,559.4,5.7,556.9z M12.2,556.9c0-1.2-0.9-2-2-2
			c-1.1,0-2,0.8-2,2c0,1.2,0.9,2,2,2C11.4,558.9,12.2,558.1,12.2,556.9z"/>
		<path d="M29.2,555.9v5.3h-2.6v-5.1c0-0.9-0.4-1.4-1.2-1.4c-0.9,0-1.3,0.6-1.3,1.6v4.8h-2.6v-5.1c0-0.9-0.4-1.4-1.2-1.4
			c-0.9,0-1.3,0.6-1.3,1.6v4.8h-2.6v-8.6h2.6v0.8c0.4-0.6,1.2-1,2.3-1c1,0,1.8,0.4,2.3,1.1c0.5-0.7,1.3-1.1,2.5-1.1
			C27.9,552.3,29.2,553.7,29.2,555.9z"/>
		<path d="M30.5,556.9c0-2.6,2-4.5,4.6-4.5s4.6,2,4.6,4.5c0,2.6-2,4.5-4.6,4.5S30.5,559.4,30.5,556.9z M37.1,556.9c0-1.2-0.9-2-2-2
			c-1.1,0-2,0.8-2,2c0,1.2,0.9,2,2,2C36.2,558.9,37.1,558.1,37.1,556.9z"/>
		<path d="M-1.7,579.8l4-4.2c0.7-0.7,1.2-1.4,1.2-2.1c0-0.8-0.5-1.3-1.3-1.3c-0.8,0-1.4,0.6-1.8,1.3l-2.3-1.4
			c0.8-1.8,2.4-2.6,4.1-2.6c2.1,0,4.1,1.4,4.1,3.8c0,1.4-0.8,2.7-1.9,3.8l-2,2h4v2.6h-8.2V579.8z"/>
		<path d="M7.5,575.8c0-3.7,1.8-6.3,4.9-6.3s4.9,2.5,4.9,6.3s-1.8,6.3-4.9,6.3S7.5,579.5,7.5,575.8z M14.5,575.8
			c0-2.3-0.7-3.6-2.1-3.6c-1.4,0-2.1,1.3-2.1,3.6s0.7,3.6,2.1,3.6C13.8,579.4,14.5,578.1,14.5,575.8z"/>
		<path d="M23.2,569.8v12h-2.8v-9.1l-2.1,0.6l-0.7-2.4l3.1-1.1H23.2z"/>
		<path d="M30.1,569.8v12h-2.8v-9.1l-2.1,0.6l-0.7-2.4l3.1-1.1H30.1z"/>
	</g>
</g>
<g>
	<path id="XMLID_354_" class="st5" d="M241.9,311.6l-30,87.8l-0.7,2.3h2h45.7l-86.1,116l30-87.3l0.7-1.7h-2h-45.7L241.9,311.6
		 M246.2,303.3L153,429.6h48.6l-33,96.3l93.3-126.3h-48.6L246.2,303.3L246.2,303.3z"/>
	<g>
		<path d="M191.6,553.3c0,2.3-1.8,4.1-4.2,4.1h-1.8v3.8h-2.8v-12h4.6C189.8,549.1,191.6,551,191.6,553.3z M188.9,553.3
			c0-0.9-0.6-1.5-1.5-1.5h-1.8v3.1h1.8C188.3,554.8,188.9,554.1,188.9,553.3z"/>
		<path d="M197.9,552.4v2.9c-1.1-0.2-2.6,0.3-2.6,2v3.9h-2.6v-8.6h2.6v1.5C195.7,553,196.8,552.4,197.9,552.4z"/>
		<path d="M198.4,556.9c0-2.6,2-4.5,4.6-4.5c2.5,0,4.6,2,4.6,4.5c0,2.6-2,4.5-4.6,4.5C200.5,561.4,198.4,559.4,198.4,556.9z
			 M205,556.9c0-1.2-0.9-2-2-2c-1.1,0-2,0.8-2,2c0,1.2,0.9,2,2,2C204.1,558.9,205,558.1,205,556.9z"/>
		<path d="M221.9,555.9v5.3h-2.6v-5.1c0-0.9-0.4-1.4-1.2-1.4c-0.9,0-1.3,0.6-1.3,1.6v4.8h-2.6v-5.1c0-0.9-0.4-1.4-1.2-1.4
			c-0.9,0-1.3,0.6-1.3,1.6v4.8H209v-8.6h2.6v0.8c0.4-0.6,1.2-1,2.3-1c1,0,1.8,0.4,2.3,1.1c0.5-0.7,1.3-1.1,2.5-1.1
			C220.6,552.3,221.9,553.7,221.9,555.9z"/>
		<path d="M223.2,556.9c0-2.6,2-4.5,4.6-4.5c2.5,0,4.6,2,4.6,4.5c0,2.6-2,4.5-4.6,4.5C225.3,561.4,223.2,559.4,223.2,556.9z
			 M229.8,556.9c0-1.2-0.9-2-2-2c-1.1,0-2,0.8-2,2c0,1.2,0.9,2,2,2C228.9,558.9,229.8,558.1,229.8,556.9z"/>
		<path d="M189.8,579.8l4-4.2c0.7-0.7,1.2-1.4,1.2-2.1c0-0.8-0.5-1.3-1.3-1.3c-0.8,0-1.4,0.6-1.8,1.3l-2.3-1.4
			c0.8-1.8,2.4-2.6,4.1-2.6c2.1,0,4.1,1.4,4.1,3.8c0,1.4-0.8,2.7-1.9,3.8l-2,2h4v2.6h-8.2V579.8z"/>
		<path d="M198.9,575.8c0-3.7,1.8-6.3,4.9-6.3c3.1,0,4.9,2.5,4.9,6.3s-1.8,6.3-4.9,6.3C200.7,582.1,198.9,579.5,198.9,575.8z
			 M206,575.8c0-2.3-0.7-3.6-2.1-3.6c-1.4,0-2.1,1.3-2.1,3.6s0.7,3.6,2.1,3.6C205.3,579.4,206,578.1,206,575.8z"/>
		<path d="M214.6,569.8v12h-2.8v-9.1l-2.1,0.6l-0.7-2.4l3.1-1.1H214.6z"/>
		<path d="M224.8,578c0,2.6-2.1,4-4.4,4c-1.8,0-3.5-0.8-4.2-2.6l2.4-1.4c0.3,0.8,0.8,1.3,1.8,1.3c1.1,0,1.6-0.6,1.6-1.3
			s-0.5-1.3-1.6-1.3h-0.6l-1-1.6l2.2-2.8h-4.4v-2.6h7.7v2.2l-2.1,2.6C223.7,575.2,224.8,576.4,224.8,578z"/>
	</g>
</g>
</svg>
