<?xml version="1.0" encoding="iso-8859-1"?>
<!-- Generator: Adobe Illustrator 15.0.0, SVG Export Plug-In . SVG Version: 6.00 Build 0)  -->
<!DOCTYPE svg PUBLIC "-//W3C//DTD SVG 1.1//EN" "http://www.w3.org/Graphics/SVG/1.1/DTD/svg11.dtd">
<svg version="1.1" id="Layer_1" xmlns="http://www.w3.org/2000/svg" xmlns:xlink="http://www.w3.org/1999/xlink" x="0px" y="0px"
	 width="320px" height="919px" viewBox="0 0 320 919" style="enable-background:new 0 0 320 919;" xml:space="preserve">
<polygon style="fill:#DC3927;" points="119.183,101.76 70.242,101.76 103.519,4.734 9.5,132.091 58.441,132.091 25.164,229.118 "/>
<polygon style="fill:none;stroke:#DC3927;stroke-miterlimit:10;" points="119.183,102.121 70.242,102.121 103.519,5.095 
	9.5,132.452 58.441,132.452 25.164,229.479 "/>
<g>
	<path d="M48.501,257.662c0,2.306-1.854,4.16-4.247,4.16h-1.82v3.813h-2.773v-12.134h4.593
		C46.646,253.502,48.501,255.356,48.501,257.662z M45.728,257.662c0-0.884-0.624-1.561-1.474-1.561h-1.82v3.121h1.82
		C45.104,259.223,45.728,258.546,45.728,257.662z"/>
	<path d="M54.827,256.795v2.947c-1.075-0.174-2.601,0.26-2.601,1.977v3.917h-2.6v-8.667h2.6v1.543
		C52.573,257.35,53.735,256.795,54.827,256.795z"/>
	<path d="M55.363,261.303c0-2.583,2.045-4.576,4.594-4.576c2.548,0,4.593,1.993,4.593,4.576c0,2.582-2.045,4.576-4.593,4.576
		C57.409,265.879,55.363,263.885,55.363,261.303z M61.95,261.303c0-1.231-0.867-2.046-1.993-2.046c-1.127,0-1.994,0.814-1.994,2.046
		c0,1.23,0.867,2.045,1.994,2.045C61.083,263.348,61.95,262.533,61.95,261.303z"/>
	<path d="M79.023,260.314v5.321h-2.601v-5.097c0-0.866-0.416-1.421-1.248-1.421c-0.866,0-1.352,0.606-1.352,1.63v4.888h-2.601
		v-5.097c0-0.866-0.416-1.421-1.248-1.421c-0.866,0-1.352,0.606-1.352,1.63v4.888h-2.601v-8.667h2.601v0.797
		c0.398-0.589,1.161-1.039,2.322-1.039c1.023,0,1.786,0.416,2.271,1.144c0.485-0.693,1.283-1.144,2.513-1.144
		C77.723,256.727,79.023,258.147,79.023,260.314z"/>
	<path d="M80.374,261.303c0-2.583,2.045-4.576,4.593-4.576c2.548,0,4.594,1.993,4.594,4.576c0,2.582-2.045,4.576-4.594,4.576
		C82.419,265.879,80.374,263.885,80.374,261.303z M86.96,261.303c0-1.231-0.867-2.046-1.994-2.046c-1.126,0-1.993,0.814-1.993,2.046
		c0,1.23,0.867,2.045,1.993,2.045C86.094,263.348,86.96,262.533,86.96,261.303z"/>
</g>
<g>
	<path d="M52.99,274.301v12.134h-2.773v-9.204l-2.149,0.589l-0.676-2.374l3.172-1.145H52.99z"/>
	<path d="M62.853,280.801l-3.71,5.634h-3.189l2.635-3.831c-2.409-0.19-4.039-1.906-4.039-4.264c0-2.514,1.837-4.281,4.507-4.281
		c2.687,0,4.507,1.768,4.507,4.281C63.563,279.275,63.303,280.125,62.853,280.801z M59.056,280.021c0.936,0,1.733-0.607,1.733-1.682
		c0-1.075-0.797-1.682-1.733-1.682c-0.918,0-1.733,0.624-1.733,1.682C57.323,279.396,58.138,280.021,59.056,280.021z"/>
	<path d="M71.882,274.301v2.322l-3.952,9.812h-2.947l3.813-9.464h-4.888v-2.67H71.882z"/>
	<path d="M72.609,284.424l4.074-4.229c0.71-0.728,1.23-1.438,1.23-2.149c0-0.763-0.485-1.283-1.3-1.283
		c-0.85,0-1.456,0.555-1.786,1.318l-2.34-1.37c0.78-1.803,2.41-2.651,4.091-2.651c2.167,0,4.108,1.421,4.108,3.865
		c0,1.456-0.78,2.704-1.89,3.813l-2.011,2.028h4.074v2.669h-8.251V284.424z"/>
</g>
<polygon style="fill:#FF9300;" points="309.5,101.76 260.559,101.76 293.836,4.734 199.817,132.091 248.758,132.091 
	215.481,229.118 "/>
<polygon style="fill:#FF9300;" points="309.5,101.76 260.559,101.76 293.836,4.734 199.817,132.091 248.758,132.091 
	215.481,229.118 "/>
<g>
	<path d="M238.818,257.662c0,2.306-1.855,4.16-4.247,4.16h-1.82v3.813h-2.773v-12.134h4.594
		C236.963,253.502,238.818,255.356,238.818,257.662z M236.045,257.662c0-0.884-0.625-1.561-1.474-1.561h-1.82v3.121h1.82
		C235.42,259.223,236.045,258.546,236.045,257.662z"/>
	<path d="M245.161,256.795v2.947c-1.074-0.174-2.6,0.26-2.6,1.977v3.917h-2.601v-8.667h2.601v1.543
		C242.908,257.35,244.069,256.795,245.161,256.795z"/>
	<path d="M245.68,261.303c0-2.583,2.046-4.576,4.594-4.576c2.549,0,4.594,1.993,4.594,4.576c0,2.582-2.045,4.576-4.594,4.576
		C247.726,265.879,245.68,263.885,245.68,261.303z M252.268,261.303c0-1.231-0.867-2.046-1.994-2.046s-1.993,0.814-1.993,2.046
		c0,1.23,0.866,2.045,1.993,2.045S252.268,262.533,252.268,261.303z"/>
	<path d="M269.34,260.314v5.321h-2.601v-5.097c0-0.866-0.416-1.421-1.248-1.421c-0.866,0-1.352,0.606-1.352,1.63v4.888h-2.601
		v-5.097c0-0.866-0.416-1.421-1.248-1.421c-0.866,0-1.352,0.606-1.352,1.63v4.888h-2.601v-8.667h2.601v0.797
		c0.398-0.589,1.161-1.039,2.322-1.039c1.023,0,1.785,0.416,2.271,1.144c0.484-0.693,1.282-1.144,2.513-1.144
		C268.039,256.727,269.34,258.147,269.34,260.314z"/>
	<path d="M270.689,261.303c0-2.583,2.046-4.576,4.594-4.576c2.549,0,4.594,1.993,4.594,4.576c0,2.582-2.045,4.576-4.594,4.576
		C272.735,265.879,270.689,263.885,270.689,261.303z M277.277,261.303c0-1.231-0.867-2.046-1.994-2.046s-1.993,0.814-1.993,2.046
		c0,1.23,0.866,2.045,1.993,2.045S277.277,262.533,277.277,261.303z"/>
</g>
<g>
	<path d="M243.792,274.301v12.134h-2.773v-9.204l-2.149,0.589l-0.676-2.374l3.172-1.145H243.792z"/>
	<path d="M253.653,280.801l-3.709,5.634h-3.189l2.635-3.831c-2.409-0.19-4.039-1.906-4.039-4.264c0-2.514,1.837-4.281,4.507-4.281
		c2.687,0,4.507,1.768,4.507,4.281C254.364,279.275,254.104,280.125,253.653,280.801z M249.857,280.021
		c0.936,0,1.733-0.607,1.733-1.682c0-1.075-0.798-1.682-1.733-1.682c-0.919,0-1.733,0.624-1.733,1.682
		C248.124,279.396,248.938,280.021,249.857,280.021z"/>
	<path d="M264.14,283.02c0,2.219-1.595,3.658-4.455,3.658s-4.454-1.439-4.454-3.658c0-1.195,0.555-2.253,1.577-2.912
		c-0.711-0.555-1.161-1.352-1.161-2.443c0-2.357,1.803-3.605,4.038-3.605c2.236,0,4.039,1.248,4.039,3.605
		c0,1.092-0.45,1.889-1.161,2.443C263.585,280.767,264.14,281.824,264.14,283.02z M261.366,282.621c0-0.919-0.711-1.456-1.682-1.456
		s-1.681,0.537-1.681,1.456s0.71,1.456,1.681,1.456S261.366,283.54,261.366,282.621z M258.42,277.837
		c0,0.676,0.484,1.179,1.265,1.179s1.266-0.503,1.266-1.179s-0.485-1.179-1.266-1.179S258.42,277.161,258.42,277.837z"/>
	<path d="M270.102,274.301v12.134h-2.773v-9.204l-2.149,0.589l-0.677-2.374l3.173-1.145H270.102z"/>
</g>
<polygon style="fill:#0072BF;" points="119.683,399.291 70.741,399.291 104.019,302.266 10,429.623 58.941,429.623 25.664,526.648 
	"/>
<polygon style="fill:#0072BF;" points="119.683,399.291 70.741,399.291 104.019,302.266 10,429.623 58.941,429.623 25.664,526.648 
	"/>
<g>
	<path d="M49,555.194c0,2.306-1.855,4.16-4.247,4.16h-1.82v3.813H40.16v-12.134h4.594C47.146,551.034,49,552.889,49,555.194z
		 M46.227,555.194c0-0.884-0.624-1.56-1.473-1.56h-1.82v3.119h1.82C45.603,556.754,46.227,556.078,46.227,555.194z"/>
	<path d="M55.344,554.328v2.946c-1.075-0.173-2.601,0.26-2.601,1.976v3.918h-2.6v-8.667h2.6v1.543
		C53.09,554.883,54.251,554.328,55.344,554.328z"/>
	<path d="M55.88,558.834c0-2.582,2.045-4.576,4.593-4.576c2.548,0,4.594,1.994,4.594,4.576c0,2.583-2.045,4.576-4.594,4.576
		C57.926,563.41,55.88,561.417,55.88,558.834z M62.467,558.834c0-1.23-0.867-2.045-1.994-2.045c-1.126,0-1.993,0.814-1.993,2.045
		c0,1.231,0.867,2.046,1.993,2.046C61.601,560.88,62.467,560.065,62.467,558.834z"/>
	<path d="M79.54,557.847v5.321h-2.601v-5.096c0-0.867-0.416-1.422-1.248-1.422c-0.866,0-1.352,0.606-1.352,1.629v4.889h-2.601
		v-5.096c0-0.867-0.416-1.422-1.248-1.422c-0.866,0-1.352,0.606-1.352,1.629v4.889h-2.601v-8.667h2.601v0.798
		c0.398-0.59,1.161-1.041,2.322-1.041c1.023,0,1.786,0.416,2.271,1.145c0.485-0.693,1.283-1.145,2.513-1.145
		C78.24,554.258,79.54,555.68,79.54,557.847z"/>
	<path d="M80.89,558.834c0-2.582,2.045-4.576,4.593-4.576c2.548,0,4.594,1.994,4.594,4.576c0,2.583-2.045,4.576-4.594,4.576
		C82.936,563.41,80.89,561.417,80.89,558.834z M87.477,558.834c0-1.23-0.867-2.045-1.994-2.045c-1.126,0-1.993,0.814-1.993,2.045
		c0,1.231,0.867,2.046,1.993,2.046C86.61,560.88,87.477,560.065,87.477,558.834z"/>
</g>
<g>
	<path d="M52.346,571.833v12.134h-2.773v-9.204l-2.149,0.589l-0.676-2.375l3.172-1.144H52.346z"/>
	<path d="M62.208,578.333l-3.71,5.634h-3.189l2.635-3.831c-2.409-0.19-4.039-1.906-4.039-4.264c0-2.514,1.837-4.282,4.507-4.282
		c2.687,0,4.507,1.769,4.507,4.282C62.918,576.808,62.658,577.657,62.208,578.333z M58.412,577.553c0.936,0,1.733-0.606,1.733-1.681
		c0-1.075-0.797-1.682-1.733-1.682c-0.918,0-1.733,0.624-1.733,1.682S57.493,577.553,58.412,577.553z"/>
	<path d="M72.694,580.552c0,2.219-1.595,3.657-4.455,3.657c-2.86,0-4.455-1.438-4.455-3.657c0-1.196,0.555-2.253,1.577-2.912
		c-0.71-0.555-1.161-1.352-1.161-2.444c0-2.357,1.803-3.605,4.039-3.605c2.236,0,4.039,1.248,4.039,3.605
		c0,1.093-0.451,1.89-1.162,2.444C72.139,578.299,72.694,579.355,72.694,580.552z M69.92,580.153c0-0.919-0.71-1.456-1.681-1.456
		s-1.682,0.537-1.682,1.456s0.711,1.456,1.682,1.456S69.92,581.072,69.92,580.153z M66.974,575.369c0,0.676,0.485,1.179,1.266,1.179
		c0.78,0,1.265-0.503,1.265-1.179s-0.485-1.179-1.265-1.179C67.459,574.19,66.974,574.693,66.974,575.369z"/>
	<path d="M82.746,579.928c0,2.514-1.837,4.281-4.507,4.281c-2.687,0-4.507-1.768-4.507-4.281c0-0.936,0.26-1.785,0.711-2.461
		l3.709-5.634h3.189l-2.635,3.831C81.117,575.854,82.746,577.57,82.746,579.928z M79.973,579.928c0-1.057-0.814-1.682-1.733-1.682
		c-0.936,0-1.733,0.607-1.733,1.682c0,1.075,0.797,1.682,1.733,1.682C79.158,581.609,79.973,580.985,79.973,579.928z"/>
</g>
<polygon style="fill:#6BC62A;" points="310,399.291 261.059,399.291 294.336,302.266 200.316,429.623 249.259,429.623 
	215.98,526.648 "/>
<polygon style="fill:#6BC62A;" points="310,399.291 261.059,399.291 294.336,302.266 200.316,429.623 249.259,429.623 
	215.98,526.648 "/>
<g>
	<path d="M239.318,555.194c0,2.306-1.855,4.16-4.247,4.16h-1.82v3.813h-2.773v-12.134h4.594
		C237.463,551.034,239.318,552.889,239.318,555.194z M236.545,555.194c0-0.884-0.625-1.56-1.474-1.56h-1.82v3.119h1.82
		C235.92,556.754,236.545,556.078,236.545,555.194z"/>
	<path d="M245.661,554.328v2.946c-1.074-0.173-2.6,0.26-2.6,1.976v3.918h-2.601v-8.667h2.601v1.543
		C243.408,554.883,244.569,554.328,245.661,554.328z"/>
	<path d="M246.197,558.834c0-2.582,2.046-4.576,4.594-4.576c2.549,0,4.594,1.994,4.594,4.576c0,2.583-2.045,4.576-4.594,4.576
		C248.243,563.41,246.197,561.417,246.197,558.834z M252.785,558.834c0-1.23-0.867-2.045-1.994-2.045s-1.993,0.814-1.993,2.045
		c0,1.231,0.866,2.046,1.993,2.046S252.785,560.065,252.785,558.834z"/>
	<path d="M269.857,557.847v5.321h-2.601v-5.096c0-0.867-0.416-1.422-1.248-1.422c-0.866,0-1.352,0.606-1.352,1.629v4.889h-2.601
		v-5.096c0-0.867-0.416-1.422-1.248-1.422c-0.866,0-1.352,0.606-1.352,1.629v4.889h-2.601v-8.667h2.601v0.798
		c0.398-0.59,1.161-1.041,2.322-1.041c1.023,0,1.785,0.416,2.271,1.145c0.484-0.693,1.282-1.145,2.513-1.145
		C268.557,554.258,269.857,555.68,269.857,557.847z"/>
	<path d="M271.207,558.834c0-2.582,2.046-4.576,4.594-4.576c2.549,0,4.594,1.994,4.594,4.576c0,2.583-2.045,4.576-4.594,4.576
		C273.253,563.41,271.207,561.417,271.207,558.834z M277.795,558.834c0-1.23-0.867-2.045-1.994-2.045s-1.993,0.814-1.993,2.045
		c0,1.231,0.866,2.046,1.993,2.046S277.795,560.065,277.795,558.834z"/>
</g>
<g>
	<path d="M243.911,571.833v12.134h-2.773v-9.204l-2.149,0.589l-0.676-2.375l3.172-1.144H243.911z"/>
	<path d="M253.772,578.333l-3.709,5.634h-3.189l2.635-3.831c-2.409-0.19-4.039-1.906-4.039-4.264c0-2.514,1.837-4.282,4.507-4.282
		c2.687,0,4.507,1.769,4.507,4.282C254.483,576.808,254.224,577.657,253.772,578.333z M249.977,577.553
		c0.936,0,1.733-0.606,1.733-1.681c0-1.075-0.798-1.682-1.733-1.682c-0.919,0-1.733,0.624-1.733,1.682
		S249.058,577.553,249.977,577.553z"/>
	<path d="M262.82,571.833v2.323l-3.951,9.811h-2.947l3.813-9.465h-4.888v-2.669H262.82z"/>
	<path d="M271.764,580.153c0,2.669-2.08,4.056-4.42,4.056c-1.925,0-3.589-0.814-4.334-2.6l2.393-1.387
		c0.277,0.797,0.797,1.283,1.941,1.283c1.144,0,1.646-0.607,1.646-1.353s-0.503-1.353-1.561-1.353h-3.796l0.503-6.968h7.02v2.601
		h-4.42l-0.121,1.664h0.988C269.856,576.098,271.764,577.484,271.764,580.153z"/>
</g>
<polygon style="fill:#AB2292;" points="211.769,721.427 162.827,721.427 196.104,624.4 102.085,751.758 151.026,751.758 
	117.749,848.783 "/>
<polygon style="fill:#AB2292;" points="211.769,721.427 162.827,721.427 196.104,624.4 102.085,751.758 151.026,751.758 
	117.749,848.783 "/>
<g>
	<path d="M141.087,877.33c0,2.306-1.855,4.16-4.247,4.16h-1.82v3.813h-2.773V873.17h4.594
		C139.231,873.17,141.087,875.024,141.087,877.33z M138.313,877.33c0-0.884-0.625-1.561-1.474-1.561h-1.82v3.121h1.82
		C137.688,878.891,138.313,878.214,138.313,877.33z"/>
	<path d="M147.43,876.463v2.947c-1.074-0.174-2.6,0.26-2.6,1.977v3.917h-2.601v-8.667h2.601v1.543
		C145.177,877.018,146.338,876.463,147.43,876.463z"/>
	<path d="M147.966,880.971c0-2.583,2.046-4.576,4.594-4.576c2.549,0,4.594,1.993,4.594,4.576c0,2.582-2.045,4.576-4.594,4.576
		C150.012,885.547,147.966,883.553,147.966,880.971z M154.554,880.971c0-1.231-0.867-2.046-1.994-2.046s-1.993,0.814-1.993,2.046
		c0,1.23,0.866,2.045,1.993,2.045S154.554,882.201,154.554,880.971z"/>
	<path d="M171.626,879.982v5.321h-2.601v-5.097c0-0.866-0.416-1.421-1.248-1.421c-0.866,0-1.352,0.606-1.352,1.63v4.888h-2.601
		v-5.097c0-0.866-0.416-1.421-1.248-1.421c-0.866,0-1.352,0.606-1.352,1.63v4.888h-2.601v-8.667h2.601v0.797
		c0.398-0.589,1.161-1.039,2.322-1.039c1.023,0,1.785,0.416,2.271,1.144c0.484-0.693,1.282-1.144,2.513-1.144
		C170.325,876.395,171.626,877.815,171.626,879.982z"/>
	<path d="M172.976,880.971c0-2.583,2.046-4.576,4.594-4.576c2.549,0,4.594,1.993,4.594,4.576c0,2.582-2.045,4.576-4.594,4.576
		C175.021,885.547,172.976,883.553,172.976,880.971z M179.563,880.971c0-1.231-0.867-2.046-1.994-2.046s-1.993,0.814-1.993,2.046
		c0,1.23,0.866,2.045,1.993,2.045S179.563,882.201,179.563,880.971z"/>
</g>
<g>
	<path d="M145.35,893.969v12.134h-2.773v-9.204l-2.149,0.589l-0.676-2.374l3.172-1.145H145.35z"/>
	<path d="M155.211,900.469l-3.709,5.634h-3.189l2.635-3.831c-2.409-0.19-4.039-1.906-4.039-4.264c0-2.514,1.837-4.281,4.507-4.281
		c2.687,0,4.507,1.768,4.507,4.281C155.922,898.943,155.662,899.793,155.211,900.469z M151.415,899.689
		c0.936,0,1.733-0.607,1.733-1.682c0-1.075-0.798-1.682-1.733-1.682c-0.919,0-1.733,0.624-1.733,1.682
		C149.682,899.064,150.496,899.689,151.415,899.689z"/>
	<path d="M164.259,893.969v2.322l-3.951,9.812h-2.947l3.813-9.464h-4.888v-2.67H164.259z"/>
	<path d="M173.254,900.469l-3.709,5.634h-3.189l2.635-3.831c-2.409-0.19-4.039-1.906-4.039-4.264c0-2.514,1.837-4.281,4.507-4.281
		c2.687,0,4.507,1.768,4.507,4.281C173.965,898.943,173.705,899.793,173.254,900.469z M169.458,899.689
		c0.936,0,1.733-0.607,1.733-1.682c0-1.075-0.798-1.682-1.733-1.682c-0.919,0-1.733,0.624-1.733,1.682
		C167.725,899.064,168.539,899.689,169.458,899.689z"/>
</g>
</svg>
