<?xml version="1.0" encoding="utf-8"?>
<!-- Generator: Adobe Illustrator 20.1.0, SVG Export Plug-In . SVG Version: 6.00 Build 0)  -->
<svg version="1.1" id="Layer_1" xmlns="http://www.w3.org/2000/svg" xmlns:xlink="http://www.w3.org/1999/xlink" x="0px" y="0px"
	 viewBox="0 0 100 100" style="enable-background:new 0 0 100 100;" xml:space="preserve">
<style type="text/css">
	.st0{fill:#A5A5A4;}
</style>
<g>
	<path class="st0" d="M95,7.7v23.9c0,1.5-1.2,2.7-2.7,2.7s-2.7-1.2-2.7-2.7V14.3L60.1,43.8c-0.5,0.5-1.2,0.8-1.9,0.8
		s-1.4-0.3-1.9-0.8c-1.1-1.1-1.1-2.8,0-3.8l29.5-29.5H68.3c-1.5,0-2.7-1.2-2.7-2.7c0-1.5,1.2-2.7,2.7-2.7h23.9c0.3,0,0.6,0,0.8,0.1
		c0.1,0,0.2,0.1,0.2,0.1c0.3,0.1,0.6,0.3,0.9,0.6c0.1,0.1,0.1,0.1,0.2,0.2c0.1,0.1,0.2,0.3,0.3,0.5c0,0.1,0.1,0.2,0.1,0.2
		c0.1,0.2,0.2,0.5,0.2,0.7c0,0,0,0.1,0,0.1C95,7.6,95,7.6,95,7.7z"/>
</g>
<g>
	<path class="st0" d="M92.3,95H7.7C6.2,95,5,93.8,5,92.3V7.7C5,6.2,6.2,5,7.7,5h23.9c1.5,0,2.7,1.2,2.7,2.7s-1.2,2.7-2.7,2.7H10.4
		v79.1h79.1V68.4c0-1.5,1.2-2.7,2.7-2.7c1.5,0,2.7,1.2,2.7,2.7v23.9C95,93.8,93.8,95,92.3,95z"/>
</g>
</svg>
