<?xml version="1.0" encoding="utf-8"?>
<!-- Generator: Adobe Illustrator 20.1.0, SVG Export Plug-In . SVG Version: 6.00 Build 0)  -->
<svg version="1.1" id="Ebene_1" xmlns="http://www.w3.org/2000/svg" xmlns:xlink="http://www.w3.org/1999/xlink" x="0px" y="0px"
	 viewBox="0 0 485.6 1651" enable-background="new 0 0 485.6 1651" xml:space="preserve">
<g>
	<path fill="#E0E0E0" d="M20.3,28.5c0.4-0.7,0.8-1.4,1.3-2C21.1,27.1,20.7,27.8,20.3,28.5z"/>
	<path fill="#E0E0E0" d="M23.3,24.7c0.6-0.5,1.3-1,2.1-1.5C24.6,23.7,23.9,24.2,23.3,24.7z"/>
	<path fill="#E0E0E0" d="M19.2,98.6l443.3-0.1V49H19.2V98.6z M376.1,66.2c0-1.1,0.9-2,2-2h59.1c1.1,0,2,0.9,2,2v17c0,1.1-0.9,2-2,2
		h-59.1c-1.1,0-2-0.9-2-2V66.2z M45.3,65.5h25.1v3H45.3V65.5z M45.3,72.4h25.1v3H45.3V72.4z M45.3,79.4h25.1v3H45.3V79.4z"/>
	<path fill="#6A6964" d="M448.5,21.2H33.2c-2.9,0-5.6,0.7-7.8,2c-0.7,0.4-1.4,0.9-2.1,1.5c-0.6,0.5-1.2,1.1-1.7,1.8s-0.9,1.3-1.3,2
		c-0.7,1.4-1.1,3-1.1,4.6V49h443.3V33.1C462.5,26.5,456.2,21.2,448.5,21.2z M46.5,43.2c-4.1,0-7.5-3.4-7.5-7.5s3.4-7.5,7.5-7.5
		c4.1,0,7.5,3.4,7.5,7.5S50.6,43.2,46.5,43.2z M71.5,43.2c-4.1,0-7.5-3.4-7.5-7.5s3.4-7.5,7.5-7.5c4.1,0,7.5,3.4,7.5,7.5
		S75.6,43.2,71.5,43.2z M96.5,43.2c-4.1,0-7.5-3.4-7.5-7.5s3.4-7.5,7.5-7.5c4.1,0,7.5,3.4,7.5,7.5S100.6,43.2,96.5,43.2z"/>
	<circle fill="#E0E0E0" cx="46.5" cy="35.7" r="7.5"/>
	<circle fill="#E0E0E0" cx="71.5" cy="35.7" r="7.5"/>
	<circle fill="#E0E0E0" cx="96.5" cy="35.7" r="7.5"/>
	<rect x="45.3" y="65.5" fill="#6A6964" width="25.1" height="3"/>
	<rect x="45.3" y="72.4" fill="#6A6964" width="25.1" height="3"/>
	<rect x="45.3" y="79.4" fill="#6A6964" width="25.1" height="3"/>
	<path fill="#6A6964" d="M399.1,78.3c1.7,0,3.1-1.5,3.1-3.3c0-1.9-1.4-3.3-3.1-3.3c-1.7,0-3.2,1.4-3.2,3.3
		C395.9,76.8,397.4,78.3,399.1,78.3z"/>
	<path fill="#6A6964" d="M426.9,78.3c1.7,0,3.1-1.5,3.1-3.3c0-1.9-1.4-3.3-3.1-3.3s-3.2,1.4-3.2,3.3
		C423.7,76.8,425.1,78.3,426.9,78.3z"/>
	<path fill="#6A6964" d="M378.1,85.2h59.1c1.1,0,2-0.9,2-2v-17c0-1.1-0.9-2-2-2h-59.1c-1.1,0-2,0.9-2,2v17
		C376.1,84.3,377,85.2,378.1,85.2z M426.8,69.2c3.5,0,6.1,2.4,6.1,5.7c0,3.3-2.6,5.7-6.1,5.7c-3.5,0-6-2.5-6-5.7
		C420.8,71.6,423.4,69.2,426.8,69.2z M413.5,69.2c1.7,0,3.4,0.6,4.6,1.7l-1.6,1.9c-0.8-0.8-2-1.2-3-1.2c-1.8,0-3.2,1.4-3.2,3.3
		c0,1.9,1.4,3.3,3.3,3.3c0.6,0,1.3-0.2,2-0.5v-2.9h2.5v4.4c-1.2,0.8-3.1,1.5-4.7,1.5c-3.4,0-6-2.5-6-5.7
		C407.3,71.7,409.9,69.2,413.5,69.2z M399.1,69.2c3.5,0,6.1,2.4,6.1,5.7c0,3.3-2.6,5.7-6.1,5.7c-3.5,0-6.1-2.5-6.1-5.7
		C393,71.6,395.6,69.2,399.1,69.2z M383.2,69.3h2.8v8.8h4.8v2.4h-7.6V69.3z"/>
	<polygon fill="#FFFFFF" points="390.8,78.1 386,78.1 386,69.3 383.2,69.3 383.2,80.5 390.8,80.5 	"/>
	<path fill="#FFFFFF" d="M399.1,80.7c3.5,0,6.1-2.5,6.1-5.7c0-3.2-2.6-5.7-6.1-5.7c-3.5,0-6.1,2.4-6.1,5.7
		C393,78.2,395.6,80.7,399.1,80.7z M399.1,71.6c1.7,0,3.1,1.4,3.1,3.3c0,1.9-1.4,3.3-3.1,3.3c-1.7,0-3.2-1.5-3.2-3.3
		C395.9,73,397.4,71.6,399.1,71.6z"/>
	<path fill="#FFFFFF" d="M413.3,80.7c1.6,0,3.5-0.6,4.7-1.5v-4.4h-2.5v2.9c-0.7,0.3-1.4,0.5-2,0.5c-1.9,0-3.3-1.4-3.3-3.3
		c0-1.9,1.4-3.3,3.2-3.3c1,0,2.2,0.5,3,1.2l1.6-1.9c-1.2-1-2.9-1.7-4.6-1.7c-3.5,0-6.2,2.4-6.2,5.7
		C407.3,78.2,409.9,80.7,413.3,80.7z"/>
	<path fill="#FFFFFF" d="M426.8,80.7c3.5,0,6.1-2.5,6.1-5.7c0-3.2-2.6-5.7-6.1-5.7c-3.5,0-6,2.4-6,5.7
		C420.8,78.2,423.4,80.7,426.8,80.7z M426.9,71.6c1.7,0,3.1,1.4,3.1,3.3c0,1.9-1.4,3.3-3.1,3.3c-1.7,0-3.2-1.5-3.2-3.3
		C423.7,73,425.1,71.6,426.9,71.6z"/>
</g>
<g>
	<path fill="#E0E0E0" d="M449.9,146.8c1.9,0.2,3.7,0.6,5.2,1.4C453.6,147.5,451.8,147,449.9,146.8z"/>
	<path fill="#E0E0E0" d="M23.3,150.2c0.6-0.5,1.3-1,2.1-1.5C24.6,149.2,23.9,149.7,23.3,150.2z"/>
	<path fill="#E0E0E0" d="M455.2,148.2c0.8,0.4,1.5,0.8,2.2,1.3C456.7,149,456,148.6,455.2,148.2z"/>
	<path fill="#E0E0E0" d="M20.3,154c0.4-0.7,0.8-1.4,1.3-2C21.1,152.6,20.7,153.3,20.3,154z"/>
	<path fill="#E0E0E0" d="M19.2,224.1l443.3-0.1v-49.5H19.2V224.1z M207.1,191.7c0-1.1,0.9-2,2-2h59.1c1.1,0,2,0.9,2,2v17
		c0,1.1-0.9,2-2,2h-59.1c-1.1,0-2-0.9-2-2V191.7z M45.3,191h25.1v3H45.3V191z M45.3,198h25.1v3H45.3V198z M45.3,205h25.1v3H45.3V205
		z"/>
	<path fill="#E0E0E0" d="M460.1,152c-0.8-0.9-1.7-1.8-2.7-2.5C458.4,150.2,459.3,151.1,460.1,152z"/>
	<path fill="#6A6964" d="M460.1,152c-0.8-0.9-1.7-1.8-2.7-2.5c-0.7-0.5-1.4-0.9-2.2-1.3c-1.6-0.7-3.4-1.2-5.2-1.4
		c-0.5,0-0.9-0.1-1.4-0.1H33.2c-2.9,0-5.6,0.7-7.8,2c-0.7,0.4-1.4,0.9-2.1,1.5c-0.6,0.5-1.2,1.1-1.7,1.8s-0.9,1.3-1.3,2
		c-0.7,1.4-1.1,3-1.1,4.6v15.9h443.3v-15.9C462.5,156.2,461.6,153.9,460.1,152z M46.5,168.8c-4.1,0-7.5-3.4-7.5-7.5s3.4-7.5,7.5-7.5
		c4.1,0,7.5,3.4,7.5,7.5S50.6,168.8,46.5,168.8z M71.5,168.8c-4.1,0-7.5-3.4-7.5-7.5s3.4-7.5,7.5-7.5s7.5,3.4,7.5,7.5
		S75.6,168.8,71.5,168.8z M96.5,168.8c-4.1,0-7.5-3.4-7.5-7.5s3.4-7.5,7.5-7.5s7.5,3.4,7.5,7.5S100.6,168.8,96.5,168.8z"/>
	<circle fill="#E0E0E0" cx="46.5" cy="161.3" r="7.5"/>
	<circle fill="#E0E0E0" cx="71.5" cy="161.3" r="7.5"/>
	<circle fill="#E0E0E0" cx="96.5" cy="161.3" r="7.5"/>
	<rect x="45.3" y="191" fill="#6A6964" width="25.1" height="3"/>
	<rect x="45.3" y="198" fill="#6A6964" width="25.1" height="3"/>
	<rect x="45.3" y="205" fill="#6A6964" width="25.1" height="3"/>
	<path fill="#6A6964" d="M230.1,203.8c1.7,0,3.1-1.5,3.1-3.3c0-1.9-1.4-3.3-3.1-3.3c-1.7,0-3.2,1.4-3.2,3.3
		C226.9,202.4,228.4,203.8,230.1,203.8z"/>
	<path fill="#6A6964" d="M257.9,203.8c1.7,0,3.1-1.5,3.1-3.3c0-1.9-1.4-3.3-3.1-3.3c-1.7,0-3.2,1.4-3.2,3.3
		C254.7,202.4,256.1,203.8,257.9,203.8z"/>
	<path fill="#6A6964" d="M209.1,210.7h59.1c1.1,0,2-0.9,2-2v-17c0-1.1-0.9-2-2-2h-59.1c-1.1,0-2,0.9-2,2v17
		C207.1,209.8,208,210.7,209.1,210.7z M257.8,194.8c3.5,0,6.1,2.4,6.1,5.7c0,3.3-2.6,5.7-6.1,5.7c-3.5,0-6.1-2.5-6.1-5.7
		C251.8,197.2,254.4,194.8,257.8,194.8z M244.5,194.8c1.7,0,3.4,0.6,4.6,1.7l-1.6,1.9c-0.8-0.8-2-1.2-3-1.2c-1.8,0-3.2,1.4-3.2,3.3
		c0,1.9,1.4,3.3,3.3,3.3c0.6,0,1.3-0.2,2-0.5v-2.9h2.5v4.4c-1.2,0.8-3.1,1.5-4.7,1.5c-3.4,0-6-2.5-6-5.7
		C238.3,197.2,240.9,194.8,244.5,194.8z M230.1,194.8c3.5,0,6.1,2.4,6.1,5.7c0,3.3-2.6,5.7-6.1,5.7c-3.5,0-6.1-2.5-6.1-5.7
		C224,197.2,226.6,194.8,230.1,194.8z M214.2,194.9h2.8v8.8h4.8v2.4h-7.6V194.9z"/>
	<polygon fill="#FFFFFF" points="221.8,203.7 217,203.7 217,194.9 214.2,194.9 214.2,206.1 221.8,206.1 	"/>
	<path fill="#FFFFFF" d="M230.1,206.2c3.5,0,6.1-2.5,6.1-5.7c0-3.2-2.6-5.7-6.1-5.7c-3.5,0-6.1,2.4-6.1,5.7
		C224,203.7,226.6,206.2,230.1,206.2z M230.1,197.2c1.7,0,3.1,1.4,3.1,3.3c0,1.9-1.4,3.3-3.1,3.3c-1.7,0-3.2-1.5-3.2-3.3
		C226.9,198.6,228.4,197.2,230.1,197.2z"/>
	<path fill="#FFFFFF" d="M244.3,206.2c1.6,0,3.5-0.6,4.7-1.5v-4.4h-2.5v2.9c-0.7,0.3-1.4,0.5-2,0.5c-1.9,0-3.3-1.4-3.3-3.3
		c0-1.9,1.4-3.3,3.2-3.3c1,0,2.2,0.5,3,1.2l1.6-1.9c-1.2-1-2.9-1.7-4.6-1.7c-3.5,0-6.2,2.4-6.2,5.7
		C238.3,203.7,240.9,206.2,244.3,206.2z"/>
	<path fill="#FFFFFF" d="M257.8,206.2c3.5,0,6.1-2.5,6.1-5.7c0-3.2-2.6-5.7-6.1-5.7c-3.5,0-6.1,2.4-6.1,5.7
		C251.8,203.7,254.4,206.2,257.8,206.2z M257.9,197.2c1.7,0,3.1,1.4,3.1,3.3c0,1.9-1.4,3.3-3.1,3.3c-1.7,0-3.2-1.5-3.2-3.3
		C254.7,198.6,256.1,197.2,257.9,197.2z"/>
</g>
<g>
	<path fill="#E0E0E0" d="M20.3,279.6c0.4-0.7,0.8-1.4,1.3-2C21.1,278.2,20.7,278.9,20.3,279.6z"/>
	<path fill="#E0E0E0" d="M19.2,349.6l443.3,0.1v-49.6H19.2V349.6z M411.3,316.6h25.1v3h-25.1V316.6z M411.3,323.5h25.1v3h-25.1
		V323.5z M411.3,330.5h25.1v3h-25.1V330.5z M42.4,317.3c0-1.1,0.9-2,2-2h59.1c1.1,0,2,0.9,2,2v17c0,1.1-0.9,2-2,2H44.4
		c-1.1,0-2-0.9-2-2V317.3z"/>
	<path fill="#E0E0E0" d="M23.3,275.8c0.6-0.5,1.3-1,2.1-1.5C24.6,274.8,23.9,275.3,23.3,275.8z"/>
	<path fill="#6A6964" d="M448.5,272.3H33.2c-2.9,0-5.6,0.7-7.8,2c-0.7,0.4-1.4,0.9-2.1,1.5c-0.6,0.5-1.2,1.1-1.7,1.8s-0.9,1.3-1.3,2
		c-0.7,1.4-1.1,3-1.1,4.6v15.9h443.3v-15.9C462.5,277.6,456.2,272.3,448.5,272.3z M46.5,294.3c-4.1,0-7.5-3.4-7.5-7.5
		s3.4-7.5,7.5-7.5c4.1,0,7.5,3.4,7.5,7.5S50.6,294.3,46.5,294.3z M71.5,294.3c-4.1,0-7.5-3.4-7.5-7.5s3.4-7.5,7.5-7.5
		c4.1,0,7.5,3.4,7.5,7.5S75.6,294.3,71.5,294.3z M96.5,294.3c-4.1,0-7.5-3.4-7.5-7.5s3.4-7.5,7.5-7.5c4.1,0,7.5,3.4,7.5,7.5
		S100.6,294.3,96.5,294.3z"/>
	<circle fill="#E0E0E0" cx="46.5" cy="286.8" r="7.5"/>
	<circle fill="#E0E0E0" cx="71.5" cy="286.8" r="7.5"/>
	<circle fill="#E0E0E0" cx="96.5" cy="286.8" r="7.5"/>
	<rect x="411.3" y="316.6" fill="#6A6964" width="25.1" height="3"/>
	<rect x="411.3" y="323.5" fill="#6A6964" width="25.1" height="3"/>
	<rect x="411.3" y="330.5" fill="#6A6964" width="25.1" height="3"/>
	<path fill="#6A6964" d="M93.2,329.4c1.7,0,3.1-1.5,3.1-3.3c0-1.9-1.4-3.3-3.1-3.3c-1.7,0-3.2,1.4-3.2,3.3
		C90,327.9,91.4,329.4,93.2,329.4z"/>
	<path fill="#6A6964" d="M65.4,329.4c1.7,0,3.1-1.5,3.1-3.3c0-1.9-1.4-3.3-3.1-3.3c-1.7,0-3.2,1.4-3.2,3.3
		C62.2,327.9,63.7,329.4,65.4,329.4z"/>
	<path fill="#6A6964" d="M44.4,336.3h59.1c1.1,0,2-0.9,2-2v-17c0-1.1-0.9-2-2-2H44.4c-1.1,0-2,0.9-2,2v17
		C42.4,335.4,43.3,336.3,44.4,336.3z M93.1,320.3c3.5,0,6.1,2.4,6.1,5.7c0,3.3-2.6,5.7-6.1,5.7c-3.5,0-6.1-2.5-6.1-5.7
		C87.1,322.7,89.7,320.3,93.1,320.3z M79.8,320.3c1.7,0,3.4,0.6,4.6,1.7l-1.6,1.9c-0.8-0.8-2-1.2-3-1.2c-1.8,0-3.2,1.4-3.2,3.3
		c0,1.9,1.4,3.3,3.3,3.3c0.6,0,1.3-0.2,2-0.5v-2.9h2.5v4.4c-1.2,0.8-3.1,1.5-4.7,1.5c-3.4,0-6-2.5-6-5.7
		C73.6,322.8,76.2,320.3,79.8,320.3z M65.4,320.3c3.5,0,6.1,2.4,6.1,5.7c0,3.3-2.6,5.7-6.1,5.7c-3.5,0-6.1-2.5-6.1-5.7
		C59.3,322.7,61.9,320.3,65.4,320.3z M49.5,320.4h2.8v8.8h4.8v2.4h-7.6V320.4z"/>
	<polygon fill="#FFFFFF" points="57.1,329.2 52.3,329.2 52.3,320.4 49.5,320.4 49.5,331.6 57.1,331.6 	"/>
	<path fill="#FFFFFF" d="M65.4,331.7c3.5,0,6.1-2.5,6.1-5.7c0-3.2-2.6-5.7-6.1-5.7c-3.5,0-6.1,2.4-6.1,5.7
		C59.3,329.3,61.9,331.7,65.4,331.7z M65.4,322.7c1.7,0,3.1,1.4,3.1,3.3c0,1.9-1.4,3.3-3.1,3.3c-1.7,0-3.2-1.5-3.2-3.3
		C62.2,324.1,63.7,322.7,65.4,322.7z"/>
	<path fill="#FFFFFF" d="M79.6,331.7c1.6,0,3.5-0.6,4.7-1.5v-4.4h-2.5v2.9c-0.7,0.3-1.4,0.5-2,0.5c-1.9,0-3.3-1.4-3.3-3.3
		c0-1.9,1.4-3.3,3.2-3.3c1,0,2.2,0.5,3,1.2l1.6-1.9c-1.2-1-2.9-1.7-4.6-1.7c-3.5,0-6.2,2.4-6.2,5.7
		C73.6,329.3,76.2,331.7,79.6,331.7z"/>
	<path fill="#FFFFFF" d="M93.1,331.7c3.5,0,6.1-2.5,6.1-5.7c0-3.2-2.6-5.7-6.1-5.7c-3.5,0-6.1,2.4-6.1,5.7
		C87.1,329.3,89.7,331.7,93.1,331.7z M93.2,322.7c1.7,0,3.1,1.4,3.1,3.3c0,1.9-1.4,3.3-3.1,3.3c-1.7,0-3.2-1.5-3.2-3.3
		C90,324.1,91.4,322.7,93.2,322.7z"/>
</g>
<g>
	<path fill="#E0E0E0" d="M23.3,401.3c0.6-0.5,1.3-1,2.1-1.5C24.6,400.3,23.9,400.8,23.3,401.3z"/>
	<path fill="#E0E0E0" d="M20.3,405.1c0.4-0.7,0.8-1.4,1.3-2C21.1,403.7,20.7,404.4,20.3,405.1z"/>
	<path fill="#E0E0E0" d="M19.2,475.1l443.3,0.1v-49.6H19.2V475.1z M411.3,442.1h25.1v3h-25.1V442.1z M411.3,449.1h25.1v3h-25.1
		V449.1z M411.3,456.1h25.1v3h-25.1V456.1z M211.4,442.8c0-1.1,0.9-2,2-2h59.1c1.1,0,2,0.9,2,2v17c0,1.1-0.9,2-2,2h-59.1
		c-1.1,0-2-0.9-2-2V442.8z"/>
	<path fill="#6A6964" d="M448.5,397.9H33.2c-2.9,0-5.6,0.7-7.8,2c-0.7,0.4-1.4,0.9-2.1,1.5c-0.6,0.5-1.2,1.1-1.7,1.8s-0.9,1.3-1.3,2
		c-0.7,1.4-1.1,3-1.1,4.6v15.9h443.3v-15.9C462.5,403.2,456.2,397.9,448.5,397.9z M46.5,419.9c-4.1,0-7.5-3.4-7.5-7.5
		c0-4.1,3.4-7.5,7.5-7.5c4.1,0,7.5,3.4,7.5,7.5C54,416.5,50.6,419.9,46.5,419.9z M71.5,419.9c-4.1,0-7.5-3.4-7.5-7.5
		c0-4.1,3.4-7.5,7.5-7.5c4.1,0,7.5,3.4,7.5,7.5C79,416.5,75.6,419.9,71.5,419.9z M96.5,419.9c-4.1,0-7.5-3.4-7.5-7.5
		c0-4.1,3.4-7.5,7.5-7.5c4.1,0,7.5,3.4,7.5,7.5C104,416.5,100.6,419.9,96.5,419.9z"/>
	<circle fill="#E0E0E0" cx="46.5" cy="412.4" r="7.5"/>
	<circle fill="#E0E0E0" cx="71.5" cy="412.4" r="7.5"/>
	<circle fill="#E0E0E0" cx="96.5" cy="412.4" r="7.5"/>
	<rect x="411.3" y="442.1" fill="#6A6964" width="25.1" height="3"/>
	<rect x="411.3" y="449.1" fill="#6A6964" width="25.1" height="3"/>
	<rect x="411.3" y="456.1" fill="#6A6964" width="25.1" height="3"/>
	<path fill="#6A6964" d="M262.2,454.9c1.7,0,3.1-1.5,3.1-3.3c0-1.9-1.4-3.3-3.1-3.3c-1.7,0-3.2,1.4-3.2,3.3
		C259,453.5,260.4,454.9,262.2,454.9z"/>
	<path fill="#6A6964" d="M213.4,461.8h59.1c1.1,0,2-0.9,2-2v-17c0-1.1-0.9-2-2-2h-59.1c-1.1,0-2,0.9-2,2v17
		C211.4,460.9,212.3,461.8,213.4,461.8z M262.1,445.9c3.5,0,6.1,2.4,6.1,5.7c0,3.3-2.6,5.7-6.1,5.7c-3.5,0-6.1-2.5-6.1-5.7
		C256.1,448.3,258.7,445.9,262.1,445.9z M248.8,445.9c1.7,0,3.4,0.6,4.6,1.7l-1.6,1.9c-0.8-0.8-2-1.2-3-1.2c-1.8,0-3.2,1.4-3.2,3.3
		c0,1.9,1.4,3.3,3.3,3.3c0.6,0,1.3-0.2,2-0.5v-2.9h2.5v4.4c-1.2,0.8-3.1,1.5-4.7,1.5c-3.4,0-6-2.5-6-5.7
		C242.6,448.3,245.2,445.9,248.8,445.9z M234.4,445.9c3.5,0,6.1,2.4,6.1,5.7c0,3.3-2.6,5.7-6.1,5.7c-3.5,0-6.1-2.5-6.1-5.7
		C228.3,448.3,230.9,445.9,234.4,445.9z M218.5,446h2.8v8.8h4.8v2.4h-7.6V446z"/>
	<path fill="#6A6964" d="M234.4,454.9c1.7,0,3.1-1.5,3.1-3.3c0-1.9-1.4-3.3-3.1-3.3c-1.7,0-3.2,1.4-3.2,3.3
		C231.2,453.5,232.7,454.9,234.4,454.9z"/>
	<polygon fill="#FFFFFF" points="226.1,454.8 221.3,454.8 221.3,446 218.5,446 218.5,457.2 226.1,457.2 	"/>
	<path fill="#FFFFFF" d="M234.4,457.3c3.5,0,6.1-2.5,6.1-5.7c0-3.2-2.6-5.7-6.1-5.7c-3.5,0-6.1,2.4-6.1,5.7
		C228.3,454.8,230.9,457.3,234.4,457.3z M234.4,448.3c1.7,0,3.1,1.4,3.1,3.3c0,1.9-1.4,3.3-3.1,3.3c-1.7,0-3.2-1.5-3.2-3.3
		C231.2,449.7,232.7,448.3,234.4,448.3z"/>
	<path fill="#FFFFFF" d="M248.6,457.3c1.6,0,3.5-0.6,4.7-1.5v-4.4h-2.5v2.9c-0.7,0.3-1.4,0.5-2,0.5c-1.9,0-3.3-1.4-3.3-3.3
		c0-1.9,1.4-3.3,3.2-3.3c1,0,2.2,0.5,3,1.2l1.6-1.9c-1.2-1-2.9-1.7-4.6-1.7c-3.5,0-6.2,2.4-6.2,5.7
		C242.6,454.8,245.2,457.3,248.6,457.3z"/>
	<path fill="#FFFFFF" d="M262.1,457.3c3.5,0,6.1-2.5,6.1-5.7c0-3.2-2.6-5.7-6.1-5.7c-3.5,0-6.1,2.4-6.1,5.7
		C256.1,454.8,258.7,457.3,262.1,457.3z M262.2,448.3c1.7,0,3.1,1.4,3.1,3.3c0,1.9-1.4,3.3-3.1,3.3c-1.7,0-3.2-1.5-3.2-3.3
		C259,449.7,260.4,448.3,262.2,448.3z"/>
</g>
<g>
	<path fill="#E0E0E0" d="M20.3,530.7c0.4-0.7,0.8-1.4,1.3-2C21.1,529.3,20.7,530,20.3,530.7z"/>
	<path fill="#E0E0E0" d="M19.2,600.6l443.3,0.1v-49.6H19.2V600.6z M96.4,568.4c0-1.1,0.9-2,2-2h59.1c1.1,0,2,0.9,2,2v17
		c0,1.1-0.9,2-2,2H98.4c-1.1,0-2-0.9-2-2V568.4z M46.3,567.7h25.1v3H46.3V567.7z M46.3,574.6h25.1v3H46.3V574.6z M46.3,581.6h25.1v3
		H46.3V581.6z"/>
	<path fill="#E0E0E0" d="M23.3,526.9c0.6-0.5,1.3-1,2.1-1.5C24.6,525.9,23.9,526.3,23.3,526.9z"/>
	<path fill="#6A6964" d="M448.5,523.4H33.2c-2.9,0-5.6,0.7-7.8,2c-0.7,0.4-1.4,0.9-2.1,1.5s-1.2,1.1-1.7,1.8c-0.5,0.6-0.9,1.3-1.3,2
		c-0.7,1.4-1.1,3-1.1,4.6v15.9h443.3v-15.9C462.5,528.7,456.2,523.4,448.5,523.4z M46.5,545.4c-4.1,0-7.5-3.4-7.5-7.5
		s3.4-7.5,7.5-7.5c4.1,0,7.5,3.4,7.5,7.5S50.6,545.4,46.5,545.4z M71.5,545.4c-4.1,0-7.5-3.4-7.5-7.5s3.4-7.5,7.5-7.5
		c4.1,0,7.5,3.4,7.5,7.5S75.6,545.4,71.5,545.4z M96.5,545.4c-4.1,0-7.5-3.4-7.5-7.5s3.4-7.5,7.5-7.5c4.1,0,7.5,3.4,7.5,7.5
		S100.6,545.4,96.5,545.4z"/>
	<circle fill="#E0E0E0" cx="46.5" cy="537.9" r="7.5"/>
	<circle fill="#E0E0E0" cx="71.5" cy="537.9" r="7.5"/>
	<circle fill="#E0E0E0" cx="96.5" cy="537.9" r="7.5"/>
	<rect x="46.3" y="567.7" fill="#6A6964" width="25.1" height="3"/>
	<rect x="46.3" y="574.6" fill="#6A6964" width="25.1" height="3"/>
	<rect x="46.3" y="581.6" fill="#6A6964" width="25.1" height="3"/>
	<path fill="#6A6964" d="M119.4,580.5c1.7,0,3.1-1.5,3.1-3.3c0-1.9-1.4-3.3-3.1-3.3c-1.7,0-3.2,1.4-3.2,3.3
		C116.2,579,117.7,580.5,119.4,580.5z"/>
	<path fill="#6A6964" d="M147.2,580.5c1.7,0,3.1-1.5,3.1-3.3c0-1.9-1.4-3.3-3.1-3.3c-1.7,0-3.2,1.4-3.2,3.3
		C144,579,145.4,580.5,147.2,580.5z"/>
	<path fill="#6A6964" d="M98.4,587.4h59.1c1.1,0,2-0.9,2-2v-17c0-1.1-0.9-2-2-2H98.4c-1.1,0-2,0.9-2,2v17
		C96.4,586.5,97.3,587.4,98.4,587.4z M147.1,571.4c3.5,0,6.1,2.4,6.1,5.7c0,3.3-2.6,5.7-6.1,5.7c-3.5,0-6.1-2.5-6.1-5.7
		C141.1,573.8,143.7,571.4,147.1,571.4z M133.8,571.4c1.7,0,3.4,0.6,4.6,1.7l-1.6,1.9c-0.8-0.8-2-1.2-3-1.2c-1.8,0-3.2,1.4-3.2,3.3
		c0,1.9,1.4,3.3,3.3,3.3c0.6,0,1.3-0.2,2-0.5V577h2.5v4.4c-1.2,0.8-3.1,1.5-4.7,1.5c-3.4,0-6-2.5-6-5.7
		C127.6,573.9,130.2,571.4,133.8,571.4z M119.4,571.4c3.5,0,6.1,2.4,6.1,5.7c0,3.3-2.6,5.7-6.1,5.7c-3.5,0-6.1-2.5-6.1-5.7
		C113.3,573.8,115.9,571.4,119.4,571.4z M103.5,571.5h2.8v8.8h4.8v2.4h-7.6V571.5z"/>
	<polygon fill="#FFFFFF" points="111.1,580.3 106.3,580.3 106.3,571.5 103.5,571.5 103.5,582.7 111.1,582.7 	"/>
	<path fill="#FFFFFF" d="M119.4,582.8c3.5,0,6.1-2.5,6.1-5.7c0-3.2-2.6-5.7-6.1-5.7c-3.5,0-6.1,2.4-6.1,5.7
		C113.3,580.4,115.9,582.8,119.4,582.8z M119.4,573.8c1.7,0,3.1,1.4,3.1,3.3c0,1.9-1.4,3.3-3.1,3.3c-1.7,0-3.2-1.5-3.2-3.3
		C116.2,575.2,117.7,573.8,119.4,573.8z"/>
	<path fill="#FFFFFF" d="M133.6,582.8c1.6,0,3.5-0.6,4.7-1.5V577h-2.5v2.9c-0.7,0.3-1.4,0.5-2,0.5c-1.9,0-3.3-1.4-3.3-3.3
		c0-1.9,1.4-3.3,3.2-3.3c1,0,2.2,0.5,3,1.2l1.6-1.9c-1.2-1-2.9-1.7-4.6-1.7c-3.5,0-6.2,2.4-6.2,5.7
		C127.6,580.4,130.2,582.8,133.6,582.8z"/>
	<path fill="#FFFFFF" d="M147.1,582.8c3.5,0,6.1-2.5,6.1-5.7c0-3.2-2.6-5.7-6.1-5.7c-3.5,0-6.1,2.4-6.1,5.7
		C141.1,580.4,143.7,582.8,147.1,582.8z M147.2,573.8c1.7,0,3.1,1.4,3.1,3.3c0,1.9-1.4,3.3-3.1,3.3c-1.7,0-3.2-1.5-3.2-3.3
		C144,575.2,145.4,573.8,147.2,573.8z"/>
</g>
<g>
	<path fill="#E0E0E0" d="M19.2,726.2l443.3,0.1v-49.6H19.2V726.2z M411.3,693.2h25.1v3h-25.1V693.2z M411.3,700.2h25.1v3h-25.1
		V700.2z M411.3,707.2h25.1v3h-25.1V707.2z M327.4,693.9c0-1.1,0.9-2,2-2h59.1c1.1,0,2,0.9,2,2v17c0,1.1-0.9,2-2,2h-59.1
		c-1.1,0-2-0.9-2-2V693.9z"/>
	<path fill="#E0E0E0" d="M20.3,656.2c0.4-0.7,0.8-1.4,1.3-2C21.1,654.8,20.7,655.5,20.3,656.2z"/>
	<path fill="#E0E0E0" d="M23.3,652.4c0.6-0.5,1.3-1,2.1-1.5C24.6,651.4,23.9,651.9,23.3,652.4z"/>
	<path fill="#6A6964" d="M448.5,648.9H33.2c-2.9,0-5.6,0.7-7.8,2c-0.7,0.4-1.4,0.9-2.1,1.5c-0.6,0.5-1.2,1.1-1.7,1.8s-0.9,1.3-1.3,2
		c-0.7,1.4-1.1,3-1.1,4.6v15.9h443.3v-15.9C462.5,654.3,456.2,648.9,448.5,648.9z M46.5,670.9c-4.1,0-7.5-3.4-7.5-7.5
		s3.4-7.5,7.5-7.5c4.1,0,7.5,3.4,7.5,7.5S50.6,670.9,46.5,670.9z M71.5,670.9c-4.1,0-7.5-3.4-7.5-7.5s3.4-7.5,7.5-7.5
		c4.1,0,7.5,3.4,7.5,7.5S75.6,670.9,71.5,670.9z M96.5,670.9c-4.1,0-7.5-3.4-7.5-7.5s3.4-7.5,7.5-7.5c4.1,0,7.5,3.4,7.5,7.5
		S100.6,670.9,96.5,670.9z"/>
	<circle fill="#E0E0E0" cx="46.5" cy="663.4" r="7.5"/>
	<circle fill="#E0E0E0" cx="71.5" cy="663.4" r="7.5"/>
	<circle fill="#E0E0E0" cx="96.5" cy="663.4" r="7.5"/>
	<rect x="411.3" y="693.2" fill="#6A6964" width="25.1" height="3"/>
	<rect x="411.3" y="700.2" fill="#6A6964" width="25.1" height="3"/>
	<rect x="411.3" y="707.2" fill="#6A6964" width="25.1" height="3"/>
	<path fill="#6A6964" d="M378.2,706c1.7,0,3.1-1.5,3.1-3.3s-1.4-3.3-3.1-3.3c-1.7,0-3.2,1.4-3.2,3.3S376.4,706,378.2,706z"/>
	<path fill="#6A6964" d="M350.4,706c1.7,0,3.1-1.5,3.1-3.3s-1.4-3.3-3.1-3.3c-1.7,0-3.2,1.4-3.2,3.3S348.7,706,350.4,706z"/>
	<path fill="#6A6964" d="M329.4,712.9h59.1c1.1,0,2-0.9,2-2v-17c0-1.1-0.9-2-2-2h-59.1c-1.1,0-2,0.9-2,2v17
		C327.4,712,328.3,712.9,329.4,712.9z M378.1,697c3.5,0,6.1,2.4,6.1,5.7c0,3.3-2.6,5.7-6.1,5.7c-3.5,0-6.1-2.5-6.1-5.7
		C372.1,699.4,374.7,697,378.1,697z M364.8,697c1.7,0,3.4,0.6,4.6,1.7l-1.6,1.9c-0.8-0.8-2-1.2-3-1.2c-1.8,0-3.2,1.4-3.2,3.3
		c0,1.9,1.4,3.3,3.3,3.3c0.6,0,1.3-0.2,2-0.5v-2.9h2.5v4.4c-1.2,0.8-3.1,1.5-4.7,1.5c-3.4,0-6-2.5-6-5.7
		C358.6,699.4,361.2,697,364.8,697z M350.4,697c3.5,0,6.1,2.4,6.1,5.7c0,3.3-2.6,5.7-6.1,5.7c-3.5,0-6.1-2.5-6.1-5.7
		C344.3,699.4,346.9,697,350.4,697z M334.5,697.1h2.8v8.8h4.8v2.4h-7.6V697.1z"/>
	<polygon fill="#FFFFFF" points="342.1,705.9 337.3,705.9 337.3,697.1 334.5,697.1 334.5,708.3 342.1,708.3 	"/>
	<path fill="#FFFFFF" d="M350.4,708.4c3.5,0,6.1-2.5,6.1-5.7c0-3.2-2.6-5.7-6.1-5.7c-3.5,0-6.1,2.4-6.1,5.7
		C344.3,705.9,346.9,708.4,350.4,708.4z M350.4,699.3c1.7,0,3.1,1.4,3.1,3.3s-1.4,3.3-3.1,3.3c-1.7,0-3.2-1.5-3.2-3.3
		S348.7,699.3,350.4,699.3z"/>
	<path fill="#FFFFFF" d="M364.6,708.4c1.6,0,3.5-0.6,4.7-1.5v-4.4h-2.5v2.9c-0.7,0.3-1.4,0.5-2,0.5c-1.9,0-3.3-1.4-3.3-3.3
		c0-1.9,1.4-3.3,3.2-3.3c1,0,2.2,0.5,3,1.2l1.6-1.9c-1.2-1-2.9-1.7-4.6-1.7c-3.5,0-6.2,2.4-6.2,5.7
		C358.6,705.9,361.2,708.4,364.6,708.4z"/>
	<path fill="#FFFFFF" d="M378.1,708.4c3.5,0,6.1-2.5,6.1-5.7c0-3.2-2.6-5.7-6.1-5.7c-3.5,0-6.1,2.4-6.1,5.7
		C372.1,705.9,374.7,708.4,378.1,708.4z M378.2,699.3c1.7,0,3.1,1.4,3.1,3.3s-1.4,3.3-3.1,3.3c-1.7,0-3.2-1.5-3.2-3.3
		S376.4,699.3,378.2,699.3z"/>
</g>
<g>
	<path fill="#E0E0E0" d="M20.3,781.8c0.4-0.7,0.8-1.4,1.3-2C21.1,780.4,20.7,781,20.3,781.8z"/>
	<path fill="#E0E0E0" d="M26.5,775.9c1.6-0.7,3.4-1.2,5.2-1.4C29.9,774.7,28.1,775.2,26.5,775.9z"/>
	<path fill="#E0E0E0" d="M19.2,851.8l443.3-0.1v-49.5H19.2V851.8z M376.1,819.5c0-1.1,0.9-2,2-2h59.1c1.1,0,2,0.9,2,2v17
		c0,1.1-0.9,2-2,2h-59.1c-1.1,0-2-0.9-2-2V819.5z M162.9,824.7h29v5h-29V824.7z M122.9,824.7h29v5h-29V824.7z M83.9,824.7h29v5h-29
		V824.7z M44.9,824.7h29v5h-29V824.7z"/>
	<path fill="#E0E0E0" d="M26.5,775.9c-2,0.9-3.7,2.2-4.9,3.8C22.9,778.2,24.6,776.8,26.5,775.9z"/>
	<path fill="#6A6964" d="M448.5,774.5H33.2c-0.5,0-1,0-1.4,0.1c-1.9,0.2-3.7,0.6-5.2,1.4c-2,0.9-3.7,2.2-4.9,3.8
		c-0.5,0.6-0.9,1.3-1.3,2c-0.7,1.4-1.1,3-1.1,4.6v15.9h443.3v-15.9C462.5,779.8,456.2,774.5,448.5,774.5z M46.5,796.5
		c-4.1,0-7.5-3.4-7.5-7.5s3.4-7.5,7.5-7.5c4.1,0,7.5,3.4,7.5,7.5S50.6,796.5,46.5,796.5z M71.5,796.5c-4.1,0-7.5-3.4-7.5-7.5
		s3.4-7.5,7.5-7.5c4.1,0,7.5,3.4,7.5,7.5S75.6,796.5,71.5,796.5z M96.5,796.5c-4.1,0-7.5-3.4-7.5-7.5s3.4-7.5,7.5-7.5
		c4.1,0,7.5,3.4,7.5,7.5S100.6,796.5,96.5,796.5z"/>
	<circle fill="#E0E0E0" cx="46.5" cy="789" r="7.5"/>
	<circle fill="#E0E0E0" cx="71.5" cy="789" r="7.5"/>
	<circle fill="#E0E0E0" cx="96.5" cy="789" r="7.5"/>
	<path fill="#6A6964" d="M399.1,831.6c1.7,0,3.1-1.5,3.1-3.3s-1.4-3.3-3.1-3.3c-1.7,0-3.2,1.4-3.2,3.3S397.4,831.6,399.1,831.6z"/>
	<path fill="#6A6964" d="M378.1,838.5h59.1c1.1,0,2-0.9,2-2v-17c0-1.1-0.9-2-2-2h-59.1c-1.1,0-2,0.9-2,2v17
		C376.1,837.6,377,838.5,378.1,838.5z M426.8,822.5c3.5,0,6.1,2.4,6.1,5.7c0,3.3-2.6,5.7-6.1,5.7c-3.5,0-6.1-2.5-6.1-5.7
		C420.8,824.9,423.4,822.5,426.8,822.5z M413.5,822.5c1.7,0,3.4,0.6,4.6,1.7l-1.6,1.9c-0.8-0.8-2-1.2-3-1.2c-1.8,0-3.2,1.4-3.2,3.3
		c0,1.9,1.4,3.3,3.3,3.3c0.6,0,1.3-0.2,2-0.5v-2.9h2.5v4.4c-1.2,0.8-3.1,1.5-4.7,1.5c-3.4,0-6-2.5-6-5.7
		C407.3,825,409.9,822.5,413.5,822.5z M399.1,822.5c3.5,0,6.1,2.4,6.1,5.7c0,3.3-2.6,5.7-6.1,5.7c-3.5,0-6.1-2.5-6.1-5.7
		C393,824.9,395.6,822.5,399.1,822.5z M383.2,822.6h2.8v8.8h4.8v2.4h-7.6V822.6z"/>
	<path fill="#6A6964" d="M426.9,831.6c1.7,0,3.1-1.5,3.1-3.3s-1.4-3.3-3.1-3.3c-1.7,0-3.2,1.4-3.2,3.3S425.1,831.6,426.9,831.6z"/>
	<polygon fill="#FFFFFF" points="390.8,831.4 386,831.4 386,822.6 383.2,822.6 383.2,833.8 390.8,833.8 	"/>
	<path fill="#FFFFFF" d="M399.1,833.9c3.5,0,6.1-2.5,6.1-5.7c0-3.2-2.6-5.7-6.1-5.7c-3.5,0-6.1,2.4-6.1,5.7
		C393,831.5,395.6,833.9,399.1,833.9z M399.1,824.9c1.7,0,3.1,1.4,3.1,3.3s-1.4,3.3-3.1,3.3c-1.7,0-3.2-1.5-3.2-3.3
		S397.4,824.9,399.1,824.9z"/>
	<path fill="#FFFFFF" d="M413.3,833.9c1.6,0,3.5-0.6,4.7-1.5v-4.4h-2.5v2.9c-0.7,0.3-1.4,0.5-2,0.5c-1.9,0-3.3-1.4-3.3-3.3
		c0-1.9,1.4-3.3,3.2-3.3c1,0,2.2,0.5,3,1.2l1.6-1.9c-1.2-1-2.9-1.7-4.6-1.7c-3.5,0-6.2,2.4-6.2,5.7
		C407.3,831.5,409.9,833.9,413.3,833.9z"/>
	<path fill="#FFFFFF" d="M426.8,833.9c3.5,0,6.1-2.5,6.1-5.7c0-3.2-2.6-5.7-6.1-5.7c-3.5,0-6.1,2.4-6.1,5.7
		C420.8,831.5,423.4,833.9,426.8,833.9z M426.9,824.9c1.7,0,3.1,1.4,3.1,3.3s-1.4,3.3-3.1,3.3c-1.7,0-3.2-1.5-3.2-3.3
		S425.1,824.9,426.9,824.9z"/>
	<rect x="162.9" y="824.7" fill="#6A6964" width="29" height="5"/>
	<rect x="44.9" y="824.7" fill="#6A6964" width="29" height="5"/>
	<rect x="83.9" y="824.7" fill="#6A6964" width="29" height="5"/>
	<rect x="122.9" y="824.7" fill="#6A6964" width="29" height="5"/>
</g>
<g>
	<path fill="#E0E0E0" d="M23.3,903.5c0.6-0.5,1.3-1,2.1-1.5C24.6,902.5,23.9,903,23.3,903.5z"/>
	<path fill="#E0E0E0" d="M20.3,907.3c0.4-0.7,0.8-1.4,1.3-2C21.1,905.9,20.7,906.6,20.3,907.3z"/>
	<path fill="#E0E0E0" d="M19.2,977.4l443.3-0.1v-49.5H19.2V977.4z M408.5,952.4h29v5h-29V952.4z M368.4,952.4h29v5h-29V952.4z
		 M329.5,952.4h29v5h-29V952.4z M290.5,952.4h29v5h-29V952.4z M207.1,945c0-1.1,0.9-2,2-2h59.1c1.1,0,2,0.9,2,2v17c0,1.1-0.9,2-2,2
		h-59.1c-1.1,0-2-0.9-2-2V945z"/>
	<path fill="#6A6964" d="M448.5,900H33.2c-2.9,0-5.6,0.7-7.8,2c-0.7,0.4-1.4,0.9-2.1,1.5c-0.6,0.5-1.2,1.1-1.7,1.8s-0.9,1.3-1.3,2
		c-0.7,1.4-1.1,3-1.1,4.6v15.9h443.3v-15.9C462.5,905.4,456.2,900,448.5,900z M46.5,922c-4.1,0-7.5-3.4-7.5-7.5
		c0-4.1,3.4-7.5,7.5-7.5c4.1,0,7.5,3.4,7.5,7.5C54,918.7,50.6,922,46.5,922z M71.5,922c-4.1,0-7.5-3.4-7.5-7.5
		c0-4.1,3.4-7.5,7.5-7.5c4.1,0,7.5,3.4,7.5,7.5C79,918.7,75.6,922,71.5,922z M96.5,922c-4.1,0-7.5-3.4-7.5-7.5
		c0-4.1,3.4-7.5,7.5-7.5c4.1,0,7.5,3.4,7.5,7.5C104,918.7,100.6,922,96.5,922z"/>
	<circle fill="#E0E0E0" cx="46.5" cy="914.5" r="7.5"/>
	<circle fill="#E0E0E0" cx="71.5" cy="914.5" r="7.5"/>
	<circle fill="#E0E0E0" cx="96.5" cy="914.5" r="7.5"/>
	<path fill="#6A6964" d="M257.9,957.1c1.7,0,3.1-1.5,3.1-3.3c0-1.9-1.4-3.3-3.1-3.3c-1.7,0-3.2,1.4-3.2,3.3
		C254.7,955.6,256.1,957.1,257.9,957.1z"/>
	<path fill="#6A6964" d="M230.1,957.1c1.7,0,3.1-1.5,3.1-3.3c0-1.9-1.4-3.3-3.1-3.3c-1.7,0-3.2,1.4-3.2,3.3
		C226.9,955.6,228.4,957.1,230.1,957.1z"/>
	<path fill="#6A6964" d="M209.1,964h59.1c1.1,0,2-0.9,2-2v-17c0-1.1-0.9-2-2-2h-59.1c-1.1,0-2,0.9-2,2v17
		C207.1,963.1,208,964,209.1,964z M257.8,948.1c3.5,0,6.1,2.4,6.1,5.7c0,3.3-2.6,5.7-6.1,5.7c-3.5,0-6.1-2.5-6.1-5.7
		C251.8,950.5,254.4,948.1,257.8,948.1z M244.5,948.1c1.7,0,3.4,0.6,4.6,1.7l-1.6,1.9c-0.8-0.8-2-1.2-3-1.2c-1.8,0-3.2,1.4-3.2,3.3
		c0,1.9,1.4,3.3,3.3,3.3c0.6,0,1.3-0.2,2-0.5v-2.9h2.5v4.4c-1.2,0.8-3.1,1.5-4.7,1.5c-3.4,0-6-2.5-6-5.7
		C238.3,950.5,240.9,948.1,244.5,948.1z M230.1,948.1c3.5,0,6.1,2.4,6.1,5.7c0,3.3-2.6,5.7-6.1,5.7c-3.5,0-6.1-2.5-6.1-5.7
		C224,950.5,226.6,948.1,230.1,948.1z M214.2,948.2h2.8v8.8h4.8v2.4h-7.6V948.2z"/>
	<polygon fill="#FFFFFF" points="221.8,957 217,957 217,948.2 214.2,948.2 214.2,959.4 221.8,959.4 	"/>
	<path fill="#FFFFFF" d="M230.1,959.5c3.5,0,6.1-2.5,6.1-5.7c0-3.2-2.6-5.7-6.1-5.7c-3.5,0-6.1,2.4-6.1,5.7
		C224,957,226.6,959.5,230.1,959.5z M230.1,950.4c1.7,0,3.1,1.4,3.1,3.3c0,1.9-1.4,3.3-3.1,3.3c-1.7,0-3.2-1.5-3.2-3.3
		C226.9,951.9,228.4,950.4,230.1,950.4z"/>
	<path fill="#FFFFFF" d="M244.3,959.5c1.6,0,3.5-0.6,4.7-1.5v-4.4h-2.5v2.9c-0.7,0.3-1.4,0.5-2,0.5c-1.9,0-3.3-1.4-3.3-3.3
		c0-1.9,1.4-3.3,3.2-3.3c1,0,2.2,0.5,3,1.2l1.6-1.9c-1.2-1-2.9-1.7-4.6-1.7c-3.5,0-6.2,2.4-6.2,5.7
		C238.3,957,240.9,959.5,244.3,959.5z"/>
	<path fill="#FFFFFF" d="M257.8,959.5c3.5,0,6.1-2.5,6.1-5.7c0-3.2-2.6-5.7-6.1-5.7c-3.5,0-6.1,2.4-6.1,5.7
		C251.8,957,254.4,959.5,257.8,959.5z M257.9,950.4c1.7,0,3.1,1.4,3.1,3.3c0,1.9-1.4,3.3-3.1,3.3c-1.7,0-3.2-1.5-3.2-3.3
		C254.7,951.9,256.1,950.4,257.9,950.4z"/>
	<rect x="408.5" y="952.4" fill="#6A6964" width="29" height="5"/>
	<rect x="290.5" y="952.4" fill="#6A6964" width="29" height="5"/>
	<rect x="329.5" y="952.4" fill="#6A6964" width="29" height="5"/>
	<rect x="368.4" y="952.4" fill="#6A6964" width="29" height="5"/>
</g>
<g>
	<path fill="#E0E0E0" d="M26.5,1027c-2,0.9-3.7,2.2-4.9,3.8C22.9,1029.3,24.6,1027.9,26.5,1027z"/>
	<path fill="#E0E0E0" d="M26.5,1027c1.6-0.7,3.4-1.2,5.2-1.4C29.9,1025.8,28.1,1026.3,26.5,1027z"/>
	<path fill="#E0E0E0" d="M19.2,1102.8l443.3,0.1v-49.6H19.2V1102.8z M407.9,1074.9h29v5h-29V1074.9z M367.9,1074.9h29v5h-29V1074.9z
		 M328.9,1074.9h29v5h-29V1074.9z M289.9,1074.9h29v5h-29V1074.9z M42.4,1070.6c0-1.1,0.9-2,2-2h59.1c1.1,0,2,0.9,2,2v17
		c0,1.1-0.9,2-2,2H44.4c-1.1,0-2-0.9-2-2V1070.6z"/>
	<path fill="#E0E0E0" d="M20.3,1032.9c0.4-0.7,0.8-1.4,1.3-2C21.1,1031.5,20.7,1032.1,20.3,1032.9z"/>
	<path fill="#6A6964" d="M448.5,1025.6H33.2c-0.5,0-1,0-1.4,0.1c-1.9,0.2-3.7,0.6-5.2,1.4c-2,0.9-3.7,2.2-4.9,3.8
		c-0.5,0.6-0.9,1.3-1.3,2c-0.7,1.4-1.1,3-1.1,4.6v15.9h443.3v-15.9C462.5,1030.9,456.2,1025.6,448.5,1025.6z M46.5,1047.6
		c-4.1,0-7.5-3.4-7.5-7.5s3.4-7.5,7.5-7.5c4.1,0,7.5,3.4,7.5,7.5S50.6,1047.6,46.5,1047.6z M71.5,1047.6c-4.1,0-7.5-3.4-7.5-7.5
		s3.4-7.5,7.5-7.5c4.1,0,7.5,3.4,7.5,7.5S75.6,1047.6,71.5,1047.6z M96.5,1047.6c-4.1,0-7.5-3.4-7.5-7.5s3.4-7.5,7.5-7.5
		c4.1,0,7.5,3.4,7.5,7.5S100.6,1047.6,96.5,1047.6z"/>
	<circle fill="#E0E0E0" cx="46.5" cy="1040.1" r="7.5"/>
	<circle fill="#E0E0E0" cx="71.5" cy="1040.1" r="7.5"/>
	<circle fill="#E0E0E0" cx="96.5" cy="1040.1" r="7.5"/>
	<path fill="#6A6964" d="M65.4,1082.6c1.7,0,3.1-1.5,3.1-3.3c0-1.9-1.4-3.3-3.1-3.3c-1.7,0-3.2,1.4-3.2,3.3
		C62.2,1081.2,63.7,1082.6,65.4,1082.6z"/>
	<path fill="#6A6964" d="M44.4,1089.6h59.1c1.1,0,2-0.9,2-2v-17c0-1.1-0.9-2-2-2H44.4c-1.1,0-2,0.9-2,2v17
		C42.4,1088.7,43.3,1089.6,44.4,1089.6z M93.1,1073.6c3.5,0,6.1,2.4,6.1,5.7c0,3.3-2.6,5.7-6.1,5.7c-3.5,0-6.1-2.5-6.1-5.7
		C87.1,1076,89.7,1073.6,93.1,1073.6z M79.8,1073.6c1.7,0,3.4,0.6,4.6,1.7l-1.6,1.9c-0.8-0.8-2-1.2-3-1.2c-1.8,0-3.2,1.4-3.2,3.3
		c0,1.9,1.4,3.3,3.3,3.3c0.6,0,1.3-0.2,2-0.5v-2.9h2.5v4.4c-1.2,0.8-3.1,1.5-4.7,1.5c-3.4,0-6-2.5-6-5.7
		C73.6,1076.1,76.2,1073.6,79.8,1073.6z M65.4,1073.6c3.5,0,6.1,2.4,6.1,5.7c0,3.3-2.6,5.7-6.1,5.7c-3.5,0-6.1-2.5-6.1-5.7
		C59.3,1076,61.9,1073.6,65.4,1073.6z M49.5,1073.7h2.8v8.8h4.8v2.4h-7.6V1073.7z"/>
	<path fill="#6A6964" d="M93.2,1082.6c1.7,0,3.1-1.5,3.1-3.3c0-1.9-1.4-3.3-3.1-3.3c-1.7,0-3.2,1.4-3.2,3.3
		C90,1081.2,91.4,1082.6,93.2,1082.6z"/>
	<polygon fill="#FFFFFF" points="57.1,1082.5 52.3,1082.5 52.3,1073.7 49.5,1073.7 49.5,1084.9 57.1,1084.9 	"/>
	<path fill="#FFFFFF" d="M65.4,1085c3.5,0,6.1-2.5,6.1-5.7c0-3.2-2.6-5.7-6.1-5.7c-3.5,0-6.1,2.4-6.1,5.7
		C59.3,1082.6,61.9,1085,65.4,1085z M65.4,1076c1.7,0,3.1,1.4,3.1,3.3c0,1.9-1.4,3.3-3.1,3.3c-1.7,0-3.2-1.5-3.2-3.3
		C62.2,1077.4,63.7,1076,65.4,1076z"/>
	<path fill="#FFFFFF" d="M79.6,1085c1.6,0,3.5-0.6,4.7-1.5v-4.4h-2.5v2.9c-0.7,0.3-1.4,0.5-2,0.5c-1.9,0-3.3-1.4-3.3-3.3
		c0-1.9,1.4-3.3,3.2-3.3c1,0,2.2,0.5,3,1.2l1.6-1.9c-1.2-1-2.9-1.7-4.6-1.7c-3.5,0-6.2,2.4-6.2,5.7C73.6,1082.6,76.2,1085,79.6,1085
		z"/>
	<path fill="#FFFFFF" d="M93.1,1085c3.5,0,6.1-2.5,6.1-5.7c0-3.2-2.6-5.7-6.1-5.7c-3.5,0-6.1,2.4-6.1,5.7
		C87.1,1082.6,89.7,1085,93.1,1085z M93.2,1076c1.7,0,3.1,1.4,3.1,3.3c0,1.9-1.4,3.3-3.1,3.3c-1.7,0-3.2-1.5-3.2-3.3
		C90,1077.4,91.4,1076,93.2,1076z"/>
	<rect x="407.9" y="1074.9" fill="#6A6964" width="29" height="5"/>
	<rect x="289.9" y="1074.9" fill="#6A6964" width="29" height="5"/>
	<rect x="328.9" y="1074.9" fill="#6A6964" width="29" height="5"/>
	<rect x="367.9" y="1074.9" fill="#6A6964" width="29" height="5"/>
</g>
<g>
	<path fill="#E0E0E0" d="M20.3,1158.4c0.4-0.7,0.8-1.4,1.3-2C21.1,1157,20.7,1157.7,20.3,1158.4z"/>
	<path fill="#E0E0E0" d="M19.2,1228.4l443.3,0.1v-49.6H19.2V1228.4z M289.1,1215.1h29v5h-29V1215.1z M278.1,1220.1h-29v-5h29V1220.1
		z M211.4,1190.1c0-1.1,0.9-2,2-2h59.1c1.1,0,2,0.9,2,2v17c0,1.1-0.9,2-2,2h-59.1c-1.1,0-2-0.9-2-2V1190.1z M210.1,1215.1h29v5h-29
		V1215.1z M171.2,1215.1h29v5h-29V1215.1z"/>
	<path fill="#E0E0E0" d="M26.5,1152.6c1.6-0.7,3.4-1.2,5.2-1.4C29.9,1151.4,28.1,1151.8,26.5,1152.6z"/>
	<path fill="#E0E0E0" d="M26.5,1152.6c-2,0.9-3.7,2.2-4.9,3.8C22.9,1154.8,24.6,1153.5,26.5,1152.6z"/>
	<path fill="#6A6964" d="M448.5,1151.1H33.2c-0.5,0-1,0-1.4,0.1c-1.9,0.2-3.7,0.6-5.2,1.4c-2,0.9-3.7,2.2-4.9,3.8
		c-0.5,0.6-0.9,1.3-1.3,2c-0.7,1.4-1.1,3-1.1,4.6v15.9h443.3V1163C462.5,1156.5,456.2,1151.1,448.5,1151.1z M46.5,1173.1
		c-4.1,0-7.5-3.4-7.5-7.5s3.4-7.5,7.5-7.5s7.5,3.4,7.5,7.5S50.6,1173.1,46.5,1173.1z M71.5,1173.1c-4.1,0-7.5-3.4-7.5-7.5
		s3.4-7.5,7.5-7.5s7.5,3.4,7.5,7.5S75.6,1173.1,71.5,1173.1z M96.5,1173.1c-4.1,0-7.5-3.4-7.5-7.5s3.4-7.5,7.5-7.5s7.5,3.4,7.5,7.5
		S100.6,1173.1,96.5,1173.1z"/>
	<circle fill="#E0E0E0" cx="46.5" cy="1165.6" r="7.5"/>
	<circle fill="#E0E0E0" cx="71.5" cy="1165.6" r="7.5"/>
	<circle fill="#E0E0E0" cx="96.5" cy="1165.6" r="7.5"/>
	<path fill="#6A6964" d="M213.4,1209.1h59.1c1.1,0,2-0.9,2-2v-17c0-1.1-0.9-2-2-2h-59.1c-1.1,0-2,0.9-2,2v17
		C211.4,1208.2,212.3,1209.1,213.4,1209.1z M262.1,1193.2c3.5,0,6.1,2.4,6.1,5.7c0,3.3-2.6,5.7-6.1,5.7c-3.5,0-6.1-2.5-6.1-5.7
		C256.1,1195.6,258.7,1193.2,262.1,1193.2z M248.8,1193.2c1.7,0,3.4,0.6,4.6,1.7l-1.6,1.9c-0.8-0.8-2-1.2-3-1.2
		c-1.8,0-3.2,1.4-3.2,3.3c0,1.9,1.4,3.3,3.3,3.3c0.6,0,1.3-0.2,2-0.5v-2.9h2.5v4.4c-1.2,0.8-3.1,1.5-4.7,1.5c-3.4,0-6-2.5-6-5.7
		C242.6,1195.6,245.2,1193.2,248.8,1193.2z M234.4,1193.2c3.5,0,6.1,2.4,6.1,5.7c0,3.3-2.6,5.7-6.1,5.7c-3.5,0-6.1-2.5-6.1-5.7
		C228.3,1195.6,230.9,1193.2,234.4,1193.2z M218.5,1193.2h2.8v8.8h4.8v2.4h-7.6V1193.2z"/>
	<path fill="#6A6964" d="M234.4,1202.2c1.7,0,3.1-1.5,3.1-3.3c0-1.9-1.4-3.3-3.1-3.3c-1.7,0-3.2,1.4-3.2,3.3
		C231.2,1200.7,232.7,1202.2,234.4,1202.2z"/>
	<path fill="#6A6964" d="M262.2,1202.2c1.7,0,3.1-1.5,3.1-3.3c0-1.9-1.4-3.3-3.1-3.3c-1.7,0-3.2,1.4-3.2,3.3
		C259,1200.7,260.4,1202.2,262.2,1202.2z"/>
	<polygon fill="#FFFFFF" points="226.1,1202.1 221.3,1202.1 221.3,1193.2 218.5,1193.2 218.5,1204.5 226.1,1204.5 	"/>
	<path fill="#FFFFFF" d="M234.4,1204.6c3.5,0,6.1-2.5,6.1-5.7c0-3.2-2.6-5.7-6.1-5.7c-3.5,0-6.1,2.4-6.1,5.7
		C228.3,1202.1,230.9,1204.6,234.4,1204.6z M234.4,1195.5c1.7,0,3.1,1.4,3.1,3.3c0,1.9-1.4,3.3-3.1,3.3c-1.7,0-3.2-1.5-3.2-3.3
		C231.2,1197,232.7,1195.5,234.4,1195.5z"/>
	<path fill="#FFFFFF" d="M248.6,1204.6c1.6,0,3.5-0.6,4.7-1.5v-4.4h-2.5v2.9c-0.7,0.3-1.4,0.5-2,0.5c-1.9,0-3.3-1.4-3.3-3.3
		c0-1.9,1.4-3.3,3.2-3.3c1,0,2.2,0.5,3,1.2l1.6-1.9c-1.2-1-2.9-1.7-4.6-1.7c-3.5,0-6.2,2.4-6.2,5.7
		C242.6,1202.1,245.2,1204.6,248.6,1204.6z"/>
	<path fill="#FFFFFF" d="M262.1,1204.6c3.5,0,6.1-2.5,6.1-5.7c0-3.2-2.6-5.7-6.1-5.7c-3.5,0-6.1,2.4-6.1,5.7
		C256.1,1202.1,258.7,1204.6,262.1,1204.6z M262.2,1195.5c1.7,0,3.1,1.4,3.1,3.3c0,1.9-1.4,3.3-3.1,3.3c-1.7,0-3.2-1.5-3.2-3.3
		C259,1197,260.4,1195.5,262.2,1195.5z"/>
	<rect x="289.1" y="1215.1" fill="#6A6964" width="29" height="5"/>
	<rect x="171.2" y="1215.1" fill="#6A6964" width="29" height="5"/>
	<rect x="210.1" y="1215.1" fill="#6A6964" width="29" height="5"/>
	<rect x="249.1" y="1215.1" fill="#6A6964" width="29" height="5"/>
</g>
<g>
	<path fill="#E0E0E0" d="M26.5,1278.1c1.6-0.7,3.4-1.2,5.2-1.4C29.9,1276.9,28.1,1277.4,26.5,1278.1z"/>
	<path fill="#E0E0E0" d="M20.3,1284c0.4-0.7,0.8-1.4,1.3-2C21.1,1282.6,20.7,1283.2,20.3,1284z"/>
	<path fill="#E0E0E0" d="M19.2,1353.9l443.3,0.1v-49.6H19.2V1353.9z M286.4,1327.8h29v5h-29V1327.8z M246.4,1327.8h29v5h-29V1327.8z
		 M207.4,1327.8h29v5h-29V1327.8z M168.4,1327.8h29v5h-29V1327.8z M39.4,1321.6c0-1.1,0.9-2,2-2h59.1c1.1,0,2,0.9,2,2v17
		c0,1.1-0.9,2-2,2H41.4c-1.1,0-2-0.9-2-2V1321.6z"/>
	<path fill="#E0E0E0" d="M26.5,1278.1c-2,0.9-3.7,2.2-4.9,3.8C22.9,1280.3,24.6,1279,26.5,1278.1z"/>
	<path fill="#6A6964" d="M448.5,1276.7H33.2c-0.5,0-1,0-1.4,0.1c-1.9,0.2-3.7,0.6-5.2,1.4c-2,0.9-3.7,2.2-4.9,3.8
		c-0.5,0.6-0.9,1.3-1.3,2c-0.7,1.4-1.1,3-1.1,4.6v15.9h443.3v-15.9C462.5,1282,456.2,1276.7,448.5,1276.7z M46.5,1298.7
		c-4.1,0-7.5-3.4-7.5-7.5c0-4.1,3.4-7.5,7.5-7.5c4.1,0,7.5,3.4,7.5,7.5C54,1295.3,50.6,1298.7,46.5,1298.7z M71.5,1298.7
		c-4.1,0-7.5-3.4-7.5-7.5c0-4.1,3.4-7.5,7.5-7.5c4.1,0,7.5,3.4,7.5,7.5C79,1295.3,75.6,1298.7,71.5,1298.7z M96.5,1298.7
		c-4.1,0-7.5-3.4-7.5-7.5c0-4.1,3.4-7.5,7.5-7.5c4.1,0,7.5,3.4,7.5,7.5C104,1295.3,100.6,1298.7,96.5,1298.7z"/>
	<circle fill="#E0E0E0" cx="46.5" cy="1291.2" r="7.5"/>
	<circle fill="#E0E0E0" cx="71.5" cy="1291.2" r="7.5"/>
	<circle fill="#E0E0E0" cx="96.5" cy="1291.2" r="7.5"/>
	<path fill="#6A6964" d="M90.2,1333.7c1.7,0,3.1-1.5,3.1-3.3c0-1.9-1.4-3.3-3.1-3.3c-1.7,0-3.2,1.4-3.2,3.3
		C87,1332.3,88.4,1333.7,90.2,1333.7z"/>
	<path fill="#6A6964" d="M62.4,1333.7c1.7,0,3.1-1.5,3.1-3.3c0-1.9-1.4-3.3-3.1-3.3c-1.7,0-3.2,1.4-3.2,3.3
		C59.2,1332.3,60.7,1333.7,62.4,1333.7z"/>
	<path fill="#6A6964" d="M41.4,1340.6h59.1c1.1,0,2-0.9,2-2v-17c0-1.1-0.9-2-2-2H41.4c-1.1,0-2,0.9-2,2v17
		C39.4,1339.7,40.3,1340.6,41.4,1340.6z M90.1,1324.7c3.5,0,6.1,2.4,6.1,5.7c0,3.3-2.6,5.7-6.1,5.7c-3.5,0-6.1-2.5-6.1-5.7
		C84.1,1327.1,86.7,1324.7,90.1,1324.7z M76.8,1324.7c1.7,0,3.4,0.6,4.6,1.7l-1.6,1.9c-0.8-0.8-2-1.2-3-1.2c-1.8,0-3.2,1.4-3.2,3.3
		c0,1.9,1.4,3.3,3.3,3.3c0.6,0,1.3-0.2,2-0.5v-2.9h2.5v4.4c-1.2,0.8-3.1,1.5-4.7,1.5c-3.4,0-6-2.5-6-5.7
		C70.6,1327.1,73.2,1324.7,76.8,1324.7z M62.4,1324.7c3.5,0,6.1,2.4,6.1,5.7c0,3.3-2.6,5.7-6.1,5.7c-3.5,0-6.1-2.5-6.1-5.7
		C56.3,1327.1,58.9,1324.7,62.4,1324.7z M46.5,1324.8h2.8v8.8h4.8v2.4h-7.6V1324.8z"/>
	<polygon fill="#FFFFFF" points="54.1,1333.6 49.3,1333.6 49.3,1324.8 46.5,1324.8 46.5,1336 54.1,1336 	"/>
	<path fill="#FFFFFF" d="M62.4,1336.1c3.5,0,6.1-2.5,6.1-5.7c0-3.2-2.6-5.7-6.1-5.7c-3.5,0-6.1,2.4-6.1,5.7
		C56.3,1333.7,58.9,1336.1,62.4,1336.1z M62.4,1327.1c1.7,0,3.1,1.4,3.1,3.3c0,1.9-1.4,3.3-3.1,3.3c-1.7,0-3.2-1.5-3.2-3.3
		C59.2,1328.5,60.7,1327.1,62.4,1327.1z"/>
	<path fill="#FFFFFF" d="M76.6,1336.1c1.6,0,3.5-0.6,4.7-1.5v-4.4h-2.5v2.9c-0.7,0.3-1.4,0.5-2,0.5c-1.9,0-3.3-1.4-3.3-3.3
		c0-1.9,1.4-3.3,3.2-3.3c1,0,2.2,0.5,3,1.2l1.6-1.9c-1.2-1-2.9-1.7-4.6-1.7c-3.5,0-6.2,2.4-6.2,5.7
		C70.6,1333.7,73.2,1336.1,76.6,1336.1z"/>
	<path fill="#FFFFFF" d="M90.1,1336.1c3.5,0,6.1-2.5,6.1-5.7c0-3.2-2.6-5.7-6.1-5.7c-3.5,0-6.1,2.4-6.1,5.7
		C84.1,1333.7,86.7,1336.1,90.1,1336.1z M90.2,1327.1c1.7,0,3.1,1.4,3.1,3.3c0,1.9-1.4,3.3-3.1,3.3c-1.7,0-3.2-1.5-3.2-3.3
		C87,1328.5,88.4,1327.1,90.2,1327.1z"/>
	<rect x="286.4" y="1327.8" fill="#6A6964" width="29" height="5"/>
	<rect x="168.4" y="1327.8" fill="#6A6964" width="29" height="5"/>
	<rect x="207.4" y="1327.8" fill="#6A6964" width="29" height="5"/>
	<rect x="246.4" y="1327.8" fill="#6A6964" width="29" height="5"/>
</g>
<g>
	<path fill="#E0E0E0" d="M19.2,1479.5l443.3,0.1V1430H19.2V1479.5z M272.6,1469.2c0,1.1-0.9,2-2,2h-59.1c-1.1,0-2-0.9-2-2v-17
		c0-1.1,0.9-2,2-2h59.1c1.1,0,2,0.9,2,2V1469.2z M287.1,1439.2h29v5h-29V1439.2z M247.1,1439.2h29v5h-29V1439.2z M208.1,1439.2h29v5
		h-29V1439.2z M169.2,1439.2h29v5h-29V1439.2z"/>
	<path fill="#E0E0E0" d="M23.3,1405.7c0.6-0.5,1.3-1,2.1-1.5C24.6,1404.7,23.9,1405.2,23.3,1405.7z"/>
	<path fill="#E0E0E0" d="M20.3,1409.5c0.4-0.7,0.8-1.4,1.3-2C21.1,1408.1,20.7,1408.8,20.3,1409.5z"/>
	<path fill="#6A6964" d="M448.5,1402.2H33.2c-2.9,0-5.6,0.7-7.8,2c-0.7,0.4-1.4,0.9-2.1,1.5s-1.2,1.1-1.7,1.8s-0.9,1.3-1.3,2
		c-0.7,1.4-1.1,3-1.1,4.6v15.9h443.3v-15.9C462.5,1407.6,456.2,1402.2,448.5,1402.2z M46.5,1424.2c-4.1,0-7.5-3.4-7.5-7.5
		s3.4-7.5,7.5-7.5s7.5,3.4,7.5,7.5S50.6,1424.2,46.5,1424.2z M71.5,1424.2c-4.1,0-7.5-3.4-7.5-7.5s3.4-7.5,7.5-7.5s7.5,3.4,7.5,7.5
		S75.6,1424.2,71.5,1424.2z M96.5,1424.2c-4.1,0-7.5-3.4-7.5-7.5s3.4-7.5,7.5-7.5s7.5,3.4,7.5,7.5S100.6,1424.2,96.5,1424.2z"/>
	<circle fill="#E0E0E0" cx="46.5" cy="1416.7" r="7.5"/>
	<circle fill="#E0E0E0" cx="71.5" cy="1416.7" r="7.5"/>
	<circle fill="#E0E0E0" cx="96.5" cy="1416.7" r="7.5"/>
	<path fill="#6A6964" d="M260.2,1457.6c-1.7,0-3.2,1.4-3.2,3.3s1.5,3.3,3.2,3.3c1.7,0,3.1-1.5,3.1-3.3S261.9,1457.6,260.2,1457.6z"
		/>
	<path fill="#6A6964" d="M232.4,1457.6c-1.7,0-3.2,1.4-3.2,3.3s1.5,3.3,3.2,3.3c1.7,0,3.1-1.5,3.1-3.3S234.1,1457.6,232.4,1457.6z"
		/>
	<path fill="#6A6964" d="M270.6,1450.2h-59.1c-1.1,0-2,0.9-2,2v17c0,1.1,0.9,2,2,2h59.1c1.1,0,2-0.9,2-2v-17
		C272.6,1451.1,271.7,1450.2,270.6,1450.2z M224.1,1466.5h-7.6v-11.2h2.8v8.8h4.8V1466.5z M232.4,1466.7c-3.5,0-6.1-2.5-6.1-5.7
		c0-3.3,2.6-5.7,6.1-5.7c3.5,0,6.1,2.4,6.1,5.7C238.4,1464.2,235.8,1466.7,232.4,1466.7z M246.8,1464.3c0.6,0,1.3-0.2,2-0.5v-2.9
		h2.5v4.4c-1.2,0.8-3.1,1.5-4.7,1.5c-3.4,0-6-2.5-6-5.7c0-3.2,2.6-5.7,6.2-5.7c1.7,0,3.4,0.6,4.6,1.7l-1.6,1.9c-0.8-0.8-2-1.2-3-1.2
		c-1.8,0-3.2,1.4-3.2,3.3C243.5,1462.8,244.9,1464.3,246.8,1464.3z M260.1,1466.7c-3.5,0-6.1-2.5-6.1-5.7c0-3.3,2.6-5.7,6.1-5.7
		c3.5,0,6.1,2.4,6.1,5.7C266.2,1464.2,263.6,1466.7,260.1,1466.7z"/>
	<polygon fill="#FFFFFF" points="219.3,1455.3 216.5,1455.3 216.5,1466.5 224.1,1466.5 224.1,1464.2 219.3,1464.2 	"/>
	<path fill="#FFFFFF" d="M232.4,1455.2c-3.5,0-6.1,2.4-6.1,5.7c0,3.3,2.6,5.7,6.1,5.7c3.5,0,6.1-2.5,6.1-5.7
		C238.4,1457.7,235.8,1455.2,232.4,1455.2z M232.4,1464.3c-1.7,0-3.2-1.5-3.2-3.3s1.4-3.3,3.2-3.3c1.7,0,3.1,1.4,3.1,3.3
		S234.1,1464.3,232.4,1464.3z"/>
	<path fill="#FFFFFF" d="M246.7,1457.6c1,0,2.2,0.5,3,1.2l1.6-1.9c-1.2-1-2.9-1.7-4.6-1.7c-3.5,0-6.2,2.4-6.2,5.7
		c0,3.3,2.6,5.7,6,5.7c1.6,0,3.5-0.6,4.7-1.5v-4.4h-2.5v2.9c-0.7,0.3-1.4,0.5-2,0.5c-1.9,0-3.3-1.4-3.3-3.3
		C243.5,1459.1,244.9,1457.6,246.7,1457.6z"/>
	<path fill="#FFFFFF" d="M260.1,1455.2c-3.5,0-6.1,2.4-6.1,5.7c0,3.3,2.6,5.7,6.1,5.7c3.5,0,6.1-2.5,6.1-5.7
		C266.2,1457.7,263.6,1455.2,260.1,1455.2z M260.2,1464.3c-1.7,0-3.2-1.5-3.2-3.3s1.4-3.3,3.2-3.3c1.7,0,3.1,1.4,3.1,3.3
		S261.9,1464.3,260.2,1464.3z"/>
	<rect x="287.1" y="1439.2" fill="#6A6964" width="29" height="5"/>
	<rect x="169.2" y="1439.2" fill="#6A6964" width="29" height="5"/>
	<rect x="208.1" y="1439.2" fill="#6A6964" width="29" height="5"/>
	<rect x="247.1" y="1439.2" fill="#6A6964" width="29" height="5"/>
</g>
<g>
	<path fill="#E0E0E0" d="M20.3,1535c0.4-0.7,0.8-1.4,1.3-2C21.1,1533.7,20.7,1534.3,20.3,1535z"/>
	<path fill="#E0E0E0" d="M26.5,1529.2c1.6-0.7,3.4-1.2,5.2-1.4C29.9,1528,28.1,1528.5,26.5,1529.2z"/>
	<path fill="#E0E0E0" d="M26.5,1529.2c-2,0.9-3.7,2.2-4.9,3.8C22.9,1531.4,24.6,1530.1,26.5,1529.2z"/>
	<path fill="#E0E0E0" d="M19.2,1605l443.3,0.1v-49.6H19.2V1605z M407.8,1577.9h29v5h-29V1577.9z M368.8,1577.9h29v5h-29V1577.9z
		 M329.9,1577.9h29v5h-29V1577.9z M289.8,1577.9h29v5h-29V1577.9z M42.4,1572.7c0-1.1,0.9-2,2-2h59.1c1.1,0,2,0.9,2,2v17
		c0,1.1-0.9,2-2,2H44.4c-1.1,0-2-0.9-2-2V1572.7z"/>
	<path fill="#6A6964" d="M448.5,1527.8H33.2c-0.5,0-1,0-1.4,0.1c-1.9,0.2-3.7,0.6-5.2,1.4c-2,0.9-3.7,2.2-4.9,3.8
		c-0.5,0.6-0.9,1.3-1.3,2c-0.7,1.4-1.1,3-1.1,4.6v15.9h443.3v-15.9C462.5,1533.1,456.2,1527.8,448.5,1527.8z M46.5,1549.8
		c-4.1,0-7.5-3.4-7.5-7.5s3.4-7.5,7.5-7.5c4.1,0,7.5,3.4,7.5,7.5S50.6,1549.8,46.5,1549.8z M71.5,1549.8c-4.1,0-7.5-3.4-7.5-7.5
		s3.4-7.5,7.5-7.5c4.1,0,7.5,3.4,7.5,7.5S75.6,1549.8,71.5,1549.8z M96.5,1549.8c-4.1,0-7.5-3.4-7.5-7.5s3.4-7.5,7.5-7.5
		c4.1,0,7.5,3.4,7.5,7.5S100.6,1549.8,96.5,1549.8z"/>
	<circle fill="#E0E0E0" cx="46.5" cy="1542.3" r="7.5"/>
	<circle fill="#E0E0E0" cx="71.5" cy="1542.3" r="7.5"/>
	<circle fill="#E0E0E0" cx="96.5" cy="1542.3" r="7.5"/>
	<path fill="#6A6964" d="M93.1,1584.8c1.7,0,3.1-1.5,3.1-3.3s-1.4-3.3-3.1-3.3c-1.7,0-3.2,1.4-3.2,3.3S91.4,1584.8,93.1,1584.8z"/>
	<path fill="#6A6964" d="M44.4,1591.7h59.1c1.1,0,2-0.9,2-2v-17c0-1.1-0.9-2-2-2H44.4c-1.1,0-2,0.9-2,2v17
		C42.4,1590.8,43.3,1591.7,44.4,1591.7z M93.1,1575.8c3.5,0,6.1,2.4,6.1,5.7c0,3.3-2.6,5.7-6.1,5.7c-3.5,0-6.1-2.5-6.1-5.7
		C87.1,1578.2,89.7,1575.8,93.1,1575.8z M79.8,1575.8c1.7,0,3.4,0.6,4.6,1.7l-1.6,1.9c-0.8-0.8-2-1.2-3-1.2c-1.8,0-3.2,1.4-3.2,3.3
		c0,1.9,1.4,3.3,3.3,3.3c0.6,0,1.3-0.2,2-0.5v-2.9h2.5v4.4c-1.2,0.8-3.1,1.5-4.7,1.5c-3.4,0-6-2.5-6-5.7
		C73.6,1578.2,76.2,1575.8,79.8,1575.8z M65.4,1575.8c3.5,0,6.1,2.4,6.1,5.7c0,3.3-2.6,5.7-6.1,5.7c-3.5,0-6.1-2.5-6.1-5.7
		C59.3,1578.2,61.9,1575.8,65.4,1575.8z M49.5,1575.9h2.8v8.8h4.8v2.4h-7.6V1575.9z"/>
	<path fill="#6A6964" d="M65.4,1584.8c1.7,0,3.1-1.5,3.1-3.3s-1.4-3.3-3.1-3.3c-1.7,0-3.2,1.4-3.2,3.3S63.7,1584.8,65.4,1584.8z"/>
	<polygon fill="#FFFFFF" points="57.1,1584.7 52.3,1584.7 52.3,1575.9 49.5,1575.9 49.5,1587.1 57.1,1587.1 	"/>
	<path fill="#FFFFFF" d="M65.4,1587.2c3.5,0,6.1-2.5,6.1-5.7c0-3.2-2.6-5.7-6.1-5.7c-3.5,0-6.1,2.4-6.1,5.7
		C59.3,1584.8,61.9,1587.2,65.4,1587.2z M65.4,1578.2c1.7,0,3.1,1.4,3.1,3.3s-1.4,3.3-3.1,3.3c-1.7,0-3.2-1.5-3.2-3.3
		S63.7,1578.2,65.4,1578.2z"/>
	<path fill="#FFFFFF" d="M79.6,1587.2c1.6,0,3.5-0.6,4.7-1.5v-4.4h-2.5v2.9c-0.7,0.3-1.4,0.5-2,0.5c-1.9,0-3.3-1.4-3.3-3.3
		c0-1.9,1.4-3.3,3.2-3.3c1,0,2.2,0.5,3,1.2l1.6-1.9c-1.2-1-2.9-1.7-4.6-1.7c-3.5,0-6.2,2.4-6.2,5.7
		C73.6,1584.8,76.2,1587.2,79.6,1587.2z"/>
	<path fill="#FFFFFF" d="M93.1,1587.2c3.5,0,6.1-2.5,6.1-5.7c0-3.2-2.6-5.7-6.1-5.7c-3.5,0-6.1,2.4-6.1,5.7
		C87.1,1584.8,89.7,1587.2,93.1,1587.2z M93.1,1578.2c1.7,0,3.1,1.4,3.1,3.3s-1.4,3.3-3.1,3.3c-1.7,0-3.2-1.5-3.2-3.3
		S91.4,1578.2,93.1,1578.2z"/>
	<rect x="289.8" y="1577.9" fill="#6A6964" width="29" height="5"/>
	<rect x="407.8" y="1577.9" fill="#6A6964" width="29" height="5"/>
	<rect x="368.8" y="1577.9" fill="#6A6964" width="29" height="5"/>
	<rect x="329.9" y="1577.9" fill="#6A6964" width="29" height="5"/>
</g>
</svg>
