<?xml version="1.0" encoding="utf-8"?>
<!-- Generator: Adobe Illustrator 20.1.0, SVG Export Plug-In . SVG Version: 6.00 Build 0)  -->
<svg version="1.1" id="Ebene_1" xmlns:sketch="http://www.bohemiancoding.com/sketch/ns"
	 xmlns="http://www.w3.org/2000/svg" xmlns:xlink="http://www.w3.org/1999/xlink" x="0px" y="0px" viewBox="0 0 22 22"
	 enable-background="new 0 0 22 22" xml:space="preserve">
<title></title>
<desc></desc>
<g id="icons">
	<g id="photos-images-collection-album" transform="translate(-330.000000, -21.000000)">
		<path fill="#A5A5A4" d="M351,38.2V41h-20v-0.8l0,0l6-6l5,5l0.7-0.7l-2-2l4.3-4.3L351,38.2L351,38.2z M351,36.8V27h-20v11.8l6-6
			l3,3l5-5L351,36.8L351,36.8z M330,26h22v16h-22V26z M337,31c0.6,0,1-0.4,1-1s-0.4-1-1-1s-1,0.4-1,1S336.4,31,337,31z"/>
	</g>
</g>
</svg>
