<?xml version="1.0" encoding="utf-8"?>
<!-- Generator: Adobe Illustrator 20.1.0, SVG Export Plug-In . SVG Version: 6.00 Build 0)  -->
<svg version="1.1" id="Ebene_1" xmlns="http://www.w3.org/2000/svg" xmlns:xlink="http://www.w3.org/1999/xlink" x="0px" y="0px"
	 viewBox="0 0 841.9 595.3" style="enable-background:new 0 0 841.9 595.3;" xml:space="preserve">
<style type="text/css">
	.st0{fill:none;}
</style>
<g>
	<path class="st0" d="M417.4,308.4c0,1.3,1,2.1,2.6,2.1c2,0,3.6-1.1,3.8-2.5v-1.5h-3.7C418.3,306.5,417.4,307,417.4,308.4z"/>
	<path class="st0" d="M402.3,300.7c-2.4,0-4.1,1.9-4.1,4.5c0,2.7,1.7,4.6,4.1,4.6s4.1-1.9,4.1-4.6
		C406.4,302.6,404.7,300.7,402.3,300.7z"/>
	<path class="st0" d="M423.9,326.9h-1.1v1.7h1.1c0.6,0,1-0.3,1-0.9C424.9,327.2,424.6,326.9,423.9,326.9z"/>
	<path class="st0" d="M408,326.9h-0.9v1.7h0.9c0.6,0,1-0.3,1-0.9C409,327.2,408.7,326.9,408,326.9z"/>
	<path class="st0" d="M485.3,308.4c0,1.3,1,2.1,2.6,2.1c2,0,3.6-1.1,3.8-2.5v-1.5H488C486.2,306.5,485.3,307,485.3,308.4z"/>
	<path class="st0" d="M439.5,300.6c-2.3,0-3.9,1.8-3.9,4.3c0,2.5,1.6,4.3,3.9,4.3c2.3,0,3.9-1.8,3.9-4.3
		C443.3,302.3,441.8,300.6,439.5,300.6z"/>
	<path d="M494.9,325.9H457c-0.3,0-0.5,0.2-0.5,0.5c0,0.3,0.2,0.5,0.5,0.5h37.9c0.3,0,0.5-0.2,0.5-0.5
		C495.3,326.1,495.1,325.9,494.9,325.9z"/>
	<polygon points="415,328.9 417.5,328.9 417.5,328 415,328 415,326.9 417.7,326.9 417.7,325.9 413.9,325.9 413.9,331 417.8,331 
		417.8,330.1 415,330.1 	"/>
	<path d="M433.3,328.9c0,0.7-0.4,1.2-1.1,1.2c-0.7,0-1.2-0.4-1.2-1.2v-2.9h-1.1v2.9c0,1.3,0.9,2.2,2.3,2.2c1.4,0,2.3-0.8,2.3-2.2
		v-2.9h-1.1V328.9z"/>
	<path d="M408.1,325.9H406v5.1h1.1v-1.4h1c1.3,0,2-0.7,2-1.9C410.1,326.6,409.4,325.9,408.1,325.9z M408,328.6h-0.9v-1.7h0.9
		c0.6,0,1,0.3,1,0.8C409,328.3,408.7,328.6,408,328.6z"/>
	<path d="M426,327.7c0-1.1-0.8-1.8-2.1-1.8h-2.2v5.1h1.1v-1.4h1.1h0.1l0.8,1.4h1.3l-1.1-1.7C425.7,329,426,328.5,426,327.7z
		 M423.9,328.6h-1.1v-1.7h1.1c0.6,0,1,0.3,1,0.8C424.9,328.3,424.6,328.6,423.9,328.6z"/>
	<path d="M382.4,325.9h-37.9c-0.3,0-0.5,0.2-0.5,0.5c0,0.3,0.2,0.5,0.5,0.5h37.9c0.3,0,0.5-0.2,0.5-0.5
		C382.9,326.1,382.6,325.9,382.4,325.9z"/>
	<rect x="376.7" y="297.1" width="4.7" height="16.5"/>
	<path d="M379,289.7c-1.5,0-2.5,1.1-2.5,2.6c0,1.5,1,2.6,2.5,2.6s2.5-1.1,2.5-2.6C381.6,290.8,380.5,289.7,379,289.7z"/>
	<path d="M478.1,313.6v-10.4c0-3.9-2.4-6.3-6-6.3c-2.6,0-4.5,1-5.7,3.1v-2.9h-4.7v16.5h4.7v-8.1c0-2.4,1.4-4.2,3.8-4.2
		c2,0,3.3,1.3,3.3,3.4v9H478.1z"/>
	<path d="M489.4,296.9c-2.9,0-5,0.7-7.5,1.9l1.5,3.3c1.7-1,3.4-1.4,4.9-1.4c2.3,0,3.4,1,3.4,2.8v0.3h-4.5c-4,0-6.3,1.9-6.3,5
		c0,3,2.1,5.2,5.7,5.2c2.3,0,4.1-0.8,5.2-2.2v1.9h4.6l0-10.8C496.3,299.1,493.8,296.9,489.4,296.9z M491.7,308
		c-0.3,1.4-1.8,2.5-3.8,2.5c-1.6,0-2.6-0.8-2.6-2.1c0-1.3,0.9-1.9,2.7-1.9h3.7V308z"/>
	<path d="M372.6,313.6v-10.4c0-3.9-2.3-6.3-6-6.3c-2.8,0-4.9,1.3-6,3.8c-0.8-2.4-2.8-3.8-5.6-3.8c-2.5,0-4.4,1-5.6,3v-2.9h-4.7v16.5
		h4.7v-8.2c0-2.4,1.4-4.2,3.7-4.2c1.9,0,3.2,1.3,3.2,3.4v9h4.7v-8.2c0-2.4,1.4-4.2,3.7-4.2c2,0,3.2,1.3,3.2,3.4v9H372.6z"/>
	<path d="M454.7,295c1.5,0,2.5-1.1,2.5-2.6c0-1.5-1-2.6-2.5-2.6c-1.5,0-2.5,1.1-2.5,2.6C452.2,293.9,453.2,295,454.7,295z"/>
	<rect x="452.4" y="297.1" width="4.7" height="16.5"/>
	<path d="M403.4,296.9c-2.2,0-4,0.9-5.2,2.6v-2.4h-4.7v22.5h4.7v-8.4c1.2,1.7,3,2.6,5.3,2.6c4.6,0,7.7-3.3,7.7-8.4
		C411.2,300.3,408,296.9,403.4,296.9z M402.3,309.9c-2.4,0-4.1-1.8-4.1-4.6c0-2.7,1.7-4.5,4.1-4.5s4.1,1.9,4.1,4.5
		C406.4,308,404.7,309.9,402.3,309.9z"/>
	<path d="M421.5,296.9c-2.9,0-5,0.7-7.5,1.9l1.5,3.3c1.7-1,3.4-1.4,4.9-1.4c2.3,0,3.4,1,3.4,2.8v0.3h-4.5c-4,0-6.3,1.9-6.3,5
		c0,3,2.1,5.2,5.7,5.2c2.3,0,4.1-0.8,5.2-2.2v1.9h4.6l0-10.8C428.4,299.1,425.9,296.9,421.5,296.9z M423.8,308
		c-0.3,1.4-1.8,2.5-3.8,2.5c-1.6,0-2.6-0.8-2.6-2.1c0-1.3,0.9-1.9,2.7-1.9h3.7V308z"/>
	<path d="M443.3,299.3c-1.1-1.5-2.9-2.4-5.1-2.4c-4.2,0-7.1,3.2-7.1,7.8c0,4.8,2.9,8,7.2,8c2.2,0,3.9-0.9,5-2.4v1.9
		c0,2.2-1.7,3.7-4.4,3.7c-1.9,0-3.6-0.6-5.1-1.7l-1.7,3.3c1.9,1.3,4.4,2.2,7.2,2.2c5.3,0,8.8-3,8.8-7.7v-15h-4.7V299.3z
		 M439.5,309.2c-2.3,0-3.9-1.8-3.9-4.3c0-2.5,1.6-4.3,3.9-4.3c2.3,0,3.9,1.8,3.9,4.3C443.3,307.4,441.8,309.2,439.5,309.2z"/>
	<path d="M344.5,283.8h150.3c0.3,0,0.5-0.2,0.5-0.5c0-0.3-0.2-0.5-0.5-0.5H344.5c-0.3,0-0.5,0.2-0.5,0.5
		C344,283.6,344.2,283.8,344.5,283.8z"/>
</g>
</svg>
