<?xml version="1.0" encoding="utf-8"?>
<!-- Generator: Adobe Illustrator 20.1.0, SVG Export Plug-In . SVG Version: 6.00 Build 0)  -->
<svg version="1.1" id="Ebene_1" xmlns="http://www.w3.org/2000/svg" xmlns:xlink="http://www.w3.org/1999/xlink" x="0px" y="0px"
	 viewBox="0 0 312.8 595.3" enable-background="new 0 0 312.8 595.3" xml:space="preserve">
<path fill="none" stroke="#A5A5A4" stroke-miterlimit="10" d="M271.7,97.7v408.4H42V97.7H271.7 M272.3,97h-0.6H42h-0.6v0.6v408.4
	v0.6H42h229.6h0.6v-0.6V97.7V97L272.3,97z"/>
<path fill="none" stroke="#A5A5A4" stroke-miterlimit="10" d="M157.1,552.2c-10.6,0-19.2-8.6-19.2-19.2s8.6-19.2,19.2-19.2
	s19.2,8.6,19.2,19.2S167.6,552.2,157.1,552.2z M157.1,514.5c-10.2,0-18.5,8.3-18.5,18.5c0,10.2,8.3,18.5,18.5,18.5
	c10.2,0,18.5-8.3,18.5-18.5C175.6,522.8,167.3,514.5,157.1,514.5z"/>
<path fill="none" stroke="#A5A5A4" stroke-miterlimit="10" d="M257.3,565.8H56.8c-16.2,0-29.4-12.9-29.4-28.7V63.7
	c0-7.7,3.1-14.9,8.7-20.3c5.6-5.4,13-8.4,20.8-8.4h200.5c16,0,29,12.9,29,28.8v473.4c0,7.7-3,14.9-8.5,20.3
	C272.4,562.8,265.1,565.8,257.3,565.8z M56.8,35.5c-7.6,0-14.9,2.9-20.3,8.3C31,49.1,28,56.2,28,63.7v473.4
	c0,15.5,12.9,28.1,28.8,28.1h200.5c7.6,0,14.8-2.9,20.1-8.2c5.4-5.3,8.3-12.3,8.3-19.9V63.7c0-15.5-12.8-28.2-28.4-28.2H56.8z"/>
<path fill="none" stroke="#A5A5A4" stroke-miterlimit="10" d="M174.6,70.4h-35.8c-1,0-1.8-0.8-1.8-1.8c0-1,0.8-1.8,1.8-1.8h35.8
	c1,0,1.8,0.8,1.8,1.8C176.4,69.6,175.6,70.4,174.6,70.4z M138.8,67.3c-0.7,0-1.2,0.5-1.2,1.2c0,0.7,0.5,1.2,1.2,1.2h35.8
	c0.7,0,1.2-0.5,1.2-1.2c0-0.7-0.5-1.2-1.2-1.2H138.8z"/>
<path fill="none" stroke="#A5A5A4" stroke-miterlimit="10" d="M157,57.1c-2.3,0-4.2-1.9-4.2-4.2c0-2.3,1.9-4.2,4.2-4.2
	c2.3,0,4.2,1.9,4.2,4.2C161.2,55.2,159.3,57.1,157,57.1z M157,49.3c-2,0-3.6,1.6-3.6,3.6c0,2,1.6,3.6,3.6,3.6c2,0,3.6-1.6,3.6-3.6
	C160.6,50.9,158.9,49.3,157,49.3z"/>
<path fill="none" stroke="#A5A5A4" stroke-miterlimit="10" d="M115.6,73.6c-2.5,0-4.6-2.1-4.6-4.6c0-2.5,2.1-4.6,4.6-4.6
	c2.5,0,4.6,2.1,4.6,4.6C120.2,71.5,118.2,73.6,115.6,73.6z M115.6,65c-2.2,0-4,1.8-4,4c0,2.2,1.8,4,4,4c2.2,0,4-1.8,4-4
	C119.6,66.8,117.8,65,115.6,65z"/>
<path fill="none" stroke="#A5A5A4" stroke-miterlimit="10" d="M288.5,188h-2.7v-38h2.7c0.6,0,0.9,0.4,0.9,1.1v35.8
	C289.4,187.5,289.1,188,288.5,188z M286.4,187.4h2.1c0.3,0,0.3-0.3,0.3-0.5v-35.8c0-0.2-0.1-0.5-0.3-0.5h-2.1V187.4z"/>
<path fill="none" stroke="#A5A5A4" stroke-miterlimit="10" d="M257.6,561.8H56.4c-13.8,0-25.1-11.2-25.1-24.9V63.7
	c0-13.7,11.3-24.9,25.1-24.9h201.2c6.7,0,12.9,2.6,17.6,7.3c4.7,4.7,7.2,10.9,7.2,17.6v473.2c0,6.7-2.6,12.9-7.2,17.6
	C270.5,559.2,264.3,561.8,257.6,561.8z M56.4,39.5c-13.5,0-24.5,10.9-24.5,24.3v473.2c0,13.4,11,24.3,24.5,24.3h201.2
	c6.5,0,12.6-2.5,17.1-7.1c4.5-4.6,7-10.7,7-17.2V63.7c0-6.5-2.5-12.6-7-17.2c-4.6-4.6-10.6-7.1-17.1-7.1H56.4z"/>
<path fill="none" stroke="#A5A5A4" stroke-miterlimit="10" d="M28,120.3h-0.9c-0.6,0-1.2-0.5-1.2-1.1V103c0-0.6,0.7-1.1,1.2-1.1H28
	V120.3z M27.1,102.6c-0.3,0-0.6,0.2-0.6,0.5v16.2c0,0.2,0.3,0.5,0.6,0.5h0.3v-17.1H27.1z"/>
<path fill="none" stroke="#A5A5A4" stroke-miterlimit="10" d="M28,188h-1.5c-0.6,0-1.2-0.5-1.2-1.1v-35.8c0-0.6,0.7-1.1,1.2-1.1H28
	V188z M26.4,150.6c-0.3,0-0.6,0.2-0.6,0.5v35.8c0,0.2,0.3,0.5,0.6,0.5h0.9v-36.7H26.4z"/>
<path fill="none" stroke="#A5A5A4" stroke-miterlimit="10" d="M28,237h-1.5c-0.6,0-1.2-0.5-1.2-1.1v-35.8c0-0.6,0.7-1.1,1.2-1.1H28
	V237z M26.4,199.6c-0.3,0-0.6,0.2-0.6,0.5v35.8c0,0.2,0.3,0.5,0.6,0.5h0.9v-36.7H26.4z"/>
</svg>
