<?xml version="1.0" encoding="UTF-8" standalone="no"?>
<!-- Generator: Adobe Illustrator 20.1.0, SVG Export Plug-In . SVG Version: 6.00 Build 0)  -->

<svg
   xmlns:dc="http://purl.org/dc/elements/1.1/"
   xmlns:cc="http://creativecommons.org/ns#"
   xmlns:rdf="http://www.w3.org/1999/02/22-rdf-syntax-ns#"
   xmlns:svg="http://www.w3.org/2000/svg"
   xmlns="http://www.w3.org/2000/svg"
   xmlns:sodipodi="http://sodipodi.sourceforge.net/DTD/sodipodi-0.dtd"
   xmlns:inkscape="http://www.inkscape.org/namespaces/inkscape"
   version="1.1"
   id="Ebene_1"
   x="0px"
   y="0px"
   viewBox="0 0 91.433762 90.035995"
   xml:space="preserve"
   sodipodi:docname="1473712843_color-select.svg"
   width="91.433762"
   height="90.035995"
   inkscape:version="0.92.0 r15299"><metadata
     id="metadata3902"><rdf:RDF><cc:Work
         rdf:about=""><dc:format>image/svg+xml</dc:format><dc:type
           rdf:resource="http://purl.org/dc/dcmitype/StillImage" /><dc:title></dc:title></cc:Work></rdf:RDF></metadata><defs
     id="defs3900" /><sodipodi:namedview
     pagecolor="#ffffff"
     bordercolor="#666666"
     borderopacity="1"
     objecttolerance="10"
     gridtolerance="10"
     guidetolerance="10"
     inkscape:pageopacity="0"
     inkscape:pageshadow="2"
     inkscape:window-width="1366"
     inkscape:window-height="705"
     id="namedview3898"
     showgrid="false"
     fit-margin-top="0"
     fit-margin-left="0"
     fit-margin-right="0"
     fit-margin-bottom="0"
     inkscape:zoom="3.6875"
     inkscape:cx="33.414214"
     inkscape:cy="32.414212"
     inkscape:window-x="-8"
     inkscape:window-y="-8"
     inkscape:window-maximized="1"
     inkscape:current-layer="Ebene_1" /><style
     type="text/css"
     id="style3876">
	.st0{fill:#62BF76;}
	.st1{fill:#C5EFCC;}
	.st2{fill:#98E5AC;}
	.st3{fill:#FFFFFF;}
	.st4{fill:#F2EADB;}
	.st5{fill:#FFD140;}
	.st6{fill:#FFF9C0;}
	.st7{fill:#FFE094;}
	.st8{fill:none;stroke:#A5A5A4;stroke-width:2;}
</style><g
     id="Page-1"
     transform="matrix(1.4060574,0,0,1.4060574,0.09016026,0.27533212)"><g
       id="Group"
       transform="translate(-128,-384)" /><path
       id="Shape"
       class="st0"
       d="m 30.7,55.3 h -6.4 l -7.8,7.8 H 32 V 54 c -0.6,0.5 -1,1 -1.3,1.3 z"
       inkscape:connector-curvature="0"
       style="fill:#62bf76" /><path
       id="Shape_1_"
       class="st1"
       d="m 59.1,32 h -5.2 l -6.4,6.4 V 63 H 59.1 C 61.2,63 63,61.3 63,59.1 V 35.9 C 63,33.7 61.3,32 59.1,32 Z"
       inkscape:connector-curvature="0"
       style="fill:#c5efcc" /><path
       id="Shape_2_"
       class="st2"
       d="M 32,53.9 V 63 H 47.5 V 38.4 Z"
       inkscape:connector-curvature="0"
       style="fill:#98e5ac" /><path
       id="Shape_3_"
       class="st3"
       d="M 60.8,19.6 44.4,3.2 c -1.5,-1.5 -4,-1.5 -5.5,0 L 32,10.1 V 16.5 32 47.5 l -7.8,7.8 h 6.4 L 60.7,25.2 c 1.6,-1.6 1.6,-4.1 0.1,-5.6 z"
       inkscape:connector-curvature="0"
       style="fill:#ffffff" /><path
       id="Shape_4_"
       class="st4"
       d="m 32,10.1 v 37.4 l -7.8,7.8 h 5.5 l 5,-5 c 0.7,-0.7 1.1,-1.7 1.1,-2.7 V 6.3 c -1,1 -2.4,2.3 -3.8,3.8 z"
       inkscape:connector-curvature="0"
       style="fill:#f2eadb" /><rect
       id="Rectangle-path"
       x="1"
       y="32"
       class="st5"
       width="31"
       height="15.5"
       style="fill:#ffd140" /><path
       id="Shape_5_"
       class="st6"
       d="M 28.1,1 H 4.9 C 2.8,1 1,2.7 1,4.9 V 16.5 H 32 V 4.9 C 32,2.7 30.3,1 28.1,1 Z"
       inkscape:connector-curvature="0"
       style="fill:#fff9c0" /><rect
       id="Rectangle-path_1_"
       x="1"
       y="16.5"
       class="st7"
       width="31"
       height="15.5"
       style="fill:#ffe094" /><path
       id="Shape_6_"
       class="st3"
       d="M 16.5,63 32,47.5 H 1 Z"
       inkscape:connector-curvature="0"
       style="fill:#ffffff" /><path
       id="Shape_7_"
       class="st8"
       d="M 30.7,55.2 H 24.3 L 16.5,63 H 32 v -9.1 c -0.6,0.6 -1,1.1 -1.3,1.3 z"
       inkscape:connector-curvature="0"
       style="fill:none;stroke:#a5a5a4;stroke-width:2" /><path
       id="Shape_8_"
       class="st8"
       d="m 59.1,32 h -5.2 l -6.4,6.4 V 63 H 59.1 C 61.2,63 63,61.3 63,59.1 V 35.9 C 63,33.7 61.3,32 59.1,32 Z"
       inkscape:connector-curvature="0"
       style="fill:none;stroke:#a5a5a4;stroke-width:2" /><path
       id="Shape_9_"
       class="st8"
       d="M 32,53.9 V 63 H 47.5 V 38.4 Z"
       inkscape:connector-curvature="0"
       style="fill:none;stroke:#a5a5a4;stroke-width:2" /><path
       id="Shape_10_"
       class="st8"
       d="M 60.8,19.6 44.4,3.2 c -1.5,-1.5 -4,-1.5 -5.5,0 L 32,10.1 V 16.5 32 47.5 l -7.8,7.8 h 6.4 L 60.7,25.2 c 1.6,-1.6 1.6,-4.1 0.1,-5.6 z"
       inkscape:connector-curvature="0"
       style="fill:none;stroke:#a5a5a4;stroke-width:2" /><rect
       id="Rectangle-path_2_"
       x="1"
       y="32"
       class="st8"
       width="31"
       height="15.5"
       style="fill:none;stroke:#a5a5a4;stroke-width:2" /><path
       id="Shape_11_"
       class="st8"
       d="M 28.1,1 H 4.9 C 2.8,1 1,2.7 1,4.9 V 16.5 H 32 V 4.9 C 32,2.7 30.3,1 28.1,1 Z"
       inkscape:connector-curvature="0"
       style="fill:none;stroke:#a5a5a4;stroke-width:2" /><rect
       id="Rectangle-path_3_"
       x="1"
       y="16.5"
       class="st8"
       width="31"
       height="15.5"
       style="fill:none;stroke:#a5a5a4;stroke-width:2" /><path
       id="Shape_12_"
       class="st8"
       d="M 16.5,63 32,47.5 H 1 Z"
       inkscape:connector-curvature="0"
       style="fill:none;stroke:#a5a5a4;stroke-width:2" /></g></svg>