<?xml version="1.0" encoding="UTF-8" standalone="no"?>
<!-- Generator: Adobe Illustrator 20.1.0, SVG Export Plug-In . SVG Version: 6.00 Build 0)  -->

<svg
   xmlns:dc="http://purl.org/dc/elements/1.1/"
   xmlns:cc="http://creativecommons.org/ns#"
   xmlns:rdf="http://www.w3.org/1999/02/22-rdf-syntax-ns#"
   xmlns:svg="http://www.w3.org/2000/svg"
   xmlns="http://www.w3.org/2000/svg"
   xmlns:sodipodi="http://sodipodi.sourceforge.net/DTD/sodipodi-0.dtd"
   xmlns:inkscape="http://www.inkscape.org/namespaces/inkscape"
   version="1.1"
   id="Ebene_1"
   x="0px"
   y="0px"
   viewBox="0 0 104.38956 90.036003"
   xml:space="preserve"
   sodipodi:docname="coment.svg"
   width="104.38956"
   height="90.036003"
   inkscape:version="0.92.0 r15299"><metadata
     id="metadata4085"><rdf:RDF><cc:Work
         rdf:about=""><dc:format>image/svg+xml</dc:format><dc:type
           rdf:resource="http://purl.org/dc/dcmitype/StillImage" /><dc:title></dc:title></cc:Work></rdf:RDF></metadata><defs
     id="defs4083" /><sodipodi:namedview
     pagecolor="#ffffff"
     bordercolor="#666666"
     borderopacity="1"
     objecttolerance="10"
     gridtolerance="10"
     guidetolerance="10"
     inkscape:pageopacity="0"
     inkscape:pageshadow="2"
     inkscape:window-width="1366"
     inkscape:window-height="705"
     id="namedview4081"
     showgrid="false"
     fit-margin-top="0"
     fit-margin-left="0"
     fit-margin-right="0"
     fit-margin-bottom="0"
     inkscape:zoom="3.4766083"
     inkscape:cx="23.099973"
     inkscape:cy="45.80678"
     inkscape:window-x="-8"
     inkscape:window-y="-8"
     inkscape:window-maximized="1"
     inkscape:current-layer="Ebene_1" /><style
     type="text/css"
     id="style4059">
	.st0{fill:#A5A5A4;}
</style><g
     id="Expanded"
     transform="matrix(2.1747826,0,0,2.1747826,0,-8.6991304)"><g
       id="g4077"><g
         id="g4063"><path
           class="st0"
           d="M 6,45.4 V 36 H 3 C 1.3,36 0,34.7 0,33 V 7 C 0,5.3 1.3,4 3,4 h 42 c 1.7,0 3,1.3 3,3 v 26 c 0,1.7 -1.3,3 -3,3 H 15.4 Z M 3,6 C 2.4,6 2,6.4 2,7 v 26 c 0,0.6 0.4,1 1,1 h 5 v 6.6 L 14.6,34 H 45 c 0.6,0 1,-0.4 1,-1 V 7 C 46,6.4 45.6,6 45,6 Z"
           id="path4061"
           inkscape:connector-curvature="0"
           style="fill:#a5a5a4" /></g><g
         id="g4067"><circle
           class="st0"
           cx="16"
           cy="20"
           r="2"
           id="circle4065"
           style="fill:#a5a5a4" /></g><g
         id="g4071"><circle
           class="st0"
           cx="32"
           cy="20"
           r="2"
           id="circle4069"
           style="fill:#a5a5a4" /></g><g
         id="g4075"><circle
           class="st0"
           cx="24"
           cy="20"
           r="2"
           id="circle4073"
           style="fill:#a5a5a4" /></g></g></g></svg>