<?xml version="1.0" encoding="UTF-8" standalone="no"?>
<!-- Generator: Adobe Illustrator 20.1.0, SVG Export Plug-In . SVG Version: 6.00 Build 0)  -->

<svg
   xmlns:dc="http://purl.org/dc/elements/1.1/"
   xmlns:cc="http://creativecommons.org/ns#"
   xmlns:rdf="http://www.w3.org/1999/02/22-rdf-syntax-ns#"
   xmlns:svg="http://www.w3.org/2000/svg"
   xmlns="http://www.w3.org/2000/svg"
   xmlns:sodipodi="http://sodipodi.sourceforge.net/DTD/sodipodi-0.dtd"
   xmlns:inkscape="http://www.inkscape.org/namespaces/inkscape"
   version="1.1"
   id="Layer_1"
   x="0px"
   y="0px"
   viewBox="0 0 90.036003 90.036003"
   xml:space="preserve"
   sodipodi:docname="lenguage.svg"
   width="90.036003"
   height="90.036003"
   inkscape:version="0.92.0 r15299"><metadata
     id="metadata4057"><rdf:RDF><cc:Work
         rdf:about=""><dc:format>image/svg+xml</dc:format><dc:type
           rdf:resource="http://purl.org/dc/dcmitype/StillImage" /><dc:title></dc:title></cc:Work></rdf:RDF></metadata><defs
     id="defs4055" /><sodipodi:namedview
     pagecolor="#ffffff"
     bordercolor="#666666"
     borderopacity="1"
     objecttolerance="10"
     gridtolerance="10"
     guidetolerance="10"
     inkscape:pageopacity="0"
     inkscape:pageshadow="2"
     inkscape:window-width="1366"
     inkscape:window-height="705"
     id="namedview4053"
     showgrid="false"
     fit-margin-top="0"
     fit-margin-left="0"
     fit-margin-right="0"
     fit-margin-bottom="0"
     inkscape:zoom="2.4583333"
     inkscape:cx="12"
     inkscape:cy="12"
     inkscape:window-x="-8"
     inkscape:window-y="-8"
     inkscape:window-maximized="1"
     inkscape:current-layer="Layer_1" /><style
     type="text/css"
     id="style4012">
	.st0{fill:#A5A5A4;}
</style><g
     id="g4050"
     transform="scale(3.7515)"><g
       id="g4016"><path
         class="st0"
         d="M 17,20 H 2.5 C 1.1,20 0,18.9 0,17.5 V 2.5 C 0,1.1 1.1,0 2.5,0 h 8 c 0.2,0 0.4,0.1 0.5,0.3 l 6.5,19 c 0.1,0.2 0,0.3 -0.1,0.5 C 17.3,19.9 17.2,20 17,20 Z M 2.5,1 C 1.7,1 1,1.7 1,2.5 v 15 C 1,18.3 1.7,19 2.5,19 H 16.3 L 10.1,1 Z"
         id="path4014"
         inkscape:connector-curvature="0"
         style="fill:#a5a5a4" /></g><g
       id="g4020"><path
         class="st0"
         d="m 21.5,24 h -8 C 13.3,24 13.1,23.9 13,23.7 l -1.5,-4 c -0.1,-0.3 0,-0.5 0.3,-0.6 0.3,-0.1 0.5,0 0.6,0.3 l 1.4,3.7 h 7.7 c 0.8,0 1.5,-0.7 1.5,-1.5 V 6.6 C 23,5.7 22.3,5 21.5,5 H 12 C 11.7,5 11.5,4.8 11.5,4.5 11.5,4.2 11.7,4 12,4 h 9.5 C 22.9,4 24,5.1 24,6.5 v 15 c 0,1.4 -1.1,2.5 -2.5,2.5 z"
         id="path4018"
         inkscape:connector-curvature="0"
         style="fill:#a5a5a4" /></g><g
       id="g4024"><path
         class="st0"
         d="m 13.5,24 c -0.1,0 -0.2,0 -0.3,-0.1 -0.2,-0.2 -0.2,-0.5 0,-0.7 l 3.5,-4 c 0.2,-0.2 0.5,-0.2 0.7,0 0.2,0.2 0.2,0.5 0,0.7 l -3.5,4 c -0.1,0 -0.3,0.1 -0.4,0.1 z"
         id="path4022"
         inkscape:connector-curvature="0"
         style="fill:#a5a5a4" /></g><g
       id="g4028"><path
         class="st0"
         d="M 9.5,14 C 9.3,14 9.1,13.9 9,13.7 L 7,8 5,13.7 C 4.9,14 4.6,14.1 4.4,14 4.1,13.9 4,13.6 4.1,13.4 l 2.5,-7 C 6.7,6 7.4,6 7.5,6.4 l 2.5,7 c 0.1,0.3 0,0.5 -0.3,0.6 -0.1,0 -0.1,0 -0.2,0 z"
         id="path4026"
         inkscape:connector-curvature="0"
         style="fill:#a5a5a4" /></g><g
       id="g4032"><path
         class="st0"
         d="M 8,11 H 6 C 5.7,11 5.5,10.8 5.5,10.5 5.5,10.2 5.7,10 6,10 h 2 c 0.3,0 0.5,0.2 0.5,0.5 C 8.5,10.8 8.3,11 8,11 Z"
         id="path4030"
         inkscape:connector-curvature="0"
         style="fill:#a5a5a4" /></g><g
       id="g4036"><path
         class="st0"
         d="m 21.5,11 h -7 C 14.2,11 14,10.8 14,10.5 14,10.2 14.2,10 14.5,10 h 7 c 0.3,0 0.5,0.2 0.5,0.5 0,0.3 -0.2,0.5 -0.5,0.5 z"
         id="path4034"
         inkscape:connector-curvature="0"
         style="fill:#a5a5a4" /></g><g
       id="g4040"><path
         class="st0"
         d="M 17.5,11 C 17.2,11 17,10.8 17,10.5 v -1 C 17,9.2 17.2,9 17.5,9 17.8,9 18,9.2 18,9.5 v 1 c 0,0.3 -0.2,0.5 -0.5,0.5 z"
         id="path4038"
         inkscape:connector-curvature="0"
         style="fill:#a5a5a4" /></g><g
       id="g4044"><path
         class="st0"
         d="m 16,17 c -0.2,0 -0.3,-0.1 -0.4,-0.2 -0.2,-0.2 -0.1,-0.5 0.1,-0.7 2.2,-1.6 3.8,-4.7 3.8,-5.6 0,-0.3 0.2,-0.5 0.5,-0.5 0.3,0 0.5,0.2 0.5,0.5 0,1.3 -1.9,4.8 -4.2,6.4 C 16.2,17 16.1,17 16,17 Z"
         id="path4042"
         inkscape:connector-curvature="0"
         style="fill:#a5a5a4" /></g><g
       id="g4048"><path
         class="st0"
         d="m 20,18 c -0.1,0 -0.2,0 -0.3,-0.1 -0.4,-0.3 -3.6,-3.3 -4.1,-4.7 -0.1,-0.3 0,-0.5 0.3,-0.7 0.3,-0.1 0.5,0 0.7,0.3 0.4,1 2.9,3.5 3.9,4.3 0.2,0.2 0.2,0.5 0,0.7 C 20.3,17.9 20.1,18 20,18 Z"
         id="path4046"
         inkscape:connector-curvature="0"
         style="fill:#a5a5a4" /></g></g></svg>