<?xml version="1.0" encoding="UTF-8" standalone="no"?>
<!-- Generator: Adobe Illustrator 20.1.0, SVG Export Plug-In . SVG Version: 6.00 Build 0)  -->

<svg
   xmlns:dc="http://purl.org/dc/elements/1.1/"
   xmlns:cc="http://creativecommons.org/ns#"
   xmlns:rdf="http://www.w3.org/1999/02/22-rdf-syntax-ns#"
   xmlns:svg="http://www.w3.org/2000/svg"
   xmlns="http://www.w3.org/2000/svg"
   xmlns:sodipodi="http://sodipodi.sourceforge.net/DTD/sodipodi-0.dtd"
   xmlns:inkscape="http://www.inkscape.org/namespaces/inkscape"
   version="1.1"
   id="Layer_1"
   x="0px"
   y="0px"
   viewBox="0 0 90.036003 90.036003"
   xml:space="preserve"
   sodipodi:docname="noanclado.svg"
   width="90.036003"
   height="90.036003"
   inkscape:version="0.92.0 r15299"><metadata
     id="metadata4116"><rdf:RDF><cc:Work
         rdf:about=""><dc:format>image/svg+xml</dc:format><dc:type
           rdf:resource="http://purl.org/dc/dcmitype/StillImage" /><dc:title></dc:title></cc:Work></rdf:RDF></metadata><defs
     id="defs4114" /><sodipodi:namedview
     pagecolor="#ffffff"
     bordercolor="#666666"
     borderopacity="1"
     objecttolerance="10"
     gridtolerance="10"
     guidetolerance="10"
     inkscape:pageopacity="0"
     inkscape:pageshadow="2"
     inkscape:window-width="1366"
     inkscape:window-height="705"
     id="namedview4112"
     showgrid="false"
     fit-margin-top="0"
     fit-margin-left="0"
     fit-margin-right="0"
     fit-margin-bottom="0"
     inkscape:zoom="1.1238095"
     inkscape:cx="103"
     inkscape:cy="103"
     inkscape:window-x="-8"
     inkscape:window-y="-8"
     inkscape:window-maximized="1"
     inkscape:current-layer="Layer_1" /><style
     type="text/css"
     id="style4101">
	.st0{fill:#A5A5A4;}
</style><g
     id="g4109"
     transform="matrix(0.43706796,0,0,0.43706796,-0.87413592,-0.87413592)"><path
       class="st0"
       d="M 2,105 C 2,48.2 48.2,2 105,2 161.8,2 208,48.2 208,105 208,161.8 161.8,208 105,208 48.2,208 2,161.8 2,105 Z m 9.8,0 c 0,51.4 41.8,93.2 93.2,93.2 51.4,0 93.2,-41.8 93.2,-93.2 0,-51.4 -41.8,-93.2 -93.2,-93.2 -51.4,0 -93.2,41.8 -93.2,93.2 z"
       id="path4103"
       inkscape:connector-curvature="0"
       style="fill:#a5a5a4" /><path
       class="st0"
       d="m 126.3,124.2 c -3,3 -8.6,6.7 -13.6,7.7 -10.5,2.1 -19.5,-0.5 -26.8,-7.8 -2.4,-2.4 -4.3,-5 -5.6,-7.7 l 13,-13 c -0.2,3.8 1,6.7 3.9,9.5 3.6,3.5 7.2,4.6 12.5,3.5 1,-0.2 3.9,-1.8 5.5,-3.4 l 31.6,-31.6 c 1.6,-1.6 3.2,-4.5 3.4,-5.5 1.1,-5.3 0.1,-9 -3.5,-12.5 -3.5,-3.6 -7.2,-4.6 -12.5,-3.5 -1,0.2 -3.9,1.8 -5.5,3.4 l -13,12.9 C 110,73.9 103.6,73.4 96.8,74.8 95.9,75 95,75.2 94.2,75.5 l 23.4,-23.4 c 3,-3 8.6,-6.7 13.6,-7.8 10.5,-2.1 19.5,0.6 26.8,7.8 7.3,7.3 9.9,16.3 7.8,26.8 -1,5 -4.7,10.6 -7.7,13.6 z"
       id="path4105"
       inkscape:connector-curvature="0"
       style="fill:#a5a5a4" /><path
       class="st0"
       d="m 44.4,131 c 1,-5 4.7,-10.6 7.7,-13.6 L 83.7,85.8 c 3,-3 8.6,-6.7 13.6,-7.7 10.5,-2.1 19.5,0.5 26.8,7.8 2.4,2.4 4.3,5 5.6,7.7 l -13,13 c 0.2,-3.8 -1,-6.7 -3.9,-9.5 -3.5,-3.5 -7.2,-4.5 -12.5,-3.5 -1,0.2 -3.9,1.8 -5.5,3.4 l -31.6,31.6 c -1.6,1.6 -3.2,4.5 -3.4,5.5 -1.1,5.4 -0.1,9 3.5,12.5 3.5,3.6 7.2,4.6 12.5,3.5 1,-0.2 3.9,-1.8 5.5,-3.4 l 13,-13 c 5.7,2.3 12.1,2.8 19,1.5 0.9,-0.2 1.8,-0.4 2.6,-0.7 l -23.4,23.4 c -3,3 -8.6,6.8 -13.6,7.8 -10.5,2.1 -19.5,-0.6 -26.8,-7.8 -7.2,-7.4 -9.8,-16.4 -7.7,-26.9 z"
       id="path4107"
       inkscape:connector-curvature="0"
       style="fill:#a5a5a4" /></g></svg>