<?xml version="1.0" encoding="UTF-8" standalone="no"?>
<!-- Generator: Adobe Illustrator 20.1.0, SVG Export Plug-In . SVG Version: 6.00 Build 0)  -->

<svg
   xmlns:dc="http://purl.org/dc/elements/1.1/"
   xmlns:cc="http://creativecommons.org/ns#"
   xmlns:rdf="http://www.w3.org/1999/02/22-rdf-syntax-ns#"
   xmlns:svg="http://www.w3.org/2000/svg"
   xmlns="http://www.w3.org/2000/svg"
   xmlns:sodipodi="http://sodipodi.sourceforge.net/DTD/sodipodi-0.dtd"
   xmlns:inkscape="http://www.inkscape.org/namespaces/inkscape"
   version="1.1"
   id="Ebene_1"
   x="0px"
   y="0px"
   viewBox="0 0 99.039597 90.036003"
   xml:space="preserve"
   sodipodi:docname="slider.svg"
   width="99.039597"
   height="90.036003"
   inkscape:version="0.92.0 r15299"><metadata
     id="metadata3995"><rdf:RDF><cc:Work
         rdf:about=""><dc:format>image/svg+xml</dc:format><dc:type
           rdf:resource="http://purl.org/dc/dcmitype/StillImage" /><dc:title></dc:title></cc:Work></rdf:RDF></metadata><defs
     id="defs3993" /><sodipodi:namedview
     pagecolor="#ffffff"
     bordercolor="#666666"
     borderopacity="1"
     objecttolerance="10"
     gridtolerance="10"
     guidetolerance="10"
     inkscape:pageopacity="0"
     inkscape:pageshadow="2"
     inkscape:window-width="1366"
     inkscape:window-height="705"
     id="namedview3991"
     showgrid="false"
     fit-margin-top="0"
     fit-margin-left="0"
     fit-margin-right="0"
     fit-margin-bottom="0"
     inkscape:zoom="2.6818182"
     inkscape:cx="11"
     inkscape:cy="10"
     inkscape:window-x="-8"
     inkscape:window-y="-8"
     inkscape:window-maximized="1"
     inkscape:current-layer="Ebene_1" /><style
     type="text/css"
     id="style3980">
	.st0{fill:#A5A5A4;}
</style><desc
     id="desc3984" /><g
     id="icons"
     transform="matrix(4.5018,0,0,4.5018,0,-4.5018)"><g
       id="photos-images-collection-album"
       transform="translate(-330,-21)"><path
         class="st0"
         d="M 351,38.2 V 41 h -20 v -0.8 0 l 6,-6 5,5 0.7,-0.7 -2,-2 4.3,-4.3 z m 0,-1.4 V 27 h -20 v 11.8 l 6,-6 3,3 5,-5 z M 330,26 h 22 v 16 h -22 z m 7,5 c 0.6,0 1,-0.4 1,-1 0,-0.6 -0.4,-1 -1,-1 -0.6,0 -1,0.4 -1,1 0,0.6 0.4,1 1,1 z m -5,-7 h 18 v 1 h -18 z m 2,-2 h 14 v 1 h -14 z"
         id="path3986"
         inkscape:connector-curvature="0"
         style="fill:#a5a5a4" /></g></g></svg>